<?xml version="1.0" encoding="UTF-8"?>
<svg width="230px" height="199px" viewBox="0 0 230 199" version="1.1" xmlns="http://www.w3.org/2000/svg" xmlns:xlink="http://www.w3.org/1999/xlink">
    <!-- Generator: sketchtool 51.2 (57519) - http://www.bohemiancoding.com/sketch -->
    <title>563932A7-B3A1-4EE2-9E51-2324ABEC67B8</title>
    <desc>Created with sketchtool.</desc>
    <defs>
        <linearGradient x1="0%" y1="1.55572612%" x2="100%" y2="1.55572612%" id="linearGradient-1">
            <stop stop-color="#1EBF9D" offset="0%"></stop>
            <stop stop-color="#1073B9" offset="100%"></stop>
        </linearGradient>
    </defs>
    <g id="Page-1" stroke="none" stroke-width="1" fill="none" fill-rule="evenodd">
        <g id="medservicebel_about_04_hover" transform="translate(-510.000000, -1556.000000)" fill="url(#linearGradient-1)" fill-rule="nonzero">
            <g id="Статистика" transform="translate(38.000000, 1552.000000)">
                <g id="7-лет">
                    <path d="M508.695382,161.922117 L508.695382,201.496185 L497.044797,201.496185 L497.044797,187.012077 L491.179876,187.012077 L484.205376,201.496185 L472,201.496185 L480.559614,185.745706 C475.249483,183.925299 472.55479,180.126189 472.55479,174.744115 C472.55479,166.275265 478.340455,161.922117 490.466575,161.922117 L508.695382,161.922117 Z M483.809097,175.060708 C483.809097,178.859818 486.50379,180.759374 491.179876,180.759374 L497.044797,180.759374 L497.044797,169.678635 L491.65541,169.678635 C486.186768,169.678635 483.809097,171.182449 483.809097,175.060708 Z M522.802895,172.527968 L517.017229,167.541635 C517.017229,167.541635 519.94969,160.497451 532.789111,160.497451 C542.854583,160.497451 548.798759,165.008895 548.798759,171.815634 C548.798759,176.089634 546.341833,178.78067 543.409373,180.521929 C546.341833,181.550855 550.463129,184.716781 550.463129,189.940558 C550.463129,198.488556 543.567884,203 531.758787,203 C517.968298,203 515.035837,195.560075 515.035837,195.560075 L520.583735,190.098854 C520.583735,190.098854 523.753963,194.610298 530.96623,194.610298 C536.593384,194.610298 538.733287,192.710742 538.733287,189.465669 C538.733287,186.616336 536.434873,185.112521 531.996554,185.112521 L525.180565,185.112521 L525.180565,177.435152 L532.313577,177.435152 C533.977946,177.435152 537.465196,176.643671 537.465196,173.002856 C537.465196,170.153524 535.246037,168.808005 530.649207,168.808005 C524.942798,168.808005 522.802895,172.527968 522.802895,172.527968 Z M612.995865,161.922117 L612.995865,201.496185 L601.424535,201.496185 L601.424535,161.922117 L612.995865,161.922117 Z M569.960028,161.922117 L569.960028,175.139856 L575.587181,175.139856 C587.792557,175.139856 595.004824,178.464078 595.004824,187.72441 C595.004824,197.222186 588.585114,201.496185 575.587181,201.496185 L558.309442,201.496185 L558.309442,161.922117 L569.960028,161.922117 Z M575.349414,182.579781 L569.960028,182.579781 L569.960028,193.264779 L575.42867,193.264779 C580.580289,193.264779 583.116471,191.919261 583.116471,187.72441 C583.116471,183.687855 579.787733,182.579781 575.349414,182.579781 Z M623.299104,201.496185 L623.299104,161.922117 L634.94969,161.922117 L634.94969,177.276856 L638.99173,174.427523 L647.551344,161.922117 L660.945555,161.922117 L647.6306,179.413855 L662.13439,201.496185 L648.185389,201.496185 L637.644383,184.716781 L634.94969,185.745706 L634.94969,201.496185 L623.299104,201.496185 Z M692.330806,201.496185 L690.666437,196.589001 C689.87388,198.488556 687.337698,203 679.174363,203 C670.059959,203 664.591316,198.33026 664.591316,191.52352 C664.591316,180.363633 680.838732,176.960263 690.42867,176.327078 L690.42867,176.168782 C690.42867,171.103301 687.575465,169.362042 682.740868,169.362042 C676.717436,169.362042 674.022743,173.161153 674.022743,173.161153 L667.444521,167.779079 C667.444521,167.779079 671.011027,160.497451 683.929704,160.497451 C695.501034,160.497451 702,164.929747 702,175.931337 L702,201.496185 L692.330806,201.496185 Z M682.661613,194.689446 C689.31909,194.689446 690.42867,189.465669 690.42867,189.465669 L690.42867,183.212966 C682.186079,183.925299 676.004135,185.508262 676.004135,189.703113 C676.004135,193.027335 678.461061,194.689446 682.661613,194.689446 Z M576.185201,4 L576.185201,22.1321185 L539.655535,59.4756481 C563.648393,61.6342336 583.750517,76.3126153 583.750517,101.352207 C583.750517,133.299273 557.163837,148.409372 524.092601,148.409372 C481.078379,148.409372 472,119.700184 472,119.700184 L487.779087,104.374227 C487.779087,104.374227 499.667439,122.290487 523.011841,122.290487 C542.897813,122.290487 551.327736,114.303721 551.327736,100.704632 C551.327736,89.0482699 542.681662,81.277362 525.605664,81.277362 C520.201867,81.277362 516.743437,83.2200889 516.094982,83.6518061 L501.180502,67.8941317 L535.116346,30.3347435 L483.888353,30.3347435 L483.888353,4 L576.185201,4 Z" id="языка"></path>
                </g>
            </g>
        </g>
    </g>
</svg>