<?xml version="1.0" encoding="UTF-8"?>
<svg width="134px" height="199px" viewBox="0 0 134 199" version="1.1" xmlns="http://www.w3.org/2000/svg" xmlns:xlink="http://www.w3.org/1999/xlink">
    <!-- Generator: sketchtool 51.2 (57519) - http://www.bohemiancoding.com/sketch -->
    <title>158B1F98-EDBD-47D7-83CD-BD9EBB3E4CBC</title>
    <desc>Created with sketchtool.</desc>
    <defs>
        <linearGradient x1="0%" y1="1.55572612%" x2="100%" y2="1.55572612%" id="linearGradient-1">
            <stop stop-color="#1EBF9D" offset="0%"></stop>
            <stop stop-color="#1073B9" offset="100%"></stop>
        </linearGradient>
    </defs>
    <g id="Page-1" stroke="none" stroke-width="1" fill="none" fill-rule="evenodd">
        <g id="medservicebel_about_04_hover" transform="translate(-38.000000, -1556.000000)" fill="url(#linearGradient-1)" fill-rule="nonzero">
            <g id="Статистика" transform="translate(38.000000, 1552.000000)">
                <g id="7-лет">
                    <path d="M51.4402142,161.922117 L51.4402142,201.496185 L39.7587149,201.496185 L39.7587149,171.261597 L29.7347256,171.261597 C29.7347256,190.652891 26.7354217,202.920852 14.9749933,202.920852 C13.9489157,202.920852 12.843909,202.762556 11.6599732,202.604259 L11.6599732,193.502224 C12.0546185,193.581372 12.4492637,193.581372 12.843909,193.581372 C18.1321553,193.581372 19.7107363,185.349966 19.7107363,161.922117 L51.4402142,161.922117 Z M90.8258099,190.098854 L97.376921,194.214557 C97.376921,194.214557 93.1936814,203 80.0125301,203 C67.3838822,203 59.0174029,196.589001 59.0174029,182.421485 C59.0174029,168.412265 67.147095,160.497451 79.3810977,160.497451 C91.1415261,160.497451 97.4558501,167.858228 97.4558501,179.334707 C97.4558501,183.529559 96.4297724,185.666558 96.4297724,185.666558 L69.8306827,185.666558 C69.9885408,191.206928 73.7771352,194.372853 80.6439625,194.372853 C87.2740027,194.372853 90.8258099,190.098854 90.8258099,190.098854 Z M79.3810977,168.808005 C73.1457028,168.808005 70.1463989,172.607116 69.8306827,178.147485 L88.0632932,178.147485 L88.0632932,177.593448 C88.0632932,172.607116 85.3797055,168.808005 79.3810977,168.808005 Z M134,171.261597 L123.107791,171.261597 L123.107791,201.496185 L111.505221,201.496185 L111.505221,171.261597 L100.613012,171.261597 L100.613012,161.922117 L134,161.922117 L134,171.261597 Z M105.477912,4 L105.477912,26.8810066 C85.2433735,58.1804968 65.6546185,103.294934 56.6136546,144.308059 L20.2345382,144.308059 C30.5670683,101.352207 49.2947791,64.8721119 74.9108434,31.8457533 L0,31.8457533 L0,4 L105.477912,4 Z" id="лет"></path>
                </g>
            </g>
        </g>
    </g>
</svg>