<?xml version="1.0" encoding="UTF-8"?>
<svg width="365px" height="221px" viewBox="0 0 365 221" version="1.1" xmlns="http://www.w3.org/2000/svg" xmlns:xlink="http://www.w3.org/1999/xlink">
    <!-- Generator: sketchtool 51.2 (57519) - http://www.bohemiancoding.com/sketch -->
    <title>1D91EE50-D57E-41EB-93AC-A1582BBD607A</title>
    <desc>Created with sketchtool.</desc>
    <defs>
        <linearGradient x1="0%" y1="1.55572612%" x2="100%" y2="1.55572612%" id="linearGradient-1">
            <stop stop-color="#1EBF9D" offset="0%"></stop>
            <stop stop-color="#1073B9" offset="100%"></stop>
        </linearGradient>
    </defs>
    <g id="Page-1" stroke="none" stroke-width="1" fill="none" fill-rule="evenodd">
        <g id="medservicebel_about_04_hover" transform="translate(-947.000000, -1552.000000)" fill="url(#linearGradient-1)" fill-rule="nonzero">
            <g id="Статистика" transform="translate(38.000000, 1552.000000)">
                <g id="7-лет">
                    <path d="M1014.95379,3.68020636 L1014.95379,26.6273754 C994.627962,58.0173709 974.950829,103.262261 965.869076,144.393979 L929.325829,144.393979 C939.704976,101.313916 958.51718,64.7283354 984.248815,31.6064782 L909,31.6064782 L909,3.68020636 L1014.95379,3.68020636 Z M1121.98874,3.68020636 L1121.98874,30.0910991 L1070.52547,30.0910991 L1067.28199,57.15144 C1069.87678,56.7184745 1072.47156,56.5019918 1075.49882,56.5019918 C1108.79858,56.5019918 1131.28673,71.0063345 1131.28673,100.01502 C1131.28673,133.569843 1106.20379,148.507151 1073.33649,148.507151 C1030.09005,148.507151 1021.22453,121.230327 1021.22453,121.230327 L1036.79325,104.344674 C1036.79325,104.344674 1050.41588,122.312741 1072.25533,122.312741 C1090.41884,122.312741 1098.8519,113.003984 1098.8519,99.3655717 C1098.8519,87.6755045 1089.55391,78.3667472 1072.47156,78.3667472 C1061.44372,78.3667472 1055.82168,81.3975054 1054.09182,83.3458499 L1053.87559,83.5623327 L1037.44194,81.3975054 L1045.65877,3.68020636 L1121.98874,3.68020636 Z M1212.15758,0 C1256.26896,0 1274,29.6581336 1274,74.4700581 C1274,119.281983 1256.26896,148.507151 1212.15758,148.507151 C1168.04621,148.507151 1150.31517,119.281983 1150.31517,74.4700581 C1150.31517,29.6581336 1168.04621,0 1212.15758,0 Z M1212.15758,25.1119963 C1191.61552,25.1119963 1184.47986,40.6987527 1184.47986,74.4700581 C1184.47986,108.241364 1191.61552,123.178672 1212.15758,123.178672 C1232.69964,123.178672 1239.83531,108.241364 1239.83531,74.4700581 C1239.83531,40.6987527 1232.69964,25.1119963 1212.15758,25.1119963 Z M947.402844,161.46725 C960.564179,161.46725 964.687006,165.832985 964.687006,171.627506 C964.687006,177.580781 959.771327,180.120845 955.96564,181.152746 L955.96564,181.3115 C959.216331,181.3115 966.669135,182.89904 966.669135,189.804839 C966.669135,197.1869 961.35703,201.15575 947.323558,201.15575 L929.722255,201.15575 L929.722255,161.46725 L947.402844,161.46725 Z M947.719984,184.089695 L940.742891,184.089695 L940.742891,192.979919 L947.323558,192.979919 C953.5078,192.979919 954.934933,191.392379 954.934933,188.296676 C954.934933,185.597858 953.111374,184.089695 947.719984,184.089695 Z M940.742891,178.057043 L948.909261,178.057043 C949.543543,177.977666 953.269945,177.34265 953.269945,173.770685 C953.269945,171.151244 951.922097,169.643081 946.927133,169.643081 L940.742891,169.643081 L940.742891,178.057043 Z M974.518365,221 L974.518365,161.46725 L984.825434,161.46725 L985.935427,165.991739 C986.886848,164.324822 990.216825,160.038464 998.383195,160.038464 C1009.48312,160.038464 1016.30164,168.452426 1016.30164,180.51773 C1016.30164,193.456181 1009.32455,202.663913 997.748914,202.663913 C989.265403,202.663913 986.411137,197.821916 986.411137,197.821916 L986.093997,197.821916 L986.093997,221 L974.518365,221 Z M994.260367,169.166819 C987.83827,169.166819 986.252567,174.246947 986.093997,174.802586 L986.093997,189.407954 C986.411137,190.122347 988.155411,193.614935 993.784656,193.614935 C1001.31675,193.614935 1004.32958,189.407954 1004.32958,180.755861 C1004.32958,172.183145 1001.23746,169.166819 994.260367,169.166819 Z M1048.80855,201.15575 L1047.14356,196.234376 C1046.35071,198.139424 1043.81359,202.663913 1035.64722,202.663913 C1026.52942,202.663913 1021.05875,197.98067 1021.05875,191.154248 C1021.05875,179.962091 1037.3122,176.54888 1046.90571,175.913864 L1046.90571,175.75511 C1046.90571,170.674982 1044.05144,168.928688 1039.21505,168.928688 C1033.18938,168.928688 1030.49368,172.738784 1030.49368,172.738784 L1023.91301,167.341148 C1023.91301,167.341148 1027.48085,160.038464 1040.40432,160.038464 C1051.97996,160.038464 1058.48134,164.483576 1058.48134,175.516979 L1058.48134,201.15575 L1048.80855,201.15575 Z M1039.13576,194.329328 C1045.79571,194.329328 1046.90571,189.090446 1046.90571,189.090446 L1046.90571,182.819663 C1038.66005,183.534056 1032.47581,185.121596 1032.47581,189.328577 C1032.47581,192.662411 1034.93365,194.329328 1039.13576,194.329328 Z M1091.22611,179.247698 L1091.22611,161.46725 L1102.88102,161.46725 L1102.88102,201.15575 L1091.22611,201.15575 L1091.22611,186.153497 L1091.14682,186.153497 C1091.14682,186.153497 1088.13398,188.45543 1080.28476,188.45543 C1072.35624,188.45543 1066.48914,185.359727 1066.48914,177.183896 L1066.48914,161.46725 L1078.38191,161.46725 L1078.38191,175.516979 C1078.38191,178.453928 1080.44333,180.676484 1084.3283,180.676484 C1088.6097,180.676484 1091.22611,179.247698 1091.22611,179.247698 Z M1142.44431,189.725462 L1149.02498,193.853066 C1149.02498,193.853066 1144.82287,202.663913 1131.58225,202.663913 C1118.89662,202.663913 1110.4924,196.234376 1110.4924,182.025893 C1110.4924,167.976164 1118.65877,160.038464 1130.94797,160.038464 C1142.76145,160.038464 1149.10427,167.420525 1149.10427,178.93019 C1149.10427,183.137171 1148.07356,185.28035 1148.07356,185.28035 L1121.35446,185.28035 C1121.51303,190.83674 1125.31872,194.01182 1132.21653,194.01182 C1138.87648,194.01182 1142.44431,189.725462 1142.44431,189.725462 Z M1130.94797,168.373049 C1124.68444,168.373049 1121.6716,172.183145 1121.35446,177.739535 L1139.66933,177.739535 L1139.66933,177.183896 C1139.66933,172.183145 1136.97364,168.373049 1130.94797,168.373049 Z M1156.55707,201.15575 L1156.55707,161.46725 L1168.21199,161.46725 L1168.21199,184.962842 L1184.94115,164.801084 L1185.89258,161.46725 L1196.19964,161.46725 L1196.19964,201.15575 L1184.46544,201.15575 L1184.46544,178.850813 L1167.57771,198.853817 L1166.78485,201.15575 L1156.55707,201.15575 Z M1177.25049,149.322569 C1183.43474,149.322569 1185.09972,144.321818 1185.09972,144.321818 L1185.65472,144.480572 L1192.63181,145.909358 C1192.63181,145.909358 1191.28397,155.91086 1177.25049,155.91086 C1163.37559,155.91086 1161.94846,145.909358 1161.94846,145.909358 L1169.00484,144.480572 L1169.48055,144.321818 C1169.48055,144.321818 1171.14554,149.322569 1177.25049,149.322569 Z" id="750"></path>
                </g>
            </g>
        </g>
    </g>
</svg>