<?xml version="1.0" encoding="UTF-8"?>
<svg width="62px" height="72px" viewBox="0 0 62 72" version="1.1" xmlns="http://www.w3.org/2000/svg" xmlns:xlink="http://www.w3.org/1999/xlink">
    <!-- Generator: sketchtool 51.2 (57519) - http://www.bohemiancoding.com/sketch -->
    <title>AA72D381-1E3F-4AF5-BADB-1C0C76607F26</title>
    <desc>Created with sketchtool.</desc>
    <defs>
        <linearGradient x1="0%" y1="1.55572612%" x2="100%" y2="1.55572612%" id="linearGradient-1">
            <stop stop-color="#1EBF9D" offset="0%"></stop>
            <stop stop-color="#1073B9" offset="100%"></stop>
        </linearGradient>
    </defs>
    <g id="Page-1" stroke="none" stroke-width="1" fill="none" fill-rule="evenodd">
        <g id="medservicebel_stranica_yslygi_05_hover" transform="translate(-643.000000, -3802.000000)">
            <g id="Group-9" transform="translate(275.000000, 3786.000000)">
                <g id="Group-8" transform="translate(347.000000, 0.000000)">
                    <g id="apple" transform="translate(21.000000, 16.000000)">
                        <path d="M56.0412595,24.1478676 C53.2581288,21.3567339 50.0849449,20 46.339826,20 C42.8813899,20 39.5567273,21.1777253 36.6237274,22.2167998 C34.5069599,22.9665549 32.5066183,23.6752349 31.0000578,23.7222291 C29.4934974,23.6752349 27.4927981,22.9665549 25.3760306,22.2167998 C22.4426731,21.1777253 19.1176527,20 15.6595744,20 C11.9144555,20 8.74091385,21.3567339 5.95778313,24.1478676 C-2.8465817,32.9784759 0.203738156,42.8033169 2.02649026,48.6731101 L2.12038203,48.9774963 C3.7941592,54.3780648 10.0777537,72 20.6682082,72 C26.3122656,72 28.2144233,71.0172469 29.6033061,70.2990604 C30.1954501,69.9928805 30.4751582,69.8479518 31.0047077,69.8251721 C31.6233203,69.8502835 31.968842,70.0188888 32.6394975,70.3467721 C34.0664734,71.04469 36.0210317,72 41.3317287,72 C51.9221831,72 58.2057776,54.3782441 59.8791971,48.9774963 L59.9732677,48.674545 C61.7960199,42.8043931 64.8472339,32.9791934 56.0412595,24.1478676 Z M33.9219757,21 L33.9223372,21 C36.847425,21 41.5389513,19.7205567 45.1367099,16.1156264 C49.8464898,11.3967511 51.2449655,3.56907835 48.8510382,1.17062004 C48.0758945,0.394009157 46.8268811,0 45.1386979,0 C42.2217429,0 37.5369035,1.28125404 33.9333616,4.89143537 C31.7169096,7.11280685 30.0979453,10.0115626 29.3750321,13.0548126 C28.6620589,16.0569596 28.9776105,18.5923071 30.2197562,19.8368038 C30.9898396,20.6083448 32.2354191,20.9996379 33.9219757,21 Z" id="Path" fill="url(#linearGradient-1)" opacity="0.200000003"></path>
                        <path d="M46.9952396,32.4298853 C46.2254894,31.7797269 45.0770572,31.8780087 44.4284343,32.6503801 C43.7803578,33.4222035 43.8785347,34.5741841 44.6482848,35.2247078 C49.4698789,39.2979256 49.6196031,46.4938766 45.0204097,53.130644 C44.4462846,53.9590981 44.6504706,55.0975604 45.476504,55.6731853 C45.792892,55.8940456 46.1557274,56 46.5140091,56 C47.09032,56 47.6577056,55.7263452 48.0119801,55.2157544 C50.7784177,51.2238293 52.1523471,46.9416255 51.986594,42.8320544 C51.8204766,38.7027539 50.0476469,35.00878 46.9952396,32.4298853 Z" id="Shape" fill="#000000" fill-rule="nonzero"></path>
                        <path d="M56.0412595,24.1478676 C53.2581288,21.3567339 50.0849449,20 46.339826,20 C42.8813899,20 39.5567273,21.1777253 36.6237274,22.2167998 C34.5069599,22.9665549 32.5066183,23.6752349 31.0000578,23.7222291 C29.4934974,23.6752349 27.4927981,22.9665549 25.3760306,22.2167998 C22.4426731,21.1777253 19.1176527,20 15.6595744,20 C11.9144555,20 8.74091385,21.3567339 5.95778313,24.1478676 C-2.8465817,32.9784759 0.203738156,42.8033169 2.02649026,48.6731101 L2.12038203,48.9774963 C3.7941592,54.3780648 10.0777537,72 20.6682082,72 C26.3122656,72 28.2144233,71.0172469 29.6033061,70.2990604 C30.1954501,69.9928805 30.4751582,69.8479518 31.0047077,69.8251721 C31.6233203,69.8502835 31.968842,70.0188888 32.6394975,70.3467721 C34.0664734,71.04469 36.0210317,72 41.3317287,72 C51.9221831,72 58.2057776,54.3782441 59.8791971,48.9774963 L59.9732677,48.674545 C61.7960199,42.8043931 64.8472339,32.9791934 56.0412595,24.1478676 Z M56.5579325,47.607848 L56.4635042,47.912593 C55.7411636,50.243291 53.7163206,56.205817 50.521318,61.217876 C48.4294095,64.500476 45.1365806,68.412655 41.3311922,68.412655 C36.8462062,68.412655 35.3823889,67.6975178 34.2059698,67.1222871 C33.3553998,66.7068725 32.4758575,66.2763911 31.0515642,66.2374684 L31.0016674,66.2360335 L30.9521283,66.2374684 C29.5766587,66.2767499 28.720187,66.7196076 27.9642241,67.1100901 C26.8416363,67.6905225 25.444348,68.412655 20.6680293,68.412655 C16.8631774,68.412655 13.5701697,64.5002966 11.4782612,61.2176966 C8.28290088,56.205817 6.25823677,50.243291 5.53625382,47.912593 L5.441289,47.6067718 C3.7566025,42.1812713 1.21097323,33.9823944 8.48713782,26.6848379 C10.594069,24.5713537 12.8728668,23.5871656 15.6593955,23.5871656 C18.5044054,23.5871656 21.3921584,24.610097 24.18441,25.5994867 C26.5976966,26.4539923 28.8768521,27.2611449 30.9580301,27.3097534 L30.999879,27.3108296 L31.0413702,27.3097534 C33.1229059,27.2611449 35.4020614,26.4539923 37.8146326,25.5994867 C40.6068843,24.610097 43.4946372,23.5871656 46.3396471,23.5871656 C49.125997,23.5871656 51.4047948,24.5711743 53.5119048,26.6848379 C60.7889636,33.9825738 58.2429767,42.1819888 56.5579325,47.607848 Z" id="Shape" fill="#000000" fill-rule="nonzero"></path>
                        <path d="M33.9219757,21 L33.9223372,21 C36.847425,21 41.5389513,19.7205567 45.1367099,16.1156264 C49.8464898,11.3967511 51.2449655,3.56907835 48.8510382,1.17062004 C48.0758945,0.394009157 46.8268811,0 45.1386979,0 C42.2217429,0 37.5369035,1.28125404 33.9333616,4.89143537 C31.7169096,7.11280685 30.0979453,10.0115626 29.3750321,13.0548126 C28.6620589,16.0569596 28.9776105,18.5923071 30.2197562,19.8368038 C30.9898396,20.6083448 32.2354191,20.9996379 33.9219757,21 Z M32.9653808,13.5972995 C33.3156322,12.2696914 34.2400576,9.7060969 36.4895829,7.45213275 C39.1302043,4.80615122 42.7364571,3.62140769 45.1385172,3.62140769 C45.7184743,3.62140769 46.127824,3.62176983 46.2624666,3.75358907 C47.2111095,4.68374764 46.1318,9.99689594 42.5808501,13.5551101 C39.9447469,16.1962027 36.3327107,17.3784112 33.9221565,17.3784112 C33.3103911,17.3784112 32.9004993,17.3590367 32.7718207,17.2384438 C32.44904,16.9360563 32.451028,15.5448925 32.9653808,13.5972995 Z" id="Shape" fill="#000000" fill-rule="nonzero"></path>
                    </g>
                </g>
            </g>
        </g>
    </g>
</svg>