<?xml version="1.0" encoding="UTF-8"?>
<svg width="17px" height="17px" viewBox="0 0 17 17" version="1.1" xmlns="http://www.w3.org/2000/svg" xmlns:xlink="http://www.w3.org/1999/xlink">
    <!-- Generator: sketchtool 51.2 (57519) - http://www.bohemiancoding.com/sketch -->
    <title>AC01BEA2-4340-457F-9B5C-F1D05256D6C0</title>
    <desc>Created with sketchtool.</desc>
    <defs></defs>
    <g id="Page-1" stroke="none" stroke-width="1" fill="none" fill-rule="evenodd">
        <g id="medservicebel_stranica_yslygi_05" transform="translate(-1358.000000, -408.000000)" fill="#FFFFFF" fill-rule="nonzero">
            <g id="Header_with_text">
                <g id="Group-10" transform="translate(303.000000, 251.000000)">
                    <g id="Group-12">
                        <g id="Бесплатная-консультация-Copy" transform="translate(1039.000000, 144.000000)">
                            <g id="black-shop-tag" transform="translate(16.000000, 13.000000)">
                                <path d="M10.8732775,16.586033 C10.317157,17.137989 9.41931998,17.137989 8.86605824,16.586033 L1.04679844,9.26973024 C0.609613959,8.86063809 0.088529418,8.08543234 0.050967187,7.48870697 C-0.0495533318,5.87435824 0.0213162933,2.78315235 0.0705128435,1.1442634 C0.0881970088,0.546941107 0.591597385,0.0461879059 1.19073159,0.032458646 C3.28942983,-0.0162238506 7.73600018,-0.0682225936 8.14931769,0.344517429 L16.7600436,8.11640608 C17.3129065,8.66836212 16.8113676,10.0644355 16.2541834,10.6192435 L10.8732775,16.586033 Z M4.02132823,2.40655942 C3.55236544,1.93976458 2.79407375,1.93976458 2.32471207,2.40655942 C1.85681299,2.8748134 1.85681299,3.63091757 2.32471207,4.09771241 C2.79440616,4.5649052 3.55269785,4.5649052 4.02132823,4.09771241 C4.48962621,3.63091757 4.48962621,2.87441545 4.02132823,2.40655942 Z" id="Shape"></path>
                            </g>
                        </g>
                    </g>
                </g>
            </g>
        </g>
    </g>
</svg>