<?xml version="1.0" encoding="UTF-8"?>
<svg width="16px" height="13px" viewBox="0 0 16 13" version="1.1" xmlns="http://www.w3.org/2000/svg" xmlns:xlink="http://www.w3.org/1999/xlink">
    <!-- Generator: sketchtool 51.2 (57519) - http://www.bohemiancoding.com/sketch -->
    <title>C59C0C09-3D4E-44AE-9113-7F3E6089C3B8</title>
    <desc>Created with sketchtool.</desc>
    <defs></defs>
    <g id="Page-1" stroke="none" stroke-width="1" fill="none" fill-rule="evenodd">
        <g id="medservicebel_index_15_hover" transform="translate(-354.000000, -130.000000)" fill="#022835">
            <g id="Выбор-валюты" transform="translate(337.000000, 44.000000)">
                <g id="руб-copy-3" transform="translate(17.000000, 86.000000)">
                    <path d="M0.402832031,13 L0.402832031,0.9140625 L4.35400391,0.9140625 C4.97379867,0.9140625 5.52717855,0.976317737 6.01416016,1.10083008 C6.50114176,1.22534242 6.91479322,1.41902538 7.25512695,1.68188477 C7.59546069,1.94474415 7.85554923,2.27815553 8.03540039,2.68212891 C8.21525155,3.08610228 8.30517578,3.57030968 8.30517578,4.13476562 C8.30517578,4.69922157 8.14469562,5.19864692 7.82373047,5.63305664 C7.50276532,6.06746636 7.06559521,6.40364464 6.51220703,6.64160156 C6.84977382,6.73567755 7.14998241,6.87402252 7.4128418,7.05664062 C7.67570118,7.23925873 7.89705314,7.45507688 8.0769043,7.70410156 C8.25675546,7.95312625 8.39371698,8.23258309 8.48779297,8.54248047 C8.58186896,8.85237785 8.62890625,9.17610508 8.62890625,9.51367188 C8.62890625,10.0781278 8.53344822,10.5775532 8.3425293,11.0119629 C8.15161037,11.4463726 7.88183768,11.8116033 7.53320312,12.107666 C7.18456857,12.4037287 6.76399986,12.6264641 6.27148438,12.7758789 C5.77896889,12.9252937 5.23112281,13 4.62792969,13 L0.402832031,13 Z M1.99658203,7.34716797 L1.99658203,11.6967773 L4.62792969,11.6967773 C5.00976753,11.6967773 5.34871271,11.6455897 5.64477539,11.5432129 C5.94083807,11.4408361 6.19124247,11.2969573 6.39599609,11.1115723 C6.60074972,10.9261872 6.75707954,10.6993015 6.86499023,10.4309082 C6.97290093,10.1625149 7.02685547,9.86230635 7.02685547,9.53027344 C7.02685547,9.19824053 6.98258508,8.89664849 6.89404297,8.62548828 C6.80550086,8.35432807 6.66577244,8.12467542 6.47485352,7.93652344 C6.28393459,7.74837146 6.04183089,7.60310924 5.74853516,7.50073242 C5.45523942,7.39835561 5.10661009,7.34716797 4.70263672,7.34716797 L1.99658203,7.34716797 Z M1.99658203,6.06884766 L4.40380859,6.06884766 C4.74690927,6.06884766 5.0595689,6.02457727 5.34179688,5.93603516 C5.62402485,5.84749305 5.86612855,5.72021567 6.06811523,5.55419922 C6.27010192,5.38818276 6.42643174,5.18481566 6.53710938,4.9440918 C6.64778701,4.70336794 6.703125,4.43082834 6.703125,4.12646484 C6.703125,3.46239902 6.50944204,2.97957508 6.12207031,2.67797852 C5.73469858,2.37638196 5.14534901,2.22558594 4.35400391,2.22558594 L1.99658203,2.22558594 L1.99658203,6.06884766 Z M15.0869141,5.39648438 C14.9541009,5.37434885 14.8309739,5.3591309 14.7175293,5.35083008 C14.6040847,5.34252926 14.4754239,5.33837891 14.331543,5.33837891 C13.8002903,5.33837891 13.3672706,5.45458868 13.0324707,5.68701172 C12.6976709,5.91943476 12.4472665,6.23209439 12.28125,6.625 L12.28125,13 L10.7456055,13 L10.7456055,4.01855469 L12.2397461,4.01855469 L12.2646484,5.05615234 C12.4970715,4.68538226 12.7875959,4.39209092 13.1362305,4.17626953 C13.484865,3.96044814 13.9082006,3.85253906 14.40625,3.85253906 C14.5169276,3.85253906 14.644205,3.86499011 14.7880859,3.88989258 C14.9319669,3.91479505 15.0315752,3.94108059 15.0869141,3.96875 L15.0869141,5.39648438 Z" id="Br"></path>
                </g>
            </g>
        </g>
    </g>
</svg>