<?xml version="1.0" encoding="UTF-8"?>
<svg width="23px" height="22px" viewBox="0 0 23 22" version="1.1" xmlns="http://www.w3.org/2000/svg" xmlns:xlink="http://www.w3.org/1999/xlink">
    <!-- Generator: sketchtool 51.2 (57519) - http://www.bohemiancoding.com/sketch -->
    <title>6988ADEC-6994-46B2-A5CC-7D4B3615358F</title>
    <desc>Created with sketchtool.</desc>
    <defs></defs>
    <g id="Page-1" stroke="none" stroke-width="1" fill="none" fill-rule="evenodd">
        <g id="medservicebel_text_05_hover" transform="translate(-694.000000, -9367.000000)" fill="#056493" fill-rule="nonzero">
            <g id="4-й-экран" transform="translate(51.000000, 1234.000000)">
                <g id="Обратная-связь" transform="translate(226.000000, 7376.000000)">
                    <g id="Поле-для-ввода-+-*-Copy" transform="translate(32.000000, 722.000000)">
                        <g id="text/svg/calendar_form" transform="translate(385.000000, 35.000000)">
                            <path d="M16.5312784,2 L16.5312784,0.733364238 C16.5312784,0.293396266 16.243798,1.2153889e-12 15.8124948,1.2153889e-12 C15.3811917,1.2153889e-12 15.0937113,0.293311981 15.0937113,0.733364238 L15.0937113,2 L7.90628872,2 L7.90628872,0.733364238 C7.90628872,0.293396266 7.61880834,1.2153889e-12 7.18750516,1.2153889e-12 C6.75628459,1.2153889e-12 6.4687216,0.293311981 6.4687216,0.733364238 L6.4687216,2 L3.59375258,2 C1.5812247,2 2.84217094e-14,3.08002866 2.84217094e-14,5.13338109 L2.84217094e-14,18.3333474 C2.84217094e-14,20.3866998 1.5812247,22 3.59375258,22 L19.4062474,22 C21.4187753,22 23,20.3866998 23,18.3333474 L23,5.13338109 C23,3.08002866 21.4187753,2 19.4062474,2 L16.5312784,2 Z M1,5 C1,3.93333844 2.05000862,3 3.25000616,3 L6.2499569,3 L6.2499569,3.66669221 C6.2499569,4.06666156 6.54993473,4.33338441 6.99998769,4.33338441 C7.44995444,4.33338441 7.75001847,4.06673818 7.75001847,3.66669221 L7.75001847,3 L15.2499815,3 L15.2499815,3.66669221 C15.2499815,4.06666156 15.5499594,4.33338441 16.0000123,4.33338441 C16.4500653,4.33338441 16.7500431,4.06673818 16.7500431,3.66669221 L16.7500431,3 L19.7499938,3 C20.9499914,3 22,3.93333844 22,5 L22,7 L1,7 L1,5 Z M21.9545455,18.7499892 C21.9545455,19.9499892 20.909078,21 19.7142704,21 L3.28572961,21 C2.09092197,21 1.04545455,19.9499892 1.04545455,18.7499892 L1.04545455,9 L21.9545455,9 L21.9545455,18.7499892 Z" id="Shape"></path>
                            <path d="M5.11407634,18.3234809 C5.55239695,18.3234809 5.84469466,18.177374 6.1369084,17.8851603 C6.42912214,17.5929466 6.57522901,17.154542 6.57522901,16.8623282 C6.57522901,16.5701145 6.42912214,16.1317099 6.1369084,15.8394962 C5.55248092,15.2550687 4.67575573,15.2550687 4.09124427,15.8394962 C3.79903053,16.1317099 3.65292366,16.4239237 3.65292366,16.8623282 C3.65292366,17.154542 3.79903053,17.5929466 4.09124427,17.8851603 C4.38345802,18.177374 4.67575573,18.3234809 5.11407634,18.3234809 Z" id="Shape"></path>
                            <path d="M5.11407634,13.9399389 C5.55239695,13.9399389 5.84469466,13.7938321 6.1369084,13.5016183 C6.42912214,13.2094046 6.57522901,12.771 6.57522901,12.4787863 C6.57522901,12.1865725 6.42912214,11.7481679 6.1369084,11.4559542 C5.55248092,10.8715267 4.67575573,10.8715267 4.09124427,11.4559542 C3.79903053,11.7481679 3.65292366,12.0403817 3.65292366,12.4787863 C3.65292366,12.9171908 3.79903053,13.2094046 4.09124427,13.5016183 C4.38345802,13.7938321 4.67575573,13.9399389 5.11407634,13.9399389 Z" id="Shape"></path>
                            <path d="M9.49761832,18.3234809 C9.93593893,18.3234809 10.2282366,18.177374 10.5204504,17.8851603 C10.8126641,17.5929466 10.958771,17.154542 10.958771,16.8623282 C10.958771,16.5701145 10.8126641,16.1317099 10.5204504,15.8394962 C9.9360229,15.2550687 9.05929771,15.2550687 8.47478626,15.8394962 C8.18257252,16.1317099 8.03646565,16.5701145 8.03646565,16.8623282 C8.03646565,17.154542 8.18257252,17.5929466 8.47478626,17.8851603 C8.767,18.177374 9.05929771,18.3234809 9.49761832,18.3234809 Z" id="Shape"></path>
                            <path d="M9.49761832,13.9399389 C9.93593893,13.9399389 10.2282366,13.7938321 10.5204504,13.5016183 C10.8126641,13.2094046 10.958771,12.771 10.958771,12.4787863 C10.958771,12.1865725 10.8126641,11.7481679 10.5204504,11.4559542 C9.9360229,10.8715267 9.05929771,10.8715267 8.47478626,11.4559542 C8.18257252,11.7481679 8.03646565,12.1865725 8.03646565,12.4787863 C8.03646565,12.771 8.18257252,13.2094046 8.47478626,13.5016183 C8.767,13.7938321 9.05929771,13.9399389 9.49761832,13.9399389 Z" id="Shape"></path>
                            <path d="M13.8810763,18.3234809 C14.3193969,18.3234809 14.6116947,18.177374 14.9039084,17.8851603 C15.1961221,17.5929466 15.342229,17.3007328 15.342229,16.8623282 C15.342229,16.4239237 15.1961221,16.1317099 14.9039084,15.8394962 C14.3194809,15.2550687 13.4427557,15.2550687 12.8582443,15.8394962 C12.5660305,16.1317099 12.4199237,16.5701145 12.4199237,16.8623282 C12.4199237,17.154542 12.5660305,17.5929466 12.8582443,17.8851603 C13.150458,18.177374 13.4427557,18.3234809 13.8810763,18.3234809 Z" id="Shape"></path>
                            <path d="M13.8810763,13.9399389 C14.3193969,13.9399389 14.6116947,13.7938321 14.9039084,13.5016183 C15.1961221,13.2094046 15.342229,12.9171908 15.342229,12.4787863 C15.342229,12.1865725 15.1961221,11.7481679 14.9039084,11.4559542 C14.3194809,10.8715267 13.4427557,10.8715267 12.8582443,11.4559542 C12.5660305,11.7481679 12.4199237,12.1865725 12.4199237,12.4787863 C12.4199237,12.771 12.5660305,13.2094046 12.8582443,13.5016183 C13.150458,13.7938321 13.4427557,13.9399389 13.8810763,13.9399389 Z" id="Shape"></path>
                            <path d="M18.2646183,18.3234809 C18.7029389,18.3234809 18.9952366,18.177374 19.2874504,17.8851603 C19.5796641,17.5929466 19.725771,17.154542 19.725771,16.8623282 C19.725771,16.5701145 19.5796641,16.1317099 19.2874504,15.8394962 C18.7030229,15.2550687 17.8262977,15.2550687 17.2417863,15.8394962 C16.9495725,16.1317099 16.8034656,16.4239237 16.8034656,16.8623282 C16.8034656,17.154542 16.9495725,17.5929466 17.2417863,17.8851603 C17.534,18.177374 17.8262977,18.3234809 18.2646183,18.3234809 Z" id="Shape"></path>
                            <path d="M18.2646183,13.9399389 C18.7029389,13.9399389 18.9952366,13.7938321 19.2874504,13.5016183 C19.5796641,13.2094046 19.725771,12.9171908 19.725771,12.4787863 C19.725771,12.1865725 19.5796641,11.7481679 19.2874504,11.4559542 C18.7030229,10.8715267 17.8262977,10.8715267 17.2417863,11.4559542 C16.9495725,11.7481679 16.8034656,12.1865725 16.8034656,12.4787863 C16.8034656,12.771 16.9495725,13.2094046 17.2417863,13.5016183 C17.534,13.7938321 17.8262977,13.9399389 18.2646183,13.9399389 Z" id="Shape"></path>
                        </g>
                    </g>
                </g>
            </g>
        </g>
    </g>
</svg>