<?xml version="1.0" encoding="UTF-8"?>
<svg width="14px" height="12px" viewBox="0 0 14 12" version="1.1" xmlns="http://www.w3.org/2000/svg" xmlns:xlink="http://www.w3.org/1999/xlink">
    <!-- Generator: sketchtool 51.2 (57519) - http://www.bohemiancoding.com/sketch -->
    <title>C499CD2F-4BAE-4DC1-8F01-5941F5B0EBAB</title>
    <desc>Created with sketchtool.</desc>
    <defs>
        <linearGradient x1="0%" y1="1.55572612%" x2="100%" y2="1.55572612%" id="linearGradient-1">
            <stop stop-color="#1EBF9D" offset="0%"></stop>
            <stop stop-color="#1073B9" offset="100%"></stop>
        </linearGradient>
    </defs>
    <g id="Page-1" stroke="none" stroke-width="1" fill="none" fill-rule="evenodd">
        <g id="medservicebel_index_15_hover" transform="translate(-738.000000, -6303.000000)" fill="url(#linearGradient-1)" fill-rule="nonzero">
            <g id="8-й-экран" transform="translate(0.000000, 5998.000000)">
                <g id="Group-9" transform="translate(48.000000, 189.000000)">
                    <g id="врач">
                        <path d="M701.049107,117 L702,117 C703.104569,117 704,117.895431 704,119 L704,126 C704,127.104569 703.104569,128 702,128 L692,128 C690.895431,128 690,127.104569 690,126 L690,119 C690,117.895431 690.895431,117 692,117 L693.013393,117 L693.013393,116 L695.022321,116 L695.022321,117 L699.040179,117 L699.040179,116 L701.049107,116 L701.049107,117 Z M701.049107,118 L701.049107,119 L699.040179,119 L699.040179,118 L695.022321,118 L695.022321,119 L693.013393,119 L693.013393,118 L692.004464,118 C691.45218,118 691.004464,118.447715 691.004464,119 L691.004464,126 C691.004464,126.552285 691.45218,127 692.004464,127 L701.995536,127 C702.54782,127 702.995536,126.552285 702.995536,126 L702.995536,119 C702.995536,118.447715 702.54782,118 701.995536,118 L701.049107,118 Z M693.013393,120 L694.520089,120 L694.520089,121.5 L693.013393,121.5 L693.013393,120 Z M693.013393,124 L694.520089,124 L694.520089,125.5 L693.013393,125.5 L693.013393,124 Z M696.026786,120 L697.533482,120 L697.533482,121.5 L696.026786,121.5 L696.026786,120 Z M696.026786,124 L697.533482,124 L697.533482,125.5 L696.026786,125.5 L696.026786,124 Z M699.040179,120 L700.546875,120 L700.546875,121.5 L699.040179,121.5 L699.040179,120 Z M699.040179,124 L700.546875,124 L700.546875,125.5 L699.040179,125.5 L699.040179,124 Z" id="index/svg/Calendar_icon"></path>
                    </g>
                </g>
            </g>
        </g>
    </g>
</svg>