<?xml version="1.0" encoding="UTF-8"?>
<svg width="62px" height="58px" viewBox="0 0 62 58" version="1.1" xmlns="http://www.w3.org/2000/svg" xmlns:xlink="http://www.w3.org/1999/xlink">
    <!-- Generator: sketchtool 51.2 (57519) - http://www.bohemiancoding.com/sketch -->
    <title>D873BA3C-69E8-4572-9343-2A128DE671DA</title>
    <desc>Created with sketchtool.</desc>
    <defs>
        <linearGradient x1="0%" y1="1.55572612%" x2="100%" y2="1.55572612%" id="linearGradient-1">
            <stop stop-color="#1EBF9D" offset="0%"></stop>
            <stop stop-color="#1073B9" offset="100%"></stop>
        </linearGradient>
    </defs>
    <g id="Page-1" stroke="none" stroke-width="1" fill="none" fill-rule="evenodd">
        <g id="medservicebel_stranica_yslygi_05_hover" transform="translate(-645.000000, -3573.000000)">
            <g id="clipboard-with-check-marks" transform="translate(645.000000, 3573.000000)">
                <path d="M56.9545714,9.09593878 C56.9545714,9.09593878 50.3955918,9.09593878 48.2093265,9.09593878 C47.7501429,9.09593878 47.7789796,8.57430612 47.7789796,8.57430612 L47.7789796,7.03126531 C47.7789796,4.80844898 45.9705306,3 43.7477143,3 L18.0012857,3 C15.7784694,3 13.9700204,4.80844898 13.9700204,7.03126531 L13.9700204,8.64318367 C13.9700204,8.64318367 14.0078571,9.09593878 13.5027551,9.09593878 C11.3256735,9.09593878 4.79442857,9.09593878 4.79442857,9.09593878 C2.16826531,9.09593878 0.0317755102,11.2324286 0.0317755102,13.8587755 L0.0317755102,52.0889388 C0.0317755102,54.7152857 2.16826531,56.8515918 4.79442857,56.8515918 L56.9547551,56.8515918 C59.5809184,56.8515918 61.7175918,54.7152857 61.7175918,52.0889388 L61.7175918,13.8587755 C61.7172245,11.2324286 59.5807347,9.09593878 56.9545714,9.09593878 Z" id="Path" fill="url(#linearGradient-1)" opacity="0.200000003"></path>
                <g id="Group-11" transform="translate(13.000000, 23.000000)" fill-rule="nonzero">
                    <rect id="Rectangle" fill="#79A5BA" x="0" y="0" width="5" height="5" rx="2.5"></rect>
                    <rect id="Rectangle-Copy" fill="#000000" x="10" y="0" width="5" height="5" rx="2.5"></rect>
                    <rect id="Rectangle-Copy-3" fill="#000000" x="20" y="0" width="5" height="5" rx="2.5"></rect>
                    <rect id="Rectangle-Copy-4" fill="#000000" x="30" y="0" width="5" height="5" rx="2.5"></rect>
                </g>
                <g id="Group-11-Copy" transform="translate(13.000000, 33.000000)" fill="#000000" fill-rule="nonzero">
                    <rect id="Rectangle" x="0" y="0" width="5" height="5" rx="2.5"></rect>
                    <rect id="Rectangle-Copy" x="10" y="0" width="5" height="5" rx="2.5"></rect>
                    <rect id="Rectangle-Copy-3" x="20" y="0" width="5" height="5" rx="2.5"></rect>
                    <rect id="Rectangle-Copy-4" x="30" y="0" width="5" height="5" rx="2.5"></rect>
                </g>
                <g id="Group-11-Copy-2" transform="translate(13.000000, 43.000000)" fill-rule="nonzero">
                    <rect id="Rectangle" fill="#000000" x="0" y="0" width="5" height="5" rx="2.5"></rect>
                    <rect id="Rectangle-Copy" fill="#000000" x="10" y="0" width="5" height="5" rx="2.5"></rect>
                    <rect id="Rectangle-Copy-3" fill="#000000" x="20" y="0" width="5" height="5" rx="2.5"></rect>
                    <rect id="Rectangle-Copy-4" fill="#79A5BA" x="30" y="0" width="5" height="5" rx="2.5"></rect>
                </g>
                <path d="M56.9545714,6.09593878 C56.9545714,6.09593878 50.3955918,6.09593878 48.2093265,6.09593878 C47.7501429,6.09593878 47.7789796,5.57430612 47.7789796,5.57430612 L47.7789796,4.03126531 C47.7789796,1.80844898 45.9705306,0 43.7477143,0 L18.0012857,0 C15.7784694,0 13.9700204,1.80844898 13.9700204,4.03126531 L13.9700204,5.64318367 C13.9700204,5.64318367 14.0078571,6.09593878 13.5027551,6.09593878 C11.3256735,6.09593878 4.79442857,6.09593878 4.79442857,6.09593878 C2.16826531,6.09593878 0.0317755102,8.23242857 0.0317755102,10.8587755 L0.0317755102,53.0889388 C0.0317755102,55.7152857 2.16826531,57.8515918 4.79442857,57.8515918 L56.9547551,57.8515918 C59.5809184,57.8515918 61.7175918,55.7152857 61.7175918,53.0889388 L61.7175918,10.8587755 C61.7172245,8.23242857 59.5807347,6.09593878 56.9545714,6.09593878 Z M18.001102,3.67346939 L43.7475306,3.67346939 C43.9414898,3.67346939 44.1053265,3.83730612 44.1053265,4.03126531 L44.1053265,6.09593878 L44.1053265,11.4698571 C44.1053265,11.6638163 43.9413061,11.8276531 43.7475306,11.8276531 L18.0012857,11.8276531 C17.8073265,11.8276531 17.6434898,11.6638163 17.6434898,11.4698571 L17.6434898,6.09593878 L17.6433061,4.03126531 C17.6433061,3.83730612 17.8071429,3.67346939 18.001102,3.67346939 Z M56.9543878,54.1781224 L4.7942449,54.1781224 C4.20391837,54.1781224 3.70506122,53.679449 3.70506122,53.0889388 L3.70506122,10.8587755 C3.70506122,10.2682653 4.20373469,9.76940816 4.7942449,9.76940816 C4.7942449,9.76940816 11.457551,9.76940816 13.6787143,9.76940816 C14.0153878,9.76940816 13.9698367,10.0743061 13.9698367,10.0743061 L13.9698367,11.4698571 C13.9698367,12.3979592 14.2857551,13.2529592 14.8147347,13.9349388 C15.3490408,14.623898 16.1008163,15.1359796 16.9668367,15.3661224 C17.3057143,15.4473061 17.5466939,15.4834898 17.7939184,15.4959796 C17.8626122,15.4994694 17.9316735,15.5013061 18.001102,15.5013061 L43.7475306,15.5013061 C44.0254286,15.5013061 44.2967143,15.4730204 44.5588163,15.4192041 C44.821102,15.3653878 45.0740204,15.2860408 45.315,15.1839184 C45.3752449,15.1583878 45.4347551,15.1313878 45.4935306,15.103102 C46.8442653,14.4512449 47.7786122,13.0676327 47.7786122,11.4700408 L47.7786122,10.1088367 C47.7786122,10.1088367 47.780449,9.76940816 48.1707551,9.76940816 C50.3667551,9.76940816 56.9543878,9.76940816 56.9543878,9.76940816 C57.544898,9.76940816 58.0437551,10.2682653 58.0437551,10.8587755 L58.0437551,53.0889388 C58.0437551,53.6790816 57.544898,54.1781224 56.9543878,54.1781224 Z" id="Shape" fill="#000000" fill-rule="nonzero"></path>
            </g>
        </g>
    </g>
</svg>