<?xml version="1.0" encoding="UTF-8"?>
<svg width="20px" height="20px" viewBox="0 0 20 20" version="1.1" xmlns="http://www.w3.org/2000/svg" xmlns:xlink="http://www.w3.org/1999/xlink">
    <!-- Generator: sketchtool 51.2 (57519) - http://www.bohemiancoding.com/sketch -->
    <title>C08CE6DD-2C8F-4344-813F-B41160A4809F</title>
    <desc>Created with sketchtool.</desc>
    <defs>
        <linearGradient x1="0%" y1="1.55572612%" x2="100%" y2="1.55572612%" id="linearGradient-1">
            <stop stop-color="#1EBF9D" offset="0%"></stop>
            <stop stop-color="#1073B9" offset="100%"></stop>
        </linearGradient>
    </defs>
    <g id="Page-1" stroke="none" stroke-width="1" fill="none" fill-rule="evenodd">
        <g id="medservicebel_str_napravlenija_05_hover" transform="translate(-737.000000, -1312.000000)">
            <g id="Карточка" transform="translate(392.000000, 1214.000000)">
                <g id="Время-процедуры" transform="translate(345.000000, 94.000000)">
                    <g id="str_napravlenija/svg/clock" transform="translate(0.000000, 4.000000)">
                        <path d="M10,0 C4.47055642,0 0,4.47055642 0,10 C0,15.5294436 4.47055642,20 10,20 C15.5294436,20 20,15.5294436 20,10 C20,4.47055642 15.5294436,0 10,0 Z" id="Path" fill="url(#linearGradient-1)"></path>
                        <path d="M10,1.37931034 C5.23323829,1.37931034 1.37931034,5.23323829 1.37931034,10 C1.37931034,14.7667617 5.23323829,18.6206897 10,18.6206897 C14.7667617,18.6206897 18.6206897,14.7667617 18.6206897,10 C18.6206897,5.23323829 14.7667617,1.37931034 10,1.37931034 Z M10.5071234,17.5801571 L10.5071234,16.0852476 C10.5071234,15.7810085 10.3042973,15.5781242 10,15.5781242 C9.69576094,15.5781242 9.49287661,15.7809502 9.49287661,16.0852476 L9.49287661,17.5801571 C5.73430022,17.3235938 2.67547367,14.2657581 2.4199012,10.5071234 L3.91481073,10.5071234 C4.21904979,10.5071234 4.42193412,10.3042973 4.42193412,10 C4.42193412,9.69576094 4.21910808,9.49287661 3.91481073,9.49287661 L2.4199012,9.49287661 C2.67646449,5.73430022 5.73430022,2.67547367 9.49293489,2.4199012 L9.49293489,3.91481073 C9.49293489,4.21904979 9.69576094,4.42193412 10.0000583,4.42193412 C10.3042973,4.42193412 10.5071817,4.21910808 10.5071817,3.91481073 L10.5071817,2.4199012 C14.2657581,2.67646449 17.3245846,5.73430022 17.5801571,9.49293489 L16.0852476,9.49293489 C15.7810085,9.49293489 15.5781242,9.69576094 15.5781242,10.0000583 C15.5781242,10.3042973 15.7809502,10.5071817 16.0852476,10.5071817 L17.5801571,10.5071817 C17.3245846,14.2657581 14.2657581,17.3245846 10.5071234,17.5801571 Z" id="Shape" fill="#FFFFFF" fill-rule="nonzero"></path>
                        <path d="M11.8286712,9.74928115 L10.3657583,9.74928115 C10.3657583,9.74928115 10.2612731,9.74928115 10.2612731,9.65524375 L10.2612731,6.45770187 C10.2612731,6.17558966 10.0523026,5.98746082 9.738787,5.98746082 C9.42533139,5.98746082 9.21630094,6.17553562 9.21630094,6.45770187 L9.21630094,9.65518971 C9.21630094,10.2194682 9.738787,10.6896552 10.3656982,10.6896552 L11.8286111,10.6896552 C12.1420667,10.6896552 12.3510972,10.5015804 12.3510972,10.2194141 C12.3510972,9.93735596 12.1421268,9.74928115 11.8286712,9.74928115 Z" id="Shape" fill="#FFFFFF" fill-rule="nonzero"></path>
                    </g>
                </g>
            </g>
        </g>
    </g>
</svg>