<?xml version="1.0" encoding="UTF-8"?>
<svg width="20px" height="20px" viewBox="0 0 20 20" version="1.1" xmlns="http://www.w3.org/2000/svg" xmlns:xlink="http://www.w3.org/1999/xlink">
    <!-- Generator: sketchtool 51.2 (57519) - http://www.bohemiancoding.com/sketch -->
    <title>767935CD-A827-41AF-BB06-03F6BE100773</title>
    <desc>Created with sketchtool.</desc>
    <defs>
        <linearGradient x1="0%" y1="1.55572612%" x2="100%" y2="1.55572612%" id="linearGradient-1">
            <stop stop-color="#1EBF9D" offset="0%"></stop>
            <stop stop-color="#1073B9" offset="100%"></stop>
        </linearGradient>
    </defs>
    <g id="Page-1" stroke="none" stroke-width="1" fill="none" fill-rule="evenodd">
        <g id="medservicebel_stranica_yslygi_05_hover" transform="translate(-1112.000000, -549.000000)" fill="url(#linearGradient-1)" fill-rule="nonzero">
            <g id="Боковая-панель-с-ценой" transform="translate(1082.000000, 517.000000)">
                <g id="Цена-в-сутки" transform="translate(30.000000, 32.000000)">
                    <g id="yslyga/svg/clock">
                        <path d="M10,0 C4.47055642,0 0,4.47055642 0,10 C0,15.5294436 4.47055642,20 10,20 C15.5294436,20 20,15.5294436 20,10 C20,4.47055642 15.5294436,0 10,0 Z M10.5882631,18.7929822 L10.5882631,17.0588872 C10.5882631,16.7059698 10.3529849,16.470624 10,16.470624 C9.64708269,16.470624 9.41173687,16.7059022 9.41173687,17.0588872 L9.41173687,18.7929822 C5.05178825,18.4953688 1.50354946,14.9482794 1.20708539,10.5882631 L2.94118045,10.5882631 C3.29409776,10.5882631 3.52944358,10.3529849 3.52944358,10 C3.52944358,9.64708269 3.29416537,9.41173687 2.94118045,9.41173687 L1.20708539,9.41173687 C1.5046988,5.05178825 5.05178825,1.50354946 9.41180448,1.20708539 L9.41180448,2.94118045 C9.41180448,3.29409776 9.64708269,3.52944358 10.0000676,3.52944358 C10.3529849,3.52944358 10.5883307,3.29416537 10.5883307,2.94118045 L10.5883307,1.20708539 C14.9482794,1.5046988 18.4965182,5.05178825 18.7929822,9.41180448 L17.0588872,9.41180448 C16.7059698,9.41180448 16.470624,9.64708269 16.470624,10.0000676 C16.470624,10.3529849 16.7059022,10.5883307 17.0588872,10.5883307 L18.7929822,10.5883307 C18.4965182,14.9482794 14.9482794,18.4965182 10.5882631,18.7929822 Z" id="Shape"></path>
                        <path d="M12.1212586,8.90916614 L10.4242796,8.90916614 C10.4242796,8.90916614 10.3030767,8.90916614 10.3030767,8.80008275 L10.3030767,5.09093417 C10.3030767,4.76368401 10.0606711,4.54545455 9.69699292,4.54545455 C9.33338441,4.54545455 9.09090909,4.76362132 9.09090909,5.09093417 L9.09090909,8.80002006 C9.09090909,9.45458307 9.69699292,10 10.4242099,10 L12.1211889,10 C12.4847974,10 12.7272727,9.78183323 12.7272727,9.45452038 C12.7272727,9.12733291 12.4848671,8.90916614 12.1212586,8.90916614 Z" id="Shape"></path>
                    </g>
                </g>
            </g>
        </g>
    </g>
</svg>