<?xml version="1.0" encoding="UTF-8"?>
<svg width="19px" height="20px" viewBox="0 0 19 20" version="1.1" xmlns="http://www.w3.org/2000/svg" xmlns:xlink="http://www.w3.org/1999/xlink">
    <!-- Generator: sketchtool 51.2 (57519) - http://www.bohemiancoding.com/sketch -->
    <title>CE3122BA-D153-4959-9194-C5C58973A85E</title>
    <desc>Created with sketchtool.</desc>
    <defs>
        <linearGradient x1="0%" y1="1.55572612%" x2="100%" y2="1.55572612%" id="linearGradient-1">
            <stop stop-color="#1EBF9D" offset="0%"></stop>
            <stop stop-color="#1073B9" offset="100%"></stop>
        </linearGradient>
    </defs>
    <g id="Page-1" stroke="none" stroke-width="1" fill="none" fill-rule="evenodd">
        <g id="medservicebel_sanatorij_05_hover" transform="translate(-284.000000, -2950.000000)" fill="url(#linearGradient-1)" fill-rule="nonzero">
            <g id="Услуги-и-преимущества" transform="translate(275.000000, 2664.000000)">
                <g id="Номера" transform="translate(2.000000, 280.000000)">
                    <g id="sanatorij/svg/coffee-cup" transform="translate(7.000000, 6.000000)">
                        <path d="M18.146074,7.89659296 C17.5606273,7.31114621 16.905731,7.20162455 16.3357175,7.31236462 L16.3793096,7.07321751 C16.3793096,6.83765794 16.3793096,6.4842509 16.14375,6.24869134 C15.9081904,6.01313177 15.6726309,5.89535199 15.3192238,5.89535199 L1.066787,5.89535199 C0.713447653,5.89535199 0.477820397,6.01313177 0.24226083,6.24869134 C0.00670126354,6.4842509 0.00670126354,6.71981047 0.00670126354,7.07321751 L0.94900722,12.2558664 C1.42012635,15.0827843 3.89370487,17.2029558 6.83840253,17.2029558 L9.54754061,17.2029558 C12.481611,17.2029558 14.9445623,15.2134928 15.4286778,12.2864621 C15.63838,12.3370939 15.8338673,12.3736462 16.0258348,12.3736462 C16.9681408,12.3736462 17.792667,11.9025271 18.2637861,11.0780009 C18.9706002,10.0167644 18.8528204,8.60333935 18.146074,7.89659296 Z M9.54754061,16.1417193 L6.83840253,16.1417193 C4.48267148,16.1417193 2.48021209,14.492667 2.12687274,12.1369359 L1.30234657,7.18984657 L15.0835289,7.18984657 L14.2590027,12.1369359 C13.9056634,14.4927347 11.9033394,16.1417193 9.54754061,16.1417193 Z M17.2037681,10.3701715 C17.0011733,10.7765117 16.533574,11.1793998 15.6548285,11.0581002 L16.1247969,8.47263087 C16.3839125,8.31714801 16.7608755,8.16044675 17.2037004,8.60333935 C17.5571074,8.9566787 17.5571074,9.78120487 17.2037681,10.3701715 Z" id="Shape"></path>
                        <path d="M4.83601083,3.65625 C4.83601083,4.36299639 5.18935018,4.83411552 5.18935018,4.95189531 C5.30712996,5.06967509 5.42490975,5.18745487 5.66046931,5.18745487 C5.7782491,5.18745487 5.7782491,5.18745487 6.01380866,5.18745487 C6.36714801,4.95189531 6.36714801,4.59848827 6.24936823,4.3629287 C6.24936823,4.3629287 6.01380866,4.00958935 6.01380866,3.65618231 C6.01380866,3.30277527 6.24936823,2.94943592 6.24936823,2.94943592 C6.24936823,2.94943592 6.60270758,2.36046931 6.60270758,1.65379061 C6.60270758,0.947111913 6.24936823,0.47592509 6.24936823,0.358145307 C6.01380866,0.00480595668 5.66040162,0.00480595668 5.42484206,0.12258574 C5.07150271,0.358145307 5.07150271,0.711552347 5.18928249,0.947111913 C5.18928249,0.947111913 5.42484206,1.30045126 5.42484206,1.6538583 C5.42484206,2.00726534 5.18928249,2.36060469 5.18928249,2.36060469 C5.18928249,2.36060469 4.83601083,2.94950361 4.83601083,3.65625 Z" id="Shape"></path>
                        <path d="M7.42736913,3.65625 C7.42736913,4.36299639 7.78070848,4.95189531 7.78070848,4.95189531 C7.89848827,5.06967509 8.01626805,5.18745487 8.25182762,5.18745487 C8.3696074,5.18745487 8.48738718,5.18745487 8.60516697,5.18745487 C8.95850632,4.95189531 8.95850632,4.59848827 8.84072653,4.3629287 C8.84072653,4.3629287 8.60516697,4.00958935 8.60516697,3.65618231 C8.60516697,3.30277527 8.84072653,2.94943592 8.84072653,2.94943592 C8.84072653,2.94943592 9.19406588,2.36046931 9.19406588,1.65379061 C9.19406588,0.947111913 8.84072653,0.47592509 8.84072653,0.358145307 C8.60516697,0.00480595668 8.25175993,0.00480595668 8.01620036,0.12258574 C7.66286101,0.358145307 7.66286101,0.711552347 7.78064079,0.947111913 C7.78064079,0.947111913 8.01620036,1.30045126 8.01620036,1.6538583 C8.01620036,2.00726534 7.78064079,2.36060469 7.78064079,2.36060469 C7.78064079,2.36060469 7.42736913,2.94950361 7.42736913,3.65625 Z" id="Shape"></path>
                        <path d="M10.0187274,3.65625 C10.0187274,4.36299639 10.3720668,4.95189531 10.3720668,4.95189531 C10.4898466,5.06967509 10.6076264,5.18745487 10.8431859,5.18745487 C10.9609657,5.18745487 11.0787455,5.18745487 11.1965253,5.18745487 C11.5498646,4.95189531 11.5498646,4.59848827 11.4320848,4.3629287 C11.4320848,4.3629287 11.1965253,4.00958935 11.1965253,3.65618231 C11.1965253,3.30277527 11.4320848,2.94943592 11.4320848,2.94943592 C11.4320848,2.94943592 11.7854242,2.36046931 11.7854242,1.65379061 C11.7854242,0.947111913 11.4320848,0.47592509 11.4320848,0.358145307 C11.1965253,0.00480595668 10.9609657,-0.112973827 10.6075587,0.12258574 C10.2542193,0.358145307 10.2542193,0.711552347 10.3719991,0.947111913 C10.3719991,0.947111913 10.6075587,1.30045126 10.6075587,1.6538583 C10.6075587,2.00726534 10.3719991,2.36060469 10.3719991,2.36060469 C10.3719991,2.36060469 10.0187274,2.94950361 10.0187274,3.65625 Z" id="Shape"></path>
                        <path d="M15.9081227,18.3797383 L0.59566787,18.3797383 C0.24232852,18.3797383 0.00670126354,18.6152978 0.00670126354,18.9687049 C0.00670126354,19.3220442 0.24226083,19.5576715 0.59566787,19.5576715 L15.9081227,19.5576715 C16.2614621,19.5576715 16.4970894,19.3221119 16.4970894,18.9687049 C16.4970217,18.6152978 16.2614621,18.3797383 15.9081227,18.3797383 Z" id="Shape"></path>
                    </g>
                </g>
            </g>
        </g>
    </g>
</svg>