<?xml version="1.0" encoding="UTF-8"?>
<svg width="22px" height="17px" viewBox="0 0 22 17" version="1.1" xmlns="http://www.w3.org/2000/svg" xmlns:xlink="http://www.w3.org/1999/xlink">
    <!-- Generator: sketchtool 51.2 (57519) - http://www.bohemiancoding.com/sketch -->
    <title>2B9CD050-9A85-47EF-B68A-7315E01C099D</title>
    <desc>Created with sketchtool.</desc>
    <defs></defs>
    <g id="Page-1" stroke="none" stroke-width="1" fill="none" fill-rule="evenodd">
        <g id="medservicebel_str_napravlenija_05_hover" transform="translate(-1346.000000, -1370.000000)" fill="#0088CC" fill-rule="nonzero">
            <g id="Карточка" transform="translate(392.000000, 1214.000000)">
                <g id="Group-10" transform="translate(828.000000, 24.000000)">
                    <g id="оплата-картой-copy" transform="translate(5.000000, 132.000000)">
                        <g id="str_napravlenija/svg/credit-card" transform="translate(121.000000, 0.000000)">
                            <path d="M21.1066008,0.520117026 C20.753544,0.17335942 20.3291259,0 19.833386,0 L1.80301715,0 C1.30719829,0 0.882859122,0.173320655 0.529565488,0.520117026 C0.176469203,0.866952163 0,1.2837203 0,1.77073157 L0,15.2290746 C0,15.7162022 0.176469203,16.1330091 0.529565488,16.4798054 C0.882859122,16.8266018 1.30719829,17 1.80301715,17 L19.833386,17 C20.3291259,17 20.7535045,16.8266018 21.1066008,16.4798054 C21.4596576,16.1330478 21.6363636,15.7162409 21.6363636,15.2290746 L21.6363636,1.77073157 C21.6363636,1.2837203 21.4596576,0.866952163 21.1066008,0.520117026 Z M20.1937841,15.229346 C20.1937841,15.3254069 20.158143,15.4081713 20.0867817,15.478492 C20.0154599,15.5482699 19.9309157,15.5832752 19.833386,15.5832752 L1.80301715,15.5832752 C1.70540848,15.5832752 1.6208643,15.5482699 1.54950301,15.4782206 C1.47818119,15.4079387 1.44246108,15.3251356 1.44246108,15.2290746 L1.44246108,8.5 L20.1938236,8.5 L20.1938236,15.229346 L20.1937841,15.229346 Z M20.1937841,4.24978679 L1.44242161,4.24978679 L1.44242161,1.77057651 C1.44242161,1.67467061 1.47802332,1.59182868 1.54946354,1.52158556 C1.6208643,1.45169132 1.70540848,1.41660852 1.80297768,1.41660852 L19.8333465,1.41660852 C19.9308762,1.41660852 20.0154204,1.45153625 20.0867422,1.52158556 C20.1581035,1.59182868 20.1937447,1.67467061 20.1937447,1.77057651 L20.1937841,4.24978679 Z" id="Shape"></path>
                            <rect id="Rectangle-path" x="3.09090909" y="12.3636364" width="3.09090909" height="1.54545455"></rect>
                            <rect id="Rectangle-path" x="6.95454545" y="12.3636364" width="4.63636364" height="1.54545455"></rect>
                        </g>
                    </g>
                </g>
            </g>
        </g>
    </g>
</svg>