<?xml version="1.0" encoding="UTF-8"?>
<svg width="63px" height="73px" viewBox="0 0 63 73" version="1.1" xmlns="http://www.w3.org/2000/svg" xmlns:xlink="http://www.w3.org/1999/xlink">
    <!-- Generator: sketchtool 51.2 (57519) - http://www.bohemiancoding.com/sketch -->
    <title>F368DC9A-1FA2-4FC0-822C-CA707263D7A0</title>
    <desc>Created with sketchtool.</desc>
    <defs>
        <linearGradient x1="0%" y1="1.55572612%" x2="100%" y2="1.55572612%" id="linearGradient-1">
            <stop stop-color="#1EBF9D" offset="0%"></stop>
            <stop stop-color="#1073B9" offset="100%"></stop>
        </linearGradient>
    </defs>
    <g id="Page-1" stroke="none" stroke-width="1" fill="none" fill-rule="evenodd">
        <g id="medservicebel_stranica_yslygi_05_hover" transform="translate(-298.000000, -3571.000000)">
            <g id="dental-prosthesis" transform="translate(298.000000, 3571.000000)">
                <path d="M57.686202,5.63811222 C54.4385212,2.00249377 49.968409,0 45.0992544,0 C41.2861421,0 37.2023292,2.25316958 34.2202519,3.89830923 C33.2326584,4.44298753 31.7584589,5.33537157 31.3237357,5.33555362 C30.891015,5.33573566 29.4235511,4.44553616 28.4401446,3.90122195 C25.4644389,2.25499002 21.389182,0 17.5493092,0 C12.6801546,0 8.21004239,2.00249377 4.96254364,5.63811222 C1.8765187,9.09332419 0.176947631,13.6406234 0.176947631,18.4416933 C0.176947631,21.5342718 0.745291771,25.1675237 1.6364015,29.2926608 C2.4747182,33.1738579 5.13257357,36.4413815 10.7497506,38.9137332 C12.446591,39.6608454 15.4909277,40.2435711 16.0370623,40.7897057 C16.6933342,41.4459776 17.3947531,43.816202 17.3947531,43.816202 C17.3947531,43.816202 17.5540424,44.3747157 17.3197506,44.3747157 C16.0232269,44.3747157 14.9684589,45.4296658 14.9684589,46.7260075 C14.9684589,48.0223491 16.0232269,49.0772993 17.3197506,49.0772993 C17.3197506,49.0772993 18.4511596,49.0772993 18.8283566,49.0772993 C19.1241796,49.0772993 19.2204813,49.3813142 19.2204813,49.3813142 L20.034586,51.8944439 C20.034586,51.8944439 20.1028529,52.3555636 19.5612693,52.3555636 C18.2649277,52.3555636 17.2103416,53.4101496 17.2103416,54.7064913 C17.2103416,56.0028329 18.2649277,57.057783 19.5612693,57.057783 C19.5612693,57.057783 20.9573716,57.057783 21.4226783,57.057783 C21.7640125,57.057783 21.8779726,57.3330349 21.8779726,57.3330349 L22.824788,60.1658354 C22.824788,60.1658354 22.8790374,60.3362294 22.6742369,60.3362294 C22.4612444,60.3362294 21.8219027,60.3362294 21.8219027,60.3362294 C20.525197,60.3362294 19.470611,61.3911796 19.470611,62.6875212 C19.470611,63.9842269 20.525197,65.038813 21.8219027,65.038813 C21.8219027,65.038813 23.5819127,65.038813 24.1686434,65.038813 C24.4872219,65.038813 24.5367382,65.2887606 24.5367382,65.2887606 L25.9883641,69.6314414 L25.9969202,69.654197 C26.8629077,71.7701047 28.6156359,72.8436234 31.2064988,72.8436234 L31.3504963,72.8436234 C33.9411771,72.8436234 35.6937232,71.7702868 36.5659002,69.6387232 C36.5659002,69.6387232 37.6545287,66.3213192 38.0568479,65.2297781 C38.1365835,65.0133267 38.284404,65.038813 38.284404,65.038813 L40.8268429,65.038813 C42.1231845,65.038813 43.1779526,63.9842269 43.1779526,62.6875212 C43.1779526,61.3911796 42.5397032,60.3362294 40.8268429,60.3362294 C40.466212,60.3362294 40.1114065,60.3373217 39.9570324,60.3373217 C39.7180075,60.3373217 39.86601,59.9277207 39.86601,59.9277207 L40.7307232,57.3221122 C40.7307232,57.3221122 40.7762344,57.0583292 41.0267282,57.0583292 C41.5417332,57.0583292 43.0871122,57.0583292 43.0871122,57.0583292 C44.3834539,57.0583292 45.4382219,56.0033791 45.4382219,54.7070374 C45.4382219,53.4108778 44.4959576,52.3562918 43.199616,52.3562918 C42.923818,52.3562918 42.8278803,52.365212 42.7217481,52.365212 C42.437394,52.365212 42.5965012,52.0428105 42.5965012,52.0428105 C42.5965012,52.0428105 43.211995,50.0141022 43.4725012,49.2324015 C43.5294813,49.0616434 43.7115262,49.0776633 43.7115262,49.0776633 L45.3284489,49.0776633 C46.6247905,49.0776633 47.6793766,48.0227132 47.6793766,46.7263716 C47.6793766,45.4300299 46.6247905,44.3750798 45.3284489,44.3750798 C45.1223741,44.3750798 45.1609676,44.1031047 45.1944638,43.9683915 C45.4069102,43.1111421 45.8039501,41.3478554 46.5598005,40.7900698 C47.2737805,40.2630499 50.1499077,39.6448254 51.8103392,38.9140973 C57.3064564,36.4945387 60.1827656,32.8408978 60.9054838,29.5153017 C61.8191671,25.3117032 62.471798,21.5089676 62.471798,18.4418753 C62.47198,13.6406234 60.772409,9.09387032 57.686202,5.63811222 Z" id="Path" fill="url(#linearGradient-1)" opacity="0.200000003"></path>
                <path d="M57.686202,5.63811222 C54.4385212,2.00249377 49.968409,0 45.0992544,0 C41.2861421,0 37.2023292,2.25316958 34.2202519,3.89830923 C33.2326584,4.44298753 31.7584589,5.33537157 31.3237357,5.33555362 C30.891015,5.33573566 29.4235511,4.44553616 28.4401446,3.90122195 C25.4644389,2.25499002 21.389182,0 17.5493092,0 C12.6801546,0 8.21004239,2.00249377 4.96254364,5.63811222 C1.8765187,9.09332419 0.176947631,13.6406234 0.176947631,18.4416933 C0.176947631,21.5342718 0.745291771,25.1675237 1.6364015,29.2926608 C2.4747182,33.1738579 5.13257357,36.4413815 10.7497506,38.9137332 C12.446591,39.6608454 15.4909277,40.2435711 16.0370623,40.7897057 C16.6933342,41.4459776 17.3947531,43.816202 17.3947531,43.816202 C17.3947531,43.816202 17.5540424,44.3747157 17.3197506,44.3747157 C16.0232269,44.3747157 14.9684589,45.4296658 14.9684589,46.7260075 C14.9684589,48.0223491 16.0232269,49.0772993 17.3197506,49.0772993 C17.3197506,49.0772993 18.4511596,49.0772993 18.8283566,49.0772993 C19.1241796,49.0772993 19.2204813,49.3813142 19.2204813,49.3813142 L20.034586,51.8944439 C20.034586,51.8944439 20.1028529,52.3555636 19.5612693,52.3555636 C18.2649277,52.3555636 17.2103416,53.4101496 17.2103416,54.7064913 C17.2103416,56.0028329 18.2649277,57.057783 19.5612693,57.057783 C19.5612693,57.057783 20.9573716,57.057783 21.4226783,57.057783 C21.7640125,57.057783 21.8779726,57.3330349 21.8779726,57.3330349 L22.824788,60.1658354 C22.824788,60.1658354 22.8790374,60.3362294 22.6742369,60.3362294 C22.4612444,60.3362294 21.8219027,60.3362294 21.8219027,60.3362294 C20.525197,60.3362294 19.470611,61.3911796 19.470611,62.6875212 C19.470611,63.9842269 20.525197,65.038813 21.8219027,65.038813 C21.8219027,65.038813 23.5819127,65.038813 24.1686434,65.038813 C24.4872219,65.038813 24.5367382,65.2887606 24.5367382,65.2887606 L25.9883641,69.6314414 L25.9969202,69.654197 C26.8629077,71.7701047 28.6156359,72.8436234 31.2064988,72.8436234 L31.3504963,72.8436234 C33.9411771,72.8436234 35.6937232,71.7702868 36.5659002,69.6387232 C36.5659002,69.6387232 37.6545287,66.3213192 38.0568479,65.2297781 C38.1365835,65.0133267 38.284404,65.038813 38.284404,65.038813 L40.8268429,65.038813 C42.1231845,65.038813 43.1779526,63.9842269 43.1779526,62.6875212 C43.1779526,61.3911796 42.5397032,60.3362294 40.8268429,60.3362294 C40.466212,60.3362294 40.1114065,60.3373217 39.9570324,60.3373217 C39.7180075,60.3373217 39.86601,59.9277207 39.86601,59.9277207 L40.7307232,57.3221122 C40.7307232,57.3221122 40.7762344,57.0583292 41.0267282,57.0583292 C41.5417332,57.0583292 43.0871122,57.0583292 43.0871122,57.0583292 C44.3834539,57.0583292 45.4382219,56.0033791 45.4382219,54.7070374 C45.4382219,53.4108778 44.4959576,52.3562918 43.199616,52.3562918 C42.923818,52.3562918 42.8278803,52.365212 42.7217481,52.365212 C42.437394,52.365212 42.5965012,52.0428105 42.5965012,52.0428105 C42.5965012,52.0428105 43.211995,50.0141022 43.4725012,49.2324015 C43.5294813,49.0616434 43.7115262,49.0776633 43.7115262,49.0776633 L45.3284489,49.0776633 C46.6247905,49.0776633 47.6793766,48.0227132 47.6793766,46.7263716 C47.6793766,45.4300299 46.6247905,44.3750798 45.3284489,44.3750798 C45.1223741,44.3750798 45.1609676,44.1031047 45.1944638,43.9683915 C45.4069102,43.1111421 45.8039501,41.3478554 46.5598005,40.7900698 C47.2737805,40.2630499 50.1499077,39.6448254 51.8103392,38.9140973 C57.3064564,36.4945387 60.1827656,32.8408978 60.9054838,29.5153017 C61.8191671,25.3117032 62.471798,21.5089676 62.471798,18.4418753 C62.47198,13.6406234 60.772409,9.09387032 57.686202,5.63811222 Z M33.8146559,68.5369875 C33.3003791,69.7829027 31.7431671,69.8795686 31.2784065,69.8795686 C30.8145561,69.8795686 29.2640798,69.7832668 28.745616,68.5462718 L27.6274963,65.1937332 C27.6274963,65.1937332 27.6007357,65.0382668 27.817005,65.0382668 C29.6126958,65.0382668 33.1119626,65.0382668 34.8767057,65.0382668 C35.0019526,65.0382668 34.975192,65.1103566 34.975192,65.1103566 L33.8146559,68.5369875 Z M36.5132893,60.3358653 C33.9238828,60.3358653 28.7650948,60.3358653 26.1556633,60.3358653 C25.9963741,60.3358653 25.9621496,60.1776683 25.9621496,60.1776683 L24.9545312,57.1784788 C24.9545312,57.1784788 24.9381471,57.0579651 25.1429476,57.0579651 C28.2830399,57.0579651 34.4756608,57.0579651 37.5864439,57.0579651 C37.7040449,57.0579651 37.6738254,57.1448005 37.6738254,57.1448005 L36.6108653,60.2812519 C36.6114115,60.2810698 36.5815561,60.3358653 36.5132893,60.3358653 Z M39.3464539,52.243606 C39.3464539,52.243606 39.3198753,52.3555636 39.2022743,52.3555636 C38.0806958,52.3555636 27.249207,52.3555636 23.5085486,52.3555636 C23.3416135,52.3555636 23.3037481,52.2510698 23.3037481,52.2510698 L22.3170648,49.2677182 C22.3170648,49.2677182 22.2531671,49.0727481 22.5034788,49.0727481 C27.3959352,49.0727481 35.8125985,49.0772993 40.2490324,49.0772993 C40.4083217,49.0772993 40.3655411,49.2003616 40.3655411,49.2003616 L39.3464539,52.243606 Z M41.6751721,44.3739875 C36.4746958,44.3739875 20.9297007,44.3625187 20.9297007,44.3625187 C20.9297007,44.3625187 20.7704115,44.3625187 20.6944988,44.2032294 C20.4756808,43.7441122 20.0496958,42.6028728 19.8772993,41.9515162 C19.7817257,41.5905212 20.1256085,41.7001122 20.1256085,41.7001122 C23.7612269,42.3958878 27.2741471,42.6742344 31.2800449,42.6742344 C35.3432868,42.6742344 39.0058479,42.3698554 42.6840648,41.654601 C42.6840648,41.654601 42.9420224,41.6090898 42.8819476,41.7734763 C42.6820623,42.3212494 42.2797431,43.5296633 42.0962419,44.0854464 C42.0368953,44.2638504 41.857217,44.3739875 41.6751721,44.3739875 Z M58.3018778,28.5930623 C58.1760848,29.1413815 57.7748579,30.1417182 57.5671446,30.7038728 C56.7914514,32.8032145 54.149616,34.6924763 50.633601,36.240586 C48.8284439,37.035212 46.7868105,37.7129651 44.5656808,38.2547307 L44.1782893,38.3483017 C40.2592269,39.2674464 35.7991272,39.7531421 31.2798628,39.7531421 C26.8863915,39.7531421 22.5400698,39.2927506 18.6992868,38.4209377 L18.3215436,38.3341022 C15.9760773,37.7805037 13.8250349,37.0765362 11.9264888,36.2409501 C8.48037905,34.723788 5.677798,32.6169825 4.84512469,30.5900948 C4.57770075,29.9389202 4.12823192,28.3656883 4.12823192,28.3656883 C3.23056858,24.5389227 3.09767581,21.2162394 3.09767581,18.4420574 C3.09767581,10.8125561 8.50331671,2.92127431 17.5491272,2.92127431 C19.8967781,2.92127431 22.9889925,3.99570324 25.821611,5.79558105 C26.235217,6.05863591 26.8252244,6.51210973 27.3955711,6.95083791 C27.622217,7.12505486 27.8457681,7.29672319 28.0542095,7.45400998 C28.7305062,7.95991272 29.6443716,8.62237406 30.7147955,9.25243142 C31.2778603,9.58484539 31.7901347,9.87957606 32.3570224,10.1204214 C34.6759102,11.1045561 37.1346085,11.6037232 39.6646683,11.6037232 C42.2462469,11.6037232 45.4171047,10.9765786 45.373414,10.6181322 C45.3297232,10.2596858 40.044414,10.2596858 36.5253042,9.32743392 C35.1204638,8.95551621 33.5284813,8.35258354 33.5284813,8.02217207 C33.5284813,7.66991521 34.0252818,7.39357107 34.4152219,7.16073566 C34.7552818,6.95739152 35.1410349,6.72692269 35.6327382,6.45567581 C38.3362868,4.96418204 42.0385337,2.92145636 45.0990723,2.92145636 C54.1448828,2.92145636 59.5505237,10.8127382 59.5505237,18.4422394 C59.5507057,21.1783741 59.1913491,24.7195112 58.3018778,28.5930623 Z" id="Shape" fill="#000000" fill-rule="nonzero"></path>
            </g>
        </g>
    </g>
</svg>