<?xml version="1.0" encoding="UTF-8"?>
<svg width="34px" height="39px" viewBox="0 0 34 39" version="1.1" xmlns="http://www.w3.org/2000/svg" xmlns:xlink="http://www.w3.org/1999/xlink">
    <!-- Generator: sketchtool 51.2 (57519) - http://www.bohemiancoding.com/sketch -->
    <title>7942FA14-8776-4A98-A7F4-33BEB9785D34</title>
    <desc>Created with sketchtool.</desc>
    <defs>
        <linearGradient x1="0%" y1="1.55572612%" x2="100%" y2="1.55572612%" id="linearGradient-1">
            <stop stop-color="#1EBF9D" offset="0%"></stop>
            <stop stop-color="#1073B9" offset="100%"></stop>
        </linearGradient>
    </defs>
    <g id="Page-1" stroke="none" stroke-width="1" fill="none" fill-rule="evenodd">
        <g id="medservicebel_spisok_napravlenij_05_hover" transform="translate(-773.000000, -1787.000000)">
            <g id="Иконки" transform="translate(71.000000, 607.000000)">
                <g id="Диагностика" transform="translate(690.000000, 1175.000000)">
                    <g id="spisok_napravlenij/svg/diagnostika" transform="translate(12.000000, 5.000000)">
                        <g id="Group">
                            <path d="M26.8323267,38.7880597 C31.2153106,36.0835821 33.9056604,31.3425373 33.9056604,26.2089552 C33.9056604,18.0298507 27.1540483,11.3753731 18.8543875,11.3753731 C17.8112524,11.3753731 16.2813715,11.5231343 15.469119,11.6097015 C15.2087138,10.3925373 14.1118323,9.47537313 12.800722,9.47537313 L12.7984511,4.12014925 L13.190573,4.12014925 C13.6091896,4.12014925 13.947565,3.7858209 13.947565,3.3738806 L13.947565,0.746268657 C13.947565,0.334328358 13.6091896,-4.61852778e-14 13.190573,-4.61852778e-14 L8.00517742,-4.61852778e-14 C7.58656081,-4.61852778e-14 7.24818537,0.334328358 7.24818537,0.746268657 L7.24818537,3.3738806 C7.24818537,3.7858209 7.58656081,4.12014925 8.00517742,4.12014925 L8.3972993,4.12014925 L8.3972993,9.47537313 C6.89088512,9.47537313 5.66682898,10.6820896 5.66682898,12.1649254 L5.66682898,22.0373134 C5.66682898,23.1156716 6.31784214,24.0410448 7.24894236,24.469403 L7.24894236,26.9014925 C7.24894236,27.3134328 7.58731781,27.6477612 8.00593441,27.6477612 L13.1913299,27.6477612 C13.6099465,27.6477612 13.948322,27.3134328 13.948322,26.9014925 L13.948322,24.469403 C14.8794222,24.0410448 15.5304354,23.1149254 15.5304354,22.0373134 L15.5304354,17.2985075 C16.229896,17.1544776 17.8218503,16.8507463 18.8559014,16.8507463 C24.0927724,16.8507463 28.3531237,21.0485075 28.3531237,26.2089552 C28.3531237,29.6037313 26.4470177,32.7544776 23.4523572,34.3955224 C22.7279158,33.6373134 21.7309573,33.2089552 20.6552715,33.2089552 C20.519013,33.2089552 20.3850254,33.2179104 20.2525518,33.2320896 C20.1715536,33.2238806 20.0920695,33.2104478 20.0118283,33.2104478 L3.00524493,33.2104478 C2.38148348,33.2104478 1.79102969,33.4507463 1.33532047,33.8947761 C0.892480123,34.3373134 0.648728683,34.9186567 0.648728683,35.5298507 C0.648728683,36.811194 1.70548958,37.8529851 3.00524493,37.8529851 L15.189032,37.8529851 L15.189032,39 L22.5,39 L26.8323267,38.7880597 Z M8.76292646,1.49253731 L12.4343379,1.49253731 L12.4343379,2.62761194 L8.76292646,2.62761194 L8.76292646,1.49253731 Z M9.9112834,4.12014925 L11.284467,4.12014925 L11.284467,9.47537313 L9.9112834,9.47537313 L9.9112834,4.12014925 Z M12.4335809,26.1552239 L8.76216947,26.1552239 L8.76216947,24.7268657 L12.4335809,24.7268657 L12.4335809,26.1552239 Z M14.0156943,22.0373134 C14.0156943,22.6977612 13.47066,23.2343284 12.801479,23.2343284 L8.39578531,23.2343284 C7.72584735,23.2343284 7.18157007,22.6970149 7.18157007,22.0373134 L7.18157007,12.1649254 C7.18157007,11.5044776 7.72660434,10.9679104 8.39578531,10.9679104 L8.39805629,10.9679104 L12.7992081,10.9679104 L12.801479,10.9679104 C13.471417,10.9679104 14.0156943,11.5052239 14.0156943,12.1649254 L14.0156943,22.0373134 Z M29.8663508,26.2089552 C29.8663508,20.2253731 24.9269777,15.358209 18.8551445,15.358209 C17.8188223,15.358209 16.3752385,15.608209 15.5296784,15.7746269 L15.5296784,13.1044776 C16.2806145,13.0231343 17.847588,12.8671642 18.8551445,12.8671642 C26.3190861,12.8671642 32.3924333,18.8522388 32.3924333,26.208209 C32.3924333,30.8679104 29.9253962,35.1671642 25.9178803,37.5873134 L24.3902703,35.5835821 C27.7429881,33.6529851 29.8663508,30.0664179 29.8663508,26.2089552 Z M3.00524493,36.3597015 C2.54045181,36.3597015 2.16271278,35.9865672 2.16271278,35.5291045 C2.16271278,35.3119403 2.25128085,35.1037313 2.40570723,34.9485075 C2.56921751,34.7895522 2.78193228,34.7022388 3.00524493,34.7022388 L17.5939957,34.7022388 C17.5879398,34.7097015 17.5811268,34.7164179 17.5750709,34.7238806 L16.327548,36.3597015 L3.00524493,36.3597015 Z" id="Shape" fill="#000000" fill-rule="nonzero"></path>
                            <path d="M26.183598,38.7880597 C30.566582,36.0835821 33.2569317,31.3425373 33.2569317,26.2089552 C33.2569317,18.0298507 26.5053196,11.3753731 18.2056588,11.3753731 C17.1625237,11.3753731 15.6326428,11.5231343 14.8203903,11.6097015 C14.5599851,10.3925373 13.4631036,9.47537313 12.1519934,9.47537313 L12.1497224,4.12014925 L12.5418443,4.12014925 C12.9604609,4.12014925 13.2988363,3.7858209 13.2988363,3.3738806 L13.2988363,0.746268657 C13.2988363,0.334328358 12.9604609,-4.61852778e-14 12.5418443,-4.61852778e-14 L7.35644873,-4.61852778e-14 C6.93783213,-4.61852778e-14 6.59945668,0.334328358 6.59945668,0.746268657 L6.59945668,3.3738806 C6.59945668,3.7858209 6.93783213,4.12014925 7.35644873,4.12014925 L7.74857061,4.12014925 L7.74857061,9.47537313 C6.24215644,9.47537313 5.01810029,10.6820896 5.01810029,12.1649254 L5.01810029,22.0373134 C5.01810029,23.1156716 5.66911346,24.0410448 6.60021368,24.469403 L6.60021368,26.9014925 C6.60021368,27.3134328 6.93858912,27.6477612 7.35720573,27.6477612 L12.5426013,27.6477612 C12.9612179,27.6477612 13.2995933,27.3134328 13.2995933,26.9014925 L13.2995933,24.469403 C14.2306935,24.0410448 14.8817067,23.1149254 14.8817067,22.0373134 L14.8817067,17.2985075 C15.5811673,17.1544776 17.1731216,16.8507463 18.2071728,16.8507463 C23.4440438,16.8507463 27.704395,21.0485075 27.704395,26.2089552 C27.704395,29.6037313 25.798289,32.7544776 22.8036285,34.3955224 C22.0791871,33.6373134 21.0822286,33.2089552 20.0065429,33.2089552 C19.8702843,33.2089552 19.7362967,33.2179104 19.6038231,33.2320896 C19.5228249,33.2238806 19.4433408,33.2104478 19.3630996,33.2104478 L2.35651625,33.2104478 C1.7327548,33.2104478 1.142301,33.4507463 0.686591789,33.8947761 C0.24375144,34.3373134 -6.39488462e-14,34.9186567 -6.39488462e-14,35.5298507 C-6.39488462e-14,36.811194 1.0567609,37.8529851 2.35651625,37.8529851 L14.5403033,37.8529851 L14.5403033,39 L21.8512713,39 L26.183598,38.7880597 Z" id="Path" fill="url(#linearGradient-1)" opacity="0.200000003"></path>
                            <circle id="Oval" fill="#FFFFFF" fill-rule="nonzero" cx="20.2264151" cy="36.2641509" r="1.41509434"></circle>
                        </g>
                    </g>
                </g>
            </g>
        </g>
    </g>
</svg>