<?xml version="1.0" encoding="UTF-8"?>
<svg width="108px" height="108px" viewBox="0 0 108 108" version="1.1" xmlns="http://www.w3.org/2000/svg" xmlns:xlink="http://www.w3.org/1999/xlink">
    <!-- Generator: sketchtool 51.2 (57519) - http://www.bohemiancoding.com/sketch -->
    <title>A99F765D-3E08-49B8-A71A-4CE6CAC0B45A</title>
    <desc>Created with sketchtool.</desc>
    <defs>
        <linearGradient x1="0%" y1="1.55572612%" x2="100%" y2="1.55572612%" id="linearGradient-1">
            <stop stop-color="#1EBF9D" offset="0%"></stop>
            <stop stop-color="#1073B9" offset="100%"></stop>
        </linearGradient>
    </defs>
    <g id="Page-1" stroke="none" stroke-width="1" fill="none" fill-rule="evenodd">
        <g id="medservicebel_about_04_hover" transform="translate(-1126.000000, -3163.000000)">
            <g id="Статистика" transform="translate(38.000000, 1552.000000)">
                <g id="Group-3" transform="translate(9.000000, 1605.000000)">
                    <g id="Тариф-Copy-4" transform="translate(920.000000, 6.000000)">
                        <g id="dop_yslygi" transform="translate(159.000000, 0.000000)">
                            <circle id="Oval-7-Copy-3" stroke="#0091EA" stroke-width="1.43000011" fill="#FFFFFF" cx="54" cy="54" r="53.2849999"></circle>
                            <g id="small-rocket-ship-silhouette" transform="translate(18.000000, 27.000000)">
                                <path d="M62.6125898,0.366685481 C62.355037,0.122634119 62.0466764,0 61.6864268,0 C54.9737041,0 49.4311844,0.913333491 45.0588679,2.74081172 C40.6870919,4.56856037 36.083167,7.88847015 31.2477689,12.700541 C29.1904546,14.7851859 26.9268008,17.2945206 24.4578885,20.2282749 L9.83643066,21.0000451 C9.42483267,21.0523708 9.09052754,21.2577525 8.83338014,21.617948 L0.191578991,36.4422091 C-0.117187066,36.9568127 -0.0525961794,37.4588419 0.384405758,37.9478911 L2.85331806,40.4182858 C3.08492639,40.6500332 3.38044996,40.7656364 3.74069955,40.7656364 C3.89515014,40.7656364 4.01054892,40.7526564 4.08770665,40.7268316 L14.7360142,37.4449154 L25.5770134,48.2929647 L22.2976071,58.9467193 C22.1693712,59.4104845 22.2722032,59.8217887 22.6063732,60.1822546 L25.0754206,62.653055 C25.3583773,62.8838559 25.6544414,63 25.9628021,63 C26.1946807,63 26.4003445,62.9480799 26.5801991,62.8453215 L41.3954296,54.1983316 C41.7556792,53.941165 41.9610728,53.6070648 42.0126914,53.1952196 L42.7839985,38.5644419 C45.7162626,36.0936416 48.224497,33.8291694 50.3073503,31.770079 C54.8868172,27.1629842 58.1459544,22.5247914 60.0871943,17.8540134 C62.0293801,13.182965 63,7.64320191 63,1.23553537 C62.9995946,0.901029516 62.8710885,0.611683303 62.6125898,0.366685481 Z M53.2775852,14.9783988 C52.5580319,15.6985194 51.6830822,16.0592557 50.6542223,16.0592557 C49.6253625,16.0592557 48.7513586,15.698925 48.0308594,14.9783988 C47.3113061,14.2577375 46.9506512,13.382668 46.9506512,12.3530552 C46.9506512,11.3239832 47.3109008,10.4487785 48.0308594,9.72811715 C48.7508181,9.00786141 49.6253625,8.64739552 50.6542223,8.64739552 C51.6830822,8.64739552 52.5576266,9.00745578 53.2775852,9.72811715 C53.9975439,10.4487785 54.3577935,11.3239832 54.3577935,12.3530552 C54.3577935,13.3828032 53.9984898,14.2571966 53.2775852,14.9783988 Z" id="Shape" fill="url(#linearGradient-1)" opacity="0.200000003"></path>
                                <path d="M62.6125898,0.366685481 C62.355037,0.122634119 62.0466764,0 61.6864268,0 C54.9737041,0 49.4311844,0.913333491 45.0588679,2.74081172 C40.6870919,4.56856037 36.083167,7.88847015 31.2477689,12.700541 C29.1904546,14.7851859 26.9268008,17.2945206 24.4578885,20.2282749 L9.83643066,21.0000451 C9.42483267,21.0523708 9.09052754,21.2577525 8.83338014,21.617948 L0.191578991,36.4422091 C-0.117187066,36.9568127 -0.0525961794,37.4588419 0.384405758,37.9478911 L2.85331806,40.4182858 C3.08492639,40.6500332 3.38044996,40.7656364 3.74069955,40.7656364 C3.89515014,40.7656364 4.01054892,40.7526564 4.08770665,40.7268316 L14.7360142,37.4449154 L25.5770134,48.2929647 L22.2976071,58.9467193 C22.1693712,59.4104845 22.2722032,59.8217887 22.6063732,60.1822546 L25.0754206,62.653055 C25.3583773,62.8838559 25.6544414,63 25.9628021,63 C26.1946807,63 26.4003445,62.9480799 26.5801991,62.8453215 L41.3954296,54.1983316 C41.7556792,53.941165 41.9610728,53.6070648 42.0126914,53.1952196 L42.7839985,38.5644419 C45.7162626,36.0936416 48.224497,33.8291694 50.3073503,31.770079 C54.8868172,27.1629842 58.1459544,22.5247914 60.0871943,17.8540134 C62.0293801,13.182965 63,7.64320191 63,1.23553537 C62.9995946,0.901029516 62.8710885,0.611683303 62.6125898,0.366685481 Z M53.2775852,14.9783988 C52.5580319,15.6985194 51.6830822,16.0592557 50.6542223,16.0592557 C49.6253625,16.0592557 48.7513586,15.698925 48.0308594,14.9783988 C47.3113061,14.2577375 46.9506512,13.382668 46.9506512,12.3530552 C46.9506512,11.3239832 47.3109008,10.4487785 48.0308594,9.72811715 C48.7508181,9.00786141 49.6253625,8.64739552 50.6542223,8.64739552 C51.6830822,8.64739552 52.5576266,9.00745578 53.2775852,9.72811715 C53.9975439,10.4487785 54.3577935,11.3239832 54.3577935,12.3530552 C54.3577935,13.3828032 53.9984898,14.2571966 53.2775852,14.9783988 Z" id="Shape-Copy-9" stroke="#000000" stroke-width="3"></path>
                            </g>
                        </g>
                    </g>
                </g>
            </g>
        </g>
    </g>
</svg>