<?xml version="1.0" encoding="UTF-8"?>
<svg width="9px" height="14px" viewBox="0 0 9 14" version="1.1" xmlns="http://www.w3.org/2000/svg" xmlns:xlink="http://www.w3.org/1999/xlink">
    <!-- Generator: sketchtool 51.2 (57519) - http://www.bohemiancoding.com/sketch -->
    <title>9510E2DD-2FEF-4139-842C-E1A950B9E33B</title>
    <desc>Created with sketchtool.</desc>
    <defs></defs>
    <g id="Page-1" stroke="none" stroke-width="1" fill="none" fill-rule="evenodd">
        <g id="medservicebel_index_15_hover" transform="translate(-353.000000, -82.000000)" fill="#0088CC">
            <g id="Выбор-валюты" transform="translate(337.000000, 44.000000)">
                <g id="руб-copy" transform="translate(16.000000, 38.000000)">
                    <path d="M7.04736328,8.50927734 L3.85986328,8.50927734 C3.87093104,9.07926717 3.94702078,9.57454217 4.08813477,9.99511719 C4.22924875,10.4156922 4.42569861,10.765705 4.67749023,11.045166 C4.92928186,11.324627 5.23087389,11.5321445 5.58227539,11.6677246 C5.93367689,11.8033047 6.32519315,11.8710938 6.75683594,11.8710938 C7.07780108,11.8710938 7.38907727,11.8475751 7.69067383,11.8005371 C7.99227039,11.7534991 8.28417828,11.6829432 8.56640625,11.5888672 L8.73242188,12.9169922 C8.42252449,12.9944665 8.10018071,13.0553383 7.76538086,13.0996094 C7.43058101,13.1438804 7.08886893,13.1660156 6.74023438,13.1660156 C6.0927702,13.1660156 5.49788683,13.0691741 4.95556641,12.8754883 C4.41324599,12.6818024 3.94563999,12.391278 3.55273438,12.0039062 C3.15982876,11.6165345 2.85131948,11.1309437 2.62719727,10.5471191 C2.40307505,9.96329461 2.28271493,9.2840208 2.26611328,8.50927734 L0.788574219,8.50927734 L0.788574219,7.47998047 L2.26611328,7.47998047 L2.26611328,6.34277344 L0.788574219,6.34277344 L0.788574219,5.30517578 L2.26611328,5.30517578 C2.29378269,4.55256785 2.42106006,3.89127889 2.64794922,3.32128906 C2.87483837,2.75129923 3.18473111,2.27539253 3.57763672,1.89355469 C3.97054233,1.51171684 4.43399798,1.22534275 4.96801758,1.03442383 C5.50203718,0.843504905 6.0900033,0.748046875 6.73193359,0.748046875 C7.08056815,0.748046875 7.41674643,0.77156552 7.74047852,0.818603516 C8.0642106,0.865641511 8.39485508,0.927896748 8.73242188,1.00537109 L8.56640625,2.35009766 C8.28971216,2.26155555 7.99780427,2.19099961 7.69067383,2.13842773 C7.38354339,2.08585586 7.0695003,2.05957031 6.74853516,2.05957031 C6.32242625,2.05957031 5.93644379,2.12459245 5.59057617,2.25463867 C5.24470856,2.3846849 4.94726687,2.58390165 4.69824219,2.85229492 C4.4492175,3.12068819 4.25276765,3.45824992 4.10888672,3.86499023 C3.96500579,4.27173055 3.88476571,4.7517876 3.86816406,5.30517578 L7.04736328,5.30517578 L7.04736328,6.34277344 L3.85986328,6.34277344 L3.85986328,7.47998047 L7.04736328,7.47998047 L7.04736328,8.50927734 Z" id="€"></path>
                </g>
            </g>
        </g>
    </g>
</svg>