<?xml version="1.0" encoding="UTF-8"?>
<svg width="32px" height="32px" viewBox="0 0 32 32" version="1.1" xmlns="http://www.w3.org/2000/svg" xmlns:xlink="http://www.w3.org/1999/xlink">
    <!-- Generator: sketchtool 51.2 (57519) - http://www.bohemiancoding.com/sketch -->
    <title>6DEAF1DC-555E-4895-9F70-5F6C6D5F5020</title>
    <desc>Created with sketchtool.</desc>
    <defs></defs>
    <g id="Page-1" stroke="none" stroke-width="1" fill="none" fill-rule="evenodd">
        <g id="medservicebel_text_05_hover" transform="translate(-1251.000000, -12067.000000)">
            <g id="Футер" transform="translate(0.000000, 11913.000000)">
                <g id="Соцсети" transform="translate(1196.000000, 154.000000)">
                    <g id="f" transform="translate(55.000000, 0.000000)">
                        <circle id="Oval-5-Copy" stroke="#798484" opacity="0.5" cx="16" cy="16" r="15.5"></circle>
                        <path d="M19.5416873,16.4478582 L17.3642093,16.4478582 C17.3642093,19.9267555 17.3642093,24.2089314 17.3642093,24.2089314 L14.137617,24.2089314 C14.137617,24.2089314 14.137617,19.9682672 14.137617,16.4478582 L12.60384,16.4478582 L12.60384,13.7048504 L14.137617,13.7048504 L14.137617,11.930629 C14.137617,10.6599392 14.7414237,8.67438545 17.3938605,8.67438545 L19.7848274,8.68355038 L19.7848274,11.3462303 C19.7848274,11.3462303 18.3319174,11.3462303 18.0494221,11.3462303 C17.7669268,11.3462303 17.3652875,11.487478 17.3652875,12.0934412 L17.3652875,13.7053895 L19.8236435,13.7053895 L19.5416873,16.4478582 Z" id="Path" fill="#5A6EB4"></path>
                    </g>
                </g>
            </g>
        </g>
    </g>
</svg>