<?xml version="1.0" encoding="UTF-8"?>
<svg width="6px" height="12px" viewBox="0 0 6 12" version="1.1" xmlns="http://www.w3.org/2000/svg" xmlns:xlink="http://www.w3.org/1999/xlink">
    <!-- Generator: sketchtool 51.2 (57519) - http://www.bohemiancoding.com/sketch -->
    <title>4E22FBD8-78EC-4681-B1AF-D899C93A9568</title>
    <desc>Created with sketchtool.</desc>
    <defs></defs>
    <g id="Page-1" stroke="none" stroke-width="1" fill="none" fill-rule="evenodd">
        <g id="medservicebel_text_05_hover" transform="translate(-486.000000, -24.000000)" fill="#DBE1E3">
            <g id="Header">
                <g id="Верхнее-меню" transform="translate(48.000000, 13.000000)">
                    <g id="f" transform="translate(429.000000, 4.000000)">
                        <path d="M14.74741,13.3079025 L13.2503939,13.3079025 C13.2503939,15.6996444 13.2503939,18.6436403 13.2503939,18.6436403 L11.0321117,18.6436403 C11.0321117,18.6436403 11.0321117,15.7281837 11.0321117,13.3079025 L9.97764,13.3079025 L9.97764,11.4220847 L11.0321117,11.4220847 L11.0321117,10.2023074 C11.0321117,9.32870823 11.4472288,7.96364 13.2707791,7.96364 L14.9145688,7.96994089 L14.9145688,9.80053334 C14.9145688,9.80053334 13.9156932,9.80053334 13.7214777,9.80053334 C13.5272622,9.80053334 13.2511351,9.8976411 13.2511351,10.3142408 L13.2511351,11.4224553 L14.9412549,11.4224553 L14.74741,13.3079025 Z" id="Path"></path>
                    </g>
                </g>
            </g>
        </g>
    </g>
</svg>