<?xml version="1.0" encoding="UTF-8"?>
<svg width="25px" height="32px" viewBox="0 0 25 32" version="1.1" xmlns="http://www.w3.org/2000/svg" xmlns:xlink="http://www.w3.org/1999/xlink">
    <!-- Generator: sketchtool 51.2 (57519) - http://www.bohemiancoding.com/sketch -->
    <title>52B987AE-C262-44B8-A0A9-59E7EEA1D6C3</title>
    <desc>Created with sketchtool.</desc>
    <defs>
        <linearGradient x1="0%" y1="1.55572612%" x2="100%" y2="1.55572612%" id="linearGradient-1">
            <stop stop-color="#1EBF9D" offset="0%"></stop>
            <stop stop-color="#1073B9" offset="100%"></stop>
        </linearGradient>
    </defs>
    <g id="Page-1" stroke="none" stroke-width="1" fill="none" fill-rule="evenodd">
        <g id="medservicebel_text_05_hover" transform="translate(-278.000000, -11150.000000)" fill="url(#linearGradient-1)" fill-rule="nonzero">
            <g id="Файл-для-скачивания-Copy" transform="translate(278.000000, 11150.000000)">
                <g id="text/svg/file">
                    <path d="M24.2308236,10.9176661 L13.8461691,0.752890271 C13.2692869,0.376445136 12.5,0 11.7308236,0 L4.80768381,0 C2.11545602,0 0,2.07055642 0,4.70588872 L0,27.2941113 C0,29.9294436 2.11534551,32 4.80768381,32 L20.1923162,32 C22.8846545,32 25,29.9294436 25,27.2941113 L25,12.9882226 C25,12.2353323 24.8077059,11.4823339 24.2308236,10.9176661 Z M13,3 L21,11 L15.7273036,11 C14.2727486,11 13,9.72725136 13,8.2726964 L13,3 Z M20.1364484,30 L4.8636613,30 C3.33638259,30 2,28.6933162 2,27.1999785 L2,4.80002145 C2,3.30668383 3.33638259,2 4.8636613,2 L11.5454645,2 L11.5454645,8.53331188 C11.5454645,11.1466795 13.6454316,13.1999785 16.3181968,13.1999785 L23,13.1999785 L23,27.1999785 C23.0001097,28.6933162 21.6637271,30 20.1364484,30 Z" id="Shape"></path>
                    <path d="M16.0999793,18.5999793 L13.4000207,18.5999793 L13.4000207,15.9000207 C13.4000207,15.3600703 13.0400538,15 12.5,15 C11.9600497,15 11.5999793,15.3599669 11.5999793,15.9000207 L11.5999793,18.5999793 L8.90002069,18.5999793 C8.36007034,18.5999793 8,18.9599462 8,19.5 C8,20.0399503 8.3599669,20.4000207 8.90002069,20.4000207 L11.5999793,20.4000207 L11.5999793,23.0999793 C11.5999793,23.6399297 11.9599462,24 12.5,24 C13.0399503,24 13.4000207,23.6400331 13.4000207,23.0999793 L13.4000207,20.4000207 L16.0999793,20.4000207 C16.6399297,20.4000207 17,20.0400538 17,19.5 C16.9998966,18.9599462 16.6399297,18.5999793 16.0999793,18.5999793 Z" id="Shape"></path>
                </g>
            </g>
        </g>
    </g>
</svg>