<?xml version="1.0" encoding="UTF-8"?>
<svg width="25px" height="32px" viewBox="0 0 25 32" version="1.1" xmlns="http://www.w3.org/2000/svg" xmlns:xlink="http://www.w3.org/1999/xlink">
    <!-- Generator: sketchtool 51.2 (57519) - http://www.bohemiancoding.com/sketch -->
    <title>B1628B92-C84C-44F4-B083-4BFCB35DCA6E</title>
    <desc>Created with sketchtool.</desc>
    <defs>
        <linearGradient x1="0%" y1="1.55572612%" x2="100%" y2="1.55572612%" id="linearGradient-1">
            <stop stop-color="#1EBF9D" offset="0%"></stop>
            <stop stop-color="#1073B9" offset="100%"></stop>
        </linearGradient>
    </defs>
    <g id="Page-1" stroke="none" stroke-width="1" fill="none" fill-rule="evenodd">
        <g id="medservicebel_text_05_hover" transform="translate(-277.000000, -11094.000000)" fill="url(#linearGradient-1)" fill-rule="nonzero">
            <g id="Файл-для-скачивания" transform="translate(277.000000, 11094.000000)">
                <g id="text/svg/document">
                    <path d="M20.1923162,0 L4.80768381,0 C2.11545602,0 0,2.07055642 0,4.70588872 L0,27.2941113 C0,29.9294436 2.11534551,32 4.80768381,32 L20.1923162,32 C22.8846545,32 25,29.9294436 25,27.2941113 L25,4.70588872 C25,2.07055642 22.8846545,0 20.1923162,0 Z M23,27.1999785 C23,28.6933162 21.6636244,30 20.1363537,30 L4.86364634,30 C3.3363756,30 2,28.6933162 2,27.1999785 L2,4.80002145 C2,3.30668383 3.3363756,2 4.86364634,2 L20.1363537,2 C21.6636244,2 23,3.30668383 23,4.80002145 L23,27.1999785 Z" id="Shape"></path>
                    <path d="M7.00003831,12 L10.9999617,12 C11.5999157,12 12,11.6000306 12,10.9999617 L12,7.00003831 C12,6.40008428 11.6000306,6 10.9999617,6 L7.00003831,6 C6.40008428,6 6,6.39996935 6,7.00003831 L6,10.9999617 C6,11.6000306 6.39996935,12 7.00003831,12 Z M7.99996169,8.00007662 L9.99992338,8.00007662 L9.99992338,10.0000383 L7.99996169,10.0000383 L7.99996169,8.00007662 Z" id="Shape"></path>
                    <path d="M18.0713905,13 L6.92860954,13 C6.37150785,13 6,13.399954 6,14 C6,14.599931 6.37140113,15 6.92860954,15 L18.0713905,15 C18.6284921,15 19,14.600046 19,14 C18.9998933,13.400069 18.6284921,13 18.0713905,13 Z" id="Shape"></path>
                    <path d="M18.0713905,19 L6.92860954,19 C6.37150785,19 6,19.399954 6,20 C6,20.599931 6.37140113,21 6.92860954,21 L18.0713905,21 C18.6284921,21 19,20.600046 19,20 C18.9998933,19.400069 18.6284921,19 18.0713905,19 Z" id="Shape"></path>
                    <path d="M18.0713905,25 L6.92860954,25 C6.37150785,25 6,25.399954 6,26 C6,26.600046 6.37140113,27 6.92860954,27 L18.0713905,27 C18.6284921,27 19,26.600046 19,26 C19,25.399954 18.6284921,25 18.0713905,25 Z" id="Shape"></path>
                    <path d="M17.9999617,7 L14.0000383,7 C13.4000843,7 13,7.39995403 13,8 C13,8.59993104 13.3999694,9 14.0000383,9 L17.9999617,9 C18.5999157,9 19,8.60004597 19,8 C18.9998851,7.39995403 18.5999157,7 17.9999617,7 Z" id="Shape"></path>
                </g>
            </g>
        </g>
    </g>
</svg>