<?xml version="1.0" encoding="UTF-8"?>
<svg width="19px" height="18px" viewBox="0 0 19 18" version="1.1" xmlns="http://www.w3.org/2000/svg" xmlns:xlink="http://www.w3.org/1999/xlink">
    <!-- Generator: sketchtool 51.2 (57519) - http://www.bohemiancoding.com/sketch -->
    <title>54BF40BD-BA1A-4DBA-A027-B15B06C5EE5E</title>
    <desc>Created with sketchtool.</desc>
    <defs>
        <linearGradient x1="0%" y1="1.55572612%" x2="100%" y2="1.55572612%" id="linearGradient-1">
            <stop stop-color="#1EBF9D" offset="0%"></stop>
            <stop stop-color="#1073B9" offset="100%"></stop>
        </linearGradient>
    </defs>
    <g id="Page-1" stroke="none" stroke-width="1" fill="none" fill-rule="evenodd">
        <g id="medservicebel_sanatorij_05_hover" transform="translate(-285.000000, -3446.000000)" fill="url(#linearGradient-1)" fill-rule="nonzero">
            <g id="Услуги-и-преимущества" transform="translate(275.000000, 2664.000000)">
                <g id="Размещение" transform="translate(2.000000, 775.000000)">
                    <g id="sanatorij/svg/flag" transform="translate(8.000000, 7.000000)">
                        <path d="M7.00590867,16.4640867 L0.547360205,16.4640867 C0.218981827,16.4640867 -7.10542736e-15,16.6830056 -7.10542736e-15,17.0114469 C-7.10542736e-15,17.3398882 0.218918919,17.5588071 0.547360205,17.5588071 L7.00590867,17.5588071 C7.22482759,17.5588071 7.55326887,17.3398882 7.55326887,17.0114469 C7.55326887,16.6830056 7.33428705,16.4640867 7.00590867,16.4640867 Z" id="Shape"></path>
                        <path d="M18.4999068,8.36358341 L16.6389702,5.73636766 L18.4999068,1.79557549 C18.6093663,1.57665657 18.4999068,1.35773765 18.3904473,1.13875582 C18.1715284,1.02929637 17.9526095,0.919836906 17.7336277,1.02929637 C17.7336277,1.02929637 16.3105918,1.90503495 14.4495923,1.90503495 C12.5885927,1.90503495 11.1655568,1.02929637 11.1655568,1.02929637 C11.0560974,1.02929637 9.41407968,0.0440983225 7.33422414,0.0440983225 C5.25436859,0.0440983225 3.50295433,1.02923346 3.50295433,1.02923346 C3.39349487,1.13869292 3.28403541,1.35761184 3.28403541,1.4670713 L3.28403541,14.3841682 L2.40823392,14.3841682 C2.07985555,14.3841682 1.86087372,14.6030871 1.86087372,14.9315284 C1.86087372,15.2599697 2.07979264,15.4788886 2.40823392,15.4788886 L5.14490913,15.4788886 C5.47328751,15.4788886 5.69226934,15.2599697 5.69226934,14.9315284 C5.69226934,14.6030871 5.47335042,14.3841682 5.14490913,14.3841682 L4.37863001,14.3841682 L4.37863001,9.02034017 C4.92599021,8.80142125 6.02064772,8.25406104 7.4436836,8.25406104 C9.30462022,8.25406104 10.727719,9.12979963 10.727719,9.12979963 C10.8371785,9.12979963 12.4791962,10.1149977 14.5590517,10.1149977 C16.6389073,10.1149977 18.3903844,9.12979963 18.3903844,9.12979963 C18.4998439,9.02034017 18.6093034,8.91088071 18.6093034,8.80142125 C18.6093663,8.69196179 18.6093663,8.47304287 18.4999068,8.36358341 Z M14.4496552,9.02034017 C12.5887185,9.02034017 11.1656198,8.14460158 11.1656198,8.14460158 C11.0561603,8.14460158 9.41414259,7.15940354 7.33428705,7.15940354 C6.13017008,7.15940354 5.03544967,7.48778192 4.26923346,7.81622321 L4.26923346,1.90503495 C4.81659366,1.68611603 5.91125116,1.13875582 7.33428705,1.13875582 C9.19522367,1.13875582 10.6183225,2.01449441 10.6183225,2.01449441 C10.7277819,2.01449441 12.3697996,2.99969245 14.4496552,2.99969245 C15.4348532,2.99969245 16.2011323,2.78077353 16.857952,2.56185461 L15.4349161,5.51744874 C15.3254567,5.73636766 15.3254567,5.95528658 15.4349161,6.06480895 L17.0769338,8.47310578 C16.6390331,8.69196179 15.6537721,9.02034017 14.4496552,9.02034017 Z" id="Shape"></path>
                    </g>
                </g>
            </g>
        </g>
    </g>
</svg>