<?xml version="1.0" encoding="UTF-8"?>
<svg width="53px" height="53px" viewBox="0 0 53 53" version="1.1" xmlns="http://www.w3.org/2000/svg" xmlns:xlink="http://www.w3.org/1999/xlink">
    <!-- Generator: sketchtool 51.2 (57519) - http://www.bohemiancoding.com/sketch -->
    <title>D0994ABF-ED93-4F2A-B252-97E3E3F8F532</title>
    <desc>Created with sketchtool.</desc>
    <defs>
        <circle id="path-1" cx="23.5" cy="23.5" r="23.5"></circle>
        <linearGradient x1="0%" y1="1.55572612%" x2="100%" y2="1.55572612%" id="linearGradient-3">
            <stop stop-color="#1EBF9D" offset="0%"></stop>
            <stop stop-color="#1073B9" offset="100%"></stop>
        </linearGradient>
    </defs>
    <g id="Page-1" stroke="none" stroke-width="1" fill="none" fill-rule="evenodd">
        <g id="medservicebel_index_15_hover" transform="translate(-953.000000, -1970.000000)">
            <g id="3-й-экран" transform="translate(0.000000, 1743.000000)">
                <g id="Список-направлений" transform="translate(498.000000, 215.000000)">
                    <g id="Иконки">
                        <g id="index/svg/napravlenie/Флебология" transform="translate(442.000000, 0.000000)">
                            <circle id="Oval-7-Copy" stroke="#0091EA" fill="#FFFFFF" cx="39.5" cy="38.5" r="26"></circle>
                            <g id="noun_leg_1081709" transform="translate(16.000000, 15.000000)">
                                <mask id="mask-2" fill="white">
                                    <use xlink:href="#path-1"></use>
                                </mask>
                                <use id="Mask" fill="#FFFFFF" xlink:href="#path-1"></use>
                                <g mask="url(#mask-2)" id="Group">
                                    <g transform="translate(8.000000, -12.000000)">
                                        <g>
                                            <path d="M28.3747692,49.9352 C28.328,49.9451556 23.7833846,50.8610667 22.1470769,46.1900444 C21.9230769,45.5504 21.7058462,44.8920889 21.4953846,44.2555556 C20.8584615,42.3248 20.1993846,40.3280889 19.2504615,38.5410667 C17.6904615,35.6010667 17.0424615,32.1894222 16.416,28.8897778 C16.2775385,28.1605333 16.1341538,27.4070222 15.9852308,26.684 C15.8516923,26.0350222 15.7150769,25.3848 15.5784615,24.7333333 C14.9230769,21.6097778 14.2455385,18.3792 13.848,15.1691556 C13.8418462,15.1181333 13.4178462,11.7226667 12.6147692,7.86426667 C12.5101538,7.84622222 12.4233846,7.80391111 12.3698462,7.77715556 C8.78461538,5.98764444 4.66830769,5.45626667 0.755076923,6.272 C1.08184615,12.2098667 2.74584615,17.6001778 6.11261538,23.9462222 C8.02215385,27.5451556 10.6369231,32.4744 10.7132308,37.4633778 C10.7347692,38.8994667 10.2873846,39.9864889 9.81353846,41.1376 C9.63692308,41.5675556 9.45353846,42.0118222 9.29476923,42.4809778 C8.76430769,44.044 8.43138462,46.1570667 9.85661538,47.3467556 C10.5581538,47.9322667 7.42061538,48.2371556 12.4603077,48.6185778 C17.5,49 20.5,56 22.9741538,55.2782222 C24.2845188,54.8959532 25.624,54.4904889 26.904,53.9056 L27.2806154,53.7338667 C28.6750769,53.1010667 30.9944615,51.7881778 31.2830769,50.9581333 C31.3236923,50.8411556 31.3052308,50.7789333 31.2843077,50.7378667 C31.2498462,50.6569778 30.72,49.4231111 28.3747692,49.9352 Z M26.1526154,51.4988444 C25.5766154,51.6568889 25.0886154,52.1061333 24.8793846,52.6711111 C24.8289231,52.8073778 24.7009231,52.892 24.5649231,52.892 C24.5255385,52.892 24.4861538,52.8851556 24.4467692,52.8702222 C24.2726154,52.8042667 24.1846154,52.6082667 24.2498462,52.4328 C24.5335385,51.6662222 25.1950769,51.0570667 25.9766154,50.8424 C26.1550769,50.7932444 26.3403077,50.9002667 26.3889231,51.0813333 C26.4375385,51.2630222 26.3316923,51.4496889 26.1526154,51.4988444 Z" id="Shape"></path>
                                            <path d="M25.9766154,50.8430222 C25.1950769,51.0570667 24.5335385,51.6668444 24.2498462,52.4334222 C24.1846154,52.6088889 24.2726154,52.8048889 24.4467692,52.8708444 C24.4855385,52.8857778 24.5255385,52.8926222 24.5649231,52.8926222 C24.7009231,52.8926222 24.8289231,52.8086222 24.8793846,52.6717333 C25.0886154,52.1067556 25.5766154,51.6575111 26.1526154,51.4994667 C26.3316923,51.4503111 26.4375385,51.2636444 26.3889231,51.0825778 C26.3403077,50.9002667 26.1550769,50.7932444 25.9766154,50.8430222 Z" id="Shape" fill="#000000" fill-rule="nonzero"></path>
                                            <path d="M31.8898462,50.4441778 C31.8018462,50.2357333 31.0381538,48.6577778 28.2344615,49.2706667 C28.0713846,49.3048889 24.2172308,50.0646222 22.7803077,45.9629333 C22.5581538,45.3288889 22.3421538,44.6736889 22.1329231,44.0402667 C21.4867692,42.0827556 20.8184615,40.0580444 19.8430769,38.22 C18.3310769,35.3714667 17.6935385,32.0114667 17.0763077,28.7622222 C16.9372308,28.0304889 16.7938462,27.2738667 16.6436923,26.5458667 C16.5095385,25.8956444 16.3729231,25.2448 16.2363077,24.5933333 C15.584,21.4834667 14.9089231,18.2672 14.5150769,15.0857778 C14.5058462,15.0098667 13.5563077,7.40071111 11.7895385,1.94133333 C11.7101538,1.6968 11.5575385,1.48897778 11.3470769,1.33902222 C10.5550769,0.774044444 7.46461538,-0.942044444 0.946461538,0.682577778 C0.451692308,0.805777778 0.102769231,1.23884444 0.0775384615,1.75964444 C-0.308923077,9.73342222 1.26830769,16.2536889 5.52061538,24.2685333 C7.39753846,27.8058667 9.968,32.6511111 10.0412308,37.4752 C10.0609231,38.7700444 9.63938462,39.7942222 9.19323077,40.8781333 C9.01230769,41.3180444 8.82523077,41.7722667 8.65907692,42.2619556 C8.05969231,44.0284444 7.70707692,46.4352 9.42892308,47.8725333 C10.2215385,48.5339556 11.2449231,48.9035556 12.2344615,49.2600889 C12.9292308,49.5108444 13.5852308,49.7472889 14.1612308,50.0752 C16.1341538,51.1976889 17.8061538,52.5777778 19.1292308,54.1775111 L19.2578462,54.3336889 C19.552,54.6933333 19.8566154,55.0660444 20.2516923,55.356 C20.8276923,55.7791111 21.5723077,56 22.3950769,56 C22.6135385,56 22.8375385,55.9844444 23.0652308,55.9527111 C24.4886154,55.7554667 25.9187692,55.1027556 27.1803077,54.5259556 L27.5556923,54.3548444 C27.952,54.1750222 31.4387692,52.5597333 31.9169231,51.1852444 C32.008,50.9245333 31.9981538,50.6688 31.8898462,50.4441778 Z M0.748923077,1.79573333 C0.76,1.57173333 0.904,1.39191111 1.10707692,1.34088889 C7.34892308,-0.214666667 10.2264615,1.37013333 10.9593846,1.8928 C11.0504615,1.95751111 11.1163077,2.04711111 11.1501538,2.15164444 C11.2966154,2.604 11.4375385,3.07253333 11.5723077,3.54915556 C10.832,3.1752 9.99138462,3.02088889 9.22769231,2.9232 C6.36861538,2.55733333 3.50153846,2.70542222 0.699076923,3.35937778 C0.707076923,2.84417778 0.723692308,2.32337778 0.748923077,1.79573333 Z M0.694153846,4.05937778 C3.46953846,3.39173333 6.31015385,3.23555556 9.144,3.59768889 C10.1083077,3.72088889 11.1003077,3.92 11.8369231,4.52044444 C12.056,5.3592 12.2578462,6.21475556 12.4424615,7.05786667 C8.80861538,5.30568889 4.67015385,4.78551111 0.723692308,5.58444444 C0.704615385,5.08106667 0.694769231,4.57271111 0.694153846,4.05937778 Z M31.2830769,50.96 C30.9944615,51.7894222 28.6750769,53.1023111 27.2806154,53.7357333 L26.904,53.9074667 C25.624,54.4917333 24.3009231,55.0965333 22.9741538,55.2800889 C22.0609231,55.4070222 21.2344615,55.2384 20.6467692,54.8065778 C20.3206154,54.5670222 20.056,54.2434667 19.7766154,53.9012444 L19.6455385,53.7419556 C18.2695385,52.0787556 16.5353846,50.6464 14.4910769,49.4834667 C13.8652308,49.1275556 13.1513846,48.8699556 12.4603077,48.6204444 C11.5249231,48.2832 10.5581538,47.9341333 9.85661538,47.3486222 C8.43138462,46.1589333 8.76430769,44.0458667 9.29476923,42.4828444 C9.45415385,42.0136889 9.63692308,41.5688 9.81353846,41.1394667 C10.2873846,39.9883556 10.7347692,38.9007111 10.7132308,37.4652444 C10.6375385,32.4762667 8.02215385,27.5470222 6.11261538,23.9480889 C2.74584615,17.6020444 1.08184615,12.2117333 0.755076923,6.27386667 C4.66769231,5.45813333 8.78461538,5.98951111 12.3698462,7.77902222 C12.4233846,7.80577778 12.5095385,7.84808889 12.6147692,7.86613333 C13.4178462,11.7245333 13.8418462,15.1206222 13.848,15.1710222 C14.2455385,18.3816889 14.9230769,21.6116444 15.5784615,24.7352 C15.7150769,25.3860444 15.8516923,26.0362667 15.9852308,26.6858667 C16.1341538,27.4088889 16.2775385,28.1630222 16.416,28.8916444 C17.0424615,32.1912889 17.6904615,35.6029333 19.2504615,38.5429333 C20.1987692,40.3299556 20.8578462,42.3266667 21.4953846,44.2574222 C21.7052308,44.8939556 21.9224615,45.5516444 22.1470769,46.1919111 C23.7833846,50.8629333 28.328,49.9470222 28.3747692,49.9370667 C30.72,49.4243556 31.2498462,50.6588444 31.2695385,50.708 C31.3052308,50.7808 31.3236923,50.8430222 31.2830769,50.96 Z" id="Shape" fill="#000000" fill-rule="nonzero"></path>
                                            <path d="M31.8686901,50.4432734 C31.7806901,50.2348289 31.0169978,48.6568734 28.2133055,49.2697623 C28.0502286,49.3039845 24.1960747,50.0637178 22.7591517,45.9620289 C22.5369978,45.3279845 22.3209978,44.6727845 22.111767,44.0393623 C21.4656132,42.0818511 20.7973055,40.05714 19.8219209,38.2190956 C18.3099209,35.3705623 17.6723824,32.0105623 17.0551517,28.7613178 C16.9160747,28.0295845 16.7726901,27.2729623 16.6225363,26.5449623 C16.4883824,25.89474 16.351767,25.2438956 16.2151517,24.5924289 C15.562844,21.4825623 14.887767,18.2662956 14.4939209,15.0848734 C14.4846901,15.0089623 13.5351517,7.3998067 11.7683824,1.94042892 C11.6889978,1.69589559 11.5363824,1.48807337 11.3259209,1.33811781 C10.5339209,0.773140036 7.44345935,-0.942948853 0.925305501,0.681673369 C0.43053627,0.804873369 0.0816131935,1.23794004 0.0563824243,1.75874004 C0.0563824243,1.76122892 0.0563824243,1.76309559 0.0563824243,1.76496226 C-0.330079114,9.73251781 1.24715166,16.2527845 5.49945935,24.2676289 C7.37638242,27.8049623 9.94684396,32.6502067 10.0200747,37.4742956 C10.039767,38.76914 9.61822858,39.7933178 9.17207473,40.8772289 C8.99115166,41.31714 8.80407473,41.7713623 8.63792089,42.2610511 C8.03853627,44.02754 7.68592089,46.4342956 9.40776704,47.8716289 C10.2003824,48.5330511 11.223767,48.9026511 12.2133055,49.2591845 C12.9080747,49.50994 13.5640747,49.7463845 14.1400747,50.0742956 C16.1129978,51.1967845 17.7849978,52.5768734 19.1080747,54.1766067 L19.2366901,54.3327845 C19.530844,54.6924289 19.8354593,55.06514 20.2305363,55.3550956 C20.8065363,55.7782067 21.5511517,55.9990956 22.3739209,55.9990956 C22.5923824,55.9990956 22.8163824,55.98354 23.0440747,55.9518067 C24.4674593,55.7545623 25.8976132,55.1018511 27.1591517,54.5250511 L27.5345363,54.35394 C27.930844,54.1741178 31.4176132,52.5588289 31.895767,51.18434 C31.986844,50.9236289 31.9769978,50.6678956 31.8686901,50.4432734 Z" id="Path" fill="url(#linearGradient-3)" opacity="0.200000003"></path>
                                            <path d="M31.8686901,50.4432734 C31.7806901,50.2348289 31.0169978,48.6568734 28.2133055,49.2697623 C28.0502286,49.3039845 24.1960747,50.0637178 22.7591517,45.9620289 C22.5369978,45.3279845 22.3209978,44.6727845 22.111767,44.0393623 C21.4656132,42.0818511 20.7973055,40.05714 19.8219209,38.2190956 C18.3099209,35.3705623 17.6723824,32.0105623 17.0551517,28.7613178 C16.9160747,28.0295845 16.7726901,27.2729623 16.6225363,26.5449623 C16.4883824,25.89474 16.351767,25.2438956 16.2151517,24.5924289 C15.562844,21.4825623 14.887767,18.2662956 14.4939209,15.0848734 C14.4846901,15.0089623 13.5351517,7.3998067 11.7683824,1.94042892 C11.6889978,1.69589559 11.5363824,1.48807337 11.3259209,1.33811781 C10.5339209,0.773140036 7.44345935,-0.942948853 0.925305501,0.681673369 C0.43053627,0.804873369 0.0816131935,1.23794004 0.0563824243,1.75874004 C0.0563824243,1.76122892 0.0563824243,1.76309559 0.0563824243,1.76496226 C-0.330079114,9.73251781 1.24715166,16.2527845 5.49945935,24.2676289 C7.37638242,27.8049623 9.94684396,32.6502067 10.0200747,37.4742956 C10.039767,38.76914 9.61822858,39.7933178 9.17207473,40.8772289 C8.99115166,41.31714 8.80407473,41.7713623 8.63792089,42.2610511 C8.03853627,44.02754 7.68592089,46.4342956 9.40776704,47.8716289 C10.2003824,48.5330511 11.223767,48.9026511 12.2133055,49.2591845 C12.9080747,49.50994 13.5640747,49.7463845 14.1400747,50.0742956 C16.1129978,51.1967845 17.7849978,52.5768734 19.1080747,54.1766067 L19.2366901,54.3327845 C19.530844,54.6924289 19.8354593,55.06514 20.2305363,55.3550956 C20.8065363,55.7782067 21.5511517,55.9990956 22.3739209,55.9990956 C22.5923824,55.9990956 22.8163824,55.98354 23.0440747,55.9518067 C24.4674593,55.7545623 25.8976132,55.1018511 27.1591517,54.5250511 L27.5345363,54.35394 C27.930844,54.1741178 31.4176132,52.5588289 31.895767,51.18434 C31.986844,50.9236289 31.9769978,50.6678956 31.8686901,50.4432734 Z" id="Path-Copy-2" stroke="#00141B" stroke-width="0.8"></path>
                                        </g>
                                    </g>
                                </g>
                            </g>
                        </g>
                    </g>
                </g>
            </g>
        </g>
    </g>
</svg>