<?xml version="1.0" encoding="UTF-8"?>
<svg width="19px" height="19px" viewBox="0 0 19 19" version="1.1" xmlns="http://www.w3.org/2000/svg" xmlns:xlink="http://www.w3.org/1999/xlink">
    <!-- Generator: sketchtool 51.2 (57519) - http://www.bohemiancoding.com/sketch -->
    <title>E4C24A51-406A-44DC-85F7-E88D120DB341</title>
    <desc>Created with sketchtool.</desc>
    <defs></defs>
    <g id="Page-1" stroke="none" stroke-width="1" fill="none" fill-rule="evenodd">
        <g id="medservicebel_str_napravlenija_05_hover" transform="translate(-1346.000000, -1241.000000)" fill="#0088CC" fill-rule="nonzero">
            <g id="Карточка" transform="translate(392.000000, 1214.000000)">
                <g id="Group-10" transform="translate(828.000000, 24.000000)">
                    <g id="сим-карта-copy">
                        <g id="sim" transform="translate(126.000000, 0.000000)">
                            <g id="str_napravlenija/svg/free_consultation" transform="translate(0.000000, 3.000000)">
                                <path d="M13.1034483,5.8256835 L13.1034483,2.47217974 C13.1034483,1.10909687 12.0123805,0 10.6713098,0 L2.43184709,0 C1.09092206,0 0,1.10909687 0,2.47217974 L0,8.07245994 C0,9.24005505 0.80027174,10.2210482 1.87239988,10.4787366 L1.87239988,11.8795842 C1.87239988,12.1095785 2.00876513,12.316914 2.2178294,12.4050316 C2.28703183,12.4342067 2.35973084,12.4482759 2.43184709,12.4482759 C2.57739078,12.4482759 2.72045773,12.3905181 2.82753943,12.2816669 L4.53618445,10.5447878 L4.87360105,10.5447878 L4.87360105,9.43524664 C4.87360105,7.44482575 6.466423,5.8256835 8.42434255,5.8256835 L13.1034483,5.8256835 Z" id="Shape"></path>
                                <path d="M16.5679802,6.55172414 L8.32842585,6.55172414 C6.98748591,6.55172414 5.89655172,7.66067292 5.89655172,9.02390392 L5.89655172,14.6241841 C5.89655172,15.987415 6.98748591,17.0963638 8.32842585,17.0963638 L14.4636194,17.0963638 L16.1722834,18.8333911 C16.2793663,18.9422422 16.4224349,19 16.5681259,19 C16.6400972,19 16.712797,18.9859308 16.7820003,18.9567557 C16.9910669,18.8686381 17.1274336,18.6613026 17.1274336,18.4313083 L17.1274336,17.0304608 C18.1997194,16.7729204 19,15.7917792 19,14.6241841 L19,9.02390392 C19,7.66067292 17.9089201,6.55172414 16.5679802,6.55172414 Z M14.8300323,10.8801491 L12.1816613,13.5722526 C12.0723931,13.6833252 11.9291788,13.7387133 11.7861103,13.7387133 C11.642896,13.7387133 11.4996818,13.6833252 11.3905592,13.5722526 L10.0662281,12.2262008 C9.84769156,12.0042037 9.84769156,11.6440323 10.0662281,11.4218872 C10.2846189,11.1998901 10.6389394,11.1998901 10.8573302,11.4218872 L11.7861103,12.3658561 L14.0387845,10.0758354 C14.257321,9.8538383 14.6114958,9.8538383 14.8300323,10.0758354 C15.0485688,10.2979806 15.0485688,10.658152 14.8300323,10.8801491 Z" id="Shape"></path>
                            </g>
                        </g>
                    </g>
                </g>
            </g>
        </g>
    </g>
</svg>