<?xml version="1.0" encoding="UTF-8"?>
<svg width="45px" height="27px" viewBox="0 0 45 27" version="1.1" xmlns="http://www.w3.org/2000/svg" xmlns:xlink="http://www.w3.org/1999/xlink">
    <!-- Generator: sketchtool 51.2 (57519) - http://www.bohemiancoding.com/sketch -->
    <title>29DC3F20-9635-459A-9EC7-DA4414780F7F</title>
    <desc>Created with sketchtool.</desc>
    <defs>
        <linearGradient x1="0%" y1="1.55572612%" x2="100%" y2="1.55572612%" id="linearGradient-1">
            <stop stop-color="#1EBF9D" offset="0%"></stop>
            <stop stop-color="#1073B9" offset="100%"></stop>
        </linearGradient>
    </defs>
    <g id="Page-1" stroke="none" stroke-width="1" fill="none" fill-rule="evenodd">
        <g id="medservicebel_spisok_napravlenij_05_hover" transform="translate(-765.000000, -857.000000)" fill-rule="nonzero">
            <g id="Иконки" transform="translate(71.000000, 607.000000)">
                <g id="гинекология" transform="translate(690.000000, 235.000000)">
                    <g id="spisok_napravlenij/svg/ginekologia" transform="translate(5.000000, 16.000000)">
                        <path d="M29.3921233,3.06952055 C29.2294521,2.83458904 29.0558219,2.61130137 28.8565068,2.4109589 C27.1729452,0.720890411 24.3414384,0.493150685 21.7945205,0.493150685 C18.3089041,0.493150685 15.6044521,1.01849315 14.1938356,3.0739726 C13.4866438,1.8630137 13.3972603,3.58356164 13.5965753,4.23321918 C13.2842466,5.07431507 13.1167808,6.09383562 13.1123288,7.32671233 L13.1106164,7.42534247 C13.1078767,7.53835616 13.1061644,7.67328767 13.1123288,7.75136986 C13.1472603,8.20753425 13.5273973,12.2863014 16.2071918,15.0054795 C16.8767123,15.6842466 16.9613014,16.1359589 17.0589041,16.6575342 C17.1924658,17.3691781 17.3428082,18.1719178 18.8445205,19.2506849 L19.1797945,24.8684932 L24.7417808,24.8684932 L24.7417808,19.2510274 C26.2434932,18.1722603 26.3938356,17.3695205 26.5277397,16.6578767 C26.6253425,16.1356164 26.709589,15.684589 27.3791096,15.0058219 C30.0438356,12.3013699 30.4380137,8.2109589 30.4739726,7.75205479 C30.4794521,7.68013699 30.4787671,7.55856164 30.4773973,7.45547945 L30.4770548,7.3630137 C30.4818493,6.12636986 30.3136986,5.08356164 29.9821918,4.20616438 C30.2236301,3.51712329 30.1205479,1.86130137 29.3921233,3.06952055 Z" id="Shape" fill="url(#linearGradient-1)" opacity="0.200000003"></path>
                        <path d="M42.1770548,10.8167808 C43.7575342,9.14383562 43.634589,6.61883562 43.6291096,6.54143836 C43.6291096,3.91746575 40.9777397,0.120890411 36.1832192,0.120890411 C31.910274,0.120890411 30.1205479,1.86130137 29.3921233,3.06952055 C29.2294521,2.83458904 29.0558219,2.61130137 28.8565068,2.4109589 C27.1729452,0.720890411 24.3414384,0.493150685 21.7945205,0.493150685 C18.3089041,0.493150685 15.6044521,1.01849315 14.1938356,3.0739726 C13.4866438,1.8630137 11.7270548,0.120547945 7.45136986,0.120547945 C2.65719178,0.120547945 0.00582191781,3.91712329 0.00650684932,6.5119863 C1.33137642e-13,6.61917808 -0.123287671,9.14417808 1.45753425,10.8167808 C1.56472603,10.930137 1.67739726,11.0359589 1.79417808,11.1359589 C0.875342466,12.7092466 0.867465753,14.4965753 1.9140411,15.5441781 C2.45342466,16.0832192 3.18972603,16.3434932 3.99178082,16.3434932 C5.15821918,16.3434932 6.46438356,15.7931507 7.50753425,14.7503425 C9.26849315,12.9890411 9.62465753,10.480137 8.30136986,9.15684932 C7.63767123,8.49315068 6.67363014,8.225 5.58664384,8.40205479 C4.5619863,8.56917808 3.53938356,9.11917808 2.70787671,9.95068493 C2.59760274,10.0609589 2.49280822,10.1739726 2.39383562,10.289726 C2.33082192,10.2332192 2.26712329,10.1777397 2.20856164,10.1157534 C0.931506849,8.76952055 1.03082192,6.59143836 1.03253425,6.54143836 C1.03253425,4.60582192 3.17739726,1.14828767 7.45068493,1.14828767 C12.3256849,1.14828767 13.3972603,3.58356164 13.5965753,4.23321918 C13.2842466,5.07431507 13.1167808,6.09383562 13.1123288,7.32671233 L13.1106164,7.42534247 C13.1078767,7.53835616 13.1061644,7.67328767 13.1123288,7.75136986 C13.1472603,8.20753425 13.5273973,12.2863014 16.2071918,15.0054795 C16.8767123,15.6842466 16.9613014,16.1359589 17.0589041,16.6575342 C17.1924658,17.3691781 17.3428082,18.1719178 18.8445205,19.2506849 L19.1797945,24.8684932 L20.2054795,24.8078767 L19.8407534,18.689726 L19.6318493,18.5479452 C18.2880137,17.6342466 18.1917808,17.119863 18.0695205,16.4684932 C17.9623288,15.8979452 17.8291096,15.1869863 16.9393836,14.284589 C14.9715753,12.2876712 14.2520548,9.18972603 14.1369863,7.67328767 C14.1328767,7.61883562 14.1363014,7.5260274 14.1380137,7.44828767 L14.1400685,7.33013699 C14.1571918,2.44657534 16.8434932,1.52089041 21.7941781,1.52089041 C25.1058219,1.52089041 27,2.00376712 28.1277397,3.13630137 C29.0239726,4.0359589 29.4568493,5.41746575 29.4493151,7.35924658 L29.45,7.46986301 C29.4513699,7.54041096 29.4534247,7.6239726 29.45,7.67226027 C29.4164384,8.09178082 29.0568493,11.839726 26.6472603,14.284589 C25.7575342,15.1869863 25.6246575,15.8972603 25.5174658,16.4684932 C25.3952055,17.119863 25.2986301,17.6342466 23.9547945,18.5479452 L23.7455479,18.689726 L23.3811644,24.8078767 L24.4065068,24.8688356 L24.7417808,19.2510274 C26.2434932,18.1722603 26.3938356,17.3695205 26.5277397,16.6578767 C26.6253425,16.1356164 26.709589,15.684589 27.3791096,15.0058219 C30.0438356,12.3013699 30.4380137,8.2109589 30.4739726,7.75205479 C30.4794521,7.68013699 30.4787671,7.55856164 30.4773973,7.45547945 L30.4770548,7.3630137 C30.4818493,6.12636986 30.3136986,5.08356164 29.9821918,4.20616438 C30.2236301,3.51712329 31.4034247,1.14794521 36.1832192,1.14794521 C40.4568493,1.14794521 42.6017123,4.60547945 42.6023973,6.57020548 C42.6037671,6.59178082 42.7099315,8.75616438 41.4297945,10.1109589 C41.3702055,10.1746575 41.3047945,10.2315068 41.240411,10.2893836 C41.1414384,10.1736301 41.0363014,10.060274 40.9260274,9.95 C40.0945205,9.11815068 39.0719178,8.56849315 38.0472603,8.40136986 C36.9609589,8.22431507 35.9965753,8.49246575 35.3328767,9.15616438 C34.0099315,10.4794521 34.3657534,12.9886986 36.1267123,14.7496575 C37.1695205,15.7924658 38.4756849,16.3428082 39.6424658,16.3428082 C40.4445205,16.3428082 41.1808219,16.0825342 41.719863,15.5434932 C42.7667808,14.4958904 42.7585616,12.7089041 41.839726,11.135274 C41.9568493,11.0359589 42.069863,10.9304795 42.1770548,10.8167808 Z M2.64828767,11.6989726 C3.34863014,12.05 4.16986301,12.2294521 5.10787671,12.2294521 L5.10787671,11.2020548 C4.40890411,11.2020548 3.79760274,11.0815068 3.27157534,10.8513699 C3.325,10.7931507 3.37773973,10.7339041 3.43458904,10.6770548 C4.11506849,9.99657534 4.93835616,9.54863014 5.75239726,9.41575342 C6.50342466,9.29280822 7.15171233,9.45890411 7.57534247,9.88287671 C8.49760274,10.8054795 8.14143836,12.6633562 6.78150685,14.0236301 C5.42123288,15.3835616 3.56369863,15.7393836 2.64075342,14.8174658 C1.93458904,14.1113014 1.97979452,12.8578767 2.64828767,11.6989726 Z M40.9938356,14.8178082 C40.0702055,15.7393836 38.2133562,15.3835616 36.8534247,14.0239726 C35.4928082,12.6633562 35.1369863,10.8058219 36.059589,9.88321918 C36.3921233,9.55034247 36.8630137,9.37671233 37.4133562,9.37671233 C37.5636986,9.37671233 37.7208904,9.38972603 37.8821918,9.41609589 C38.6962329,9.5489726 39.5195205,9.99657534 40.2,10.6773973 C40.2568493,10.7342466 40.309589,10.7934932 40.3633562,10.8520548 C39.8369863,11.0821918 39.2256849,11.2023973 38.5267123,11.2023973 L38.5267123,12.2297945 C39.4643836,12.2297945 40.2859589,12.0506849 40.9863014,11.6993151 C41.6544521,12.8578767 41.6993151,14.1113014 40.9938356,14.8178082 Z" id="Shape-Copy-6" stroke="#00141B" stroke-width="0.5" fill="#000000"></path>
                    </g>
                </g>
            </g>
        </g>
    </g>
</svg>