<?xml version="1.0" encoding="UTF-8"?>
<svg width="20px" height="18px" viewBox="0 0 20 18" version="1.1" xmlns="http://www.w3.org/2000/svg" xmlns:xlink="http://www.w3.org/1999/xlink">
    <!-- Generator: sketchtool 51.2 (57519) - http://www.bohemiancoding.com/sketch -->
    <title>51726B4F-E9AD-470F-B3DB-E5477E38D7F7</title>
    <desc>Created with sketchtool.</desc>
    <defs>
        <linearGradient x1="0%" y1="1.55572612%" x2="100%" y2="1.55572612%" id="linearGradient-1">
            <stop stop-color="#1EBF9D" offset="0%"></stop>
            <stop stop-color="#1073B9" offset="100%"></stop>
        </linearGradient>
    </defs>
    <g id="Page-1" stroke="none" stroke-width="1" fill="none" fill-rule="evenodd">
        <g id="medservicebel_sanatorij_05_hover" transform="translate(-283.000000, -3093.000000)" fill="url(#linearGradient-1)" fill-rule="nonzero">
            <g id="Услуги-и-преимущества" transform="translate(275.000000, 2664.000000)">
                <g id="Номера" transform="translate(2.000000, 420.000000)">
                    <g id="sanatorij/svg/heart" transform="translate(6.000000, 9.000000)">
                        <path d="M18.3644354,1.69208246 C17.3299538,0.615145769 15.8803813,0.00238424458 14.3616618,0.00011265413 C12.8417277,0.00181634697 11.3906474,0.614253358 10.3545743,1.69139287 L10.0014685,2.05277857 L9.64836264,1.69139287 C7.59250849,-0.451649897 4.13214665,-0.574721422 1.91952875,1.4164493 C1.82148335,1.50471681 1.72678849,1.59639171 1.6356536,1.69139287 C-0.545217865,3.96971697 -0.545217865,7.49076329 1.6356536,9.76908739 L9.48255242,17.7837858 C9.75403054,18.0613661 10.2064382,18.0732514 10.4930357,17.8103148 C10.5024172,17.8017152 10.5115475,17.7928722 10.5204264,17.7837858 L18.3644773,9.76908739 C20.5451812,7.49100668 20.5451812,3.97016317 18.3644354,1.69208246 Z M17.3301632,8.81579011 L17.3294512,8.81579011 L10.0014685,16.3015731 L2.67281562,8.81579011 C1.0067558,7.07494055 1.0067558,4.38485012 2.67281562,2.64400055 C4.18579729,1.05575319 6.74172068,0.956168285 8.38156246,2.42154695 C8.46117985,2.4926964 8.53778174,2.56688817 8.6112425,2.64400055 L9.48255242,3.53430175 C9.76969435,3.81062451 10.2332845,3.81062451 10.5204264,3.53430175 L11.3917363,2.64469014 C12.904718,1.05644278 15.4606414,0.956857875 17.1004832,2.42223654 C17.1801006,2.49338599 17.2567025,2.56757776 17.3301632,2.64469014 C19.0107142,4.38829807 19.0230274,7.08329676 17.3301632,8.81579011 Z" id="Shape"></path>
                    </g>
                </g>
            </g>
        </g>
    </g>
</svg>