<?xml version="1.0" encoding="UTF-8"?>
<svg width="26px" height="40px" viewBox="0 0 26 40" version="1.1" xmlns="http://www.w3.org/2000/svg" xmlns:xlink="http://www.w3.org/1999/xlink">
    <!-- Generator: sketchtool 51.2 (57519) - http://www.bohemiancoding.com/sketch -->
    <title>CEB4EF74-F6F2-45D8-A7BC-FCBC3C5533CB</title>
    <desc>Created with sketchtool.</desc>
    <defs>
        <linearGradient x1="0%" y1="1.55572612%" x2="100%" y2="1.55572612%" id="linearGradient-1">
            <stop stop-color="#1EBF9D" offset="0%"></stop>
            <stop stop-color="#1073B9" offset="100%"></stop>
        </linearGradient>
    </defs>
    <g id="Page-1" stroke="none" stroke-width="1" fill="none" fill-rule="evenodd">
        <g id="medservicebel_spisok_napravlenij_05_hover" transform="translate(-430.000000, -1553.000000)">
            <g id="Иконки" transform="translate(71.000000, 607.000000)">
                <g id="Хирургия" transform="translate(345.000000, 940.000000)">
                    <g id="spisok_napravlenij/svg/hirurgia" transform="translate(27.112372, 25.853553) rotate(-15.000000) translate(-27.112372, -25.853553) translate(10.112372, 8.853553)">
                        <path d="M33.1387007,3.87098379 C33.1387007,2.83973379 32.6574507,1.87723379 31.9012007,1.18973379 C31.2137007,0.639733788 30.3887007,0.295983788 29.4949507,0.295983788 C28.4637007,0.295983788 27.4324507,0.777233788 26.7449507,1.53348379 L0.344950708,31.5772338 C0.138700708,31.7147338 0.138700708,31.9897338 0.138700708,32.1959838 C0.207450708,32.4022338 0.344950708,32.6084838 0.551200708,32.6772338 C1.78870071,33.0897338 3.09495071,33.2959838 4.33245071,33.2959838 C7.63245071,33.2959838 10.7262007,31.8522338 12.9262007,29.4459838 L16.3637007,25.5272338 C16.6387007,25.2522338 16.5699507,24.8397338 16.2949507,24.5647338 L14.7824507,23.2584838 L31.9699507,6.62098379 C32.7262007,5.86473379 33.1387007,4.90223379 33.1387007,3.87098379 Z" id="Path" fill="url(#linearGradient-1)" opacity="0.200000003"></path>
                        <path d="M33,3.575 C33,2.54375 32.51875,1.58125 31.7625,0.89375 C31.075,0.34375 30.25,-8.8817842e-14 29.35625,-8.8817842e-14 C28.325,-8.8817842e-14 27.29375,0.48125 26.60625,1.2375 L0.20625,31.28125 C2.20712337e-13,31.41875 2.20712337e-13,31.69375 2.20712337e-13,31.9 C0.06875,32.10625 0.20625,32.3125 0.4125,32.38125 C1.65,32.79375 2.95625,33 4.19375,33 C7.49375,33 10.5875,31.55625 12.7875,29.15 L16.225,25.23125 C16.5,24.95625 16.43125,24.54375 16.15625,24.26875 L14.64375,22.9625 L31.83125,6.325 C32.5875,5.56875 33,4.60625 33,3.575 Z M13.2,22.48125 C13.0625,22.61875 12.99375,22.825 12.99375,22.9625 C12.99375,23.16875 13.0625,23.30625 13.2,23.44375 L14.7125,24.75 L11.75625,28.1875 C9.83125,30.3875 7.08125,31.625 4.19375,31.625 C3.4375,31.625 2.68125,31.55625 1.925,31.35 L21.45,9.14375 L22.275,13.68125 L13.2,22.48125 Z M23.5125,12.5125 L22.61875,7.8375 L25.4375,4.60625 L26.33125,9.69375 L23.5125,12.5125 Z M30.9375,5.29375 L27.56875,8.59375 L26.60625,3.3 L27.6375,2.13125 C28.4625,1.2375 29.975,1.1 30.86875,1.925 C31.35,2.40625 31.625,2.95625 31.625,3.64375 C31.625,4.2625 31.41875,4.88125 30.9375,5.29375 Z" id="Shape" fill="#000000" fill-rule="nonzero"></path>
                    </g>
                </g>
            </g>
        </g>
    </g>
</svg>