<?xml version="1.0" encoding="UTF-8"?>
<svg width="32px" height="32px" viewBox="0 0 32 32" version="1.1" xmlns="http://www.w3.org/2000/svg" xmlns:xlink="http://www.w3.org/1999/xlink">
    <!-- Generator: sketchtool 51.2 (57519) - http://www.bohemiancoding.com/sketch -->
    <title>BFF8D1BE-516A-437D-B655-C13B08DDCA8D</title>
    <desc>Created with sketchtool.</desc>
    <defs></defs>
    <g id="Page-1" stroke="none" stroke-width="1" fill="none" fill-rule="evenodd">
        <g id="medservicebel_text_05_hover" transform="translate(-1303.000000, -12067.000000)">
            <g id="Футер" transform="translate(0.000000, 11913.000000)">
                <g id="Соцсети" transform="translate(1196.000000, 154.000000)">
                    <g id="ins" transform="translate(107.000000, 0.000000)">
                        <circle id="Oval-5-Copy-2" stroke="#798484" opacity="0.5" cx="16" cy="16" r="15.5"></circle>
                        <g id="instagram" transform="translate(7.272727, 7.272727)" fill="#A5A9AA" fill-rule="nonzero">
                            <path d="M12.3843068,0 L5.07027273,0 C2.27451136,0 0,2.27451136 0,5.07027273 L0,12.3842727 C0,15.1800341 2.27451136,17.4545455 5.07027273,17.4545455 L12.3842727,17.4545455 C15.1800341,17.4545455 17.4545455,15.1800341 17.4545455,12.3843068 L17.4545455,5.07027273 C17.4545455,2.27451136 15.1800341,0 12.3843068,0 Z M15.4181818,12.0501764 C15.4181818,13.9073064 13.9073064,15.4181818 12.0502074,15.4181818 L5.40436902,15.4181818 C3.54723906,15.4181818 2.03636364,13.9073064 2.03636364,12.0502074 L2.03636364,5.40436902 C2.03636364,3.54723906 3.54723906,2.03636364 5.40436902,2.03636364 L12.0501764,2.03636364 C13.9073064,2.03636364 15.4181818,3.54723906 15.4181818,5.40436902 L15.4181818,12.0501764 Z" id="Shape"></path>
                            <path d="M8.72727273,4.48522727 C6.38818427,4.48522727 4.48522727,6.38818427 4.48522727,8.72727273 C4.48522727,11.0663612 6.38818427,12.9693182 8.72727273,12.9693182 C11.0663612,12.9693182 12.9693182,11.0663612 12.9693182,8.72727273 C12.9693182,6.38818427 11.0663612,4.48522727 8.72727273,4.48522727 Z M8.72727273,11.0215744 C7.46219945,11.0215744 6.43297101,9.99234601 6.43297101,8.72727273 C6.43297101,7.46219945 7.46219945,6.43297101 8.72727273,6.43297101 C9.99234601,6.43297101 11.0215744,7.46219945 11.0215744,8.72727273 C11.0215744,9.99234601 9.99234601,11.0215744 8.72727273,11.0215744 Z" id="Shape"></path>
                            <circle id="Oval" cx="13.3818182" cy="4.07272727" r="1"></circle>
                        </g>
                    </g>
                </g>
            </g>
        </g>
    </g>
</svg>