<?xml version="1.0" encoding="UTF-8"?>
<svg width="12px" height="12px" viewBox="0 0 12 12" version="1.1" xmlns="http://www.w3.org/2000/svg" xmlns:xlink="http://www.w3.org/1999/xlink">
    <!-- Generator: sketchtool 51.2 (57519) - http://www.bohemiancoding.com/sketch -->
    <title>1ABAE6F0-5B23-4000-840F-EB06FD0AA494</title>
    <desc>Created with sketchtool.</desc>
    <defs></defs>
    <g id="Page-1" stroke="none" stroke-width="1" fill="none" fill-rule="evenodd">
        <g id="medservicebel_text_05_hover" transform="translate(-520.000000, -24.000000)" fill="#DBE1E3" fill-rule="nonzero">
            <g id="Header">
                <g id="Верхнее-меню" transform="translate(48.000000, 13.000000)">
                    <g id="ins" transform="translate(465.000000, 4.000000)">
                        <g id="instagram" transform="translate(7.000000, 7.000000)">
                            <path d="M8.51421094,0 L3.4858125,0 C1.56372656,0 0,1.56372656 0,3.4858125 L0,8.5141875 C0,10.4362734 1.56372656,12 3.4858125,12 L8.5141875,12 C10.4362734,12 12,10.4362734 12,8.51421094 L12,3.4858125 C12,1.56372656 10.4362734,0 8.51421094,0 Z M10.6,8.2844963 C10.6,9.56127315 9.56127315,10.6 8.28451759,10.6 L3.7155037,10.6 C2.43872685,10.6 1.4,9.56127315 1.4,8.28451759 L1.4,3.7155037 C1.4,2.43872685 2.43872685,1.4 3.7155037,1.4 L8.2844963,1.4 C9.56127315,1.4 10.6,2.43872685 10.6,3.7155037 L10.6,8.2844963 Z" id="Shape"></path>
                            <path d="M6,3.08359375 C4.39187669,3.08359375 3.08359375,4.39187669 3.08359375,6 C3.08359375,7.60812331 4.39187669,8.91640625 6,8.91640625 C7.60812331,8.91640625 8.91640625,7.60812331 8.91640625,6 C8.91640625,4.39187669 7.60812331,3.08359375 6,3.08359375 Z M6,7.57733243 C5.13026212,7.57733243 4.42266757,6.86973788 4.42266757,6 C4.42266757,5.13026212 5.13026212,4.42266757 6,4.42266757 C6.86973788,4.42266757 7.57733243,5.13026212 7.57733243,6 C7.57733243,6.86973788 6.86973788,7.57733243 6,7.57733243 Z" id="Shape"></path>
                            <circle id="Oval" cx="9.2" cy="2.8" r="1"></circle>
                        </g>
                    </g>
                </g>
            </g>
        </g>
    </g>
</svg>