<?xml version="1.0" encoding="UTF-8"?>
<svg width="53px" height="53px" viewBox="0 0 53 53" version="1.1" xmlns="http://www.w3.org/2000/svg" xmlns:xlink="http://www.w3.org/1999/xlink">
    <!-- Generator: sketchtool 51.2 (57519) - http://www.bohemiancoding.com/sketch -->
    <title>346623C2-9C71-4066-BB28-8674F13B7E85</title>
    <desc>Created with sketchtool.</desc>
    <defs>
        <linearGradient x1="0%" y1="1.55572612%" x2="100%" y2="1.55572612%" id="linearGradient-1">
            <stop stop-color="#1EBF9D" offset="0%"></stop>
            <stop stop-color="#1073B9" offset="100%"></stop>
        </linearGradient>
    </defs>
    <g id="Page-1" stroke="none" stroke-width="1" fill="none" fill-rule="evenodd">
        <g id="medservicebel_index_15_hover" transform="translate(-502.000000, -2432.000000)">
            <g id="3-й-экран" transform="translate(0.000000, 1743.000000)">
                <g id="Список-направлений" transform="translate(498.000000, 215.000000)">
                    <g id="Иконки">
                        <g id="index/svg/napravlenie/Кардиология" transform="translate(4.000000, 474.000000)">
                            <circle id="Oval-7-Copy" stroke="#0091EA" fill="#FFFFFF" cx="26.5" cy="26.5" r="26"></circle>
                            <g id="noun_lifeline_988037" transform="translate(8.000000, 11.000000)">
                                <path d="M26.6086957,0.313043478 C23.6347826,0.313043478 20.8173913,1.48695652 18.7826087,3.6 C16.7478261,1.48695652 13.9304348,0.313043478 10.9565217,0.313043478 C4.93043478,0.313043478 0,5.24347826 0,11.2695652 C0,15.3391304 1.09565217,18.8608696 2.8173913,21.9130435 C2.89565217,22.0695652 2.89565217,22.1478261 2.97391304,22.226087 C8.13913043,30.9913043 17.8434783,35.6086957 18,35.6086957 C18.0782609,35.6869565 18.2347826,35.6869565 18.3130435,35.6869565 C18.3913043,35.6869565 18.5478261,35.6869565 18.626087,35.6086957 C19.4086957,35.2956522 37.5652174,27.2347826 37.5652174,11.1913043 C37.5652174,5.16521739 32.6347826,0.313043478 26.6086957,0.313043478 Z" id="Path-Copy" fill="url(#linearGradient-1)" opacity="0.200000003"></path>
                                <path d="M26.6086957,0.313043478 C23.6347826,0.313043478 20.8173913,1.48695652 18.7826087,3.6 C16.7478261,1.48695652 13.9304348,0.313043478 10.9565217,0.313043478 C4.93043478,0.313043478 0,5.24347826 0,11.2695652 C0,15.3391304 1.09565217,18.8608696 2.8173913,21.9130435 C2.89565217,22.0695652 2.89565217,22.1478261 2.97391304,22.226087 C8.13913043,30.9913043 17.8434783,35.6086957 18,35.6086957 C18.0782609,35.6869565 18.2347826,35.6869565 18.3130435,35.6869565 C18.3913043,35.6869565 18.5478261,35.6869565 18.626087,35.6086957 C19.4086957,35.2956522 37.5652174,27.2347826 37.5652174,11.1913043 C37.5652174,5.16521739 32.6347826,0.313043478 26.6086957,0.313043478 Z M10.9565217,1.87826087 C13.773913,1.87826087 16.4347826,3.13043478 18.2347826,5.32173913 C18.5478261,5.71304348 19.173913,5.71304348 19.4086957,5.32173913 C21.2086957,3.13043478 23.7913043,1.87826087 26.6086957,1.87826087 C31.773913,1.87826087 36,6.10434783 36,11.2695652 C36,14.1652174 35.373913,16.7478261 34.2782609,19.0956522 L30.1304348,19.0956522 L26.8434783,10.3304348 C26.6869565,10.0173913 26.373913,9.7826087 26.0608696,9.86086957 C25.6695652,9.86086957 25.4347826,10.173913 25.3565217,10.4869565 L23.4,22.5391304 L20.5826087,15.1043478 C20.5043478,14.7913043 20.1913043,14.6347826 19.8782609,14.6347826 C19.5652174,14.5565217 19.2521739,14.7913043 19.173913,15.1043478 L16.1217391,21.5217391 L12.9130435,10.4086957 C12.8347826,10.0956522 12.5217391,9.86086957 12.2086957,9.86086957 C11.8956522,9.86086957 11.5826087,10.0956522 11.426087,10.4086957 L7.59130435,20.8173913 L4.06956522,20.8173913 C2.5826087,18.0782609 1.56521739,14.8695652 1.56521739,11.1913043 C1.56521739,6.02608696 5.79130435,1.87826087 10.9565217,1.87826087 Z M18.3130435,34.0434783 C16.6695652,33.2608696 9.39130435,29.2695652 5.00869565,22.3826087 L8.13913043,22.3826087 C8.45217391,22.3826087 8.76521739,22.1478261 8.84347826,21.8347826 L12.0521739,12.9913043 L15.1826087,23.7913043 C15.2608696,24.1043478 15.573913,24.3391304 15.8869565,24.3391304 C16.2,24.3391304 16.5130435,24.1826087 16.6695652,23.8695652 L19.8,17.2173913 L23.0086957,25.6695652 C23.0869565,25.9826087 23.4,26.1391304 23.7130435,26.1391304 C23.7130435,26.1391304 23.7913043,26.1391304 23.7913043,26.1391304 C24.1826087,26.1391304 24.4173913,25.826087 24.4956522,25.5130435 L26.4521739,13.4608696 L28.8782609,19.9565217 C28.9565217,20.2695652 29.2695652,20.426087 29.5826087,20.426087 L33.4956522,20.426087 C29.0347826,28.6434783 20.1130435,33.1826087 18.3130435,34.0434783 Z" id="Shape" fill="#000000" fill-rule="nonzero"></path>
                            </g>
                        </g>
                    </g>
                </g>
            </g>
        </g>
    </g>
</svg>