<?xml version="1.0" encoding="UTF-8"?>
<svg width="35px" height="29px" viewBox="0 0 35 29" version="1.1" xmlns="http://www.w3.org/2000/svg" xmlns:xlink="http://www.w3.org/1999/xlink">
    <!-- Generator: sketchtool 51.2 (57519) - http://www.bohemiancoding.com/sketch -->
    <title>7ED4CD61-5D08-4969-9FEC-21DA0C66DBAC</title>
    <desc>Created with sketchtool.</desc>
    <defs>
        <linearGradient x1="0%" y1="1.55572612%" x2="100%" y2="1.55572612%" id="linearGradient-1">
            <stop stop-color="#1EBF9D" offset="0%"></stop>
            <stop stop-color="#1073B9" offset="100%"></stop>
        </linearGradient>
    </defs>
    <g id="Page-1" stroke="none" stroke-width="1" fill="none" fill-rule="evenodd">
        <g id="medservicebel_spisok_napravlenij_05_hover" transform="translate(-79.000000, -1322.000000)">
            <g id="Иконки" transform="translate(71.000000, 607.000000)">
                <g id="Онкология" transform="translate(0.000000, 705.000000)">
                    <g id="spisok_napravlenij/svg/lechenie" transform="translate(8.000000, 10.000000)">
                        <path d="M31,29 C33.3138414,29 35,27.3084398 35,25 L35,9 C35,6.69156015 33.3138414,5 31,5 L24,5 L11,5 L4,5 C1.68615858,5 7.43334402e-16,6.69156015 0,9 L0,25 C7.43334402e-16,27.3084398 1.68615858,29 4,29 L31,29 Z" id="Path" fill="url(#linearGradient-1)" opacity="0.200000003"></path>
                        <path d="M3.80314286,28.7597143 L30.9968571,28.7597143 C33.0560903,28.7597143 34.7254286,27.090376 34.7254286,25.0311429 L34.7254286,8.80357143 C34.7254286,6.74433829 33.0560903,5.075 30.9968571,5.075 L23.8131429,5.075 L23.8131429,2.726 C23.8131429,1.35317791 22.7002507,0.240285714 21.3274286,0.240285714 L13.456,0.240285714 C12.0831779,0.240285714 10.9702857,1.35317791 10.9702857,2.726 L10.9702857,5.075 L3.80314286,5.075 C1.74390972,5.075 0.0745714286,6.74433829 0.0745714286,8.80357143 L0.0745714286,25.0311429 C0.0745714286,27.090376 1.74390972,28.7597143 3.80314286,28.7597143 Z M26.68,5.90357143 L33.8968571,13.1204286 L33.8968571,20.7142857 L26.68,27.9311429 L8.12,27.9311429 L0.903142857,20.7142857 L0.903142857,13.1204286 L8.12,5.90357143 L26.68,5.90357143 Z M33.8968571,25.0311429 C33.8968571,26.6327686 32.5984829,27.9311429 30.9968571,27.9311429 L27.8524286,27.9311429 L33.8968571,21.8867143 L33.8968571,25.0311429 Z M30.9968571,5.90357143 C32.5984829,5.90357143 33.8968571,7.20194565 33.8968571,8.80357143 L33.8968571,11.948 L27.8524286,5.90357143 L30.9968571,5.90357143 Z M11.8154286,2.726 C11.8154286,1.81078527 12.5573567,1.06885714 13.4725714,1.06885714 L21.344,1.06885714 C22.2592147,1.06885714 23.0011429,1.81078527 23.0011429,2.726 L23.0011429,5.075 L11.8154286,5.075 L11.8154286,2.726 Z M0.903142857,8.80357143 C0.903142857,7.20194565 2.20151708,5.90357143 3.80314286,5.90357143 L6.94757143,5.90357143 L0.903142857,11.948 L0.903142857,8.80357143 Z M0.903142857,21.8867143 L6.94757143,27.9311429 L3.80314286,27.9311429 C2.20151708,27.9311429 0.903142857,26.6327686 0.903142857,25.0311429 L0.903142857,21.8867143 Z" id="Shape" fill="#000000" fill-rule="nonzero"></path>
                        <path d="M31,28.35 C32.95282,28.35 34.35,26.9514927 34.35,25 L34.35,9 C34.35,7.04850725 32.95282,5.65 31,5.65 L4,5.65 C2.04718,5.65 0.65,7.04850725 0.65,9 L0.65,25 C0.65,26.9514927 2.04718,28.35 4,28.35 L31,28.35 Z" id="Path" stroke="#00141B" stroke-width="1.3"></path>
                    </g>
                </g>
            </g>
        </g>
    </g>
</svg>