<?xml version="1.0" encoding="UTF-8"?>
<svg width="49px" height="42px" viewBox="0 0 49 42" version="1.1" xmlns="http://www.w3.org/2000/svg" xmlns:xlink="http://www.w3.org/1999/xlink">
    <!-- Generator: sketchtool 51.2 (57519) - http://www.bohemiancoding.com/sketch -->
    <title>7221A61A-C1CA-496E-8CC4-570CA8AC0575</title>
    <desc>Created with sketchtool.</desc>
    <defs>
        <linearGradient x1="0%" y1="1.55572612%" x2="100%" y2="1.55572612%" id="linearGradient-1">
            <stop stop-color="#1EBF9D" offset="0%"></stop>
            <stop stop-color="#1073B9" offset="100%"></stop>
        </linearGradient>
    </defs>
    <g id="Page-1" stroke="none" stroke-width="1" fill="none" fill-rule="evenodd">
        <g id="320_medservice_header_open_menu" transform="translate(-136.000000, -4.000000)" fill="url(#linearGradient-1)">
            <g id="Верхнее-меню">
                <g id="Logo_big-Copy" transform="translate(136.000000, 4.000000)">
                    <path d="M8.99289608,35.9351017 C9.26169053,35.9820839 9.44308925,36.2440169 9.39683859,36.5185399 C9.35058792,36.7942912 9.09470761,36.979456 8.82531249,36.9324739 C8.55561705,36.8851847 8.37511932,36.6235588 8.42136998,36.3481145 C8.46762065,36.0723632 8.72350096,35.8878125 8.99289608,35.9351017 Z M48.3270658,21.4649478 C48.7504504,22.1249425 48.8532061,21.861947 49,22.9163031 C49,22.927646 46.3430302,25.4995679 46.2049924,25.5512702 C45.1308216,25.9548641 44.4944571,25.013145 43.8421255,24.9334813 C43.0548466,24.8374629 41.6783318,25.2545099 41.8683913,26.378242 C41.9886593,27.0859822 43.1341668,27.4932691 43.4738531,28.1442951 C43.8055558,28.7808128 43.2353774,28.9462072 43.2866265,29.2785786 C43.3234537,29.5159868 43.7733642,30.5539882 43.880498,30.9863348 C44.0769958,31.7761127 44.5194378,32.4548363 44.6340401,32.9890048 C44.7293273,33.4348046 44.9930413,33.8170317 44.6652016,34.0966458 C44.4867311,34.2485871 44.0267768,34.278395 43.8096764,34.3725669 C42.7161905,34.8450092 41.2850786,34.7479356 40.4475808,35.6587917 C39.9268487,36.2254059 39.4110097,36.9463354 39.2006051,37.7039313 C38.9595541,38.5709987 39.2590651,39.4380662 39.3000129,40.3088266 C39.3685167,41.7541149 39.4359904,42.3982824 37.9000626,41.7443548 C37.4313522,41.5451957 37.5881899,40.8110768 37.0504606,40.5718221 C36.4421673,40.3019682 36.2145079,40.6375051 35.6592664,40.5892321 C35.5292122,40.5778892 34.1490919,40.4916309 34.1403357,40.4937412 C33.7388415,40.6132367 33.5232863,41.3935182 33.0756936,41.413566 C31.3334817,41.4919107 32.3126228,39.7617326 31.114836,39.4520469 C30.4692003,39.2853336 29.7236418,40.9529942 29.6062066,40.9896605 C28.6033725,41.3001377 29.4625031,40.7071448 28.4673949,40.4539094 C28.0697637,40.352879 27.8176387,40.3312485 27.6013109,40.2900977 L26.1658209,27.5425973 L26.4746032,23.7393182 C27.3368243,24.7314206 28.5248248,25.6483437 30.7105089,26.27431 C30.7509416,26.2864442 30.7913743,26.2954129 30.831807,26.3022714 C30.9505298,26.3231106 31.0687375,26.3241657 31.1833398,26.3086023 C31.1843699,26.3083385 31.1851425,26.3086023 31.1861727,26.3083385 C32.2727051,26.1946463 32.8704396,24.4652596 32.8704396,24.3673947 C32.8704396,24.3032945 32.1426509,24.1178523 31.6440667,23.9980931 L31.3417227,23.1932793 L30.384987,23.5430607 C28.9340451,22.7643619 27.7053543,21.3130065 26.89567,20.2939979 L26.5127181,19.8078387 C26.5111729,19.8070473 26.5104003,19.8054646 26.5098853,19.8046732 C26.0012572,19.3567631 25.6917024,19.0396913 25.5183825,18.8059761 C24.978593,18.0752865 25.774628,18.1615448 26.046068,17.6424122 C26.4040391,16.9563026 26.6270629,12.5022613 26.6270629,12.5022613 C26.6270629,12.5022613 25.063579,12.6916603 23.3458327,13.1749178 C22.409442,13.4384409 22.3229109,14.3812152 22.475113,15.3643488 L22.4565706,15.3643488 C22.4565706,15.3643488 22.0741338,15.168619 22.1696787,15.7555448 C22.2513167,16.2562122 22.4030037,16.7547694 22.8006349,16.7705966 C22.8822729,17.0660379 22.9569576,17.3298248 23.0002231,17.5363699 C23.0589407,17.8186219 23.0156751,18.052337 22.9203879,18.2456928 C22.886651,18.2583546 20.9422755,18.9964302 18.6996766,21.8651125 C18.6996766,21.8651125 18.6994191,21.8651125 18.6994191,21.8653762 C17.8889622,22.7123959 17.0697492,23.6934192 16.3939821,24.7583268 L16.3921794,24.7607009 C16.3921794,24.7607009 15.5776019,25.5417738 15.6728892,26.2268283 C15.6963247,26.3932779 15.8104119,26.5544516 15.9693099,26.7021723 L14.3468509,28.7531152 L12.5204256,27.2366045 C12.3025525,27.0543278 11.9819237,27.0875649 11.8049984,27.31152 L6.82276162,33.5624774 C6.64583633,33.7866963 6.67880058,34.1159023 6.89770378,34.2960687 L8.27988433,35.4453881 C7.96234593,35.8473993 7.92474608,36.4314234 8.22863523,36.8780146 C8.36152235,37.0740082 8.54128051,37.2169807 8.74241392,37.3000736 C8.30486505,37.3581067 7.87349698,37.4340773 7.4537179,37.528513 C5.9237133,37.8743376 5.80653571,39.7226922 4.28528724,40.0413467 C3.84361784,40.1344635 2.77588529,39.1959098 2.41636898,39.703172 C2.34451722,39.8044661 2.74652651,40.7844343 2.25051761,40.6385602 C1.49774814,40.417243 1.65767624,40.0759028 1.58427929,39.2212334 C1.48976461,38.1246713 2.46478522,37.3422795 2.21008491,36.1441595 C1.77356617,34.0884684 -1.22592273,35.106422 0.56522051,32.4313593 C1.37748015,31.2176759 3.32777889,31.0979167 3.87658209,29.9744484 C4.10913455,29.4988407 3.82301519,26.8976384 3.7424073,26.4112154 C3.45834821,24.6923801 2.64608857,22.9455835 2.31953651,21.1705616 C1.92988881,19.0510341 1.74807039,19.3018954 3.7952016,19.2575792 C4.42177982,19.2441261 5.06973329,19.0832161 5.69347865,19.0441757 C5.89538466,19.0312501 6.20107654,19.3794488 6.52556834,19.4807429 C6.66618145,19.2763081 7.17274921,19.186093 7.38675928,19.1140792 C7.5755311,19.0505065 8.30125959,18.9861426 8.38624553,18.8832657 C8.56136809,18.6717086 8.56342836,18.3688813 8.60386107,18.0948067 C8.64455131,17.8202046 8.77924116,17.5097274 9.04604553,17.463301 C9.28503632,17.4221502 9.51321071,17.6176163 9.75426177,17.5936117 C9.95384998,17.5738277 10.1099151,17.4084333 10.2165338,17.2345977 C10.3231526,17.061026 10.4024728,16.8655599 10.543601,16.7199496 C10.9211446,16.3298088 11.5441173,16.4332132 11.9422636,16.0813215 C12.2721636,15.7901008 12.438015,15.240369 12.6144252,14.850492 C13.1521545,13.6605494 13.0025277,12.5420931 13.7004426,11.407282 C14.0944684,10.7660161 14.5441213,10.1302898 15.0663986,9.59163696 C15.6007799,9.04058619 16.3793027,9.12262391 17.0349822,8.85065965 C17.3878026,8.70399415 17.7148698,8.45708964 17.8850992,8.10836339 C17.9175484,8.04162532 17.9445894,7.96908393 17.9399538,7.89443224 C17.9018389,7.2985377 16.7292903,7.31515628 16.8114434,6.40192613 C16.858572,5.88147464 17.083656,5.2333503 17.3396439,4.78095582 C17.6592426,4.21592434 18.1565392,3.62899855 18.6569261,3.22725115 C18.9654509,2.97981907 19.3370712,2.79622341 19.7287792,2.78250649 C20.1853855,2.76588792 20.6175262,2.97612605 21.0646038,3.0716169 C22.9278563,3.46914371 22.4792335,0.815711586 23.7851843,0.183678246 C24.6283479,-0.224400042 25.2484878,0.144637789 25.8487976,0.357250006 C26.3782858,0.545066258 27.3986323,0.110081709 27.5647412,0.943648218 C27.5938424,1.09136887 27.5925547,1.27865754 27.7244117,1.34513183 C27.781069,1.37362082 27.8475126,1.36913644 27.9103507,1.36280555 C28.3636091,1.31637907 28.8086264,1.20163178 29.2623999,1.16443783 C29.7166884,1.12671631 30.1962151,1.17393416 30.5807122,1.42400411 C31.1678878,1.80623128 31.1758714,2.35860099 31.2325286,2.98535859 C31.2729614,3.43511521 31.3749445,3.9012266 31.9178244,3.86350508 C32.7308567,3.80705469 33.2891886,2.40766535 33.9523365,2.15442995 C35.0684853,1.72973309 37.2655008,3.10907463 37.8318163,3.81998025 C38.8325902,5.07586954 38.2788939,5.98830832 38.4952217,7.16295125 C38.6726621,8.12867498 39.3038759,7.95193778 39.1892737,9.11945847 C39.1578546,9.43732165 38.5840707,9.68976568 38.5562571,10.0258302 C38.4292933,11.5589594 38.392466,10.7546733 39.3955577,11.9348557 C39.9920046,12.6360012 40.2951211,13.0538396 40.5511091,13.8897802 C40.8768886,14.9538965 41.4267219,15.7077993 42.277869,16.3300726 C43.8503666,17.4807109 44.1975213,16.6165451 43.9059938,19.1599781 C44.1818118,19.4184892 45.9554428,19.0373172 46.5748101,19.4213909 C47.1236133,19.7619397 47.1735747,19.8513635 47.5390143,20.2420318 C47.5346362,20.2370199 47.1236133,20.7105173 47.3255193,20.9510909 C47.5688881,21.2417841 48.1442173,21.1795304 48.3270658,21.4649478 Z M17.4196209,32.4264385 C17.4196209,32.4264385 15.5518492,35.7690251 14.5864926,37.4457831 C13.942416,37.3207594 13.465678,37.2263917 13.4366086,37.2202605 C12.2763607,37.0547173 11.0736461,37.0043346 9.8989899,37.0816414 C9.906826,37.0763099 9.91542043,37.0701787 9.9235093,37.0640474 C10.4058084,36.7092358 10.5498915,36.0342674 10.2771448,35.5008504 L12.9426817,32.0793576 L14.81652,29.6396612 L16.8392442,27.0706759 C17.1135076,27.2047632 17.3258405,27.2839361 17.3258405,27.2839361 L17.9575311,26.3517226 C18.0224948,26.2834793 18.0818975,26.207772 18.1316946,26.1216682 C18.8576711,24.8660989 19.8538666,23.7102288 20.7878788,22.7710843 L20.4415739,27.1695753 C20.4413211,27.1730408 20.4410683,27.1767729 20.4408155,27.1799718 C20.4279239,27.1831707 20.4205933,27.1850367 20.4205933,27.1850367 L17.4196209,32.4264385 Z M23.0260855,31.329858 L24.2525253,40.2708569 C24.228959,40.3417293 24.2041523,40.4120862 24.1773612,40.4819277 C24.1138562,40.4285802 23.4621861,39.6456339 23.1744292,39.6229547 C22.7971203,39.5928018 21.8596778,39.8644362 21.5404165,39.7095479 C21.2744894,39.5812045 21.0058336,38.6668222 20.8150707,38.5572922 C20.2427817,38.2289599 19.3487508,38.049073 18.4110603,37.907586 C18.3554934,37.9135135 18.1352105,37.8836182 17.8181818,37.831817 L20.3474657,33.9593514 L22.1841485,31.023174 C22.4758745,30.7108202 22.9858988,30.8966347 23.0260855,31.329858 Z" id="Combined-Shape-Copy"></path>
                </g>
            </g>
        </g>
    </g>
</svg>