<?xml version="1.0" encoding="UTF-8"?>
<svg width="43px" height="51px" viewBox="0 0 43 51" version="1.1" xmlns="http://www.w3.org/2000/svg" xmlns:xlink="http://www.w3.org/1999/xlink">
    <!-- Generator: sketchtool 51.2 (57519) - http://www.bohemiancoding.com/sketch -->
    <title>6DBE7A54-1941-46BB-9FFA-E6145BB247F5</title>
    <desc>Created with sketchtool.</desc>
    <defs></defs>
    <g id="Page-1" stroke="none" stroke-width="1" fill="none" fill-rule="evenodd">
        <g id="medservicebel_index_15_hover" transform="translate(-987.000000, -4902.000000)" fill="#000000" fill-rule="nonzero">
            <g id="6-й-экран" transform="translate(0.000000, 4205.000000)">
                <g id="index/svg/soprovozhdenie/museum" transform="translate(987.000000, 697.000000)">
                    <path d="M17.9020347,10.7246426 C17.4897523,10.7246426 17.1555069,11.0591309 17.1555069,11.4717129 L17.1555069,12.088793 C17.1555069,12.501375 17.4897523,12.8358633 17.9020347,12.8358633 C18.3143171,12.8358633 18.6485625,12.501375 18.6485625,12.088793 L18.6485625,11.4717129 C18.6485625,11.0591309 18.3142176,10.7246426 17.9020347,10.7246426 Z" id="Shape"></path>
                    <path d="M24.7156435,10.7246426 C24.3033611,10.7246426 23.9691157,11.0591309 23.9691157,11.4717129 L23.9691157,12.088793 C23.9691157,12.501375 24.3033611,12.8358633 24.7156435,12.8358633 C25.1279259,12.8358633 25.4621713,12.501375 25.4621713,12.088793 L25.4621713,11.4717129 C25.4621713,11.0591309 25.1280255,10.7246426 24.7156435,10.7246426 Z" id="Shape"></path>
                    <path d="M22.6408935,11.4833672 C22.330537,11.211832 21.8589306,11.2435078 21.5874931,11.5541895 C21.5235903,11.6274023 21.419375,11.6710312 21.3087894,11.6710312 C21.1982037,11.6710312 21.0938889,11.6274023 21.0299861,11.5541895 C20.7586481,11.2435078 20.2870417,11.211832 19.9765856,11.4833672 C19.6661296,11.7549023 19.6344769,12.2268516 19.9058148,12.5375332 C20.254294,12.9364687 20.7656157,13.1651719 21.3087894,13.1651719 C21.851963,13.1651719 22.3631852,12.9364687 22.7116644,12.5375332 C22.9831019,12.2268516 22.9514491,11.755002 22.6408935,11.4833672 Z" id="Shape"></path>
                    <path d="M41.201963,46.1386641 L40.3291227,46.1386641 L40.3291227,26.6311641 C41.3645069,25.8260215 42.0325995,24.5691504 42.0325995,23.1583828 C42.0325995,20.733791 40.0614676,18.7612266 37.6386366,18.7612266 C35.2158056,18.7612266 33.2446736,20.733791 33.2446736,23.1583828 C33.2446736,24.56925 33.9127662,25.8260215 34.9481505,26.6311641 L34.9481505,28.060957 C34.0948194,28.9043496 32.4617153,30.2903145 30.0239537,31.4121152 C29.6493958,31.5844395 29.4853588,32.0280996 29.6575579,32.4029297 C29.8297569,32.7777598 30.2728958,32.9420156 30.6476528,32.7695918 C32.5043171,31.9152422 33.9369537,30.9129727 34.9481505,30.072668 L34.9481505,32.6011523 C32.2273056,34.5271992 27.7604815,36.7116328 21.5,36.7116328 C15.239419,36.7116328 10.7725949,34.5270996 8.05184954,32.6010527 L8.05184954,30.0678867 C8.59492361,30.5199141 9.25156944,31.0121836 10.0229815,31.5012656 C13.3772801,33.6275273 17.2387199,34.7056992 21.5,34.7056992 C23.6821505,34.7056992 25.7964167,34.4129473 27.7839722,33.8356113 C28.1799306,33.7206621 28.4077708,33.3061875 28.2928056,32.9099414 C28.1778403,32.5136953 27.7639653,32.2856895 27.3678079,32.4007383 C25.5155231,32.9387285 23.5413056,33.2115586 21.5,33.2115586 C17.5260833,33.2115586 13.9333935,32.2114805 10.8219653,30.2390156 C9.56680324,29.4433359 8.64797685,28.6439707 8.05175,28.055877 L8.05175,26.6311641 C9.08713426,25.8260215 9.75522685,24.5691504 9.75522685,23.1583828 C9.75522685,20.733791 7.78409491,18.7612266 5.36126389,18.7612266 C2.93843287,18.7612266 0.967300926,20.733791 0.967300926,23.1583828 C0.967300926,24.56925 1.63539352,25.8260215 2.67087731,26.6311641 L2.67087731,46.1386641 L1.7979375,46.1386641 C0.840888889,46.1386641 0.0623101852,46.9178086 0.0623101852,47.8755527 L0.0623101852,50.2529297 C0.0626087963,50.6655117 0.396854167,51 0.809136574,51 L9.91388889,51 C10.3261713,51 10.6604167,50.6655117 10.6604167,50.2529297 L10.6604167,47.8755527 C10.6604167,46.9179082 9.88183796,46.1386641 8.92478935,46.1386641 L8.05194907,46.1386641 L8.05194907,34.4016914 C10.9981458,36.290584 15.4721366,38.2057734 21.5000995,38.2057734 C27.5280625,38.2057734 32.0019537,36.290584 34.94825,34.401791 L34.94825,46.1387637 L34.0754097,46.1387637 C33.1183611,46.1387637 32.3397824,46.9179082 32.3397824,47.8756523 L32.3397824,50.2529297 C32.3397824,50.6655117 32.6740278,51 33.0863102,51 L42.1910625,51 C42.6033449,51 42.9375903,50.6655117 42.9375903,50.2529297 L42.9375903,47.8755527 C42.9376898,46.9179082 42.1590116,46.1386641 41.201963,46.1386641 Z M2.58656944,23.9881289 C2.50544676,23.7265547 2.46055556,23.438584 2.46055556,23.1584824 C2.46055556,21.5576602 3.76190278,20.2554668 5.36146296,20.2554668 C6.96102315,20.2554668 8.26237037,21.5577598 8.26237037,23.1584824 C8.26237037,24.5456426 7.23166435,25.7719336 5.86890278,26.0161758 C5.70148148,26.0461582 5.53157176,26.061498 5.36146296,26.061498 C4.10470833,26.061498 2.95714583,25.1836406 2.58656944,23.9881289 Z M6.55899306,27.3893906 L6.55899306,46.1387637 L4.16413194,46.1387637 L4.16413194,27.3893906 C4.1736875,27.3921797 4.56516667,27.4866094 4.75448611,27.5132051 C4.95555093,27.5413945 5.15850694,27.5556387 5.36146296,27.5556387 C5.76498611,27.5556387 6.17069907,27.4993594 6.55899306,27.3893906 Z M8.92498843,47.6328047 C9.05866667,47.6328047 9.16756019,47.7416777 9.16756019,47.8755527 L9.16756019,49.5058594 L1.55566435,49.5058594 L1.55566435,47.8755527 C1.55566435,47.7417773 1.66445833,47.6328047 1.79823611,47.6328047 L8.92498843,47.6328047 Z M34.7378287,23.1584824 C34.7378287,21.5576602 36.0391759,20.2554668 37.6387361,20.2554668 C39.2382963,20.2554668 40.5396435,21.5577598 40.5396435,23.1584824 C40.5396435,24.7302187 39.2178912,26.061498 37.6387361,26.061498 C36.086456,26.061498 34.7378287,24.7110937 34.7378287,23.1584824 Z M38.8361667,27.3893906 L38.8361667,46.1386641 L36.4413056,46.1386641 L36.4413056,27.3893906 C36.4509606,27.3920801 36.4608148,27.393873 36.4704699,27.3965625 C36.654713,27.4476621 36.8423403,27.4866094 37.0316597,27.5131055 C37.2328241,27.5406973 37.435581,27.5555391 37.6387361,27.5555391 C38.0305139,27.5555391 38.4300556,27.5054355 38.8070023,27.3965625 C38.8167569,27.393873 38.8266111,27.3921797 38.8361667,27.3893906 Z M41.4446343,49.5058594 L33.8329375,49.5058594 L33.8329375,47.8755527 C33.8329375,47.7417773 33.9417315,47.6328047 34.0755093,47.6328047 L41.202162,47.6328047 C41.3358403,47.6328047 41.4446343,47.7417773 41.4446343,47.8755527 L41.4446343,49.5058594 Z" id="Shape"></path>
                    <path d="M31.2196921,0.116841797 C31.0680972,0.0203203125 30.8786782,0 30.7022986,0 L19.8939699,0 C19.4816875,0 19.1474421,0.334488281 19.1474421,0.747070313 C19.1474421,1.15965234 19.4816875,1.49414063 19.8939699,1.49414063 L29.0792477,1.49414063 L27.3611389,3.50007422 L15.140081,3.50007422 L13.4218727,1.49414063 L16.9077593,1.49414063 C17.3200417,1.49414063 17.654287,1.15965234 17.654287,0.747070313 C17.654287,0.334488281 17.3200417,0 16.9077593,0 C16.9077593,0 11.7988218,0 11.7987222,0 C11.4092338,0 11.0777755,0.316259766 11.053588,0.704238281 C11.0526921,0.718482422 11.0521944,0.732826172 11.0521944,0.747070313 C11.0521944,0.747070313 11.0521944,23.1428438 11.052294,23.1431426 C11.052294,23.1802969 11.0552801,23.2174512 11.0608542,23.2544063 C11.1146042,23.6115059 11.4378009,23.8904121 11.7987222,23.8899141 C11.7987222,23.8899141 30.702,23.8899141 30.7041898,23.8899141 C30.8894282,23.8899141 31.0588403,23.8752715 31.2195926,23.7730723 C31.4348912,23.6360098 31.5652847,23.3982422 31.5652847,23.1428438 L31.5652847,0.747070313 C31.5652847,0.491671875 31.4348912,0.253904297 31.2196921,0.116841797 Z M15.543206,4.99421484 L27.0744722,4.99421484 L27.0744722,18.8956992 L15.543206,18.8956992 L15.543206,4.99421484 Z M12.5453495,2.76655078 L14.0501505,4.52356055 L14.0501505,19.3664531 L12.5453495,21.1233633 L12.5453495,2.76655078 Z M13.4218727,22.3957734 L15.1399815,20.3898398 L27.3610394,20.3898398 L29.0791481,22.3957734 L13.4218727,22.3957734 Z M30.0722292,21.2594297 L28.5674282,19.5025195 L28.5674282,4.38739453 L30.0722292,2.63048437 L30.0722292,21.2594297 Z" id="Shape"></path>
                </g>
            </g>
        </g>
    </g>
</svg>