<?xml version="1.0" encoding="UTF-8"?>
<svg width="36px" height="36px" viewBox="0 0 36 36" version="1.1" xmlns="http://www.w3.org/2000/svg" xmlns:xlink="http://www.w3.org/1999/xlink">
    <!-- Generator: sketchtool 51.2 (57519) - http://www.bohemiancoding.com/sketch -->
    <title>744E42EE-9075-4FD9-B3D6-B8785DE8A568</title>
    <desc>Created with sketchtool.</desc>
    <defs>
        <linearGradient x1="0%" y1="1.55572612%" x2="100%" y2="1.55572612%" id="linearGradient-1">
            <stop stop-color="#1EBF9D" offset="0%"></stop>
            <stop stop-color="#1073B9" offset="100%"></stop>
        </linearGradient>
    </defs>
    <g id="Page-1" stroke="none" stroke-width="1" fill="none" fill-rule="evenodd">
        <g id="medservicebel_spisok_napravlenij_05_hover" transform="translate(-80.000000, -1085.000000)" fill-rule="nonzero">
            <g id="Иконки" transform="translate(71.000000, 607.000000)">
                <g id="Неврология" transform="translate(0.000000, 470.000000)">
                    <g id="spisok_napravlenij/svg/neirologia" transform="translate(9.000000, 8.000000)">
                        <path d="M13.7415706,36 C11.7451747,36 10.0470829,34.7228086 9.41980338,32.9409344 C9.3337601,32.9445291 9.24747659,32.9463315 9.16099243,32.9463315 C5.78800336,32.9463315 3.05365547,30.2119836 3.05365547,26.8389946 C3.05365547,26.6659217 3.06087392,26.493688 3.07521998,26.3226168 C2.0872258,25.2155391 1.52681024,23.7807112 1.52681024,22.2584918 C1.52681024,21.5331478 1.65325826,20.8373372 1.88531334,20.1919011 C0.669896137,18.6058589 -0.000118479958,16.6650252 -0.000118479958,14.6243207 C-0.000118479958,10.515551 2.72713202,6.95300947 6.5947659,5.82772864 C7.69934289,2.88950381 10.5253732,0.8828125 13.7417014,0.8828125 C15.1020979,0.8828125 16.4106073,1.24001953 17.5587216,1.90418585 C18.7068359,1.24001953 20.0153453,0.8828125 21.3757418,0.8828125 C24.5921072,0.8828125 27.4181656,2.88955018 28.5227156,5.82783048 C32.3901639,6.95322442 35.1172499,10.515675 35.1172499,14.6243207 C35.1172499,16.6312894 34.4718724,18.4875221 33.3773291,19.996807 C33.5180614,20.4794132 33.5904157,20.9826673 33.5904157,21.4950747 C33.5904157,23.000044 32.9634497,24.4027415 31.8932648,25.401464 C32.0059234,25.8681912 32.0635814,26.3499041 32.0635814,26.8389946 C32.0635814,30.2119836 29.3292335,32.9463315 25.9562445,32.9463315 C25.8695813,32.9463315 25.7833397,32.9445265 25.6975552,32.9409519 C25.0648424,34.741511 23.3505067,36 21.3757418,36 C19.7825126,36 18.3792697,35.1865719 17.5586562,33.9523588 C16.7380427,35.1865719 15.3347997,36 13.7415706,36 Z" id="Combined-Shape-Copy-6" fill="url(#linearGradient-1)" opacity="0.200000003"></path>
                        <path d="M17.5586562,33.9523588 C16.7380427,35.1865719 15.3347997,36 13.7415706,36 C11.7451747,36 10.0470829,34.7228086 9.41980338,32.9409344 C9.3337601,32.9445291 9.24747659,32.9463315 9.16099243,32.9463315 C5.78800336,32.9463315 3.05365547,30.2119836 3.05365547,26.8389946 C3.05365547,26.6659217 3.06087392,26.493688 3.07521998,26.3226168 C2.0872258,25.2155391 1.52681024,23.7807112 1.52681024,22.2584918 C1.52681024,21.5331478 1.65325826,20.8373372 1.88531334,20.1919011 C0.669896137,18.6058589 -0.000118479958,16.6650252 -0.000118479958,14.6243207 C-0.000118479958,10.515551 2.72713202,6.95300947 6.5947659,5.82772864 C7.69934289,2.88950381 10.5253732,0.8828125 13.7417014,0.8828125 C15.1020979,0.8828125 16.4106073,1.24001953 17.5587216,1.90418585 C18.7068359,1.24001953 20.0153453,0.8828125 21.3757418,0.8828125 C24.5921072,0.8828125 27.4181656,2.88955018 28.5227156,5.82783048 C32.3901639,6.95322442 35.1172499,10.515675 35.1172499,14.6243207 C35.1172499,16.6312894 34.4718724,18.4875221 33.3773291,19.996807 C33.5180614,20.4794132 33.5904157,20.9826673 33.5904157,21.4950747 C33.5904157,23.000044 32.9634497,24.4027415 31.8932648,25.401464 C32.0059234,25.8681912 32.0635814,26.3499041 32.0635814,26.8389946 C32.0635814,30.2119836 29.3292335,32.9463315 25.9562445,32.9463315 C25.8695813,32.9463315 25.7833397,32.9445265 25.6975552,32.9409519 C25.0648424,34.741511 23.3505067,36 21.3757418,36 C19.7825126,36 18.3792697,35.1865719 17.5586562,33.9523588 Z M16.795239,31.4194973 C16.795239,31.2184417 16.8729615,31.0355391 17,30.8991958 L17,3.42967514 C16.9493945,3.38672464 16.9035969,3.33641326 16.8642433,3.27904573 C16.8597124,3.27244087 16.8552995,3.26578999 16.8510042,3.25909559 C15.9195455,2.70676169 14.8536123,2.40964674 13.7417014,2.40964674 C11.0405781,2.40964674 8.6830944,4.17909567 7.90238432,6.72136614 C7.79820103,7.06062404 7.47912604,7.27472277 7.14036845,7.26017914 C3.85592386,8.15841168 1.52671576,11.1584959 1.52671576,14.6243207 C1.52671576,16.0812188 1.93528818,17.4745036 2.68833895,18.6746546 C3.7983056,17.1455167 5.60010358,16.1511549 7.6341472,16.1511549 C8.83883596,16.1511549 9.99345843,16.5013942 10.9799366,17.1484358 C11.332489,17.3796787 11.4308297,17.8529384 11.1995868,18.2054908 C10.9683438,18.5580431 10.4950842,18.6563839 10.1425318,18.425141 C9.40299256,17.9400692 8.53900167,17.6779891 7.6341472,17.6779891 C5.1044054,17.6779891 3.05364448,19.7287501 3.05364448,22.2584918 C3.05364448,23.3148362 3.41218172,24.3128766 4.05217527,25.1139467 C4.46248241,25.1939305 4.73272042,25.5896952 4.6566956,26.0017452 C4.65488913,26.0115362 4.65311445,26.0213346 4.65137159,26.0311404 C4.65645465,26.1302118 4.64233535,26.2301164 4.6089605,26.3247953 C4.59003819,26.4945013 4.58048971,26.6660663 4.58048971,26.8389946 C4.58048971,29.3687363 6.63125063,31.4194973 9.16099243,31.4194973 C9.16106785,29.7314345 10.0826661,28.2046916 11.5342552,27.4051155 C11.9035593,27.2016925 12.3678464,27.3361655 12.5712695,27.7054698 C12.7746926,28.0747739 12.6402194,28.539061 12.2709153,28.742484 C11.301996,29.2761921 10.6879021,30.2935155 10.6879021,31.4194973 C10.6879021,33.1059918 12.055076,34.4731658 13.7415706,34.4731658 C15.4280651,34.4731658 16.795239,33.1059918 16.795239,31.4194973 Z M18.6562092,32.8098141 C19.1620659,33.7973148 20.1899771,34.4731658 21.3757418,34.4731658 C22.6011832,34.4731658 23.6766738,33.745709 24.1595343,32.6777638 C21.6634126,31.9105667 19.8489075,29.5866808 19.8489075,26.8389946 C19.8489075,26.4173709 20.190701,26.0755774 20.6123246,26.0755774 C21.0339483,26.0755774 21.3757418,26.4173709 21.3757418,26.8389946 C21.3757418,29.3687363 23.4265028,31.4194973 25.9562445,31.4194973 C28.4859862,31.4194973 30.5367472,29.3687363 30.5367472,26.8389946 C30.5367472,26.3031038 30.4450176,25.7808729 30.2677983,25.2882379 C30.1250783,24.8915044 30.330997,24.4541909 30.7277305,24.311471 C30.7717,24.2956536 30.8161679,24.2841184 30.8606779,24.2766507 C31.6201193,23.5632958 32.0635814,22.5664026 32.0635814,21.4950747 C32.0635814,21.480989 32.0635054,21.4669148 32.0633536,21.4528525 C30.4426265,22.9033457 28.3024343,23.7853261 25.9562445,23.7853261 C25.5346208,23.7853261 25.1928274,23.4435326 25.1928274,23.021909 C25.1928274,22.6002853 25.5346208,22.2584918 25.9562445,22.2584918 C30.1724807,22.2584918 33.5904157,18.8405569 33.5904157,14.6243207 C33.5904157,11.1585108 31.2612275,8.15843735 27.9768051,7.26019067 C27.6381478,7.27460914 27.3192145,7.06053401 27.2150589,6.72136614 C26.4343488,4.17909567 24.0768651,2.40964674 21.3757418,2.40964674 C20.5459626,2.40964674 19.7417889,2.57511306 19,2.88863365 L19,32.225 C19,32.4584157 18.8668527,32.6677303 18.6562092,32.8098141 Z M25.1442525,15.7074315 C24.7325785,15.798486 24.3250363,15.5385724 24.2339819,15.1268983 C24.1429274,14.7152242 24.4028409,14.3076822 24.8145151,14.2166277 C26.2777807,13.8929812 27.0476445,12.0941052 26.569099,10.8911114 C26.4132567,10.4993466 26.6045096,10.0554233 26.9962743,9.89958103 C27.3880392,9.74373873 27.8319625,9.93499171 27.9878048,10.3267565 C28.7937871,12.3528787 27.5896163,15.1665635 25.1442525,15.7074315 Z M12.6835815,13.7763638 C10.2382178,13.2354959 9.03404691,10.421811 9.8400293,8.39568884 C9.99587159,8.00392403 10.4397949,7.81267105 10.8315597,7.96851334 C11.2233245,8.12435564 11.4145775,8.56827891 11.2587352,8.96004372 C10.7801896,10.1630375 11.5500534,11.9619135 13.013319,12.28556 C13.4249931,12.3766145 13.6849067,12.7841565 13.5938522,13.1958306 C13.5027977,13.6075047 13.0952556,13.8674183 12.6835815,13.7763638 Z M21.542244,23.6289694 C21.1305697,23.7200238 20.7230278,23.4601104 20.6319733,23.0484362 C20.5409187,22.6367621 20.8008323,22.2292201 21.2125064,22.1381656 C22.6757721,21.8145191 23.4456358,20.015643 22.9670902,18.8126493 C22.811248,18.4208845 23.0025009,17.9769613 23.3942658,17.821119 C23.7860305,17.6652767 24.2299538,17.8565296 24.3857962,18.2482944 C25.1917786,20.2744167 23.9876076,23.0881015 21.542244,23.6289694 Z M14.5436634,27.3569894 C12.0982996,26.8161214 10.8941287,24.0024366 11.7001111,21.9763144 C11.8559534,21.5845497 12.2998767,21.3932966 12.6916415,21.5491389 C13.0834063,21.7049812 13.2746593,22.1489045 13.118817,22.5406693 C12.6402714,23.7436631 13.4101352,25.542539 14.8734008,25.8661856 C15.2850749,25.95724 15.5449885,26.3647821 15.453934,26.7764562 C15.3628795,27.1881303 14.9553375,27.4480439 14.5436634,27.3569894 Z" id="Combined-Shape" fill="#000000"></path>
                    </g>
                </g>
            </g>
        </g>
    </g>
</svg>