<?xml version="1.0" encoding="UTF-8"?>
<svg width="22px" height="14px" viewBox="0 0 22 14" version="1.1" xmlns="http://www.w3.org/2000/svg" xmlns:xlink="http://www.w3.org/1999/xlink">
    <!-- Generator: sketchtool 51.2 (57519) - http://www.bohemiancoding.com/sketch -->
    <title>3F87F133-65FD-4968-B590-A0F5CAFD4C55</title>
    <desc>Created with sketchtool.</desc>
    <defs>
        <linearGradient x1="0%" y1="1.55572612%" x2="100%" y2="1.55572612%" id="linearGradient-1">
            <stop stop-color="#1EBF9D" offset="0%"></stop>
            <stop stop-color="#1073B9" offset="100%"></stop>
        </linearGradient>
    </defs>
    <g id="Page-1" stroke="none" stroke-width="1" fill="none" fill-rule="evenodd">
        <g id="medservicebel_sanatorij_05_hover" transform="translate(-282.000000, -2813.000000)" fill="url(#linearGradient-1)" fill-rule="nonzero">
            <g id="Услуги-и-преимущества" transform="translate(275.000000, 2664.000000)">
                <g id="Номера" transform="translate(2.000000, 140.000000)">
                    <g id="group" transform="translate(5.000000, 9.000000)">
                        <path d="M19.9977588,4.92622656 C20.3289957,4.42001293 20.5331039,3.80252855 20.5331039,3.12499102 C20.5331039,1.37497306 19.3109129,1.0208214e-15 17.7220154,1.0208214e-15 C16.1331179,1.0208214e-15 14.9109269,1.37497306 14.9109269,3.12499102 C14.9109269,3.80123554 15.1150352,4.41871992 15.446272,4.92622656 C14.9806019,5.09245026 14.5662748,5.3712377 14.2363022,5.73874003 C14.2766182,5.50125709 14.2998666,5.25501042 14.2998666,5.00122118 C14.2998666,2.87623016 12.8331812,1.25120322 10.9999298,1.25120322 C9.16667837,1.25120322 7.69999298,2.87615832 7.69999298,5.00122118 C7.69999298,5.25501042 7.72324137,5.50118526 7.7635573,5.73874003 C7.43232043,5.37245888 7.01806363,5.09252209 6.55358751,4.92622656 C6.88482438,4.42001293 7.08893259,3.80252855 7.08893259,3.12499102 C7.08893259,1.37497306 5.86674159,0 4.27784411,0 C2.68894664,0 1.46675563,1.37497306 1.46675563,3.12499102 C1.46675563,3.80123554 1.67086385,4.41871992 2.00210072,4.92622656 C0.854360749,5.33625458 0,6.45873141 0,7.75001796 L0,9.87500898 C0,10.249982 0.244424154,10.5000359 0.611130621,10.5000359 C0.977837089,10.5000359 1.22226124,10.2500539 1.22226124,9.87500898 L1.22226124,7.75001796 C1.22226124,6.75001796 1.95560394,6 2.93337079,6 L3.17779495,6 C3.17779495,6 3.17779495,5.98376553 3.17779495,5.98247252 C3.52244705,6.15243158 3.89526412,6.24998204 4.27777388,6.24998204 C4.66028363,6.24998204 5.0331007,6.15250341 5.3777528,5.98247252 L5.3777528,6 L5.62217696,6 C6.59994381,6 7.33328651,6.75001796 7.33328651,7.75001796 C7.33328651,7.77501616 7.34304943,7.79376482 7.34431369,7.81624883 C6.45328932,8.47503771 5.86667135,9.53997558 5.86667135,10.7499461 L5.86667135,13.3749731 C5.86667135,13.7499461 6.1110955,14 6.47780197,14 C6.8444382,14 7.08893259,13.750018 7.08893259,13.3749731 L7.08893259,10.7499461 C7.08893259,9.49996408 8.18891152,8.37497306 9.41110253,8.37497306 L9.56513189,8.37497306 C9.999055,8.60872064 10.4817927,8.74994612 11,8.74994612 C11.5182073,8.74994612 11.999751,8.60872064 12.4348681,8.37497306 L12.5888975,8.37497306 C13.8110885,8.37497306 14.9110674,9.49996408 14.9110674,10.7499461 L14.9110674,13.3749731 C14.9110674,13.7499461 15.1554916,14 15.522198,14 C15.8888343,14 16.1333287,13.750018 16.1333287,13.3749731 L16.1333287,10.7499461 C16.1333287,9.54119675 15.5466404,8.47496588 14.6556863,7.81624883 C14.6581446,7.79247181 14.6667135,7.77372315 14.6667135,7.75001796 C14.6667135,6.75001796 15.4000562,6 16.377823,6 L16.6222472,6 C16.6222472,6 16.6222472,5.98376553 16.6222472,5.98247252 C16.9668993,6.15243158 17.3397164,6.24998204 17.7222261,6.24998204 C18.1047359,6.24998204 18.4775529,6.15250341 18.8222051,5.98247252 L18.8222051,6 L19.0666292,6 C20.0443961,6 20.7777388,6.75001796 20.7777388,7.75001796 L20.7777388,9.87500898 C20.7777388,10.249982 21.0221629,10.5000359 21.3888694,10.5000359 C21.7555758,10.5000359 22,10.2500539 22,9.87500898 L22,7.75001796 C21.9997191,6.45751024 21.1441643,5.33625458 19.9977588,4.92622656 Z M2.6888764,3.12499102 C2.6888764,2.12499102 3.4222191,1.24998204 4.27770364,1.24998204 C5.13318818,1.24998204 5.86653088,2.12499102 5.86653088,3.12499102 C5.86653088,4.12499102 5.13318818,5 4.27770364,5 C3.4222191,5 2.6888764,4.12499102 2.6888764,3.12499102 Z M8.92211375,5 C8.92211375,3.62502694 9.8998806,2.50003592 10.9998595,2.50003592 C12.0998385,2.50003592 13.0776053,3.62502694 13.0776053,5 C13.0776053,6.37497306 12.2220505,7.49996408 10.9998595,7.49996408 C9.77766852,7.49996408 8.92211375,6.37497306 8.92211375,5 Z M16.1331179,3.12499102 C16.1331179,2.12499102 16.8664606,1.24998204 17.7219452,1.24998204 C18.5774297,1.24998204 19.3107724,2.12499102 19.3107724,3.12499102 C19.3107724,4.12499102 18.5774297,5 17.7219452,5 C16.8664606,5 16.1331179,4.12499102 16.1331179,3.12499102 Z" id="sanatorij/svg/nomera"></path>
                    </g>
                </g>
            </g>
        </g>
    </g>
</svg>