<?xml version="1.0" encoding="UTF-8"?>
<svg width="40px" height="29px" viewBox="0 0 40 29" version="1.1" xmlns="http://www.w3.org/2000/svg" xmlns:xlink="http://www.w3.org/1999/xlink">
    <!-- Generator: sketchtool 51.2 (57519) - http://www.bohemiancoding.com/sketch -->
    <title>80BB2C56-6D6C-4A39-8325-77CB93A1EC8B</title>
    <desc>Created with sketchtool.</desc>
    <defs>
        <linearGradient x1="0%" y1="1.55572612%" x2="100%" y2="1.55572612%" id="linearGradient-1">
            <stop stop-color="#1EBF9D" offset="0%"></stop>
            <stop stop-color="#1073B9" offset="100%"></stop>
        </linearGradient>
    </defs>
    <g id="Page-1" stroke="none" stroke-width="1" fill="none" fill-rule="evenodd">
        <g id="medservicebel_spisok_napravlenij_05_hover" transform="translate(-1112.000000, -853.000000)">
            <g id="Иконки" transform="translate(71.000000, 607.000000)">
                <g id="Офтальмология" transform="translate(1035.000000, 235.000000)">
                    <g id="spisok_napravlenij/svg/oftalmology" transform="translate(6.000000, 11.000000)">
                        <path d="M39.80429,18.2441111 C34.8413993,12.6504111 27.4723368,8 19.9999931,8 C12.5266337,8 5.15764934,12.6515778 0.195696216,18.2441111 C-0.0899287839,18.5661111 -0.0593037839,19.0575889 0.264055591,19.3419444 C0.587493091,19.6263 1.08124309,19.5958111 1.36678997,19.2738889 C1.53327434,19.0862111 1.70382122,18.8992333 1.87655559,18.7134222 C5.73710247,24.5206222 12.7353837,28.2222222 19.9999931,28.2222222 C27.2646025,28.2222222 34.2628837,24.5206222 38.1234306,18.7134222 C38.296165,18.8993111 38.4667118,19.0862889 38.6331962,19.2738889 C38.9178837,19.5948 39.4115556,19.6271556 39.7359306,19.3419444 C40.05929,19.0575889 40.089915,18.5660333 39.80429,18.2441111 Z" id="Path" fill="url(#linearGradient-1)" opacity="0.200000003"></path>
                        <path d="M15.8648438,14.2278889 C15.5601563,13.9237778 15.0648438,13.9237778 14.7601563,14.2278889 C14.4546875,14.5312222 14.4546875,15.0243333 14.7601563,15.3276667 C15.0648438,15.6317778 15.5601563,15.6317778 15.8648438,15.3276667 C16.1703125,15.0243333 16.1703125,14.5312222 15.8648438,14.2278889 Z" id="Shape" fill="#000000" fill-rule="nonzero"></path>
                        <path d="M20,15.5555556 C18.7076562,15.5555556 17.65625,16.6022889 17.65625,17.8888889 C17.65625,19.1754889 18.7076562,20.2222222 20,20.2222222 C21.2923438,20.2222222 22.34375,19.1754889 22.34375,17.8888889 C22.34375,16.6022889 21.2923437,15.5555556 20,15.5555556 Z M20,18.6666667 C19.5692187,18.6666667 19.21875,18.3177556 19.21875,17.8888889 C19.21875,17.4600222 19.5692187,17.1111111 20,17.1111111 C20.4307813,17.1111111 20.78125,17.4600222 20.78125,17.8888889 C20.78125,18.3177556 20.4307813,18.6666667 20,18.6666667 Z" id="Shape" fill="#000000" fill-rule="nonzero"></path>
                        <path d="M20,11.6666667 C19.1267188,11.6666667 18.2822656,11.8423667 17.4903125,12.1889444 C17.0953125,12.3618444 16.9158594,12.8207333 17.0894531,13.2139778 C17.2630469,13.6072222 17.7240625,13.7858 18.1190625,13.6130556 C18.7116406,13.3537444 19.3445313,13.2222222 20,13.2222222 C22.5846875,13.2222222 24.6875,15.3156889 24.6875,17.8888889 C24.6875,20.4620889 22.5846875,22.5555556 20,22.5555556 C17.4153125,22.5555556 15.3125,20.4620889 15.3125,17.8888889 C15.3125,17.8622889 15.3124219,17.8363111 15.3130469,17.8097111 C15.3230469,17.3803 14.9814844,17.0240778 14.5501563,17.0141222 C14.118125,17.0033889 13.7610156,17.3441333 13.7510156,17.7736222 C13.7500781,17.8123556 13.75,17.8501556 13.75,17.8888889 C13.75,21.3198222 16.55375,24.1111111 20,24.1111111 C23.44625,24.1111111 26.25,21.3198222 26.25,17.8888889 C26.25,14.4579556 23.44625,11.6666667 20,11.6666667 Z" id="Shape" fill="#000000" fill-rule="nonzero"></path>
                        <path d="M20,0 C19.5685156,0 19.21875,0.348211111 19.21875,0.777777778 L19.21875,5.44444444 C19.21875,5.87401111 19.5685156,6.22222222 20,6.22222222 C20.4314844,6.22222222 20.78125,5.87401111 20.78125,5.44444444 L20.78125,0.777777778 C20.78125,0.348211111 20.4314844,0 20,0 Z" id="Shape" fill="#000000" fill-rule="nonzero"></path>
                        <path d="M11.2719531,5.76628889 L7.95789062,2.46695556 C7.6528125,2.16323333 7.158125,2.16323333 6.85296875,2.46695556 C6.54789062,2.77067778 6.54789062,3.26316667 6.85296875,3.56696667 L10.1670312,6.8663 C10.4721094,7.17002222 10.966875,7.1701 11.2719531,6.8663 C11.5770312,6.56257778 11.5770312,6.07008889 11.2719531,5.76628889 Z" id="Shape" fill="#000000" fill-rule="nonzero"></path>
                        <path d="M33.1470312,2.46695556 C32.8419531,2.16323333 32.3472656,2.16323333 32.0421094,2.46695556 L28.7280469,5.76628889 C28.4229688,6.07001111 28.4229688,6.5625 28.7280469,6.8663 C29.0330469,7.17002222 29.5278125,7.1701 29.8329687,6.8663 L33.1470312,3.56696667 C33.4521094,3.26324444 33.4521094,2.77075556 33.1470312,2.46695556 Z" id="Shape" fill="#000000" fill-rule="nonzero"></path>
                        <path d="M39.8042969,18.0218889 C34.8414063,12.4281889 27.4723438,7.77777778 20,7.77777778 C12.5266406,7.77777778 5.15765625,12.4293556 0.195703125,18.0218889 C-0.089921875,18.3438889 -0.059296875,18.8353667 0.2640625,19.1197222 C0.5875,19.4040778 1.08125,19.3735889 1.36679688,19.0516667 C1.53328125,18.8639889 1.70382813,18.6770111 1.8765625,18.4912 C5.73710938,24.2984 12.7353906,28 20,28 C27.2646094,28 34.2628906,24.2984 38.1234375,18.4912 C38.2961719,18.6770889 38.4667188,18.8640667 38.6332031,19.0516667 C38.9178906,19.3725778 39.4115625,19.4049333 39.7359375,19.1197222 C40.0592969,18.8353667 40.0899219,18.3438111 39.8042969,18.0218889 Z M20,26.4444444 C13.1316406,26.4444444 6.52570313,22.8916333 2.99304688,17.346 C5.77648438,14.6307 12.2078906,9.33333333 20,9.33333333 C27.7921875,9.33333333 34.2235156,14.6307 37.0069531,17.3459222 C33.4742969,22.8916333 26.8683594,26.4444444 20,26.4444444 Z" id="Shape" fill="#000000" fill-rule="nonzero"></path>
                    </g>
                </g>
            </g>
        </g>
    </g>
</svg>