<?xml version="1.0" encoding="UTF-8"?>
<svg width="42px" height="43px" viewBox="0 0 42 43" version="1.1" xmlns="http://www.w3.org/2000/svg" xmlns:xlink="http://www.w3.org/1999/xlink">
    <!-- Generator: sketchtool 51.2 (57519) - http://www.bohemiancoding.com/sketch -->
    <title>9A4DC093-FB29-4B58-AF57-773F983B5B23</title>
    <desc>Created with sketchtool.</desc>
    <defs>
        <linearGradient x1="0%" y1="1.55572612%" x2="100%" y2="1.55572612%" id="linearGradient-1">
            <stop stop-color="#1EBF9D" offset="0%"></stop>
            <stop stop-color="#1073B9" offset="100%"></stop>
        </linearGradient>
    </defs>
    <g id="Page-1" stroke="none" stroke-width="1" fill="none" fill-rule="evenodd">
        <g id="medservicebel_spisok_napravlenij_05_hover" transform="translate(-780.000000, -1528.000000)" fill-rule="nonzero">
            <g id="Иконки" transform="translate(71.000000, 607.000000)">
                <g id="лечение-за-границей" transform="translate(706.000000, 916.000000)">
                    <g id="-spisok_napravlenij/svg/onkologia" transform="translate(3.000000, 6.000000)">
                        <path d="M33.019071,22.939596 C32.7194994,24.498174 32.0668064,25.9311449 31.1475028,27.151998 C32.2139772,27.4279059 33.3488766,27.1854872 34.2802053,27.8937737 C35.0978789,28.5161947 35.5962421,29.5662105 35.5962421,30.5897947 C35.5962421,35.1206789 28.9717211,34.9450368 28.8246421,30.4840684 C28.8131206,30.1323984 28.7766319,29.7943626 28.7141257,29.4716949 C27.3061703,30.4297547 25.647112,31.0462523 23.856116,31.2020225 C23.8525325,32.2570113 23.9643851,33.2942247 24.4169632,34.1559263 C25.1604579,35.5708684 26.4995158,36.5748421 26.0966474,38.3640895 C25.7577263,39.8694105 24.3022842,41 22.7539053,41 C20.3635526,41 18.5849632,38.4156737 19.6699368,36.2103421 C20.2062421,35.1211053 21.2639316,34.3759053 21.6199053,33.1775316 C21.7597688,32.7070815 21.9137773,31.9970396 22.0227441,31.1989862 C20.6940061,31.0789513 19.4384446,30.7052661 18.3048587,30.1267298 C18.3047813,30.9558008 18.3420336,31.7853248 17.8998737,32.5372053 C17.3141158,33.5335053 16.1524053,34.1610421 15.0034842,34.1610421 C13.1153316,34.1610421 11.5840053,32.6301421 11.5840053,30.7415632 C11.5840053,29.3108474 12.4929105,27.9568684 13.8758789,27.5190421 C14.129237,27.4386903 14.4614371,27.3474795 14.8307667,27.237598 C13.970251,26.1193438 13.3353973,24.8184415 12.9943485,23.4030343 C12.035531,23.6715838 11.2045236,23.9555534 10.7731526,24.0577842 C8.44120526,24.6102895 7.24453684,26.8262789 5.07075263,27.6077158 C3.03083158,28.3409789 0.947,26.4792579 0.947,24.3591895 C0.947,22.2357105 2.70256842,20.8088316 4.72927368,21.0586526 C6.46693684,21.2726632 7.99058947,22.4586737 9.79177368,22.3793789 C10.7357707,22.3374843 11.7533736,22.1811265 12.7530438,21.9442409 C12.7242715,21.6313459 12.7095663,21.3143782 12.7095663,20.9939759 C12.7095663,19.6827183 12.9558613,18.428986 13.4047131,17.2765172 C12.7016522,17.1437052 11.9672516,17.1498355 11.0954474,17.3390474 C8.88670526,17.8182263 6.57010526,16.4309947 6.57010526,14.0252947 C6.57010526,10.8867579 11.0404526,9.17680526 12.6685526,12.1524895 C13.3277048,13.3566509 13.7302955,14.3198466 14.5738697,15.0991543 C15.5521038,13.7106177 16.8666103,12.5760257 18.3989614,11.8138063 C17.9771115,10.5870318 17.6313534,9.34068362 16.8217211,8.28324737 C15.4545263,6.49698421 12.7248263,6.80776842 12.7248263,3.91990526 C12.7248263,2.0309 14.2557263,0.5 16.1443053,0.5 C16.5804263,0.5 17.0770842,0.609136842 17.4808053,0.769005263 C19.6601316,1.63272105 19.5919211,3.75151053 19.1417316,5.67163684 C18.8637737,6.8585 18.8970263,7.79170526 19.3638421,8.92570526 C19.6271714,9.56542448 19.8569432,10.3488842 20.1132741,11.1465978 C21.0160551,10.8864 21.9700239,10.746988 22.9565542,10.746988 C23.0359033,10.746988 23.1150418,10.7478899 23.1939599,10.749684 C23.0832477,10.4011152 22.9981278,10.0493415 22.9713263,9.68966316 C22.8310684,7.79767368 24.4787789,6.14484737 26.3771632,6.14484737 C28.2657421,6.14484737 29.7966421,7.67574737 29.7966421,9.56432632 C29.7966421,10.8378307 29.0250387,11.5107571 28.1656881,12.1679479 C28.9880914,12.6543791 29.7366211,13.2524813 30.3904032,13.9413804 C31.6626936,13.1042124 33.0128804,12.2249831 33.8308684,10.9302421 C34.4490263,9.95099474 34.2618737,8.71169474 34.8361211,7.72221579 C35.3992842,6.75234737 36.5456474,6.19898947 37.6463947,6.19898947 C39.5349737,6.19898947 41.0658737,7.72988947 41.0658737,9.61846842 C41.0658737,10.0409474 40.9708053,10.5158632 40.8190368,10.9093526 C39.7651842,13.6458737 37.3722737,12.4048684 35.2782105,13.0362421 C33.9018787,13.4514349 32.7389225,14.599395 31.5671959,15.4367512 C32.4621742,16.8206225 33.0326189,18.4339857 33.170826,20.1691371 C34.1958176,19.9618277 35.0790437,19.6811072 35.4346684,19.5008947 C36.1397947,19.1432158 36.8210474,18.8720789 37.5086947,18.8132474 C38.1400684,18.7595316 38.7782632,18.8844421 39.4454474,19.2868842 C40.5402263,19.9468211 41.0799421,21.2701053 40.9000368,22.5183579 C40.8105105,23.1352368 40.5380947,23.7056474 40.1237158,24.1703316 C39.3329,25.0574947 38.1660737,25.6279053 36.9617316,25.4164526 C35.6930158,25.1939158 34.9179737,24.0258105 33.8747789,23.3807947 C33.6012813,23.2117751 33.3148639,23.0642254 33.019071,22.939596 Z" id="Combined-Shape" fill="url(#linearGradient-1)" opacity="0.200000003"></path>
                        <path d="M33.019071,22.939596 C32.7194994,24.498174 32.0668064,25.9311449 31.1475028,27.151998 C32.2139772,27.4279059 33.3488766,27.1854872 34.2802053,27.8937737 C35.0978789,28.5161947 35.5962421,29.5662105 35.5962421,30.5897947 C35.5962421,35.1206789 28.9717211,34.9450368 28.8246421,30.4840684 C28.8131206,30.1323984 28.7766319,29.7943626 28.7141257,29.4716949 C27.3061703,30.4297547 25.647112,31.0462523 23.856116,31.2020225 C23.8525325,32.2570113 23.9643851,33.2942247 24.4169632,34.1559263 C25.1604579,35.5708684 26.4995158,36.5748421 26.0966474,38.3640895 C25.7577263,39.8694105 24.3022842,41 22.7539053,41 C20.3635526,41 18.5849632,38.4156737 19.6699368,36.2103421 C20.2062421,35.1211053 21.2639316,34.3759053 21.6199053,33.1775316 C21.7597688,32.7070815 21.9137773,31.9970396 22.0227441,31.1989862 C20.6940061,31.0789513 19.4384446,30.7052661 18.3048587,30.1267298 C18.3047813,30.9558008 18.3420336,31.7853248 17.8998737,32.5372053 C17.3141158,33.5335053 16.1524053,34.1610421 15.0034842,34.1610421 C13.1153316,34.1610421 11.5840053,32.6301421 11.5840053,30.7415632 C11.5840053,29.3108474 12.4929105,27.9568684 13.8758789,27.5190421 C14.129237,27.4386903 14.4614371,27.3474795 14.8307667,27.237598 C13.970251,26.1193438 13.3353973,24.8184415 12.9943485,23.4030343 C12.035531,23.6715838 11.2045236,23.9555534 10.7731526,24.0577842 C8.44120526,24.6102895 7.24453684,26.8262789 5.07075263,27.6077158 C3.03083158,28.3409789 0.947,26.4792579 0.947,24.3591895 C0.947,22.2357105 2.70256842,20.8088316 4.72927368,21.0586526 C6.46693684,21.2726632 7.99058947,22.4586737 9.79177368,22.3793789 C10.7357707,22.3374843 11.7533736,22.1811265 12.7530438,21.9442409 C12.7242715,21.6313459 12.7095663,21.3143782 12.7095663,20.9939759 C12.7095663,19.6827183 12.9558613,18.428986 13.4047131,17.2765172 C12.7016522,17.1437052 11.9672516,17.1498355 11.0954474,17.3390474 C8.88670526,17.8182263 6.57010526,16.4309947 6.57010526,14.0252947 C6.57010526,10.8867579 11.0404526,9.17680526 12.6685526,12.1524895 C13.3277048,13.3566509 13.7302955,14.3198466 14.5738697,15.0991543 C15.5521038,13.7106177 16.8666103,12.5760257 18.3989614,11.8138063 C17.9771115,10.5870318 17.6313534,9.34068362 16.8217211,8.28324737 C15.4545263,6.49698421 12.7248263,6.80776842 12.7248263,3.91990526 C12.7248263,2.0309 14.2557263,0.5 16.1443053,0.5 C16.5804263,0.5 17.0770842,0.609136842 17.4808053,0.769005263 C19.6601316,1.63272105 19.5919211,3.75151053 19.1417316,5.67163684 C18.8637737,6.8585 18.8970263,7.79170526 19.3638421,8.92570526 C19.6271714,9.56542448 19.8569432,10.3488842 20.1132741,11.1465978 C21.0160551,10.8864 21.9700239,10.746988 22.9565542,10.746988 C23.0359033,10.746988 23.1150418,10.7478899 23.1939599,10.749684 C23.0832477,10.4011152 22.9981278,10.0493415 22.9713263,9.68966316 C22.8310684,7.79767368 24.4787789,6.14484737 26.3771632,6.14484737 C28.2657421,6.14484737 29.7966421,7.67574737 29.7966421,9.56432632 C29.7966421,10.8378307 29.0250387,11.5107571 28.1656881,12.1679479 C28.9880914,12.6543791 29.7366211,13.2524813 30.3904032,13.9413804 C31.6626936,13.1042124 33.0128804,12.2249831 33.8308684,10.9302421 C34.4490263,9.95099474 34.2618737,8.71169474 34.8361211,7.72221579 C35.3992842,6.75234737 36.5456474,6.19898947 37.6463947,6.19898947 C39.5349737,6.19898947 41.0658737,7.72988947 41.0658737,9.61846842 C41.0658737,10.0409474 40.9708053,10.5158632 40.8190368,10.9093526 C39.7651842,13.6458737 37.3722737,12.4048684 35.2782105,13.0362421 C33.9018787,13.4514349 32.7389225,14.599395 31.5671959,15.4367512 C32.4621742,16.8206225 33.0326189,18.4339857 33.170826,20.1691371 C34.1958176,19.9618277 35.0790437,19.6811072 35.4346684,19.5008947 C36.1397947,19.1432158 36.8210474,18.8720789 37.5086947,18.8132474 C38.1400684,18.7595316 38.7782632,18.8844421 39.4454474,19.2868842 C40.5402263,19.9468211 41.0799421,21.2701053 40.9000368,22.5183579 C40.8105105,23.1352368 40.5380947,23.7056474 40.1237158,24.1703316 C39.3329,25.0574947 38.1660737,25.6279053 36.9617316,25.4164526 C35.6930158,25.1939158 34.9179737,24.0258105 33.8747789,23.3807947 C33.6012813,23.2117751 33.3148639,23.0642254 33.019071,22.939596 Z" id="Combined-Shape-Copy-5" stroke="#00141B" stroke-width="1.4"></path>
                        <path d="M20.9008372,15.4343556 C18.487814,15.4343556 16.5246512,17.4275111 16.5246512,19.8774 C16.5246512,20.8615111 16.807814,21.7368222 17.2974884,22.9162444 C17.3875349,23.1327111 17.5944186,23.2630444 17.812093,23.2630444 C17.8842791,23.2630444 17.9579535,23.2486889 18.0286512,23.2184667 C18.3125581,23.0968222 18.4461395,22.7647556 18.3263256,22.4761333 C17.8820465,21.4055111 17.6409302,20.6741333 17.6409302,19.8777778 C17.6409302,18.0527333 19.1032558,16.5684444 20.9004651,16.5684444 C21.2089302,16.5684444 21.4586047,16.3149556 21.4586047,16.0017778 C21.4586047,15.6886 21.2093023,15.4343556 20.9008372,15.4343556 Z" id="Shape" fill="#000000"></path>
                    </g>
                </g>
            </g>
        </g>
    </g>
</svg>