<?xml version="1.0" encoding="UTF-8"?>
<svg width="45px" height="45px" viewBox="0 0 45 45" version="1.1" xmlns="http://www.w3.org/2000/svg" xmlns:xlink="http://www.w3.org/1999/xlink">
    <!-- Generator: sketchtool 51.2 (57519) - http://www.bohemiancoding.com/sketch -->
    <title>60B9AAF2-E92F-41AD-A268-D9564A3EB45D</title>
    <desc>Created with sketchtool.</desc>
    <defs>
        <circle id="path-1" cx="22.5" cy="22.5" r="22.5"></circle>
        <linearGradient x1="0%" y1="1.55572612%" x2="100%" y2="1.55572612%" id="linearGradient-3">
            <stop stop-color="#1EBF9D" offset="0%"></stop>
            <stop stop-color="#1073B9" offset="100%"></stop>
        </linearGradient>
    </defs>
    <g id="Page-1" stroke="none" stroke-width="1" fill="none" fill-rule="evenodd">
        <g id="medservicebel_spisok_napravlenij_05_hover" transform="translate(-78.000000, -1785.000000)">
            <g id="Иконки" transform="translate(71.000000, 607.000000)">
                <g id="ортопедия" transform="translate(0.000000, 1171.000000)">
                    <g id="spisok_napravlenij/svg/ortopedia" transform="translate(7.000000, 7.000000)">
                        <mask id="mask-2" fill="white">
                            <use xlink:href="#path-1"></use>
                        </mask>
                        <use id="Mask" fill="#FFFFFF" xlink:href="#path-1"></use>
                        <g id="noun_Leg-Bones_183074" mask="url(#mask-2)">
                            <g transform="translate(-1.000000, -6.000000)">
                                <path d="M34.823468,51.9994778 L35,53.5 C33.8779568,58.352435 19.5,55 18.5913466,51.9989556 L16.4463698,51.9989556 C13.7960885,44.8513794 13.3144059,35.1653093 14.4498006,29.178098 C11.1381043,27.7623693 5.29423655,24.113121 2,21.994489 L3.46918328,20.5025166 C3,11.5 4.5,-7 16,3.5 C17.6023506,4.96301577 19.088216,6.3532283 20.4575963,7.67063759 L18.710997,5 C23.4143349,8.99286675 33.2056378,18.2188642 34.0745152,26.5414273 C34.9875553,35.2415529 35.4451024,48.0368996 35.5714286,51.9994778 L34.823468,51.9994778 Z" id="Combined-Shape" fill="url(#linearGradient-3)" fill-rule="evenodd" opacity="0.200000003"></path>
                                <path d="M16.6019667,28.7707692 L16.8135373,27.8652459 L15.946714,27.5639271 C13.2096476,26.6119265 7.07153237,22.8081021 3.46918328,20.5025166 L2,21.994489 C5.29423655,24.113121 11.1381043,27.7623693 14.4498006,29.178098 C13.3144059,35.1653093 13.7960885,44.8513794 16.4463698,51.9989556 L18.5913466,51.9989556 C15.3931385,44.1489983 15.4799235,33.6232042 16.6019667,28.7707692 Z M18.2987741,23.9383896 C18.3697173,24.356838 18.5642578,24.7439933 18.841874,25.070545 C18.7584054,25.4402859 18.7301543,25.8297139 18.786238,26.22877 C19.0320632,27.9779076 20.6279781,29.2011707 22.3502743,28.9591177 C23.5133136,28.7956632 24.4250663,27.9972502 24.8238515,26.9606546 C24.8745733,26.9567084 24.9204146,26.9625973 24.9706978,26.9555305 C26.3878401,26.7563641 27.3726476,25.4277737 27.1704613,23.9891431 C26.9680557,22.5489523 25.6555726,21.5432249 24.2380465,21.7424452 C23.7893359,21.8055074 23.3883275,21.9935336 23.0511989,22.2517422 C22.8467314,21.9304238 22.5777242,21.6038556 22.2423676,21.2730873 C20.9457397,19.9958285 7.15221024,6.88036597 3.45031468,4.34998935 L0.696538691,8.06451261 C3.84050707,10.2094788 16.8160916,22.727058 18.2987741,23.9383896 Z M34.0745152,26.5414273 C33.2056378,18.2188642 23.4143349,8.99286675 18.710997,5 L17.2695438,6.46638371 C21.7120131,10.2378307 31.2706911,19.1609427 32.0645944,26.7586693 C32.9606883,35.3439073 33.4192625,47.9852002 33.5455886,51.9994778 L35.5714286,51.9994778 C35.4451024,48.0368996 34.9875553,35.2415529 34.0745152,26.5414273 Z M26.5629793,29 C25.7824537,29 25.0943538,29.3869932 24.6476925,29.9784062 C24.6129857,29.9721644 24.5779016,29.9752853 24.5462128,29.9706039 C24.0844615,29.6585126 23.5333026,29.4743788 22.9414008,29.4743788 C21.3162174,29.4743788 20,30.8362672 20,32.5168788 C20,34.19593 21.3165947,35.5582085 22.9414008,35.5582085 C23.0255271,35.5582085 23.1066353,35.5398731 23.1877436,35.532851 C23.2315043,35.6994298 23.2779058,35.8660085 23.3186486,36.0337576 C23.550656,37.0152847 23.7483338,38.0440156 23.922245,39.0821093 C24.2097078,40.8134358 23.6205154,56.2370743 23.8181932,58 L27.2737827,58 C27.2243633,56.0677648 27.9584188,40.5103171 27.801861,38.5679389 C27.7090581,37.4545532 27.5958837,36.3368762 27.4215953,35.1891605 C27.3491637,34.7811011 27.2793729,34.3671901 27.1952466,33.9454767 C28.2338097,33.6544516 28.9999999,32.6854081 28.9999999,31.5209174 C29.0003771,30.12821 27.9093766,29 26.5629793,29 Z" id="Shape" fill="#000000" fill-rule="nonzero"></path>
                            </g>
                        </g>
                    </g>
                </g>
            </g>
        </g>
    </g>
</svg>