<?xml version="1.0" encoding="UTF-8"?>
<svg width="18px" height="18px" viewBox="0 0 18 18" version="1.1" xmlns="http://www.w3.org/2000/svg" xmlns:xlink="http://www.w3.org/1999/xlink">
    <!-- Generator: sketchtool 51.2 (57519) - http://www.bohemiancoding.com/sketch -->
    <title>6AABF36A-D293-4670-88A5-C5FCC5E46E82</title>
    <desc>Created with sketchtool.</desc>
    <defs>
        <linearGradient x1="0%" y1="1.55572612%" x2="100%" y2="1.55572612%" id="linearGradient-1">
            <stop stop-color="#1EBF9D" offset="0%"></stop>
            <stop stop-color="#1073B9" offset="100%"></stop>
        </linearGradient>
    </defs>
    <g id="Page-1" stroke="none" stroke-width="1" fill="none" fill-rule="evenodd">
        <g id="medservicebel_sanatorij_05_hover" transform="translate(-284.000000, -3233.000000)" fill="url(#linearGradient-1)" fill-rule="nonzero">
            <g id="Услуги-и-преимущества" transform="translate(275.000000, 2664.000000)">
                <g id="Номера" transform="translate(2.000000, 562.000000)">
                    <g id="024-shop" transform="translate(7.000000, 7.000000)">
                        <path d="M17.9672293,4.29686923 L16.6815258,0.439729069 C16.5940619,0.177074398 16.3482817,-7.53107504e-05 16.0714635,2.40183415e-08 L1.92857412,2.40183415e-08 C1.65175593,-7.53107504e-05 1.40597573,0.177074398 1.31851188,0.439729069 L0.032770693,4.29686923 C0.0129576074,4.35691104 0.00188337316,4.41947657 0,4.48264477 C0,4.48908589 0,4.49356831 0,4.50000943 L0,5.14287868 C0.00233538272,6.15010454 0.478640456,7.09751459 1.28570352,7.70015508 C1.28570352,7.70531551 1.28570352,7.70915758 1.28570352,7.71428035 L1.28570352,16.0714299 C1.28570352,17.1365505 2.14915478,18 3.21427764,18 L14.7857224,18 C15.8508452,18 16.7142965,17.1365505 16.7142965,16.0714299 L16.7142965,7.71428035 C16.7142965,7.70911992 16.7142965,7.70527784 16.7142965,7.70015508 C17.5213595,7.09751459 17.9977023,6.15010454 18,5.14287868 L18,4.50000943 C18,4.49356831 18,4.48908589 18,4.48264477 C17.9981166,4.4194389 17.9870801,4.35687337 17.9672293,4.29686923 Z M13.5000188,1.28570086 L15.6079654,1.28570086 L16.4655405,3.85714019 L13.5000188,3.85714019 L13.5000188,1.28570086 Z M9.6428706,1.28570086 L12.2143153,1.28570086 L12.2143153,3.85714019 L9.6428706,3.85714019 L9.6428706,1.28570086 Z M5.78572236,1.28570086 L8.35716707,1.28570086 L8.35716707,3.85714019 L5.78572236,3.85714019 L5.78572236,1.28570086 Z M2.39207225,1.28570086 L4.50001883,1.28570086 L4.50001883,3.85714019 L1.53449712,3.85714019 L2.39207225,1.28570086 Z M10.2857412,16.7142615 L7.71429648,16.7142615 L7.71429648,11.5714205 L10.2857412,11.5714205 L10.2857412,16.7142615 Z M15.428593,16.0714299 C15.428593,16.4264827 15.1407759,16.7142992 14.7857224,16.7142992 L11.5714447,16.7142992 L11.5714447,10.9285889 C11.5714447,10.5735362 11.2836276,10.2857197 10.9285741,10.2857197 L7.07142588,10.2857197 C6.71637237,10.2857197 6.42855529,10.5735362 6.42855529,10.9285889 L6.42855529,16.7142992 L3.21427764,16.7142992 C2.85922413,16.7142992 2.57140705,16.4264827 2.57140705,16.0714299 L2.57140705,8.29285137 C3.47358046,8.4780619 4.4117263,8.26275513 5.14285176,7.70271646 C6.2904287,8.54556185 7.85242306,8.54556185 9,7.70271646 C10.1475769,8.54556185 11.7095713,8.54556185 12.8571482,7.70271646 C13.5882737,8.2627928 14.5264195,8.4780619 15.428593,8.29285137 L15.428593,16.0714299 Z M14.7857224,7.0714111 C14.2297883,7.07107209 13.7018788,6.82721344 13.3412128,6.40413338 C13.1075992,6.13680796 12.7014686,6.10946144 12.4341426,6.34307455 C12.4124462,6.36202125 12.3920304,6.38243697 12.3730837,6.40413338 C11.6582682,7.20192858 10.432117,7.26916487 9.63432008,6.55438858 C9.58154797,6.50707834 9.5313749,6.45694306 9.48406457,6.40413338 C9.23248358,6.13680796 8.81181335,6.12400105 8.5444497,6.37561917 C8.53465616,6.38484768 8.52512629,6.39433986 8.51593543,6.40413338 C7.80115765,7.20192858 6.57496872,7.26916487 5.77717184,6.55438858 C5.72436206,6.50707834 5.67422667,6.45694306 5.62691633,6.40413338 C5.37533535,6.13680796 4.95462745,6.12400105 4.68730146,6.37561917 C4.67750792,6.38484768 4.66797805,6.39433986 4.65878719,6.40413338 C4.29812123,6.82721344 3.7702494,7.07107209 3.21427764,7.0714111 C2.14915478,7.0714111 1.28570352,6.20796165 1.28570352,5.14284102 L16.7142965,5.14284102 C16.7142965,6.20796165 15.8508452,7.0714111 14.7857224,7.0714111 Z" id="sanatorij/svg/other"></path>
                    </g>
                </g>
            </g>
        </g>
    </g>
</svg>