<?xml version="1.0" encoding="UTF-8"?>
<svg width="82px" height="64px" viewBox="0 0 82 64" version="1.1" xmlns="http://www.w3.org/2000/svg" xmlns:xlink="http://www.w3.org/1999/xlink">
    <!-- Generator: sketchtool 51.2 (57519) - http://www.bohemiancoding.com/sketch -->
    <title>CB639662-6995-4765-8838-4921328286DA</title>
    <desc>Created with sketchtool.</desc>
    <defs>
        <linearGradient x1="0%" y1="1.55572612%" x2="100%" y2="1.55572612%" id="linearGradient-1">
            <stop stop-color="#1EBF9D" offset="0%"></stop>
            <stop stop-color="#1073B9" offset="100%"></stop>
        </linearGradient>
    </defs>
    <g id="Page-1" stroke="none" stroke-width="1" fill="none" fill-rule="evenodd">
        <g id="medservicebel_stranica_yslygi_05_hover" transform="translate(-289.000000, -3809.000000)">
            <g id="Group-9" transform="translate(275.000000, 3786.000000)">
                <g id="Group-8">
                    <g id="pair-of-molars" transform="translate(14.000000, 23.000000)">
                        <path d="M77.6241295,19.3065324 C74.9212308,16.2633299 71.1997621,14.5873127 67.1468585,14.5873127 C64.9907022,14.5873127 62.7592461,15.4626909 61.0652884,16.275141 C60.9730412,16.3192875 60.776992,16.3558826 60.7715997,16.1684537 C60.4097368,12.105816 58.8078336,8.51078249 56.1850493,5.55800276 C53.0006939,1.97361861 48.6186664,0 43.844733,0 C40.1028505,0 36.1133066,2.21274536 33.1977966,3.83009415 C32.3126864,4.32093327 30.86042,5.21954643 30.4365454,5.21954643 C30.0149818,5.21954643 28.5750407,4.32635477 27.6874269,3.83319215 C24.7794276,2.21545611 20.7970093,0 17.028743,0 C12.2551948,0 7.87278211,1.97361861 4.68842663,5.55800276 C1.66487772,8.961154 0,13.4395043 0,18.1670499 C0,24.8521432 2.38282615,34.3475083 6.37371812,43.5675388 C8.14990866,47.6714185 10.0426118,51.2201757 11.8465342,53.830433 C14.0427477,57.0078176 15.9577904,58.5523634 17.7006641,58.5523634 C18.5068154,58.5523634 19.9808437,58.2170051 20.7898837,55.9666965 C21.5159206,53.9469952 22.1672354,51.6370501 22.8613036,49.1747223 C24.5641201,43.130721 26.8964896,34.8522884 30.3208032,34.8522884 C30.3208032,34.8522884 30.6699557,34.8635186 30.6934508,35.1564731 C31.4420199,40.1403781 33.148688,45.6770821 35.5981478,51.336157 C37.090664,54.7840356 38.6813974,57.7666336 40.1987567,59.9619527 C42.0774013,62.6790909 43.7336128,64 45.2619493,64 C45.9889491,64 47.3166145,63.701624 48.0347555,61.7034151 C48.6460131,60.0035821 49.1925629,58.0642351 49.7731998,56.004647 C51.1811722,51.0064138 53.1098883,44.1609991 55.8264603,44.1609991 L56.0201985,44.1609991 C57.1878276,44.1609991 58.2712981,45.2480093 59.3328141,47.4843769 C60.4507569,49.8376939 61.3083278,52.9959097 62.1373965,56.0507297 C62.6922273,58.0932788 63.2162449,60.0227509 63.8097849,61.6968318 C64.5146377,63.6855532 65.8303629,63.9837355 66.552163,63.9839291 C68.0751073,63.9839291 69.7305484,62.6428831 71.6120817,59.88489 C73.1252043,57.6676913 74.7192115,54.6562432 76.2215494,51.1762229 C79.5888585,43.3725585 81.6,35.4540746 81.6,29.9944333 C81.5996148,25.9877532 80.1879834,22.1919307 77.6241295,19.3065324 Z" id="Path" fill="url(#linearGradient-1)" opacity="0.200000003"></path>
                        <path d="M77.6241295,19.3065324 C74.9212308,16.2633299 71.1997621,14.5873127 67.1468585,14.5873127 C64.9907022,14.5873127 62.7592461,15.4626909 61.0652884,16.275141 C60.9730412,16.3192875 60.776992,16.3558826 60.7715997,16.1684537 C60.4097368,12.105816 58.8078336,8.51078249 56.1850493,5.55800276 C53.0006939,1.97361861 48.6186664,0 43.844733,0 C40.1028505,0 36.1133066,2.21274536 33.1977966,3.83009415 C32.3126864,4.32093327 30.86042,5.21954643 30.4365454,5.21954643 C30.0149818,5.21954643 28.5750407,4.32635477 27.6874269,3.83319215 C24.7794276,2.21545611 20.7970093,0 17.028743,0 C12.2551948,0 7.87278211,1.97361861 4.68842663,5.55800276 C1.66487772,8.961154 0,13.4395043 0,18.1670499 C0,24.8521432 2.38282615,34.3475083 6.37371812,43.5675388 C8.14990866,47.6714185 10.0426118,51.2201757 11.8465342,53.830433 C14.0427477,57.0078176 15.9577904,58.5523634 17.7006641,58.5523634 C18.5068154,58.5523634 19.9808437,58.2170051 20.7898837,55.9666965 C21.5159206,53.9469952 22.1672354,51.6370501 22.8613036,49.1747223 C24.5641201,43.130721 26.8964896,34.8522884 30.3208032,34.8522884 C30.3208032,34.8522884 30.6699557,34.8635186 30.6934508,35.1564731 C31.4420199,40.1403781 33.148688,45.6770821 35.5981478,51.336157 C37.090664,54.7840356 38.6813974,57.7666336 40.1987567,59.9619527 C42.0774013,62.6790909 43.7336128,64 45.2619493,64 C45.9889491,64 47.3166145,63.701624 48.0347555,61.7034151 C48.6460131,60.0035821 49.1925629,58.0642351 49.7731998,56.004647 C51.1811722,51.0064138 53.1098883,44.1609991 55.8264603,44.1609991 L56.0201985,44.1609991 C57.1878276,44.1609991 58.2712981,45.2480093 59.3328141,47.4843769 C60.4507569,49.8376939 61.3083278,52.9959097 62.1373965,56.0507297 C62.6922273,58.0932788 63.2162449,60.0227509 63.8097849,61.6968318 C64.5146377,63.6855532 65.8303629,63.9837355 66.552163,63.9839291 C68.0751073,63.9839291 69.7305484,62.6428831 71.6120817,59.88489 C73.1252043,57.6676913 74.7192115,54.6562432 76.2215494,51.1762229 C79.5888585,43.3725585 81.6,35.4540746 81.6,29.9944333 C81.5996148,25.9877532 80.1879834,22.1919307 77.6241295,19.3065324 Z M30.2462737,29.9946269 C30.2462737,30.5054094 30.2634135,31.0448484 30.2971155,31.6048116 C30.3001968,31.6541859 30.3331285,31.8216715 30.0924001,31.805407 C27.394316,31.8121838 25.3893371,33.6651741 23.5230179,37.5762035 C22.0636259,40.6345088 20.9618601,44.5465063 19.8962999,48.3295496 L19.8887891,48.3564634 C19.2155199,50.7442457 18.5798043,52.9993949 17.8915136,54.9120217 C17.800422,55.1658639 17.7351364,55.4032481 17.6330676,55.4361643 C17.3599853,55.5242636 16.3113723,54.8593557 14.3776491,52.0620568 C12.7110381,49.6504586 10.8724508,46.1944478 9.19967714,42.3302757 C5.42582591,33.6125082 3.08170889,24.3533654 3.08170889,18.166469 C3.08170889,10.7595421 8.29877512,3.09819203 17.0285504,3.09819203 C19.2917827,3.09819203 22.2779705,4.14279836 25.0166896,5.89239296 C25.4139877,6.14604158 25.9840326,6.58673185 26.5355896,7.01270663 C26.7582152,7.18522642 26.9775669,7.35464821 27.1820898,7.50954813 C27.8430337,8.00658325 28.735077,8.65696929 29.782727,9.27676259 C30.3333211,9.60379505 30.8348065,9.89403877 31.3952222,10.1337464 C33.6675059,11.1030326 36.0763307,11.5950335 38.5546779,11.5950335 C41.0857928,11.5950335 44.8099577,10.940775 44.7485238,10.4325096 C44.6872825,9.92443788 40.1949051,10.6514994 35.5297809,9.13115667 C34.3178578,8.73616187 32.7558193,8.29276085 32.7565896,7.79553211 C32.7567822,7.65844568 33.1954856,7.41641455 33.5051587,7.23053465 C33.8358232,7.03206912 34.2107818,6.80668974 34.6881944,6.54181088 C37.3080899,5.08846238 40.8962914,3.09819203 43.8449256,3.09819203 C52.4187088,3.09819203 57.6034212,10.4873055 57.7867599,17.7677953 C57.7890709,17.8487305 57.8006259,17.9972408 57.6380861,18.0971513 C57.081522,18.4042404 56.2616973,18.9498754 55.923522,18.9498754 C55.5397046,18.9498754 54.3256631,18.1583368 53.7167165,17.8198804 C51.2643679,16.4554058 47.9053399,14.5869255 44.7005707,14.5869255 C40.6472819,14.5869255 36.9260057,16.2629426 34.2227219,19.3061452 C31.6579051,22.1919307 30.2462737,25.9877532 30.2462737,29.9946269 Z M73.4897634,49.9850425 C72.0829465,53.2452985 70.5442105,56.1599342 69.1574222,58.1918339 C67.9143007,60.0138442 67.1229782,61.1188615 66.7792181,60.8977418 C66.6823489,60.8353946 66.5357935,60.4673137 66.5005508,60.3672096 C65.94572,58.8019459 65.5493847,57.2506232 65.0093827,55.2626764 C64.1460344,52.081032 63.2524505,48.791345 62.0197284,46.1948351 C60.4128181,42.8124017 58.4505926,41.168139 56.0203911,41.168139 L55.8266529,41.168139 C53.4788768,41.168139 51.5586344,42.7996224 49.9569238,46.1559165 C48.7292089,48.7289977 47.8036562,52.0126824 46.9091094,55.1892925 C46.3440717,57.1925358 45.8111953,59.0844447 45.2353729,60.6861098 C45.1955083,60.7976378 45.1367706,60.9246557 45.0726405,60.9531186 C44.793203,61.0752959 43.9935995,60.2072755 42.6437871,58.2541811 C41.2566137,56.2480335 39.7242329,53.3670886 38.3283932,50.1426531 C35.1796655,42.8681656 33.2237953,35.1481473 33.2237953,29.9948205 C33.2237953,23.8923446 37.5162718,17.5805601 44.6998003,17.5805601 C46.5578385,17.5805601 49.018083,18.4435462 51.2799671,19.8885689 C51.6025432,20.0943921 52.0712896,20.456858 52.5323327,20.8127405 C52.7208712,20.9587337 52.9067135,21.1020161 53.0804231,21.2329066 C53.635254,21.6515236 54.3863266,22.1990948 55.2752885,22.7251737 C55.7438423,23.003219 56.1700279,23.2497035 56.6487886,23.4539778 C58.5753862,24.2761091 60.6171484,24.6931771 62.7189963,24.6931771 C64.8713009,24.6931771 69.0087484,24.0817097 68.965995,23.3902752 C68.9384557,22.9470678 64.3164701,23.5279425 60.2383381,22.238207 C59.409462,21.9760389 58.2295076,21.5659414 58.2002351,21.407169 C58.1723106,21.2578842 58.4450077,21.1012416 58.5958,21.0106252 C58.870423,20.8456568 59.1814441,20.6590023 59.5785497,20.4388508 C61.7530013,19.2325677 64.7309081,17.5805601 67.1483992,17.5805601 C74.3319277,17.5805601 78.6244042,23.8925382 78.6244042,29.9948205 C78.6228635,34.9899557 76.6560161,42.6499504 73.4897634,49.9850425 Z" id="Shape" fill="#000000" fill-rule="nonzero"></path>
                    </g>
                </g>
            </g>
        </g>
    </g>
</svg>