<?xml version="1.0" encoding="UTF-8"?>
<svg width="22px" height="17px" viewBox="0 0 22 17" version="1.1" xmlns="http://www.w3.org/2000/svg" xmlns:xlink="http://www.w3.org/1999/xlink">
    <!-- Generator: sketchtool 51.2 (57519) - http://www.bohemiancoding.com/sketch -->
    <title>96CF0EA7-2020-426E-96EC-E64472B4ECD7</title>
    <desc>Created with sketchtool.</desc>
    <defs>
        <linearGradient x1="0%" y1="1.55572612%" x2="100%" y2="1.55572612%" id="linearGradient-1">
            <stop stop-color="#1EBF9D" offset="0%"></stop>
            <stop stop-color="#1073B9" offset="100%"></stop>
        </linearGradient>
    </defs>
    <g id="Page-1" stroke="none" stroke-width="1" fill="none" fill-rule="evenodd">
        <g id="medservicebel_sanatorij_05_hover" transform="translate(-283.000000, -3375.000000)" fill="url(#linearGradient-1)" fill-rule="nonzero">
            <g id="Услуги-и-преимущества" transform="translate(275.000000, 2664.000000)">
                <g id="Номера" transform="translate(2.000000, 703.000000)">
                    <g id="garage" transform="translate(6.000000, 8.000000)">
                        <path d="M20.9827748,7.62196536 L11.6270143,0.382371988 C11.0700979,-0.0631099398 10.179134,-0.0631099398 9.62221762,0.382371988 L0.266457078,7.62196536 C0.0437161145,7.84470633 -0.0676543675,8.06744729 0.0437161145,8.29025226 C0.155086596,8.51305723 0.37782756,8.6243637 0.60063253,8.6243637 L1.71440136,8.6243637 C2.0485128,8.6243637 2.27131777,8.84710467 2.27131777,9.18128012 L2.27131777,14.7501883 C2.27131777,15.6412161 3.05097515,16.4208735 3.94200301,16.4208735 L17.3073569,16.4208735 C18.1983848,16.4208735 18.9780422,15.6412161 18.9780422,14.7501883 L18.9780422,9.18128012 C18.9780422,8.84716867 19.2007831,8.6243637 19.5349586,8.6243637 L20.6487274,8.6243637 C20.8714684,8.6243637 21.0942093,8.51299322 21.2056438,8.29025226 C21.2055158,8.06744729 21.2055158,7.73333584 20.9827748,7.62196536 Z M6.72639307,11.9657342 L14.5228389,11.9657342 L14.5228389,13.079503 L6.72639307,13.079503 L6.72639307,11.9657342 Z M6.83661145,10.8519014 C7.07721009,10.2170256 7.70088479,9.73813253 8.39701431,9.73813253 L12.8521536,9.73813253 C13.5493712,9.73813253 14.1719578,10.2170256 14.4125565,10.8519014 L6.83661145,10.8519014 Z M6.72639307,14.1932718 L14.5228389,14.1932718 L14.5228389,15.1956702 L6.72639307,15.1956702 L6.72639307,14.1932718 Z M17.8642093,9.06984563 L17.8642093,14.6387538 C17.8642093,14.9728652 17.6414684,15.1956702 17.3072929,15.1956702 L15.6366077,15.1956702 L15.6366077,11.4088178 C15.6366077,9.84950301 14.4114684,8.6243637 12.8521536,8.6243637 L8.39701431,8.6243637 C6.83769955,8.6243637 5.61256024,9.84950301 5.61256024,11.4088178 L5.61256024,15.1956702 L3.94193901,15.1956702 C3.60782756,15.1956702 3.38502259,14.9729292 3.38502259,14.6387538 L3.38502259,9.06984563 C3.38502259,8.40155873 2.82810617,7.73327184 2.15988328,7.51053087 L10.2905045,1.16196536 C10.5132455,1.05059488 10.7359864,1.05059488 10.9587914,1.16196536 L19.0894127,7.51053087 C18.4210617,7.62196536 17.8642093,8.29025226 17.8642093,9.06984563 Z" id="sanatorij/svg/parking"></path>
                    </g>
                </g>
            </g>
        </g>
    </g>
</svg>