<?xml version="1.0" encoding="UTF-8"?>
<svg width="19px" height="20px" viewBox="0 0 19 20" version="1.1" xmlns="http://www.w3.org/2000/svg" xmlns:xlink="http://www.w3.org/1999/xlink">
    <!-- Generator: sketchtool 51.2 (57519) - http://www.bohemiancoding.com/sketch -->
    <title>B775A79F-C7FD-4704-8B23-4EE3918E3AAC</title>
    <desc>Created with sketchtool.</desc>
    <defs></defs>
    <g id="Page-1" stroke="none" stroke-width="1" fill="none" fill-rule="evenodd">
        <g id="medservicebel_str_napravlenija_05_hover" transform="translate(-1350.000000, -1305.000000)" fill="#0088CC" fill-rule="nonzero">
            <g id="Карточка" transform="translate(392.000000, 1214.000000)">
                <g id="Group-10" transform="translate(828.000000, 24.000000)">
                    <g id="Персональный-менеджер-Copy" transform="translate(3.000000, 67.000000)">
                        <g id="str_napravlenija/svg/personal_manager" transform="translate(127.000000, 0.000000)">
                            <path d="M8.69563037,10.4347826 C11.566361,10.4347826 13.9130435,8.08810997 13.9130435,5.2173913 C13.9130435,2.34667264 11.566361,0 8.69563037,0 C5.8248997,0 3.47826087,2.34667264 3.47826087,5.2173913 C3.47826087,8.08810997 5.82494331,10.4347826 8.69563037,10.4347826 Z" id="Shape"></path>
                            <path d="M18.2218405,14.3446677 C18.0830484,13.9926636 17.8980366,13.6641504 17.6898706,13.3590831 C16.6258866,11.763364 14.9837128,10.7073966 13.1333289,10.4492662 C12.902053,10.4258202 12.647623,10.4727122 12.4625669,10.6135228 C11.4911109,11.3409771 10.334643,11.7164272 9.1318669,11.7164272 C7.92909076,11.7164272 6.77262292,11.3409771 5.80116691,10.6135228 C5.6161108,10.4727122 5.36168079,10.4023293 5.13040493,10.4492662 C3.28002096,10.7073966 1.6146931,11.763364 0.573863187,13.3590831 C0.365697204,13.6641504 0.180641099,14.0161545 0.0418932914,14.3446677 C-0.0274806123,14.4854783 -0.00437073503,14.649735 0.0650031686,14.7905456 C0.250059274,15.1190588 0.481335134,15.447617 0.689501117,15.7291933 C1.01330503,16.1750712 1.36026309,16.5739673 1.75348518,16.9494174 C2.07728909,17.2779306 2.44735703,17.5829978 2.81746924,17.8880651 C4.64469906,19.2725907 6.84204109,20 9.10875703,20 C11.375473,20 13.572815,19.2725458 15.4000448,17.8880651 C15.7701127,17.6064887 16.1401807,17.2779306 16.4640289,16.9494174 C16.8340968,16.5739673 17.2041648,16.1750263 17.5280129,15.7291933 C17.7592888,15.4241261 17.9674991,15.1190588 18.1525109,14.7905456 C18.2681045,14.649735 18.2912144,14.4854334 18.2218405,14.3446677 Z" id="Shape"></path>
                        </g>
                    </g>
                </g>
            </g>
        </g>
    </g>
</svg>