<?xml version="1.0" encoding="UTF-8"?>
<svg width="46px" height="46px" viewBox="0 0 46 46" version="1.1" xmlns="http://www.w3.org/2000/svg" xmlns:xlink="http://www.w3.org/1999/xlink">
    <!-- Generator: sketchtool 51.2 (57519) - http://www.bohemiancoding.com/sketch -->
    <title>5E442413-C60D-4F85-8E52-15DC61FB0957</title>
    <desc>Created with sketchtool.</desc>
    <defs></defs>
    <g id="Page-1" stroke="none" stroke-width="1" fill="none" fill-rule="evenodd">
        <g id="medservicebel_index_15_hover" transform="translate(-353.000000, -4645.000000)" fill="#000000" fill-rule="nonzero">
            <g id="6-й-экран" transform="translate(0.000000, 4205.000000)">
                <g id="index/svg/soprovozhdenie/phone-call" transform="translate(353.000000, 440.000000)">
                    <path d="M36.2251258,28.6193635 C35.2858772,27.6457394 34.1529689,27.1251879 32.9522799,27.1251879 C31.7612738,27.1251879 30.6186827,27.6360995 29.6407021,28.6097237 L26.5808816,31.6462741 C26.3291242,31.5113163 26.0773668,31.3859984 25.8352924,31.2606804 C25.4867053,31.0871633 25.1574841,30.9232859 24.8766778,30.7497688 C22.0105169,28.9374783 19.4057963,26.5757168 16.9075884,23.5198867 C15.6972164,21.9967915 14.8838464,20.7146924 14.2931849,19.4133137 C15.0871889,18.6903255 15.8230951,17.9384177 16.5396354,17.2154295 C16.8107587,16.9455139 17.081882,16.6659585 17.3530053,16.3960429 C19.3864303,14.3716759 19.3864303,11.7496387 17.3530053,9.72527171 L14.7095529,7.09359464 C14.4093806,6.79475951 14.0995254,6.48628454 13.8090361,6.17780957 C13.2280575,5.58013932 12.61803,4.96318939 11.9886366,4.38479882 C11.0493879,3.45937392 9.92616265,2.96774194 8.74483956,2.96774194 C7.56351647,2.96774194 6.42092529,3.45937392 5.45262768,4.38479882 C5.4429447,4.39443866 5.4429447,4.39443866 5.43326172,4.40407851 L2.14104984,7.71054457 C0.901628891,8.94444444 0.194771633,10.4482599 0.0398440145,12.1930715 C-0.192547413,15.0079055 0.640188535,17.6299428 1.27926496,19.3458348 C2.84790709,23.5584461 5.19118732,27.4625824 8.68674171,31.6462741 C12.9278853,36.6879119 18.0308137,40.669167 23.8599653,43.4743612 C26.0870498,44.5251041 29.0597235,45.7686438 32.3809843,45.9807203 C32.5843268,45.9903602 32.7973523,46 32.9910118,46 C35.2277793,46 37.1062767,45.1998931 38.578089,43.609319 C38.587772,43.5900393 38.607138,43.5803995 38.6168209,43.5611198 C39.1203357,42.9538097 39.7013143,42.4043387 40.3113418,41.8163082 C40.7277097,41.4210747 41.1537607,41.0065615 41.5701287,40.5727685 C42.5287433,39.5798647 43.0322581,38.4230836 43.0322581,37.2373829 C43.0322581,36.0420424 42.5190603,34.8949011 41.5410797,33.9309169 L36.2251258,28.6193635 Z M39.6916313,38.7701179 C39.6819483,38.7701179 39.6819483,38.7797578 39.6916313,38.7701179 C39.3139952,39.1749913 38.9266762,39.5413054 38.5103082,39.9461787 C37.8809148,40.543849 37.2418383,41.1704388 36.6414938,41.8741473 C35.6635132,42.9152503 34.5112391,43.4068823 33.0006948,43.4068823 C32.8554501,43.4068823 32.7005225,43.4068823 32.5552779,43.3972425 C29.679434,43.2140854 27.0069326,42.0958637 25.0025565,41.1415193 C19.521992,38.5002023 14.7095529,34.7503035 10.7104837,29.997861 C7.40858886,26.0358857 5.2008703,22.3727454 3.7387409,18.4396896 C2.83822412,16.0393687 2.50900293,14.1692392 2.65424757,12.405148 C2.75107733,11.2772864 3.18681126,10.3422216 3.99049828,9.5421147 L7.29239314,6.25492832 C7.76685897,5.81149555 8.27037373,5.57049948 8.76420551,5.57049948 C9.37423301,5.57049948 9.86806479,5.9368135 10.17792,6.24528847 C10.187603,6.25492832 10.197286,6.26456816 10.206969,6.274208 C10.7976305,6.82367904 11.3592431,7.39242976 11.9499047,7.99973985 C12.2500769,8.30821482 12.5599322,8.61668979 12.8697874,8.9348046 L15.5132399,11.5664817 C16.5396354,12.588305 16.5396354,13.5330096 15.5132399,14.5548329 C15.2324336,14.8343884 14.9613102,15.1139438 14.6805039,15.3838594 C13.8671339,16.2128859 13.0924958,16.9840733 12.2500769,17.735981 C12.230711,17.7552607 12.211345,17.7649006 12.201662,17.7841803 C11.3689261,18.6132067 11.5238537,19.4229535 11.6981473,19.9724246 C11.7078303,20.0013441 11.7175132,20.0302636 11.7271962,20.0591831 C12.4146875,21.7172361 13.3829851,23.2788906 14.8547975,25.1393803 L14.8644805,25.1490201 C17.5369819,28.4265667 20.354728,30.981125 23.4629633,32.9380131 C23.8599653,33.188649 24.2666503,33.3910857 24.6539694,33.5838825 C25.0025565,33.7573997 25.3317777,33.921277 25.612584,34.0947942 C25.6513159,34.1140739 25.6900478,34.1429934 25.7287797,34.1622731 C26.0580009,34.3261504 26.3678561,34.4032692 26.6873943,34.4032692 C27.4910814,34.4032692 27.9945961,33.9019973 28.1592067,33.73812 L31.4707846,30.4412938 C31.8000057,30.1135391 32.3228865,29.7183056 32.932914,29.7183056 C33.5332585,29.7183056 34.0270903,30.0942595 34.3272625,30.4220141 C34.3369455,30.4316539 34.3369455,30.4316539 34.3466285,30.4412938 L39.6819483,35.7528471 C40.6792949,36.7361111 40.6792949,37.7482946 39.6916313,38.7701179 Z" id="Shape"></path>
                    <path d="M24.7812173,10.6661971 C27.2315973,11.0777462 29.457515,12.2375665 31.2345081,14.0147106 C33.0115013,15.7918546 34.1618705,18.0179613 34.5827373,20.4685494 C34.6856158,21.0858731 35.2187138,21.516129 35.8266325,21.516129 C35.9014533,21.516129 35.9669214,21.5067756 36.0417422,21.4974223 C36.7338342,21.3851816 37.1921114,20.7304443 37.0798803,20.0382935 C36.5748401,17.073269 35.1719508,14.3701394 33.0302064,12.2282131 C30.8884621,10.0862869 28.185562,8.68327848 25.2207892,8.17819544 C24.5286972,8.06595476 23.8833681,8.52427085 23.7617844,9.20706829 C23.6402006,9.88986574 24.0891252,10.5539564 24.7812173,10.6661971 Z" id="Shape"></path>
                    <path d="M45.980291,20.021726 C45.1280209,15.0212235 42.772308,10.4709578 39.1525539,6.84990431 C35.5327999,3.22885078 30.9841672,0.872292138 25.9854592,0.0197160435 C25.2864062,-0.104817543 24.6256574,0.374157791 24.5011686,1.07346178 C24.3862557,1.78234527 24.8554831,2.44333123 25.5641122,2.56786482 C30.0265603,3.32464585 34.0963896,5.44171682 37.3331008,8.67001058 C40.5698121,11.9078838 42.6765473,15.9791742 43.4330567,20.4432243 C43.5383935,21.0754717 44.0842294,21.516129 44.7066739,21.516129 C44.7832824,21.516129 44.8503149,21.5065495 44.9269235,21.49697 C45.6259765,21.3915954 46.1047799,20.72103 45.980291,20.021726 Z" id="Shape"></path>
                </g>
            </g>
        </g>
    </g>
</svg>