<?xml version="1.0" encoding="UTF-8"?>
<svg width="62px" height="59px" viewBox="0 0 62 59" version="1.1" xmlns="http://www.w3.org/2000/svg" xmlns:xlink="http://www.w3.org/1999/xlink">
    <!-- Generator: sketchtool 51.2 (57519) - http://www.bohemiancoding.com/sketch -->
    <title>066CC39D-C86E-42E1-90FA-4EC06C8EF22B</title>
    <desc>Created with sketchtool.</desc>
    <defs>
        <linearGradient x1="0%" y1="1.55572612%" x2="100%" y2="1.55572612%" id="linearGradient-1">
            <stop stop-color="#1EBF9D" offset="0%"></stop>
            <stop stop-color="#1073B9" offset="100%"></stop>
        </linearGradient>
    </defs>
    <g id="Page-1" stroke="none" stroke-width="1" fill="none" fill-rule="evenodd">
        <g id="medservicebel_stranica_yslygi_05_hover" transform="translate(-646.000000, -3364.000000)">
            <g id="Group-9" transform="translate(275.000000, 3342.000000)">
                <g id="Group-8" transform="translate(347.000000, 0.000000)">
                    <g id="piggy-bank" transform="translate(24.000000, 22.000000)">
                        <path d="M58.4172682,32.5745996 C58.4172682,33.2084675 57.8974965,33.7282392 57.2636286,33.7282392 L55.2859607,33.7282392 C54.5379965,33.7282392 53.8660965,34.2226562 53.6505814,34.9325883 C52.5349739,38.5836675 50.3164361,41.9558449 47.2611927,44.681477 C47.2485153,44.6941544 47.2485153,44.6941544 47.235838,44.7068317 L47.2231606,44.7195091 C47.1090644,44.820928 46.9949682,44.9223468 46.8808719,45.0237657 C46.8681946,45.036443 46.8555172,45.0491204 46.8428399,45.0617978 C43.4579851,48.1297185 43.1156965,51.7427657 43.0903417,52.7823091 C43.0903417,52.7949865 43.0903417,52.8076638 43.0903417,52.8203412 L43.0903417,54.9881695 L33.9626436,54.9881695 L33.9626436,52.9217601 C33.9626436,52.4400204 33.7598058,51.9709582 33.3921624,51.6540242 C33.0371964,51.3244129 32.5427794,51.1722846 32.0737172,51.222994 C31.0341737,51.3370903 29.9946303,51.3877997 28.9677643,51.3877997 C27.6366417,51.3877997 26.305519,51.2990582 24.9997511,51.1215752 C24.5053341,51.0581884 24.0109171,51.2103167 23.6432737,51.5272506 C23.2756303,51.856862 23.0601152,52.3259242 23.0601152,52.8203412 L23.0601152,54.9881695 L13.9450944,54.9881695 L13.9450944,54.4430431 C13.9450944,54.4176884 13.9450944,54.3923337 13.9450944,54.3669789 C13.8690303,52.6555355 13.3239038,48.2818468 9.91369439,44.7702185 C8.31634721,43.1221619 6.8838057,40.9543336 5.66677928,38.317443 C5.65410192,38.2920883 5.64142456,38.2794109 5.64142456,38.2540562 C4.91881512,36.8468694 4.36101134,35.3762958 3.99336795,33.8676902 C3.99336795,33.8550128 3.98069059,33.8423354 3.98069059,33.8296581 C3.98069059,33.8169807 3.98069059,33.8169807 3.98069059,33.8043034 C3.62572455,32.3083751 3.43556417,30.7744147 3.43556417,29.2531316 C3.43556417,17.0448354 14.8958963,7.1184636 28.9804417,7.1184636 C30.0706945,7.1184636 31.1736247,7.1818504 32.2512002,7.29594662 C32.2765549,7.29594662 32.3019096,7.29594662 32.3272643,7.30862398 C33.7471285,7.39736549 36.3840191,7.76500889 37.4362398,8.33549003 C38.2095587,8.75384286 39.1730379,8.51297305 39.6674549,7.79036361 C40.7703851,6.15498435 42.9762455,4.08857491 47.2104833,3.56880321 C45.4990399,6.30711266 44.9919455,9.14684097 45.7399097,11.7964089 C45.752587,12.2908259 45.9934568,12.7598882 46.3737776,13.0768221 C49.7966644,15.8404863 52.2814267,19.3521146 53.5491625,23.218709 C53.777355,23.9159637 54.4365776,24.3977033 55.1718644,24.3977033 C55.1845418,24.3977033 55.1845418,24.3977033 55.1972192,24.3977033 L57.276306,24.3977033 C57.9101739,24.3977033 58.4299456,24.917475 58.4299456,25.5513429 L58.4299456,32.5745996 L58.4172682,32.5745996 Z" id="Path" fill="url(#linearGradient-1)" opacity="0.200000003"></path>
                        <path d="M57.2636286,20.9494618 L56.3635361,20.9494618 C54.8676078,17.1082221 52.3574908,13.6219485 49.0106682,10.7948976 C48.5416059,9.09613154 48.896572,7.25791455 50.100921,5.35631076 C50.772821,4.27873529 50.8108531,2.98564471 50.2023399,1.88271452 C49.5938267,0.792461683 48.4528644,0.12056168 47.2231606,0.12056168 C47.0837097,0.12056168 46.9315814,0.133239038 46.7921304,0.145916397 C42.1648946,0.716397532 39.350521,2.78280698 37.6644323,4.74779755 C35.6360549,4.11392963 33.0625511,3.92376925 32.5808115,3.88573717 C31.3891398,3.75896359 30.1721134,3.68289943 28.9677643,3.68289943 C21.2726077,3.68289943 14.0338359,6.31979001 8.56989438,11.0864768 C3.04256605,15.9165504 0,22.3693259 0,29.2404543 C0,31.0152845 0.202837737,32.7901147 0.621190569,34.5269128 C0.633867928,34.5649449 0.633867928,34.602977 0.646545286,34.6283317 L0.659222645,34.6917185 C1.09025284,36.4411939 1.73679812,38.1526374 2.56082643,39.7880166 C3.94265851,42.7545185 5.59071512,45.2392808 7.44160947,47.1535619 C10.0024359,49.7904525 10.4461435,53.1372752 10.5095302,54.4810752 L10.5095302,55.1402978 C10.5095302,55.1656525 10.5095302,55.2036846 10.5095302,55.2290393 C10.5095302,55.3684903 10.5222076,55.4952639 10.5475623,55.6220374 C10.7884321,57.1940299 12.1449095,58.398379 13.7676114,58.398379 L23.2122435,58.398379 C25.0124284,58.398379 26.4703247,56.9404827 26.4703247,55.1402978 L26.4703247,54.7092676 C27.8141247,54.8106865 29.170602,54.8233639 30.5270794,54.7599771 L30.5270794,55.1402978 C30.5270794,56.9404827 31.9849756,58.398379 33.7851606,58.398379 L43.2297927,58.398379 C45.0299776,58.398379 46.4878738,56.9404827 46.4878738,55.1402978 L46.4878738,52.8330186 C46.5005512,52.3005695 46.7033889,49.7777752 49.0994097,47.5972695 C49.2135059,47.4958506 49.3402795,47.3944317 49.4543757,47.2930129 C49.4670531,47.2803355 49.4670531,47.2803355 49.4797305,47.2676582 C49.5177625,47.2423034 49.5431172,47.2169487 49.568472,47.1789166 C52.7251342,44.3518657 55.1084777,40.9036242 56.4903097,37.1384487 L57.2382739,37.1384487 C59.7610682,37.1384487 61.8148003,35.0847166 61.8148003,32.5619222 L61.8148003,25.5006335 C61.840155,22.9905165 59.786423,20.9494618 57.2636286,20.9494618 Z M47.2231606,3.53077113 C47.2104833,3.53077113 47.2104833,3.53077113 47.2231606,3.53077113 C47.2104833,3.51809377 47.2104833,3.51809377 47.2104833,3.51809377 C47.2104833,3.51809377 47.2104833,3.51809377 47.2104833,3.53077113 L46.9949682,1.83200509 L47.2231606,3.53077113 Z M58.4172682,32.5745996 C58.4172682,33.2084675 57.8974965,33.7282392 57.2636286,33.7282392 L55.2859607,33.7282392 C54.5379965,33.7282392 53.8660965,34.2226562 53.6505814,34.9325883 C52.5349739,38.5836675 50.3164361,41.9558449 47.2611927,44.681477 C47.2485153,44.6941544 47.2485153,44.6941544 47.235838,44.7068317 L47.2231606,44.7195091 C47.1090644,44.820928 46.9949682,44.9223468 46.8808719,45.0237657 C46.8681946,45.036443 46.8555172,45.0491204 46.8428399,45.0617978 C43.4579851,48.1297185 43.1156965,51.7427657 43.0903417,52.7823091 C43.0903417,52.7949865 43.0903417,52.8076638 43.0903417,52.8203412 L43.0903417,54.9881695 L33.9626436,54.9881695 L33.9626436,52.9217601 C33.9626436,52.4400204 33.7598058,51.9709582 33.3921624,51.6540242 C33.0371964,51.3244129 32.5427794,51.1722846 32.0737172,51.222994 C31.0341737,51.3370903 29.9946303,51.3877997 28.9677643,51.3877997 C27.6366417,51.3877997 26.305519,51.2990582 24.9997511,51.1215752 C24.5053341,51.0581884 24.0109171,51.2103167 23.6432737,51.5272506 C23.2756303,51.856862 23.0601152,52.3259242 23.0601152,52.8203412 L23.0601152,54.9881695 L13.9450944,54.9881695 L13.9450944,54.4430431 C13.9450944,54.4176884 13.9450944,54.3923337 13.9450944,54.3669789 C13.8690303,52.6555355 13.3239038,48.2818468 9.91369439,44.7702185 C8.31634721,43.1221619 6.8838057,40.9543336 5.66677928,38.317443 C5.65410192,38.2920883 5.64142456,38.2794109 5.64142456,38.2540562 C4.91881512,36.8468694 4.36101134,35.3762958 3.99336795,33.8676902 C3.99336795,33.8550128 3.98069059,33.8423354 3.98069059,33.8296581 C3.98069059,33.8169807 3.98069059,33.8169807 3.98069059,33.8043034 C3.62572455,32.3083751 3.43556417,30.7744147 3.43556417,29.2531316 C3.43556417,17.0448354 14.8958963,7.1184636 28.9804417,7.1184636 C30.0706945,7.1184636 31.1736247,7.1818504 32.2512002,7.29594662 C32.2765549,7.29594662 32.3019096,7.29594662 32.3272643,7.30862398 C33.7471285,7.39736549 36.3840191,7.76500889 37.4362398,8.33549003 C38.2095587,8.75384286 39.1730379,8.51297305 39.6674549,7.79036361 C40.7703851,6.15498435 42.9762455,4.08857491 47.2104833,3.56880321 C45.4990399,6.30711266 44.9919455,9.14684097 45.7399097,11.7964089 C45.752587,12.2908259 45.9934568,12.7598882 46.3737776,13.0768221 C49.7966644,15.8404863 52.2814267,19.3521146 53.5491625,23.218709 C53.777355,23.9159637 54.4365776,24.3977033 55.1718644,24.3977033 C55.1845418,24.3977033 55.1845418,24.3977033 55.1972192,24.3977033 L57.276306,24.3977033 C57.9101739,24.3977033 58.4299456,24.917475 58.4299456,25.5513429 L58.4299456,32.5745996 L58.4172682,32.5745996 Z" id="Shape" fill="#000000" fill-rule="nonzero"></path>
                    </g>
                </g>
            </g>
        </g>
    </g>
</svg>