<?xml version="1.0" encoding="UTF-8"?>
<svg width="63px" height="57px" viewBox="0 0 63 57" version="1.1" xmlns="http://www.w3.org/2000/svg" xmlns:xlink="http://www.w3.org/1999/xlink">
    <!-- Generator: sketchtool 51.2 (57519) - http://www.bohemiancoding.com/sketch -->
    <title>FAF7805A-4848-41EB-9179-8362C762882B</title>
    <desc>Created with sketchtool.</desc>
    <defs></defs>
    <g id="Page-1" stroke="none" stroke-width="1" fill="none" fill-rule="evenodd">
        <g id="medservicebel_index_15_hover" transform="translate(-658.000000, -4791.000000)" fill="#000000" fill-rule="nonzero">
            <g id="6-й-экран" transform="translate(0.000000, 4205.000000)">
                <g id="index/svg/soprovozhdenie/pills" transform="translate(658.000000, 586.000000)">
                    <path d="M21,19.5 C20.172,19.5 19.5,20.172 19.5,21 C19.5,21.828 20.172,22.5 21,22.5 C21.828,22.5 22.5,21.828 22.5,21 C22.5,20.172 21.828,19.5 21,19.5 Z" id="Shape"></path>
                    <path d="M14.25,0 C6.62864602,0 0,6.05401957 0,13.6304348 L0,43.3695652 C0,50.9482109 6.63116814,57 14.25,57 C21.8577345,57 28.5,50.9577522 28.5,43.3695652 L28.5,13.6304348 C28.5,6.05178913 21.8688319,0 14.25,0 Z M25.9778761,43.3695652 C25.9778761,49.6451413 20.3897323,54.5217391 14.25,54.5217391 C7.89286062,54.5217391 2.52212389,49.414663 2.52212389,43.3695652 L2.52212389,29.7391304 L25.9778761,29.7391304 L25.9778761,43.3695652 Z M25.9778761,27.2608696 L2.52212389,27.2608696 L2.52212389,13.6304348 C2.52212389,7.58533696 7.89286062,2.47826087 14.25,2.47826087 C20.6071394,2.47826087 25.9778761,7.58533696 25.9778761,13.6304348 L25.9778761,27.2608696 Z" id="Shape"></path>
                    <path d="M16.6678054,6.07161823 C16.0169645,5.84260861 15.3027519,6.18096628 15.072139,6.82773518 C14.8415261,7.47462834 15.1821332,8.18489366 15.8328492,8.4141518 C18.3254686,9.29229125 20.0001309,11.6465052 20.0001309,14.2722254 L20.0001309,16.7574085 C20.0001309,17.4436918 20.5597266,18 21.2500655,18 C21.9404043,18 22.5,17.4436918 22.5,16.7574085 L22.5,14.2722254 C22.5,10.5962668 20.1562477,7.30066552 16.6678054,6.07161823 Z" id="Shape"></path>
                    <path d="M46.5,24 C37.8015226,24 30,31.3892707 30,40.5 C30,49.3980902 37.6026541,57 46.5,57 C55.3633534,57 63,49.4671917 63,40.5 C63,31.6019098 55.3973459,24 46.5,24 Z M46.5,54.518797 C38.9010677,54.518797 32.481203,48.0989323 32.481203,40.5 C32.481203,37.2607895 33.661015,34.1303797 35.8236316,31.5780902 L55.4215376,51.1759962 C52.8708609,53.3394812 49.7457857,54.518797 46.5,54.518797 Z M57.1761203,49.4215376 L37.5792068,29.8246241 C40.1159887,27.6859511 43.2982556,26.481203 46.5,26.481203 C54.0989323,26.481203 60.518797,32.9010677 60.518797,40.5 C60.518797,43.7459098 59.3394812,46.8708609 57.1761203,49.4215376 Z" id="Shape"></path>
                </g>
            </g>
        </g>
    </g>
</svg>