<?xml version="1.0" encoding="UTF-8"?>
<svg width="37px" height="51px" viewBox="0 0 37 51" version="1.1" xmlns="http://www.w3.org/2000/svg" xmlns:xlink="http://www.w3.org/1999/xlink">
    <!-- Generator: sketchtool 51.2 (57519) - http://www.bohemiancoding.com/sketch -->
    <title>482FE137-AA8E-45FE-8241-922BA643C738</title>
    <desc>Created with sketchtool.</desc>
    <defs>
        <linearGradient x1="0%" y1="1.55572612%" x2="100%" y2="1.55572612%" id="linearGradient-1">
            <stop stop-color="#1EBF9D" offset="0%"></stop>
            <stop stop-color="#1073B9" offset="100%"></stop>
        </linearGradient>
    </defs>
    <g id="Page-1" stroke="none" stroke-width="1" fill="none" fill-rule="evenodd">
        <g id="medservicebel_sanatorij_05_hover" transform="translate(-701.000000, -3784.000000)" fill="url(#linearGradient-1)" fill-rule="nonzero">
            <g id="Карта-Яндекс" transform="translate(47.000000, 3567.000000)">
                <g id="Group-3" transform="translate(460.000000, 194.000000)">
                    <g id="sanatorij/svg/placeholder" transform="translate(194.000000, 23.000000)">
                        <path d="M33.9328095,9.29721905 C30.8337905,3.38073333 24.6355905,0 18.1556762,0 C14.774781,0 11.3940476,1.12685714 8.57674286,2.81730476 C0.124828571,7.88848571 -2.4107619,19.439581 2.66041905,28.1733714 L14.4932286,48.7399714 C15.3383714,50.1487048 16.7471048,50.9938476 18.1556762,50.9938476 C19.5644095,50.9938476 20.972981,50.1487048 21.8181238,48.7399714 L33.9326476,27.6099429 C33.9326476,27.3282286 33.9326476,27.3282286 33.9326476,27.3282286 C37.3135429,21.6934571 37.0319905,14.9318286 33.9328095,9.29721905 Z M31.397219,26.2012095 C31.397219,26.4829238 31.397219,26.4829238 31.397219,26.4829238 L19.2826952,47.3312381 C19.000981,48.176381 18.4375524,48.176381 18.1558381,48.176381 C17.8741238,48.176381 17.3106952,47.8946667 17.028981,47.3312381 L5.19600952,26.7646381 C0.688257143,19.439581 2.94213333,9.57893333 9.98547619,5.35289524 C12.5210667,3.9441619 15.3383714,3.09901905 18.1556762,3.09901905 C23.7902857,3.09901905 28.8614667,6.1980381 31.397219,10.7057905 C34.2145238,15.4952571 34.2145238,21.4117429 31.397219,26.2012095 Z" id="Shape"></path>
                        <path d="M18.1556762,11.5510952 C14.2113524,11.5510952 11.1123333,14.6501143 11.1123333,18.5944381 C11.1123333,22.5387619 14.2113524,25.637781 18.1556762,25.637781 C22.1,25.637781 25.199019,22.5387619 25.199019,18.5944381 C25.199019,14.6501143 22.1,11.5510952 18.1556762,11.5510952 Z M18.1556762,22.8203143 C15.9018,22.8203143 13.9296381,20.8481524 13.9296381,18.5942762 C13.9296381,16.3404 15.9018,14.3682381 18.1556762,14.3682381 C20.4095524,14.3682381 22.3817143,16.3404 22.3817143,18.5942762 C22.3817143,20.8481524 20.4095524,22.8203143 18.1556762,22.8203143 Z" id="Shape"></path>
                    </g>
                </g>
            </g>
        </g>
    </g>
</svg>