<?xml version="1.0" encoding="UTF-8"?>
<svg width="25px" height="35px" viewBox="0 0 25 35" version="1.1" xmlns="http://www.w3.org/2000/svg" xmlns:xlink="http://www.w3.org/1999/xlink">
    <!-- Generator: sketchtool 51.2 (57519) - http://www.bohemiancoding.com/sketch -->
    <title>8918DF9A-E9EA-46BE-B99A-64BF8CBC230A</title>
    <desc>Created with sketchtool.</desc>
    <defs>
        <linearGradient x1="0%" y1="1.55572612%" x2="100%" y2="1.55572612%" id="linearGradient-1">
            <stop stop-color="#1EBF9D" offset="0%"></stop>
            <stop stop-color="#1073B9" offset="100%"></stop>
        </linearGradient>
    </defs>
    <g id="Page-1" stroke="none" stroke-width="1" fill="none" fill-rule="evenodd">
        <g id="medservicebel_contacts_05_hover" transform="translate(-300.000000, -774.000000)" fill="url(#linearGradient-1)" fill-rule="nonzero">
            <g id="Карта" transform="translate(48.000000, 517.000000)">
                <g id="Group-3" transform="translate(229.000000, 93.000000)">
                    <g id="contact/svg/placeholder" transform="translate(23.000000, 164.000000)">
                        <path d="M23.2872222,6.38044444 C21.1604444,2.32011111 16.9067778,0 12.4597778,0 C10.1395556,0 7.81944444,0.773333333 5.886,1.93344444 C0.0856666667,5.41366667 -1.65444444,13.3408889 1.82577778,19.3346667 L9.94633333,33.449 C10.5263333,34.4157778 11.4931111,34.9957778 12.4597778,34.9957778 C13.4265556,34.9957778 14.3932222,34.4157778 14.9732222,33.449 L23.2871111,18.948 C23.2871111,18.7546667 23.2871111,18.7546667 23.2871111,18.7546667 C25.6073333,14.8876667 25.4141111,10.2473333 23.2872222,6.38044444 Z M21.5471111,17.9812222 C21.5471111,18.1745556 21.5471111,18.1745556 21.5471111,18.1745556 L13.2332222,32.4822222 C13.0398889,33.0622222 12.6532222,33.0622222 12.4598889,33.0622222 C12.2665556,33.0622222 11.8798889,32.8688889 11.6865556,32.4822222 L3.56588889,18.3678889 C0.472333333,13.3408889 2.01911111,6.57377778 6.85277778,3.67355556 C8.59288889,2.70677778 10.5263333,2.12677778 12.4597778,2.12677778 C16.3266667,2.12677778 19.8068889,4.25355556 21.5471111,7.34711111 C23.4805556,10.634 23.4805556,14.6943333 21.5471111,17.9812222 Z" id="Shape"></path>
                        <path d="M12.4597778,7.92722222 C9.75288889,7.92722222 7.62611111,10.054 7.62611111,12.7608889 C7.62611111,15.4677778 9.75288889,17.5945556 12.4597778,17.5945556 C15.1666667,17.5945556 17.2934444,15.4677778 17.2934444,12.7608889 C17.2934444,10.054 15.1666667,7.92722222 12.4597778,7.92722222 Z M12.4597778,15.661 C10.913,15.661 9.55955556,14.3075556 9.55955556,12.7607778 C9.55955556,11.214 10.913,9.86055556 12.4597778,9.86055556 C14.0065556,9.86055556 15.36,11.214 15.36,12.7607778 C15.36,14.3075556 14.0065556,15.661 12.4597778,15.661 Z" id="Shape"></path>
                    </g>
                </g>
            </g>
        </g>
    </g>
</svg>