<?xml version="1.0" encoding="UTF-8"?>
<svg width="66px" height="66px" viewBox="0 0 66 66" version="1.1" xmlns="http://www.w3.org/2000/svg" xmlns:xlink="http://www.w3.org/1999/xlink">
    <!-- Generator: sketchtool 51.2 (57519) - http://www.bohemiancoding.com/sketch -->
    <title>06F15414-476B-4172-ACFF-9438F0350787</title>
    <desc>Created with sketchtool.</desc>
    <defs></defs>
    <g id="Page-1" stroke="none" stroke-width="1" fill="none" fill-rule="evenodd">
        <g id="medservicebel_index_15_hover" transform="translate(-1138.000000, -4349.000000)" fill="#000000" fill-rule="nonzero">
            <g id="6-й-экран" transform="translate(0.000000, 4205.000000)">
                <g id="сопровождение-copy" transform="translate(1017.000000, 127.000000)">
                    <g id="index/svg/soprovozhdenie/plane" transform="translate(154.000000, 50.000000) scale(-1, 1) translate(-154.000000, -50.000000) translate(121.000000, 17.000000)">
                        <path d="M56.3718084,12.812595 C56.0789042,9.38948588 53.8602878,7.17098041 50.4374192,6.87819157 C49.9620594,6.83754259 49.5438405,7.18991122 49.5031916,7.66515593 C49.4625427,8.14028449 49.8149105,8.55873676 50.290154,8.59938574 C52.8804173,8.82109692 54.4289077,10.3698233 54.6506184,12.9598605 C54.6687362,13.1708868 54.7611833,13.3577559 54.9002025,13.4966593 C55.0741798,13.6705209 55.3207443,13.769356 55.584846,13.7468248 C56.0600895,13.7060597 56.4124573,13.2878397 56.3718084,12.812595 Z" id="Shape"></path>
                        <path d="M63.3478629,2.87246063 C62.4292187,1.93799876 61.160122,1.47163417 59.8669194,1.59185734 L58.3550607,1.73273969 C52.5268058,2.27640964 47.2067399,5.05433781 43.3749508,9.55524253 L41.0482081,12.2881203 L35.6813714,10.0252058 L35.968415,9.73317814 C36.8231261,8.86349283 36.8231261,7.44853815 35.968415,6.57898613 L34.3420532,4.92385169 C33.4873421,4.05456623 32.0965368,4.05429966 31.2416947,4.92385169 L28.9977504,7.20675897 L26.4176337,6.11888594 L27.0643005,5.46099066 C27.9190116,4.59130535 27.9190116,3.17648396 27.0643005,2.30693193 L25.4376767,0.65206406 C24.5827036,-0.217487967 23.1918983,-0.217221397 22.3373182,0.65206406 L19.7338816,3.30070567 L15.347002,1.45097498 C13.2674756,0.574092274 10.8955343,1.05405194 9.30375926,2.6731994 L6.38380187,5.64385783 C5.76399218,6.27442966 5.4447201,7.14638082 5.50786706,8.03592561 C5.57101402,8.92547041 6.01029153,9.74157511 6.71263771,10.2751154 L28.6065537,26.9012327 L21.2986686,35.4847935 C20.9463819,35.8985105 20.9905324,36.5245506 21.3971883,36.8829542 C21.5815198,37.0452955 21.8085606,37.125 22.0346844,37.125 C22.3074478,37.125 22.5787701,37.009042 22.7714863,36.7827238 L30.7650792,27.3937212 C30.7652102,27.3935879 30.7652102,27.3935879 30.7653412,27.3934546 L35.4865591,21.8481278 L44.8477685,10.8529063 C48.3483635,6.7411941 53.2084523,4.20344569 58.5329726,3.70682539 L60.0448314,3.56594303 C60.7614577,3.4991672 61.4621007,3.75734045 61.9700276,4.27422008 C62.4780856,4.79096644 62.7318525,5.50484146 62.6662163,6.23284471 L62.5277385,7.77095482 C62.2066322,11.334732 60.9835201,14.7774862 58.9905916,17.7265525 C58.6857306,18.1777226 58.7981375,18.7948326 59.2414763,19.104987 C59.6850771,19.4152748 60.2915238,19.3007829 60.5963847,18.8497461 C62.7778371,15.6214475 64.1166313,11.8530777 64.4681319,7.951956 L64.6066098,6.41384588 C64.7251741,5.09778875 64.266376,3.8069225 63.3478629,2.87246063 Z M32.6195299,6.32587771 C32.7141193,6.22911272 32.8688425,6.22897944 32.963956,6.32587771 L34.5904487,7.98061229 C34.6854312,8.07711071 34.6854312,8.23452042 34.5905798,8.33101884 L33.7329864,9.20336985 L32.9418152,8.86975723 L30.9460044,8.02819508 L32.6195299,6.32587771 Z M23.7152844,2.0539568 C23.8100048,1.95719181 23.964728,1.95705853 24.0597105,2.0539568 L25.6862032,3.70869138 C25.7811857,3.8051898 25.7811857,3.96246622 25.6862032,4.05896464 L24.4692486,5.29718327 L21.6822667,4.12214178 L23.7152844,2.0539568 Z M29.8858692,25.3987097 L7.87823628,8.68635693 C7.62564843,8.49469294 7.47420053,8.21292823 7.45140474,7.89317726 C7.42873996,7.5734263 7.53878861,7.27246853 7.76176813,7.04588385 L10.6815945,4.07535871 C11.3713637,3.37374591 12.2867326,3.00201375 13.220705,3.00201375 C13.6846124,3.00201375 14.1533672,3.09384719 14.6011604,3.2825789 L39.7037804,13.8668824 L29.8858692,25.3987097 Z" id="Shape"></path>
                        <path d="M65.3692456,41.083907 L63.7688745,39.4763127 C62.9276323,38.6316687 61.5591635,38.6319276 60.718308,39.4763127 L59.9259213,40.2721476 L58.710851,37.3275455 L60.6816987,35.3481215 C61.5226831,34.5033479 61.5226831,33.1290536 60.6816987,32.2844095 L59.0813276,30.6768152 C58.2400854,29.8321712 56.8716166,29.8323007 56.0307611,30.6769447 L55.9853861,30.7225172 L53.636972,25.0313978 L56.2029799,22.7991243 C56.3923432,22.6343125 56.5811908,22.4643221 56.7643666,22.2938138 C57.1527611,21.9323413 57.1757064,21.3230687 56.8156713,20.9332429 C56.4560228,20.5432877 55.84939,20.5202425 55.4609955,20.881715 C55.2934174,21.0375935 55.1208119,21.1929541 54.9476908,21.3436539 L26.9376514,45.7102881 C25.4736631,46.983857 23.94896,48.1823349 22.3708896,49.3036504 C20.1918584,50.8520781 17.8890771,52.2635296 15.5266122,53.4992941 C15.5260966,53.499553 15.525581,53.4999414 15.5250653,53.5002003 C14.9146942,53.8194665 14.2989091,54.1286341 13.6773231,54.4265382 C12.9175497,54.7907294 12.229577,54.5014997 11.83912,54.109473 C11.4487919,53.7173168 11.1608153,53.0263504 11.5232997,52.2631412 C11.8392489,51.5980682 12.1689911,50.9398569 12.5091747,50.2874717 C12.636663,50.0429081 12.7654403,49.798733 12.8966669,49.5554641 C12.9261864,49.5006995 12.9564794,49.4464527 12.9861278,49.3916881 C13.1158075,49.15308 13.2465184,48.9151193 13.3796786,48.6779354 C13.4075224,48.6283494 13.4360106,48.5790224 13.4639833,48.5294365 C13.6007528,48.2874623 13.7388114,48.0461354 13.8790614,47.8058443 C13.9051005,47.7613076 13.9315263,47.7170298 13.9575653,47.6724931 C14.1005224,47.4289652 14.2450263,47.1863437 14.3915927,46.9447579 C14.4181474,46.900998 14.4450888,46.8573675 14.4717724,46.8136076 C14.6176942,46.5742228 14.7652919,46.3358736 14.9145653,46.0985603 C14.9449872,46.0501395 14.9756669,46.0021072 15.0062177,45.9538159 C15.1517528,45.7240116 15.2988349,45.4952431 15.4473349,45.2675103 C15.4840732,45.2113215 15.5209403,45.1552622 15.5578075,45.0992029 C15.7008935,44.8814391 15.8455263,44.6648404 15.9913193,44.4492775 C16.0345029,44.3854502 16.0779443,44.3216229 16.1213857,44.257925 C16.2635693,44.0496123 16.4070419,43.8423353 16.5515458,43.636094 C17.5793154,42.1702663 18.6717958,40.7497522 19.8288584,39.3816722 C20.1714912,38.9763104 20.1223779,38.3687208 19.7187724,38.0244675 C19.3149091,37.6804731 18.7103388,37.7298001 18.3674482,38.1350325 C17.3734521,39.3104652 16.4258622,40.5237024 15.5239052,41.7694359 L6.86050275,37.8306551 C5.22597148,37.0873839 3.27626443,37.4441955 2.00821363,38.7181528 L0.533397207,40.1995165 C0.160213609,40.5743241 -0.0325012371,41.0927108 0.0044948571,41.6215843 C0.0416198575,42.1504578 0.304846423,42.6363483 0.726627678,42.9548376 L10.376034,50.2441001 C10.1779051,50.6388456 9.98248325,51.0348858 9.79286216,51.4339038 C9.13969418,52.8091044 9.41078403,54.393783 10.4834129,55.4710796 C11.1676473,56.158421 12.0573583,56.5179514 12.9674364,56.5179514 C13.4839638,56.5179514 14.0071942,56.4019488 14.5029677,56.1643765 C14.9003857,55.9739302 15.2947099,55.7776579 15.6876161,55.5787963 L22.9452959,65.2701934 C23.2625342,65.6938101 23.7463193,65.9581821 24.2727725,65.9954686 C24.3156983,65.9984464 24.3583662,66 24.4010342,66 C24.8823701,66 25.3456592,65.808518 25.6885498,65.4641352 L27.1631084,63.9830304 C28.431546,62.7093321 28.7866827,60.7507522 28.0470186,59.1096259 L24.1258193,50.4096887 C25.5253545,49.3875451 26.8824795,48.3055877 28.1928116,47.1657584 L39.453675,37.3696224 L55.6850346,59.2093157 C56.2010463,59.9036483 56.9904682,60.3376223 57.8507885,60.3998961 C57.9224604,60.4050748 57.9938744,60.4076641 58.0652885,60.4076641 C58.8498119,60.4076641 59.6052026,60.0956481 60.164269,59.5341489 L63.0370737,56.6488427 C64.6032847,55.0759457 65.0673472,52.7318125 64.2194018,50.676909 L62.6515151,46.8773055 L65.3693745,44.1476189 C66.21023,43.3028454 66.21023,41.9285511 65.3692456,41.083907 Z M1.96735035,41.482666 L3.36404958,40.0800183 C4.07122928,39.3697612 5.15868242,39.1708996 6.0697918,39.5851947 L14.400745,43.3728872 C14.3828271,43.3992985 14.3652958,43.4262277 14.3475067,43.452639 C14.2434794,43.6069639 14.1402255,43.7618067 14.0374872,43.9170379 C13.9874716,43.9926467 13.9378427,44.068644 13.8882138,44.1445117 C13.5388778,44.6781755 13.1977919,45.2171475 12.8650848,45.7614276 C12.823577,45.8293979 12.7818114,45.8971093 12.7405614,45.965209 C12.6422059,46.1275609 12.5447528,46.2904306 12.4479442,46.4536888 C12.3977997,46.5381014 12.3481708,46.622773 12.2985419,46.7074445 C12.2050848,46.8666892 12.1117567,47.0259338 12.0197176,47.1859553 C11.9727958,47.2675196 11.9269051,47.3496018 11.88037,47.4312957 C11.7281317,47.6989044 11.5779559,47.9676783 11.4297137,48.2376174 C11.3789247,48.3301865 11.3272333,48.4224966 11.2769598,48.5151951 L1.96735035,41.482666 Z M26.3004678,59.9039072 C26.7128389,60.8189814 26.5149678,61.9110373 25.8075303,62.6214238 L24.4110889,64.0240715 L17.4090302,54.67395 C17.5598505,54.5914794 17.7098974,54.5074552 17.8600732,54.4235604 C18.0745732,54.3039327 18.2881708,54.1828809 18.501124,54.0606639 C18.6016708,54.0029215 18.7022177,53.9453086 18.8025068,53.8870483 C18.9628662,53.793832 19.122581,53.6998388 19.282038,53.6051982 C19.361831,53.5578132 19.4413662,53.5099104 19.5210302,53.462137 C20.0704287,53.1325135 20.614542,52.7943451 21.1533701,52.447632 C21.2237529,52.4023184 21.2942646,52.3570049 21.3645185,52.3114325 C21.5309365,52.2033273 21.6970967,52.0947044 21.8624834,51.9849162 C21.9288701,51.9408973 21.9948701,51.8962311 22.0611279,51.8519534 C22.2174912,51.7473439 22.3743701,51.6436406 22.5297021,51.537607 L26.3004678,59.9039072 Z M57.3863393,32.0386808 C57.4795385,31.9446876 57.6317768,31.9446876 57.7252338,32.0385513 L59.3256049,33.6461456 C59.4190619,33.7398798 59.4190619,33.8926511 59.3256049,33.9863854 L57.916144,35.4021093 L57.0524721,33.309013 L56.7797064,32.647824 L57.3863393,32.0386808 Z M61.6812377,55.2871067 L58.8083041,58.1725423 C58.5892924,58.3926365 58.2984799,58.5003532 57.9888471,58.4793796 C57.6794721,58.4569817 57.4070932,58.3070587 57.2215971,58.0575754 L40.9069641,36.1055046 L44.3263313,33.1308661 L52.1094329,26.3601197 L62.448101,51.4139658 C62.998144,52.7467012 62.6971479,54.2670346 61.6812377,55.2871067 Z M64.0134096,42.7857534 L61.856937,44.9517398 L60.7203705,42.1974544 L62.074144,40.8379193 C62.1673432,40.7439261 62.3195815,40.7439261 62.4130385,40.8377899 L64.0134096,42.4452547 L64.0134096,42.4453841 C64.1068667,42.5392479 64.1068667,42.6920192 64.0134096,42.7857534 Z" id="Shape"></path>
                    </g>
                </g>
            </g>
        </g>
    </g>
</svg>