<?xml version="1.0" encoding="UTF-8"?>
<svg width="53px" height="53px" viewBox="0 0 53 53" version="1.1" xmlns="http://www.w3.org/2000/svg" xmlns:xlink="http://www.w3.org/1999/xlink">
    <!-- Generator: sketchtool 51.2 (57519) - http://www.bohemiancoding.com/sketch -->
    <title>87739259-9074-47CA-AAFE-96F47D5FC54B</title>
    <desc>Created with sketchtool.</desc>
    <defs>
        <circle id="path-1" cx="22.5" cy="22.5" r="22.5"></circle>
        <linearGradient x1="0%" y1="1.55572612%" x2="100%" y2="1.55572612%" id="linearGradient-3">
            <stop stop-color="#1EBF9D" offset="0%"></stop>
            <stop stop-color="#1073B9" offset="100%"></stop>
        </linearGradient>
    </defs>
    <g id="Page-1" stroke="none" stroke-width="1" fill="none" fill-rule="evenodd">
        <g id="medservicebel_index_15_hover" transform="translate(-502.000000, -2047.000000)">
            <g id="3-й-экран" transform="translate(0.000000, 1743.000000)">
                <g id="Список-направлений" transform="translate(498.000000, 215.000000)">
                    <g id="Иконки">
                        <g id="index/svg/napravlenie/Пластика" transform="translate(4.000000, 89.000000)">
                            <circle id="Oval-7-Copy" stroke="#0091EA" fill="#FFFFFF" cx="26.5" cy="26.5" r="26"></circle>
                            <g id="noun_waist_667849" transform="translate(4.000000, 4.000000)">
                                <mask id="mask-2" fill="white">
                                    <use xlink:href="#path-1"></use>
                                </mask>
                                <use id="Mask" fill="#FFFFFF" xlink:href="#path-1"></use>
                                <g mask="url(#mask-2)" fill-rule="nonzero">
                                    <g transform="translate(-2.000000, -9.000000)">
                                        <path d="M7.52345149,40.247913 C6.7089623,44.7991311 6.7022217,49.475834 7.55434591,54.0366182 C7.60546213,54.3067202 7.84138314,54.4957916 8.1059517,54.4957916 C8.51488145,54.4288288 8.71597603,54.1350929 8.65924264,53.82954 C7.86946898,49.6046952 22.5100528,54.9268293 22.8206821,54.9268293 C23.1313114,54.9268293 23.3823988,54.6747341 23.3823988,54.3641168 C23.3823988,53.7704552 22.931902,51.9123788 22.194368,50.0678075 C22.6965427,50.3891163 23.2324204,50.5826894 23.8890672,50.5826894 L24.6462613,50.5826894 L25.4034554,50.5826894 C26.0601022,50.5826894 26.59598,50.3891163 27.097593,50.0678075 C26.360059,51.9123788 25.9095622,53.7698925 25.9095622,54.3635541 C25.9095622,54.6741714 26.1606495,54.9262666 26.4712789,54.9262666 C26.7819082,54.9262666 27.0329955,54.6741714 27.0329955,54.3635541 C27.0329955,53.5414313 33.1455966,58.2731068 34.6712191,56.5 C35.5289605,55.6204805 36.4850023,53.0235739 38.0055694,52 C41.0697339,49.9365335 41.4213685,49.6041325 40.6321566,53.8284146 C40.5748615,54.1339675 40.7765178,54.4277033 41.0815299,54.4851 C41.4505778,54.4946661 41.6864988,54.3061575 41.7370533,54.0354928 C42.5891775,49.4752713 42.5824369,44.7991311 41.7870461,40.3570792 C41.0781596,36.4625465 39.8176674,32.8527464 38.0055694,29.6374076 C34.9790398,24.3265277 34.7257056,20.6885919 34.7257056,17.6955245 C34.7257056,15.2865527 35.0689145,12.9422927 35.7452214,10.7274566 C35.8362195,10.4303444 35.6688279,10.1157882 35.3728032,10.0246288 C35.17433,9.96423099 31.8512141,6.78935473 25.4034554,0.5 C17.9468536,6.78972987 14.1193161,9.9647937 13.9208429,10.0251915 C13.6248182,10.1163509 13.4574266,10.4309072 13.5484247,10.7280193 C14.2247316,12.9428554 14.5679405,15.2876781 14.5679405,17.6960872 C14.5679405,20.6897173 14.3146063,24.3282159 11.2863916,29.6402211 C9.47260841,32.8555599 8.21211616,36.4659228 7.52345149,40.247913 Z" id="Shape" fill="url(#linearGradient-3)" opacity="0.200000003"></path>
                                        <path d="M7.52345149,40.247913 L7.50603828,40.3182521 C7.50266798,40.3311944 7.50659999,40.3441368 7.50435313,40.3570792 C6.7089623,44.7991311 6.7022217,49.475834 7.55434591,54.0366182 C7.60546213,54.3067202 7.84138314,54.4957916 8.1059517,54.4957916 C8.14021642,54.4957916 8.17504285,54.492978 8.20986929,54.4862254 C8.51488145,54.4288288 8.71597603,54.1350929 8.65924264,53.82954 C7.86946898,49.6046952 7.83688941,45.2796875 8.50533227,41.149941 C9.77481199,41.4971346 12.9760354,42.5077661 16.0469405,44.5751715 C17.5669459,45.5987454 18.6381396,46.5919329 19.495881,47.4714524 C21.0220653,49.2445592 22.2589654,53.541994 22.2589654,54.3641168 C22.2589654,54.6747341 22.5100528,54.9268293 22.8206821,54.9268293 C23.1313114,54.9268293 23.3823988,54.6747341 23.3823988,54.3641168 C23.3823988,53.7704552 22.931902,51.9123788 22.194368,50.0678075 C22.6965427,50.3891163 23.2324204,50.5826894 23.8890672,50.5826894 L24.6462613,50.5826894 L25.4034554,50.5826894 C26.0601022,50.5826894 26.59598,50.3891163 27.097593,50.0678075 C26.360059,51.9123788 25.9095622,53.7698925 25.9095622,54.3635541 C25.9095622,54.6741714 26.1606495,54.9262666 26.4712789,54.9262666 C26.7819082,54.9262666 27.0329955,54.6741714 27.0329955,54.3635541 C27.0329955,53.5414313 28.2698957,49.2445592 29.7955182,47.4714524 C30.6532596,46.5919329 31.7244533,45.5981827 33.2450204,44.5746088 C36.3091849,42.5111424 39.5154638,41.4976973 40.786067,41.1493783 C41.4539481,45.2791248 41.4213685,49.6041325 40.6321566,53.8284146 C40.5748615,54.1339675 40.7765178,54.4277033 41.0815299,54.4851 C41.1163564,54.4918526 41.1511828,54.4946661 41.1854475,54.4946661 C41.4505778,54.4946661 41.6864988,54.3061575 41.7370533,54.0354928 C42.5891775,49.4752713 42.5824369,44.7991311 41.7870461,40.3570792 C41.7847992,40.3435741 41.7887313,40.330069 41.785361,40.3171266 L41.767386,40.243974 C41.0781596,36.4625465 39.8176674,32.8527464 38.0055694,29.6374076 C34.9790398,24.3265277 34.7257056,20.6885919 34.7257056,17.6955245 C34.7257056,15.2865527 35.0689145,12.9422927 35.7452214,10.7274566 C35.8362195,10.4303444 35.6688279,10.1157882 35.3728032,10.0246288 C35.0750934,9.93403209 34.7622172,10.1011577 34.6712191,10.3982698 C33.9617709,12.7194586 33.6022722,15.1751356 33.6022722,17.6955245 C33.6022722,20.833209 33.8674025,24.6455857 37.028744,30.1928047 C38.3055261,32.4582849 39.2958326,34.9291552 40.000787,37.5187578 C38.4813434,38.2846094 31.8839809,41.4166667 25.2506685,41.6231822 L24.646823,41.6231822 L24.0603908,41.6231822 C17.4186527,41.4166667 10.8123027,38.2834839 9.29285907,37.518195 C9.99725179,34.9297179 10.9869966,32.4599731 12.2632169,30.1956183 C15.4262436,24.6467111 15.6913739,20.8337717 15.6913739,17.6960872 C15.6913739,15.1756983 15.3313135,12.7200213 14.622427,10.3988326 C14.5314289,10.1017204 14.2185527,9.9345948 13.9208429,10.0251915 C13.6248182,10.1163509 13.4574266,10.4309072 13.5484247,10.7280193 C14.2247316,12.9428554 14.5679405,15.2876781 14.5679405,17.6960872 C14.5679405,20.6897173 14.3146063,24.3282159 11.2863916,29.6402211 C9.47260841,32.8555599 8.21211616,36.4659228 7.52345149,40.247913 Z" id="Shape-Copy-4" fill="#000000"></path>
                                        <path d="M25.2368421,28.9165597 C25.5623988,28.9165597 25.8279846,28.6514779 25.8279846,28.3254172 C25.8279846,27.9993565 25.5629028,27.7342747 25.2368421,27.7342747 C24.9107814,27.7342747 24.6456996,27.9993565 24.6456996,28.3254172 C24.6456996,28.6514779 24.9107814,28.9165597 25.2368421,28.9165597 Z" id="Shape" fill="#000000"></path>
                                        <path d="M7.30614297,25.2836901 C7.30614297,25.4777876 7.41984121,25.6567886 7.60482177,25.7527591 C7.6943665,25.7996659 7.79510432,25.8228498 7.89525303,25.8228498 C8.00011462,25.8228498 8.1043871,25.7975093 8.19746649,25.7462891 L11.5359532,23.9206945 C11.7144536,23.8231066 11.8228498,23.6478797 11.8228498,23.4580955 C11.8228498,23.2683113 11.7138644,23.0925453 11.5359532,22.9954965 L8.19746649,21.1699019 C8.0160206,21.0706966 7.78862411,21.0680008 7.60482177,21.1639712 C7.42043032,21.2599416 7.30614297,21.4389426 7.30614297,21.6330401 L7.30614297,22.919475 L0.589110061,22.919475 C0.263332197,22.919475 0,23.1610186 0,23.4586347 C0,23.7562508 0.263332197,23.9977944 0.589110061,23.9977944 L7.30614297,23.9977944 L7.30614297,25.2836901 Z" id="Shape" fill="#000000"></path>
                                        <path d="M48.8851633,22.919475 L42.1675412,22.919475 L42.1675412,21.6330401 C42.1675412,21.4389426 42.053843,21.2599416 41.8688624,21.1639712 C41.6850601,21.0680008 41.4570745,21.0706966 41.2762177,21.1699019 L37.937731,22.9954965 C37.7592307,23.0930844 37.6508344,23.2683113 37.6508344,23.4580955 C37.6508344,23.6478797 37.7598198,23.8236458 37.937731,23.9206945 L41.2762177,25.7462891 C41.368708,25.7969701 41.4735696,25.8228498 41.5784312,25.8228498 C41.6785799,25.8228498 41.7793177,25.7996659 41.8688624,25.7527591 C42.0532539,25.6567886 42.1675412,25.4777876 42.1675412,25.2836901 L42.1675412,23.9972552 L48.8845741,23.9972552 C49.210352,23.9972552 49.4736842,23.7557117 49.4736842,23.4580955 C49.4736842,23.1604794 49.2109411,22.919475 48.8851633,22.919475 Z" id="Shape" fill="#000000"></path>
                                    </g>
                                </g>
                            </g>
                        </g>
                    </g>
                </g>
            </g>
        </g>
    </g>
</svg>