<?xml version="1.0" encoding="UTF-8"?>
<svg width="114px" height="102px" viewBox="0 0 114 102" version="1.1" xmlns="http://www.w3.org/2000/svg" xmlns:xlink="http://www.w3.org/1999/xlink">
    <!-- Generator: sketchtool 51.2 (57519) - http://www.bohemiancoding.com/sketch -->
    <title>D074A031-853B-4A53-9F2B-5A51201355D4</title>
    <desc>Created with sketchtool.</desc>
    <defs></defs>
    <g id="Page-1" stroke="none" stroke-width="1" fill="none" fill-rule="evenodd">
        <g id="medservicebel_text_05_hover" transform="translate(-255.000000, -10950.000000)" fill="#FFFFFF">
            <g id="Цитата" transform="translate(255.000000, 10950.000000)">
                <path d="M20.6812227,44.7161572 L6.70742358,44.7161572 L6.70742358,0 L58.4104803,0 L58.4104803,22.3580786 C58.9694323,26.8296943 59.2489083,31.30131 59.2489083,35.7729258 C59.2489083,63.441048 48.628821,92.5065502 24.0349345,102.008734 L0,82.4454148 C13.4148472,73.7816594 20.6812227,61.2052402 20.6812227,44.7161572 Z M75.4323144,44.7161572 L61.4585153,44.7161572 L61.4585153,0 L113.161572,0 L113.161572,22.3580786 C113.720524,26.8296943 114,31.30131 114,35.7729258 C114,63.441048 103.379913,92.5065502 78.7860262,102.008734 L54.7510917,82.4454148 C68.1659389,73.7816594 75.4323144,61.2052402 75.4323144,44.7161572 Z" id="text/svg/quote"></path>
            </g>
        </g>
    </g>
</svg>