<?xml version="1.0" encoding="UTF-8"?>
<svg width="23px" height="17px" viewBox="0 0 23 17" version="1.1" xmlns="http://www.w3.org/2000/svg" xmlns:xlink="http://www.w3.org/1999/xlink">
    <!-- Generator: sketchtool 51.2 (57519) - http://www.bohemiancoding.com/sketch -->
    <title>AD9CD2DC-7795-49C1-80A3-C4219435837C</title>
    <desc>Created with sketchtool.</desc>
    <defs>
        <linearGradient x1="0%" y1="1.55572612%" x2="100%" y2="1.55572612%" id="linearGradient-1">
            <stop stop-color="#1EBF9D" offset="0%"></stop>
            <stop stop-color="#1073B9" offset="100%"></stop>
        </linearGradient>
    </defs>
    <g id="Page-1" stroke="none" stroke-width="1" fill="none" fill-rule="evenodd">
        <g id="medservicebel_sanatorij_05_hover" transform="translate(-282.000000, -2741.000000)" fill="url(#linearGradient-1)" fill-rule="nonzero">
            <g id="Услуги-и-преимущества" transform="translate(275.000000, 2664.000000)">
                <g id="Размещение" transform="translate(2.000000, 70.000000)">
                    <g id="home">
                        <path d="M27.0512885,14.8388383 L17.5219617,7.46493738 C16.9547135,7.01119096 16.0472206,7.01119096 15.4799724,7.46493738 L5.95064562,14.8388383 C5.72377241,15.0657115 5.61033581,15.2925847 5.72377241,15.5195231 C5.83720902,15.7464615 6.06408223,15.8598329 6.29102063,15.8598329 L7.42545188,15.8598329 C7.76576169,15.8598329 7.9927001,16.0867061 7.9927001,16.4270811 L7.9927001,22.0993025 C7.9927001,23.0068606 8.78682153,23.800982 9.69437956,23.800982 L23.3076849,23.800982 C24.2152429,23.800982 25.0093644,23.0068606 25.0093644,22.0993025 L25.0093644,16.4270811 C25.0093644,16.0867713 25.2362376,15.8598329 25.5766126,15.8598329 L26.7110438,15.8598329 C26.937917,15.8598329 27.1647903,15.7463963 27.278292,15.5195231 C27.2781617,15.2925847 27.2781617,14.9522749 27.0512885,14.8388383 Z M18.2026465,22.553049 L14.7992876,22.553049 L14.7992876,17.5615124 C14.7992876,17.2212026 15.0261608,16.9942642 15.3665358,16.9942642 L17.6353983,16.9942642 C17.9757081,16.9942642 18.2026465,17.2211374 18.2026465,17.5615124 L18.2026465,22.553049 Z M23.8748679,16.3135793 L23.8748679,21.9858007 C23.8748679,22.3261106 23.6479947,22.553049 23.3076197,22.553049 L19.3370777,22.553049 L19.3370777,17.5615124 C19.3370777,16.6539543 18.5429563,15.8598329 17.6353983,15.8598329 L15.3665358,15.8598329 C14.4589778,15.8598329 13.6648563,16.6539543 13.6648563,17.5615124 L13.6648563,22.553049 L9.69431437,22.553049 C9.35400455,22.553049 9.12706615,22.3261758 9.12706615,21.9858007 L9.12706615,16.3135793 C9.12706615,15.6328945 8.55981793,14.9522097 7.8791983,14.7253365 L16.1606572,8.25899361 C16.3875304,8.14555701 16.6144036,8.14555701 16.841342,8.25899361 L25.122801,14.7253365 C24.442051,14.8388383 23.8748679,15.5195231 23.8748679,16.3135793 Z" id="sanatorij/svg/razmeshenie"></path>
                    </g>
                </g>
            </g>
        </g>
    </g>
</svg>