<?xml version="1.0" encoding="UTF-8"?>
<svg width="23px" height="23px" viewBox="0 0 23 23" version="1.1" xmlns="http://www.w3.org/2000/svg" xmlns:xlink="http://www.w3.org/1999/xlink">
    <!-- Generator: sketchtool 51.2 (57519) - http://www.bohemiancoding.com/sketch -->
    <title>5059C7A1-D690-49F8-A875-220E0C23F0D8</title>
    <desc>Created with sketchtool.</desc>
    <defs>
        <circle id="path-1" cx="10.5" cy="10.5" r="10.5"></circle>
    </defs>
    <g id="Page-1" stroke="none" stroke-width="1" fill="none" fill-rule="evenodd">
        <g id="medservicebel_text_05_hover" transform="translate(-287.000000, -18.000000)">
            <g id="Header">
                <g id="Верхнее-меню" transform="translate(48.000000, 13.000000)">
                    <g id="Выбор-языка" transform="translate(227.000000, 6.000000)">
                        <g id="russia" transform="translate(13.000000, 0.000000)">
                            <g id="Shape-+-Shape-+-Shape-Copy-Mask">
                                <mask id="mask-2" fill="white">
                                    <use xlink:href="#path-1"></use>
                                </mask>
                                <use id="Mask" stroke="#CCCCCC" fill="#F0F0F0" fill-rule="nonzero" xlink:href="#path-1"></use>
                                <path d="M21.3158086,14.99999 C21.758,13.7541665 22,12.4066844 22,10.999995 C22,9.59330561 21.758,8.2458235 21.3158086,7 L0.684191406,7 C0.242042969,8.2458235 0,9.59330561 0,10.999995 C0,12.4066844 0.242042969,13.7541665 0.684191406,14.99999 L11,16 L21.3158086,14.99999 Z" id="Shape" fill="#0052B4" fill-rule="nonzero" mask="url(#mask-2)"></path>
                                <path d="M16.5416667,37 C28.213856,37 38.1643415,27.8456429 42,15 L-8.91666667,15 C-5.08100821,27.8456429 4.86947729,37 16.5416667,37 Z" id="Shape" fill="#FF6A85" fill-rule="nonzero" mask="url(#mask-2)"></path>
                            </g>
                        </g>
                    </g>
                </g>
            </g>
        </g>
    </g>
</svg>