<?xml version="1.0" encoding="UTF-8"?>
<svg width="11px" height="13px" viewBox="0 0 11 13" version="1.1" xmlns="http://www.w3.org/2000/svg" xmlns:xlink="http://www.w3.org/1999/xlink">
    <!-- Generator: sketchtool 51.2 (57519) - http://www.bohemiancoding.com/sketch -->
    <title>433504D8-9700-46CF-8D1B-246D86C1B1A0</title>
    <desc>Created with sketchtool.</desc>
    <defs></defs>
    <g id="Page-1" stroke="none" stroke-width="1" fill="none" fill-rule="evenodd">
        <g id="medservicebel_index_15_hover" transform="translate(-353.000000, -58.000000)" fill="#00141B">
            <g id="Выбор-валюты" transform="translate(337.000000, 44.000000)">
                <g id="руб" transform="translate(16.000000, 14.000000)">
                    <g id="index/svg/russian_ruble">
                        <path d="M2.99658203,8.26855469 L2.99658203,13 L1.40283203,13 L1.40283203,0.9140625 L5.86035156,0.9140625 C6.54655291,0.9140625 7.15250388,1.00537018 7.67822266,1.18798828 C8.20394143,1.37060638 8.64526189,1.62654458 9.00219727,1.95581055 C9.35913264,2.28507652 9.63028879,2.67520933 9.81567383,3.1262207 C10.0010589,3.57723207 10.09375,4.07112362 10.09375,4.60791016 C10.09375,5.18896775 10.0010589,5.70776139 9.81567383,6.16430664 C9.63028879,6.62085189 9.35913264,7.00406746 9.00219727,7.31396484 C8.64526189,7.62386223 8.20394143,7.86043213 7.67822266,8.02368164 C7.15250388,8.18693115 6.54655291,8.26855469 5.86035156,8.26855469 L2.99658203,8.26855469 Z M2.99658203,6.96533203 L5.86035156,6.96533203 C6.32519764,6.96533203 6.7250146,6.90722714 7.05981445,6.79101562 C7.3946143,6.67480411 7.66853735,6.51294049 7.8815918,6.30541992 C8.09464625,6.09789935 8.25097606,5.85164531 8.35058594,5.56665039 C8.45019581,5.28165548 8.5,4.96761239 8.5,4.62451172 C8.5,4.31461434 8.45019581,4.01440575 8.35058594,3.72387695 C8.25097606,3.43334816 8.09464625,3.17740996 7.8815918,2.95605469 C7.66853735,2.73469941 7.3946143,2.55761785 7.05981445,2.42480469 C6.7250146,2.29199152 6.32519764,2.22558594 5.86035156,2.22558594 L2.99658203,2.22558594 L2.99658203,6.96533203 Z" id="Р"></path>
                        <polygon id="_" points="7.63671875 11.253418 0.033203125 11.253418 0.033203125 10 7.63671875 10"></polygon>
                    </g>
                </g>
            </g>
        </g>
    </g>
</svg>