<?xml version="1.0" encoding="UTF-8"?>
<svg width="17px" height="17px" viewBox="0 0 17 17" version="1.1" xmlns="http://www.w3.org/2000/svg" xmlns:xlink="http://www.w3.org/1999/xlink">
    <!-- Generator: sketchtool 51.2 (57519) - http://www.bohemiancoding.com/sketch -->
    <title>33525E89-F8F3-4270-A91C-777525378762</title>
    <desc>Created with sketchtool.</desc>
    <defs></defs>
    <g id="Page-1" stroke="none" stroke-width="1" fill="none" fill-rule="evenodd">
        <g id="medservicebel_str_napravlenija_05_hover" transform="translate(-1351.000000, -1492.000000)" fill="#0088CC" fill-rule="nonzero">
            <g id="Карточка" transform="translate(392.000000, 1214.000000)">
                <g id="Group-10" transform="translate(828.000000, 24.000000)">
                    <g id="оплата-картой" transform="translate(106.000000, 254.000000)">
                        <path d="M35.8732775,16.586033 C35.317157,17.137989 34.41932,17.137989 33.8660582,16.586033 L26.0467984,9.26973024 C25.609614,8.86063809 25.0885294,8.08543234 25.0509672,7.48870697 C24.9504467,5.87435824 25.0213163,2.78315235 25.0705128,1.1442634 C25.088197,0.546941107 25.5915974,0.0461879059 26.1907316,0.032458646 C28.2894298,-0.0162238506 32.7360002,-0.0682225936 33.1493177,0.344517429 L41.7600436,8.11640608 C42.3129065,8.66836212 41.8113676,10.0644355 41.2541834,10.6192435 L35.8732775,16.586033 Z M29.0213282,2.40655942 C28.5523654,1.93976458 27.7940738,1.93976458 27.3247121,2.40655942 C26.856813,2.8748134 26.856813,3.63091757 27.3247121,4.09771241 C27.7944062,4.5649052 28.5526979,4.5649052 29.0213282,4.09771241 C29.4896262,3.63091757 29.4896262,2.87441545 29.0213282,2.40655942 Z" id="str_napravlenija/svg/sales"></path>
                    </g>
                </g>
            </g>
        </g>
    </g>
</svg>