<?xml version="1.0" encoding="UTF-8"?>
<svg width="24px" height="24px" viewBox="0 0 24 24" version="1.1" xmlns="http://www.w3.org/2000/svg" xmlns:xlink="http://www.w3.org/1999/xlink">
    <!-- Generator: sketchtool 51.2 (57519) - http://www.bohemiancoding.com/sketch -->
    <title>9B7E9B76-081E-453F-8045-A2A55F868788</title>
    <desc>Created with sketchtool.</desc>
    <defs></defs>
    <g id="Page-1" stroke="none" stroke-width="1" fill="none" fill-rule="evenodd">
        <g id="medservicebel_index_15_hover" transform="translate(-983.000000, -17.000000)" fill="#056493">
            <g id="Поиск" transform="translate(971.000000, 4.000000)">
                <path d="M23.5294212,32.1359959 C18.703783,31.4161018 15,27.2070447 15,22.1223395 C15,16.5319258 19.4771525,12 25,12 C30.5228475,12 35,16.5319258 35,22.1223395 C35,27.4568105 30.9234131,31.8274953 25.7516434,32.2165152 L25.7516434,40 L23.5294212,40 L23.5294212,32.1359959 Z M25,31.0538156 C29.8731007,31.0538156 33.8235294,27.0550575 33.8235294,22.1223395 C33.8235294,17.1896215 29.8731007,13.1908635 25,13.1908635 C20.1268993,13.1908635 16.1764706,17.1896215 16.1764706,22.1223395 C16.1764706,27.0550575 20.1268993,31.0538156 25,31.0538156 Z" id="index/svg/search_icon" transform="translate(25.000000, 26.000000) rotate(-45.000000) translate(-25.000000, -26.000000) "></path>
            </g>
        </g>
    </g>
</svg>