<?xml version="1.0" encoding="UTF-8"?>
<svg width="24px" height="24px" viewBox="0 0 24 24" version="1.1" xmlns="http://www.w3.org/2000/svg" xmlns:xlink="http://www.w3.org/1999/xlink">
    <!-- Generator: sketchtool 51.2 (57519) - http://www.bohemiancoding.com/sketch -->
    <title>75F8EBD2-A3C2-4F70-961B-C06FAE11FA52</title>
    <desc>Created with sketchtool.</desc>
    <defs></defs>
    <g id="Page-1" stroke="none" stroke-width="1" fill="none" fill-rule="evenodd">
        <g id="medservicebel_text_05_hover" transform="translate(-1250.000000, -17.000000)" fill="#FFFFFF">
            <g id="Header">
                <g id="Верхнее-меню" transform="translate(48.000000, 13.000000)">
                    <path d="M1213.52942,23.1359959 C1208.70378,22.4161018 1205,18.2070447 1205,13.1223395 C1205,7.53192577 1209.47715,3 1215,3 C1220.52285,3 1225,7.53192577 1225,13.1223395 C1225,18.4568105 1220.92341,22.8274953 1215.75164,23.2165152 L1215.75164,31 L1213.52942,31 L1213.52942,23.1359959 Z M1215,22.0538156 C1219.8731,22.0538156 1223.82353,18.0550575 1223.82353,13.1223395 C1223.82353,8.18962151 1219.8731,4.19086347 1215,4.19086347 C1210.1269,4.19086347 1206.17647,8.18962151 1206.17647,13.1223395 C1206.17647,18.0550575 1210.1269,22.0538156 1215,22.0538156 Z" id="Combined-Shape" transform="translate(1215.000000, 17.000000) rotate(-45.000000) translate(-1215.000000, -17.000000) "></path>
                </g>
            </g>
        </g>
    </g>
</svg>