<?xml version="1.0" encoding="UTF-8"?>
<svg width="894px" height="659px" viewBox="0 0 894 659" version="1.1" xmlns="http://www.w3.org/2000/svg" xmlns:xlink="http://www.w3.org/1999/xlink">
    <!-- Generator: sketchtool 51.2 (57519) - http://www.bohemiancoding.com/sketch -->
    <title>1CA6A66D-9ED3-487A-86A5-1369A055B679</title>
    <desc>Created with sketchtool.</desc>
    <defs></defs>
    <g id="Page-1" stroke="none" stroke-width="1" fill="none" fill-rule="evenodd" opacity="0.200000003">
        <g id="medservicebel_about_04_hover" transform="translate(-204.000000, -858.000000)" fill="#FFFFFF" fill-rule="nonzero">
            <g id="Group-7" transform="translate(0.000000, 790.000000)">
                <g id="img_bg">
                    <path d="M923.784073,726.274195 L700.738055,726.274195 L681.313703,557.871155 L686.938269,490.231079 C702.641908,507.874714 724.283356,524.182408 764.102147,535.316785 C764.839191,535.5333 765.571628,535.694534 766.304066,535.814308 C768.469132,536.182844 770.624985,536.20127 772.71174,535.924869 L772.767018,535.924869 C792.552038,533.897924 803.446466,503.14364 803.446466,501.406917 C803.446466,500.25985 790.188891,496.961458 781.104826,494.837772 L775.60003,480.515563 L758.173551,486.743812 C731.736712,472.891486 709.35822,447.080184 694.608131,428.957453 L687.629247,420.310689 C687.601608,420.296869 687.587789,420.269229 687.573969,420.255409 C678.314856,412.28583 672.671865,406.647237 669.516396,402.487393 C659.681468,389.496519 674.182805,391.035154 679.125605,381.798734 C685.648442,369.595604 689.716003,290.378908 689.716003,290.378908 C689.716003,290.378908 661.233866,293.7464 629.941751,302.34249 C612.8884,307.032104 611.308363,323.79586 614.076883,341.278261 L613.740607,341.278261 C613.740607,341.278261 606.775543,337.800207 608.516809,348.243581 C610.004716,357.143712 612.764024,366.011597 620.010086,366.287998 C621.502599,371.548842 622.861524,376.243062 623.644633,379.914597 C624.717953,384.931286 623.930237,389.09113 622.188971,392.523116 C621.576304,392.748844 586.156743,405.882526 545.306091,456.897047 C545.306091,456.901654 545.306091,456.901654 545.301484,456.90626 C530.537576,471.970147 515.612439,489.415694 503.303808,508.35381 C503.294595,508.36763 503.285382,508.38145 503.271562,508.39527 C503.271562,508.39527 488.429343,522.289057 490.170609,534.473761 C490.594409,537.435864 492.671951,540.296621 495.569454,542.931649 L466.013998,579.402839 L432.741078,552.430651 C428.774861,549.196752 422.929182,549.781802 419.709222,553.766592 L328.951492,664.939919 C325.731532,668.924708 326.33038,674.779816 330.315023,677.986074 L355.498888,698.425972 C349.708488,705.57556 349.026722,715.963653 354.559157,723.900985 C355.147423,724.748745 355.78592,725.540299 356.46799,726.274195 L244.721676,726.274195 C245.821434,721.484558 246.139376,716.421938 244.9285,710.85483 C236.973033,674.296113 182.335055,692.39581 214.963063,644.82249 C229.759217,623.235525 265.289334,621.107233 275.280884,601.128005 C279.518886,592.665509 274.308908,546.400489 272.83482,537.753726 C267.666301,507.179103 252.86554,476.116171 246.918518,444.541896 C239.819865,406.849932 236.503168,411.309211 273.797584,410.526073 C285.217156,410.281918 297.01907,407.421162 308.378757,406.725551 C312.054763,406.499823 317.628657,412.686612 323.538827,414.492436 C326.100054,410.857755 335.331527,409.254626 339.22404,407.969358 C342.660506,406.840719 355.885836,405.698259 357.433628,403.869401 C360.621342,400.101126 360.658195,394.715902 361.399845,389.842021 C362.136889,384.963533 364.587559,379.435501 369.452048,378.610903 C373.800607,377.878438 377.960298,381.356492 382.354921,380.932676 C385.989468,380.577961 388.831694,377.634284 390.775647,374.543192 C392.7196,371.456708 394.161442,367.983261 396.731882,365.389693 C403.609422,358.452013 414.959896,360.290084 422.210564,354.034194 C428.217471,348.851664 431.239351,339.080868 434.450098,332.138582 C444.25278,310.98004 441.521112,291.088338 454.235117,270.901809 C461.421294,259.500243 469.607087,248.195418 479.114952,238.618103 C488.857749,228.81506 503.036629,230.270775 514.981345,225.42914 C521.402839,222.826358 527.368288,218.43618 530.463871,212.235571 C531.058113,211.047044 531.546405,209.752563 531.463487,208.425835 C530.767902,197.830441 509.412058,198.125269 510.909178,181.882069 C511.761385,172.622616 515.870404,161.101276 520.532206,153.053383 C526.350246,143.006185 535.411278,132.562812 544.527588,125.422437 C550.142941,121.018439 556.914531,117.761506 564.054642,117.512745 C572.374024,117.217917 580.241967,120.958552 588.386301,122.653815 C622.322561,129.725089 614.150588,82.5295168 637.947889,71.2937921 C653.306039,64.0336436 664.601235,70.5981814 675.532516,74.3802765 C685.183183,77.7201291 703.770506,69.9808845 706.792386,84.8052233 C707.326743,87.4356451 707.30371,90.7616776 709.703709,91.9502044 C710.73557,92.4569407 711.947086,92.3786269 713.089504,92.2634596 C721.344394,91.4388615 729.451876,89.4027031 737.720586,88.7347326 C745.993903,88.0667621 754.732478,88.9051802 761.734394,93.3506392 C772.430742,100.150118 772.578151,109.971588 773.605406,121.124393 C774.347056,129.121612 776.203485,137.409053 786.089085,136.736476 C800.899059,135.736823 811.070263,110.84686 823.153175,106.341514 C843.48637,98.7911438 883.507848,123.317178 893.826461,135.962551 C912.059082,158.300407 901.961582,174.529787 905.909373,195.421141 C909.143153,212.594893 920.636429,209.457735 918.554281,230.215494 C917.978465,235.867907 907.521656,240.359433 907.014939,246.334314 C904.702464,273.605938 904.039124,259.302155 922.308597,280.290249 C933.175387,292.760568 938.694002,300.191164 943.360411,315.052356 C949.29822,333.981259 959.308196,347.391343 974.813755,358.45662 C1003.45712,378.924158 1009.78188,363.551622 1004.47055,408.784743 C1009.49627,413.38683 1041.80643,406.605777 1053.08781,413.437503 C1063.08396,419.490698 1063.99605,421.084614 1070.65248,428.036114 C1070.56956,427.939373 1063.08396,436.360409 1066.76457,440.640027 C1071.20066,445.813343 1081.6805,444.70313 1085.00641,449.784313 C1092.72234,461.51756 1094.59258,456.841767 1097.26437,475.595615 C1097.26437,475.793702 1048.86362,521.538166 1046.34846,522.459505 C1026.77995,529.636733 1015.19454,512.886796 1003.30971,511.472541 C988.964995,509.763458 963.891687,517.180234 967.355793,537.164069 C969.543892,549.754162 990.411444,557.00049 996.598005,568.57711 C1002.64176,579.900362 992.254053,582.839433 993.189178,588.74982 C993.86173,592.974158 1002.05213,611.433177 1004.0053,619.117142 C1007.58917,633.167556 1015.64598,645.237092 1017.73274,654.7407 C1019.4694,662.664212 1024.274,669.468298 1018.29934,674.43892 C1015.05174,677.143049 1006.67247,677.672819 1002.72008,679.340442 C982.792254,687.74305 956.728543,686.024754 941.476343,702.221887 C934.935945,709.16239 928.443642,717.410256 923.784073,726.274195 Z M477.798141,726.274195 L388.959556,726.274195 C394.334764,719.694144 395.352929,710.35709 391.218969,702.684451 L440.762092,642.291369 L475.600994,599.232653 L513.198955,553.887021 C518.292604,556.252479 522.242028,557.652349 522.242028,557.652349 L533.984182,541.195788 C535.193001,539.99458 536.295702,538.65477 537.223079,537.134779 C550.718482,514.972476 569.233713,494.570407 586.595491,478.002966 L580.159222,555.633394 C580.149994,555.693455 580.149994,555.753515 580.14538,555.818196 C579.905462,555.873636 579.767048,555.905976 579.767048,555.905976 L523.98605,648.417533 C523.98605,648.417533 496.497428,695.128895 477.798141,726.274195 Z M640.482204,726.274195 L540.959009,726.274195 L575.744632,675.099298 L610.451133,621.783604 C615.965508,616.108789 625.604157,619.486108 626.36365,627.352735 L640.482204,726.274195 Z" id="Combined-Shape"></path>
                </g>
            </g>
        </g>
    </g>
</svg>