<?xml version="1.0" encoding="UTF-8"?>
<svg width="20px" height="20px" viewBox="0 0 20 20" version="1.1" xmlns="http://www.w3.org/2000/svg" xmlns:xlink="http://www.w3.org/1999/xlink">
    <!-- Generator: sketchtool 51.2 (57519) - http://www.bohemiancoding.com/sketch -->
    <title>31E0C43D-8CDF-4631-83F1-838444698691</title>
    <desc>Created with sketchtool.</desc>
    <defs>
        <linearGradient x1="0%" y1="1.55572612%" x2="100%" y2="1.55572612%" id="linearGradient-1">
            <stop stop-color="#1EBF9D" offset="0%"></stop>
            <stop stop-color="#1073B9" offset="100%"></stop>
        </linearGradient>
    </defs>
    <g id="Page-1" stroke="none" stroke-width="1" fill="none" fill-rule="evenodd">
        <g id="medservicebel_sanatorij_05_hover" transform="translate(-294.000000, -2210.000000)" fill="url(#linearGradient-1)" fill-rule="nonzero">
            <g id="Аккордеон-меню" transform="translate(277.000000, 1740.000000)">
                <g id="Раздел-меню-Copy-4" transform="translate(0.000000, 198.000000)">
                    <g id="Цена" transform="translate(17.000000, 265.000000)">
                        <g id="label-1-copy" transform="translate(0.000000, 7.000000)">
                            <path d="M18.6982454,0 C19.4083243,0 20,0.591743743 20,1.30175462 L20,8.4023395 C20,8.75734494 19.8816649,9.11241839 19.6449946,9.34908868 L9.34908868,19.6449946 C8.99408324,19.8816649 8.63900979,20 8.4023395,20 C8.04733406,20 7.69226061,19.8816649 7.45559032,19.6449946 L0.355005441,12.5444097 C0.118335147,12.3077394 0,11.9526659 0,11.5976605 C0,11.2425871 0.118335147,10.8875816 0.355005441,10.6509113 L10.6509113,0.355005441 C10.8875816,0.118335147 11.2426551,0 11.5976605,0 L18.6982454,0 Z M18.6982454,8.6390778 L18.6981094,1.42015778 C18.6981094,1.30182263 18.6981094,1.30182263 18.5797742,1.30182263 L11.4791893,1.30182263 L11.4791893,1.06515234 L1.06501632,11.4793254 C1.06501632,11.4793254 1.06501632,11.5976605 1.06501632,11.7159956 L8.28400435,18.9349157 L8.4023395,18.9349157 L18.6982454,8.6390778 Z M13.2999828,5.3000194 C13.6999598,4.89999353 14.2999828,4.89999353 14.7000172,5.3000194 C15.0999943,5.70004526 15.0999943,6.30005531 14.7000172,6.70002371 C14.5000287,6.9000079 14.2999828,7 14,7 C13.6999598,7 13.4999713,6.9000079 13.2999828,6.70002371 C12.9000057,6.29999784 12.9000057,5.69998779 13.2999828,5.3000194 Z" id="sanatorij/svg/select_price"></path>
                        </g>
                    </g>
                </g>
            </g>
        </g>
    </g>
</svg>