<?xml version="1.0" encoding="UTF-8"?>
<svg width="14px" height="19px" viewBox="0 0 14 19" version="1.1" xmlns="http://www.w3.org/2000/svg" xmlns:xlink="http://www.w3.org/1999/xlink">
    <!-- Generator: sketchtool 51.2 (57519) - http://www.bohemiancoding.com/sketch -->
    <title>2DDB7B94-F07A-4500-99EF-CA409B8D0AAB</title>
    <desc>Created with sketchtool.</desc>
    <defs>
        <linearGradient x1="0%" y1="1.55572612%" x2="100%" y2="1.55572612%" id="linearGradient-1">
            <stop stop-color="#1EBF9D" offset="0%"></stop>
            <stop stop-color="#1073B9" offset="100%"></stop>
        </linearGradient>
    </defs>
    <g id="Page-1" stroke="none" stroke-width="1" fill="none" fill-rule="evenodd">
        <g id="320_medservice_text" transform="translate(-15.000000, -983.000000)" fill="url(#linearGradient-1)" fill-rule="nonzero">
            <g id="paper-clip" transform="translate(22.000000, 992.500000) rotate(-15.000000) translate(-22.000000, -992.500000) translate(14.000000, 984.000000)">
                <path d="M9.33510619,1.26814474 L1.06246046,9.38300514 L1.74230106,10.0458463 L10.0149468,1.93098589 C11.1046949,0.868486904 13.0057445,0.869463466 14.0944911,1.93098589 C15.2189198,3.02778662 15.2189198,4.81208666 14.0944911,5.90852115 L5.14200474,14.6865889 C4.39167609,15.4166908 3.1724703,15.4176673 2.42214165,14.6865889 C1.67231378,13.9555105 1.67231378,12.7658144 2.42214165,12.034736 L11.3746279,3.25715649 C11.7492289,2.89192247 12.3600838,2.89192247 12.7348099,3.25715649 C13.109536,3.62239052 13.1094108,4.21711651 12.7348099,4.58283882 L4.46216418,12.6975772 L5.14200474,13.3604183 L13.4146505,5.24568 C14.1639775,4.51411332 14.1639775,3.32490546 13.4146505,2.59431535 C12.6639462,1.86226036 11.4446152,1.86323692 10.6947873,2.59431535 L1.74230106,11.3718948 C0.617872294,12.4683293 0.617872294,14.2526294 1.74230106,15.3494301 C2.86723063,16.4453763 4.69628974,16.4458646 5.82184533,15.3494301 L14.7743316,6.57136232 C16.2738621,5.10969378 16.2738621,2.73066775 14.7743316,1.26814474 C13.2743003,-0.194378298 10.8342611,-0.193523799 9.33510619,1.26814474 Z" id="Shape"></path>
            </g>
        </g>
    </g>
</svg>