<?xml version="1.0" encoding="UTF-8"?>
<svg width="33px" height="43px" viewBox="0 0 33 43" version="1.1" xmlns="http://www.w3.org/2000/svg" xmlns:xlink="http://www.w3.org/1999/xlink">
    <!-- Generator: sketchtool 51.2 (57519) - http://www.bohemiancoding.com/sketch -->
    <title>1ED4F83C-DF21-4FA8-BC3A-DA2F62968744</title>
    <desc>Created with sketchtool.</desc>
    <defs></defs>
    <g id="Page-1" stroke="none" stroke-width="1" fill="none" fill-rule="evenodd">
        <g id="medservicebel_index_15_hover" transform="translate(-648.000000, -4404.000000)" fill="#000000" fill-rule="nonzero">
            <g id="6-й-экран" transform="translate(0.000000, 4205.000000)">
                <g id="сопровождение" transform="translate(511.000000, 180.000000)">
                    <g id="index/svg/soprovozhdenie/soglasovanie" transform="translate(137.000000, 19.000000)">
                        <path d="M32.1950846,0 L0.804915432,0 C0.360661536,0 0,0.356699336 0,0.796333018 L0,42.203667 C0,42.643184 0.360543634,43 0.804915432,43 L32.1950846,43 C32.6393385,43 33,42.6433007 33,42.203667 L33,0.796333018 C33,0.356699336 32.6393385,0 32.1950846,0 Z M31.390287,41.407334 L1.60983086,41.407334 L1.60983086,1.59254939 L31.390287,1.59254939 L31.390287,41.407334 Z" id="Shape"></path>
                        <path d="M27.2221906,10 L14.7778094,10 C14.348516,10 14,10.4479273 14,11 C14,11.5520727 14.3484021,12 14.7778094,12 L27.2221906,12 C27.651484,12 28,11.5520727 28,11 C28,10.4479273 27.651484,10 27.2221906,10 Z" id="Shape"></path>
                        <path d="M28.1922713,15 L8.80772871,15 C8.36192209,15 8,15.4479273 8,16 C8,16.5520727 8.36180378,17 8.80772871,17 L28.1922713,17 C28.6380779,17 29,16.5520727 29,16 C28.9998817,15.4480738 28.6380779,15 28.1922713,15 Z" id="Shape"></path>
                        <path d="M28.1922713,20 L8.80772871,20 C8.36192209,20 8,20.4479273 8,21 C8,21.5520727 8.36180378,22 8.80772871,22 L28.1922713,22 C28.6380779,22 29,21.5520727 29,21 C29,20.4479273 28.6380779,20 28.1922713,20 Z" id="Shape"></path>
                        <path d="M28.1922713,24 L8.80772871,24 C8.36192209,24 8,24.4479273 8,25 C8,25.5520727 8.36180378,26 8.80772871,26 L28.1922713,26 C28.6380779,26 29,25.5520727 29,25 C29,24.4479273 28.6380779,24 28.1922713,24 Z" id="Shape"></path>
                        <path d="M28.1922713,29 L8.80772871,29 C8.36192209,29 8,29.4479273 8,30 C8,30.5520727 8.36180378,31 8.80772871,31 L28.1922713,31 C28.6380779,31 29,30.5520727 29,30 C29,29.4479273 28.6380779,29 28.1922713,29 Z" id="Shape"></path>
                        <path d="M15.1999648,34 L8.80003516,34 C8.35847481,34 8,34.4479273 8,35 C8,35.5520727 8.35835763,36 8.80003516,36 L15.1999648,36 C15.6415252,36 16,35.5520727 16,35 C16,34.4479273 15.6415252,34 15.1999648,34 Z" id="Shape"></path>
                    </g>
                </g>
            </g>
        </g>
    </g>
</svg>