<?xml version="1.0" encoding="UTF-8"?>
<svg width="36px" height="36px" viewBox="0 0 36 36" version="1.1" xmlns="http://www.w3.org/2000/svg" xmlns:xlink="http://www.w3.org/1999/xlink">
    <!-- Generator: sketchtool 51.2 (57519) - http://www.bohemiancoding.com/sketch -->
    <title>C13B5918-94F2-4164-877E-21CF4DAC1E1F</title>
    <desc>Created with sketchtool.</desc>
    <defs>
        <linearGradient x1="0%" y1="1.55572612%" x2="100%" y2="1.55572612%" id="linearGradient-1">
            <stop stop-color="#1EBF9D" offset="0%"></stop>
            <stop stop-color="#1073B9" offset="100%"></stop>
        </linearGradient>
    </defs>
    <g id="Page-1" stroke="none" stroke-width="1" fill="none" fill-rule="evenodd">
        <g id="medservicebel_spisok_napravlenij_05_hover" transform="translate(-425.000000, -1083.000000)">
            <g id="Иконки" transform="translate(71.000000, 607.000000)">
                <g id="Спелеолечение" transform="translate(345.000000, 470.000000)">
                    <g id="spisok_napravlenij/svg/speleolechenie" transform="translate(9.000000, 6.000000)">
                        <path d="M15.6521739,9.34833422 L15.6521739,27.205416 C15.6521739,31.9598673 11.7979296,35.8141117 7.04347826,35.8141117 L0.782608696,35.8141117 C0.350385848,35.8141117 1.49880109e-13,35.4637258 1.41799616e-13,35.031503 L0,27.4357622 C5.78015937e-14,18.3455939 4.08940939,11.590649 12.2016524,7.2755383 C13.3464443,6.66649173 14.7681938,7.10088142 15.3771623,8.24571886 C15.5577374,8.58519314 15.6521739,8.96382137 15.6521739,9.34833422 Z" id="Path" fill="url(#linearGradient-1)" opacity="0.200000003"></path>
                        <path d="M20.3478261,9.34833422 C20.3478261,8.96382137 20.4422625,8.58519314 20.6228378,8.24571886 C21.2318062,7.10088142 22.6535557,6.66649173 23.7983477,7.2755383 C31.9105906,11.590649 36,18.3455939 36,27.4357622 L36,35.031503 C36,35.4637258 35.6496142,35.8141117 35.2173913,35.8141117 L28.9565217,35.8141117 C24.2020705,35.8141117 20.3478261,31.9598673 20.3478261,27.205416 L20.3478261,9.34833422 Z" id="Path" fill="url(#linearGradient-1)" opacity="0.200000003"></path>
                        <path d="M7.04347826,34.4347826 C10.9334839,34.4347826 14.0869565,31.28131 14.0869565,27.3913043 L14.0869565,9.53422256 C14.0869565,9.40604503 14.0554761,9.27982914 13.9952813,9.16666526 C13.7922871,8.78504389 13.3183842,8.64025148 12.9367586,8.84328206 C5.33355524,12.8876214 1.56521739,19.1122158 1.56521739,27.6216505 L1.56521739,34.4347826 L7.04347826,34.4347826 Z M15.6521739,9.53422256 L15.6521739,27.3913043 C15.6521739,32.1457556 11.7979296,36 7.04347826,36 L0.782608696,36 C0.350385848,36 3.20854455e-13,35.6496142 3.12773962e-13,35.2173913 L1.70974346e-13,27.6216505 C2.2877594e-13,18.5314822 4.08940939,11.7765373 12.2016524,7.46142665 C13.3464443,6.85238007 14.7681938,7.28676977 15.3771623,8.43160721 C15.5577374,8.77108148 15.6521739,9.14970971 15.6521739,9.53422256 Z" id="Shape" fill="#000000" fill-rule="nonzero"></path>
                        <path d="M28.9565217,34.4347826 L34.4347826,34.4347826 L34.4347826,27.6216505 C34.4347826,19.1122158 30.6664447,12.8876214 23.0632414,8.84328206 C22.6816158,8.64025148 22.2077129,8.78504389 22.0047187,9.16666526 C21.9445239,9.27982914 21.9130435,9.40604503 21.9130435,9.53422256 L21.9130435,27.3913043 C21.9130435,31.28131 25.0665161,34.4347826 28.9565217,34.4347826 Z M20.3478261,9.53422256 C20.3478261,9.14970971 20.4422625,8.77108148 20.6228378,8.43160721 C21.2318062,7.28676977 22.6535557,6.85238007 23.7983477,7.46142665 C31.9105906,11.7765373 36,18.5314822 36,27.6216505 L36,35.2173913 C36,35.6496142 35.6496142,36 35.2173913,36 L28.9565217,36 C24.2020705,36 20.3478261,32.1457556 20.3478261,27.3913043 L20.3478261,9.53422256 Z" id="Shape" fill="#000000" fill-rule="nonzero"></path>
                        <path d="M17.2173913,0.782608696 L17.2173913,13.3043478 C17.2173913,13.7365707 17.5677771,14.0869565 18,14.0869565 C18.4322229,14.0869565 18.7826087,13.7365707 18.7826087,13.3043478 L18.7826087,0.782608696 C18.7826087,0.350385848 18.4322229,0 18,0 C17.5677771,0 17.2173913,0.350385848 17.2173913,0.782608696 Z" id="Shape" fill="#000000" fill-rule="nonzero"></path>
                        <path d="M15.4229531,15.4229531 C16.3308703,14.5150359 17.1870292,14.0869565 18,14.0869565 C18.8129708,14.0869565 19.6691297,14.5150359 20.5770469,15.4229531 C20.8826746,15.7285808 21.3781949,15.7285808 21.6838227,15.4229531 C21.9894503,15.1173254 21.9894503,14.621805 21.6838227,14.3161773 C20.5047834,13.137138 19.2739857,12.5217391 18,12.5217391 C16.7260143,12.5217391 15.4952166,13.137138 14.3161773,14.3161773 C14.0105496,14.621805 14.0105496,15.1173254 14.3161773,15.4229531 C14.621805,15.7285808 15.1173254,15.7285808 15.4229531,15.4229531 Z" id="Shape" fill="#000000" fill-rule="nonzero"></path>
                    </g>
                </g>
            </g>
        </g>
    </g>
</svg>