<?xml version="1.0" encoding="UTF-8"?>
<svg width="18px" height="18px" viewBox="0 0 18 18" version="1.1" xmlns="http://www.w3.org/2000/svg" xmlns:xlink="http://www.w3.org/1999/xlink">
    <!-- Generator: sketchtool 51.2 (57519) - http://www.bohemiancoding.com/sketch -->
    <title>B58A1C79-7408-4EBD-87D7-9B6DF4C49C63</title>
    <desc>Created with sketchtool.</desc>
    <defs>
        <linearGradient x1="0%" y1="1.55572612%" x2="100%" y2="1.55572612%" id="linearGradient-1">
            <stop stop-color="#1EBF9D" offset="0%"></stop>
            <stop stop-color="#1073B9" offset="100%"></stop>
        </linearGradient>
    </defs>
    <g id="Page-1" stroke="none" stroke-width="1" fill="none" fill-rule="evenodd">
        <g id="medservicebel_sanatorij_05_hover" transform="translate(-284.000000, -3021.000000)" fill="url(#linearGradient-1)" fill-rule="nonzero">
            <g id="Услуги-и-преимущества" transform="translate(275.000000, 2664.000000)">
                <g id="Размещение" transform="translate(2.000000, 350.000000)">
                    <g id="sanatorij/svg/sport" transform="translate(7.000000, 7.000000)">
                        <path d="M15.3436014,2.6454527 C13.6505068,0.952358108 11.4283581,0 8.99452703,0 C6.56069595,0 4.3385473,0.952358108 2.6454527,2.6454527 C-0.846547297,6.1374527 -0.846547297,11.8516622 2.6454527,15.3436014 C4.3385473,17.0366959 6.56075676,17.9890541 8.99452703,17.9890541 C11.4282973,17.9890541 13.6505068,17.0366959 15.3436014,15.3436014 C18.8356014,11.8516622 18.8356014,6.1374527 15.3436014,2.6454527 Z M8.99452703,1.05816892 C10.9309865,1.05816892 12.7733108,1.77348649 14.2082027,3.0285 L8.99033108,8.24746622 L6.75121622,6.00835135 C7.86867568,4.68881757 8.31733784,2.90681757 7.97022973,1.13333108 C8.30779054,1.08887838 8.64851351,1.05816892 8.99452703,1.05816892 Z M6.89406081,1.35024324 C7.16813514,2.72061486 6.83799324,4.11421622 5.95441216,5.2115473 L3.77562162,3.03275676 C4.67927027,2.24124324 5.74382432,1.66767568 6.89406081,1.35024324 Z M3.02959459,3.78194595 L5.21793243,5.97131757 C4.1787973,6.83902703 2.73964865,7.16491216 1.36824324,6.89722297 C1.67193243,5.77027703 2.22640541,4.70256081 3.02959459,3.78194595 Z M1.16823649,7.89403378 C1.54708784,7.98184459 1.91852027,8.04216892 2.32802027,8.04216892 C3.69942568,8.04216892 4.97347297,7.54692568 5.98189865,6.73637838 L8.24114189,8.99562162 L3.02856081,14.2082027 C1.48360135,12.43575 0.864547297,10.1130203 1.16823649,7.89403378 Z M8.99452703,16.9308851 C7.05703378,16.9308851 5.21258108,16.214473 3.77665541,14.9573919 L8.99033108,9.74371622 L11.2336419,11.987027 C10.1193446,13.305527 9.67281081,15.0853986 10.0199189,16.855723 C9.68126351,16.9002365 9.34054054,16.9308851 8.99452703,16.9308851 Z M10.9744054,16.6695203 C10.7363311,15.2822432 11.1659595,13.8780608 12.0315405,12.7859595 L14.2071689,14.9615878 C13.2738446,15.7774865 12.168,16.3605405 10.9744054,16.6695203 Z M14.9552635,14.2124595 L12.7733108,12.0304459 C13.823027,11.2146081 15.2452095,10.9309865 16.5912568,11.2156419 C16.2801486,12.3002635 15.7309054,13.3235878 14.9552635,14.2124595 Z M11.9881216,11.2453176 L9.73842568,8.99562162 L14.9562973,3.77775 C16.5086757,5.55549324 17.1287635,7.88880405 16.8176554,10.1141757 C15.1372703,9.70248649 13.3224932,10.1712162 11.9881216,11.2453176 Z" id="Shape"></path>
                    </g>
                </g>
            </g>
        </g>
    </g>
</svg>