<?xml version="1.0" encoding="UTF-8"?>
<svg width="108px" height="108px" viewBox="0 0 108 108" version="1.1" xmlns="http://www.w3.org/2000/svg" xmlns:xlink="http://www.w3.org/1999/xlink">
    <!-- Generator: sketchtool 51.2 (57519) - http://www.bohemiancoding.com/sketch -->
    <title>42D84745-4CAF-44BF-9495-B8F98D695EA7</title>
    <desc>Created with sketchtool.</desc>
    <defs>
        <linearGradient x1="0%" y1="1.55572612%" x2="100%" y2="1.55572612%" id="linearGradient-1">
            <stop stop-color="#1EBF9D" offset="0%"></stop>
            <stop stop-color="#1073B9" offset="100%"></stop>
        </linearGradient>
    </defs>
    <g id="Page-1" stroke="none" stroke-width="1" fill="none" fill-rule="evenodd">
        <g id="medservicebel_about_04_hover" transform="translate(-666.000000, -3163.000000)">
            <g id="Статистика" transform="translate(38.000000, 1552.000000)">
                <g id="Group-3" transform="translate(9.000000, 1605.000000)">
                    <g id="Тариф-Copy-3" transform="translate(460.000000, 6.000000)">
                        <g id="standart_tarif_icon" transform="translate(159.000000, 0.000000)">
                            <circle id="Oval-7-Copy-2" stroke="#0091EA" stroke-width="1.43000011" fill="#FFFFFF" cx="54" cy="54" r="53.2849999"></circle>
                            <g id="crown" transform="translate(23.000000, 28.000000)">
                                <path d="M1.19259258,44.3132406 C1.19259258,46.757199 3.19319841,48.7453222 5.65250151,48.7453222 L57.5507209,48.7453222 C60.010024,48.7453222 62.0112651,46.757199 62.0112651,44.3132406 C62.0112651,42.6231149 61.0538461,41.1514364 59.6498006,40.4039172 L63.1179834,4.38536165 L44.2199133,21.6149214 L31.6019289,0 L18.983309,21.6149214 L0.0852390852,4.38536165 L3.55342187,40.4039172 C2.14937638,41.1514364 1.19259258,42.6231149 1.19259258,44.3132406 Z" id="Path" fill="url(#linearGradient-1)" opacity="0.200000003"></path>
                                <path d="M1.19259258,44.3132406 C1.19259258,46.757199 3.19319841,48.7453222 5.65250151,48.7453222 L57.5507209,48.7453222 C60.010024,48.7453222 62.0112651,46.757199 62.0112651,44.3132406 C62.0112651,42.6231149 61.0538461,41.1514364 59.6498006,40.4039172 L63.1179834,4.38536165 L44.2199133,21.6149214 L31.6019289,0 L18.983309,21.6149214 L0.0852390852,4.38536165 L3.55342187,40.4039172 C2.14937638,41.1514364 1.19259258,42.6231149 1.19259258,44.3132406 Z M57.5507209,46.3278806 L5.65250151,46.3278806 C4.53434771,46.3278806 3.62521238,45.4237864 3.62521238,44.3132406 C3.62521238,43.2020634 4.53434771,42.2986006 5.65250151,42.2986006 L57.5507209,42.2986006 C58.6688747,42.2986006 59.5780101,43.2020634 59.5780101,44.3132406 C59.5780101,45.4237864 58.6688747,46.3278806 57.5507209,46.3278806 Z M3.11060743,10.4248622 L19.5684339,25.4295422 L31.6019289,4.81783698 L43.6347886,25.4295422 L60.0926149,10.4248622 L57.2565702,39.8811589 L5.94728752,39.8811589 L3.11060743,10.4248622 Z" id="Shape" fill="#000000" fill-rule="nonzero"></path>
                                <path d="M37.9048857,29.4152807 L31.6019248,21.0109148 L25.2983368,29.4152807 L31.6019248,37.8196466 L37.9048857,29.4152807 Z M31.6019248,25.0130534 L34.9035951,29.4152807 L31.6019248,33.8175079 L28.3002544,29.4152807 L31.6019248,25.0130534 Z" id="Shape" fill="#000000" fill-rule="nonzero"></path>
                                <polygon id="Shape" fill="#000000" fill-rule="nonzero" points="47.9901247 35.2983368 50.5114345 35.2983368 50.5114345 37.8196466 47.9901247 37.8196466"></polygon>
                                <polygon id="Shape" fill="#000000" fill-rule="nonzero" points="37.0644491 35.2983368 45.468815 35.2983368 45.468815 37.8196466 37.0644491 37.8196466"></polygon>
                                <polygon id="Shape" fill="#000000" fill-rule="nonzero" points="12.6917879 35.2983368 15.2130977 35.2983368 15.2130977 37.8196466 12.6917879 37.8196466"></polygon>
                                <polygon id="Shape" fill="#000000" fill-rule="nonzero" points="17.7344075 35.2983368 26.1387734 35.2983368 26.1387734 37.8196466 17.7344075 37.8196466"></polygon>
                                <polygon id="Shape" fill="#000000" fill-rule="nonzero" points="40.4261954 27.7344075 42.9475052 27.7344075 42.9475052 30.2557173 40.4261954 30.2557173"></polygon>
                                <polygon id="Shape" fill="#000000" fill-rule="nonzero" points="20.2557173 27.7344075 22.777027 27.7344075 22.777027 30.2557173 20.2557173 30.2557173"></polygon>
                            </g>
                        </g>
                    </g>
                </g>
            </g>
        </g>
    </g>
</svg>