<?xml version="1.0" encoding="UTF-8"?>
<svg width="32px" height="34px" viewBox="0 0 32 34" version="1.1" xmlns="http://www.w3.org/2000/svg" xmlns:xlink="http://www.w3.org/1999/xlink">
    <!-- Generator: sketchtool 51.2 (57519) - http://www.bohemiancoding.com/sketch -->
    <title>4F4F9E48-84F0-40EA-AC03-8CD516999EAB</title>
    <desc>Created with sketchtool.</desc>
    <defs>
        <linearGradient x1="0%" y1="1.55572612%" x2="100%" y2="1.55572612%" id="linearGradient-1">
            <stop stop-color="#1EBF9D" offset="0%"></stop>
            <stop stop-color="#1073B9" offset="100%"></stop>
        </linearGradient>
    </defs>
    <g id="Page-1" stroke="none" stroke-width="1" fill="none" fill-rule="evenodd">
        <g id="medservicebel_spisok_napravlenij_05_hover" transform="translate(-98.000000, -828.000000)" fill-rule="nonzero">
            <g id="Иконки" transform="translate(71.000000, 607.000000)">
                <g id="стоматология" transform="translate(16.000000, 211.000000)">
                    <g id="spisok_napravlenij/svg/stomatology" transform="translate(11.000000, 10.000000)">
                        <path d="M23.0991628,0.00453333333 C21.4292093,0.00453333333 20.2857674,0.551933333 19.1802791,1.0812 C18.196093,1.55266667 17.2666047,1.99768889 16,1.99806667 C14.7330233,1.99768889 13.8035349,1.55266667 12.8193488,1.0812 C11.8277209,0.606333333 10.8029767,0.120888889 9.39795349,0.0249333333 C9.21265116,0.00151111111 9.04744186,-0.00566666667 8.90530233,0.00491111111 C4.08186047,0.00491111111 0.161116279,3.98517778 0.161116279,8.87777778 C0.161116279,11.0534 0.903813953,12.7809778 1.62232558,14.4522667 C2.30325581,16.0362889 2.94660465,17.5322889 3.02623256,19.4196667 C3.04297674,19.8170889 3.05786047,20.2337778 3.07311628,20.6636889 C3.26623256,26.0647778 3.5307907,33.4620444 8.44130233,33.9909333 C8.50046512,33.9969778 8.55776744,34 8.61469767,34 C10.3092093,33.9996222 11.016186,31.4798444 11.8347907,28.5626444 C12.7330233,25.3606 13.7514419,21.7312889 15.976186,21.6598889 C18.2493023,21.7312889 19.2673488,25.3606 20.1655814,28.5626444 C20.9834419,31.4802222 21.6900465,34 23.3845581,34 C23.4414884,34 23.4995349,33.9969778 23.5575814,33.9905556 C28.4688372,33.4616667 28.7330233,26.0640222 28.9261395,20.6625556 C28.9413953,20.2326444 28.9562791,19.8163333 28.9730233,19.4192889 C29.0526512,17.5319111 29.696,16.0359111 30.3769302,14.4522667 C31.0954419,12.7813556 31.8385116,11.0534 31.8385116,8.87777778 C31.8385116,3.9848 27.9181395,0.00453333333 23.0991628,0.00453333333 Z" id="Shape" fill="url(#linearGradient-1)" opacity="0.200000003"></path>
                        <path d="M23.0991628,0.00453333333 C21.4292093,0.00453333333 20.2857674,0.551933333 19.1802791,1.0812 C18.196093,1.55266667 17.2666047,1.99768889 16,1.99806667 C14.7330233,1.99768889 13.8035349,1.55266667 12.8193488,1.0812 C11.8277209,0.606333333 10.8029767,0.120888889 9.39795349,0.0249333333 C9.21265116,0.00151111111 9.04744186,-0.00566666667 8.90530233,0.00491111111 C8.90381395,0.00491111111 8.90232558,0.00491111111 8.90083721,0.00491111111 C4.08186047,0.00491111111 0.161116279,3.98517778 0.161116279,8.87777778 C0.161116279,11.0534 0.903813953,12.7809778 1.62232558,14.4522667 C2.30325581,16.0362889 2.94660465,17.5322889 3.02623256,19.4196667 C3.04297674,19.8170889 3.05786047,20.2337778 3.07311628,20.6636889 C3.26623256,26.0647778 3.5307907,33.4620444 8.44130233,33.9909333 C8.50046512,33.9969778 8.55776744,34 8.61469767,34 C8.61469767,34 8.61469767,34 8.61506977,34 C10.3092093,33.9996222 11.016186,31.4798444 11.8347907,28.5626444 C12.7330233,25.3606 13.7514419,21.7312889 15.976186,21.6598889 L15.9866047,21.6591333 L16.0271628,21.6598889 C18.2493023,21.7312889 19.2673488,25.3606 20.1655814,28.5626444 C20.9834419,31.4802222 21.6900465,34 23.3845581,34 C23.3845581,34 23.3849302,34 23.3849302,34 C23.4414884,34 23.4995349,33.9969778 23.5575814,33.9905556 C28.4688372,33.4616667 28.7330233,26.0640222 28.9261395,20.6625556 C28.9413953,20.2326444 28.9562791,19.8163333 28.9730233,19.4192889 C29.0526512,17.5319111 29.696,16.0359111 30.3769302,14.4522667 C31.0954419,12.7813556 31.8385116,11.0534 31.8385116,8.87777778 C31.8385116,3.9848 27.9181395,0.00453333333 23.0991628,0.00453333333 Z M29.3540465,13.9985556 C28.6619535,15.6078889 27.9467907,17.272 27.8578605,19.3705556 C27.8411163,19.7702444 27.8262326,20.1888222 27.8106047,20.6213778 C27.6323721,25.6084222 27.3882791,32.4382667 23.44,32.8632667 C23.4213953,32.8651556 23.4027907,32.8662889 23.3849302,32.8662889 C23.3849302,32.8662889 23.3849302,32.8662889 23.3849302,32.8662889 C22.5335814,32.8662889 21.8459535,30.4145111 21.2390698,28.2517333 C20.2362791,24.6764444 19.0995349,20.6244 16.0513488,20.5261778 L15.9866047,20.5254222 L15.9382326,20.5265556 C12.9008372,20.6240222 11.764093,24.6764444 10.7609302,28.2513556 C10.1536744,30.4148889 9.46604651,32.8662889 8.61469767,32.8666667 C8.59683721,32.8666667 8.57823256,32.8655333 8.56,32.8636444 C4.61209302,32.4386444 4.368,25.6091778 4.18976744,20.6225111 C4.17413953,20.1895778 4.15925581,19.7706222 4.14251163,19.3709333 C4.05395349,17.2727556 3.3384186,15.6082667 2.64632558,13.9989333 C1.94269767,12.3624 1.27813953,10.8169111 1.27813953,8.87777778 C1.27813953,4.6104 4.69804651,1.13824444 8.9012093,1.13824444 C9.09395349,1.13824444 9.27739535,1.14844444 9.45525581,1.16468889 C11.2870698,1.47711111 15.9821395,3.7366 18.7962791,5.24733333 C18.8796279,5.29191111 18.9685581,5.31306667 19.0567442,5.31306667 C19.2569302,5.31306667 19.4507907,5.20313333 19.5508837,5.01122222 C19.6948837,4.73431111 19.5906977,4.39166667 19.3183256,4.24508889 C19.0567442,4.10493333 18.1685581,3.63157778 17.0042791,3.0498 C18.0260465,2.88471111 18.8528372,2.49182222 19.6569302,2.10648889 C20.6969302,1.60857778 21.6796279,1.13824444 23.0995349,1.13824444 C27.3026977,1.13824444 30.7226047,4.61002222 30.7226047,8.87777778 C30.7222326,10.8165333 30.0576744,12.3624 29.3540465,13.9985556 Z" id="Shape-Copy-3" fill="#000000"></path>
                        <path d="M8.90083721,4.43435556 C6.48781395,4.43435556 4.52465116,6.42751111 4.52465116,8.8774 C4.52465116,9.86151111 4.80781395,10.7368222 5.29748837,11.9162444 C5.38753488,12.1327111 5.5944186,12.2630444 5.81209302,12.2630444 C5.88427907,12.2630444 5.95795349,12.2486889 6.02865116,12.2184667 C6.31255814,12.0968222 6.44613953,11.7647556 6.32632558,11.4761333 C5.88204651,10.4055111 5.64093023,9.67413333 5.64093023,8.87777778 C5.64093023,7.05273333 7.10325581,5.56844444 8.90046512,5.56844444 C9.20893023,5.56844444 9.45860465,5.31495556 9.45860465,5.00177778 C9.45860465,4.6886 9.20930233,4.43435556 8.90083721,4.43435556 Z" id="Shape" fill="#000000"></path>
                    </g>
                </g>
            </g>
        </g>
    </g>
</svg>