<?xml version="1.0" encoding="UTF-8"?>
<svg width="23px" height="23px" viewBox="0 0 23 23" version="1.1" xmlns="http://www.w3.org/2000/svg" xmlns:xlink="http://www.w3.org/1999/xlink">
    <!-- Generator: sketchtool 51.2 (57519) - http://www.bohemiancoding.com/sketch -->
    <title>E4144692-BAB3-40AD-97F8-F105F024E1C4</title>
    <desc>Created with sketchtool.</desc>
    <defs>
        <linearGradient x1="0%" y1="1.55572612%" x2="100%" y2="1.55572612%" id="linearGradient-1">
            <stop stop-color="#1EBF9D" offset="0%"></stop>
            <stop stop-color="#1073B9" offset="100%"></stop>
        </linearGradient>
    </defs>
    <g id="Page-1" stroke="none" stroke-width="1" fill="none" fill-rule="evenodd">
        <g id="medservicebel_sanatorij_05_hover" transform="translate(-282.000000, -2879.000000)" fill="url(#linearGradient-1)" fill-rule="nonzero">
            <g id="Услуги-и-преимущества" transform="translate(275.000000, 2664.000000)">
                <g id="Размещение" transform="translate(2.000000, 210.000000)">
                    <g id="sanatorij/svg/sun" transform="translate(5.000000, 5.000000)">
                        <path d="M11.4930068,5.40849662 C8.11270608,5.40849662 5.40849662,8.11270608 5.40849662,11.4930068 C5.40849662,14.8733074 8.11270608,17.5775169 11.4930068,17.5775169 C14.8733074,17.5775169 17.5775169,14.8733074 17.5775169,11.4930068 C17.5775169,8.11270608 14.8733074,5.40849662 11.4930068,5.40849662 Z M11.4930068,16.2254122 C8.924,16.2254122 6.76060135,14.0620135 6.76060135,11.4930068 C6.76060135,8.924 8.924,6.76060135 11.4930068,6.76060135 C14.0620135,6.76060135 16.2254122,8.924 16.2254122,11.4930068 C16.2254122,14.0620135 14.0620135,16.2254122 11.4930068,16.2254122 Z" id="Shape"></path>
                        <path d="M11.4930068,2.70420946 C11.8986149,2.70420946 12.169098,2.43380405 12.169098,2.02811824 L12.169098,0.676091216 C12.169098,0.270483108 11.8986926,0 11.4930068,0 C11.0873986,0 10.8169155,0.270405405 10.8169155,0.676091216 L10.8169155,2.02819595 C10.8169932,2.43380405 11.0873986,2.70420946 11.4930068,2.70420946 Z" id="Shape"></path>
                        <path d="M11.4930068,20.2818041 C11.0873986,20.2818041 10.8169155,20.5522095 10.8169155,20.9578953 L10.8169155,22.31 C10.8169155,22.7156081 11.0873209,22.9860912 11.4930068,22.9860912 C11.8986149,22.9860912 12.169098,22.7156858 12.169098,22.31 L12.169098,20.9578953 C12.169098,20.5522872 11.8986149,20.2818041 11.4930068,20.2818041 Z" id="Shape"></path>
                        <path d="M22.31,10.8169932 L20.9578953,10.8169932 C20.5522872,10.8169932 20.2818041,11.0873986 20.2818041,11.4930845 C20.2818041,11.8986926 20.5522095,12.1691757 20.9578953,12.1691757 L22.31,12.1691757 C22.7156081,12.1691757 22.9860912,11.8987703 22.9860912,11.4930845 C22.9860135,11.0873986 22.7156081,10.8169932 22.31,10.8169932 Z" id="Shape"></path>
                        <path d="M2.02819595,10.8169932 L0.676091216,10.8169932 C0.270405405,10.8169932 0,11.0873986 0,11.4930068 C0,11.8986149 0.270405405,12.169098 0.676091216,12.169098 L2.02819595,12.169098 C2.43380405,12.169098 2.70428716,11.8986926 2.70428716,11.4930068 C2.70420946,11.0873986 2.43380405,10.8169932 2.02819595,10.8169932 Z" id="Shape"></path>
                        <path d="M18.6592162,3.38030068 L17.7127196,4.3267973 C17.4423142,4.5972027 17.4423142,5.00288851 17.7127196,5.27329392 C17.8479223,5.40849662 18.1183277,5.40849662 18.2535304,5.40849662 C18.3887331,5.40849662 18.5239358,5.40849662 18.6591385,5.27329392 L19.6056351,4.3267973 C19.8760405,4.05639189 19.8760405,3.65070608 19.6056351,3.38030068 C19.3352297,3.10989527 18.9296993,3.10989527 18.6592162,3.38030068 Z" id="Shape"></path>
                        <path d="M4.19159459,17.848 L3.24509797,18.7944966 C2.97469257,19.064902 2.97469257,19.4705878 3.24509797,19.7409932 C3.38030068,19.8761959 3.65070608,19.8761959 3.78590878,19.8761959 C4.05631419,19.8761959 4.19151689,19.7409932 4.19151689,19.7409932 L5.13801351,18.7944966 C5.40841892,18.5240912 5.40841892,18.1184054 5.13801351,17.848 C4.86760811,17.5775946 4.462,17.5775946 4.19159459,17.848 Z" id="Shape"></path>
                        <path d="M18.6592162,17.848 C18.3888108,17.5775946 17.983125,17.5775946 17.7127196,17.848 C17.4423142,18.1184054 17.4423142,18.5240912 17.7127196,18.7944966 L18.6592162,19.7409932 C18.7944189,19.8761959 19.0648243,19.8761959 19.200027,19.8761959 C19.3352297,19.8761959 19.4704324,19.7409932 19.6056351,19.7409932 C19.8760405,19.4705878 19.8760405,19.064902 19.6056351,18.7944966 L18.6592162,17.848 Z" id="Shape"></path>
                        <path d="M4.19159459,3.38030068 C3.92118919,3.10989527 3.51550338,3.10989527 3.24509797,3.38030068 C2.97469257,3.65070608 2.97469257,4.05639189 3.24509797,4.3267973 L4.19159459,5.27329392 C4.3267973,5.40849662 4.5972027,5.40849662 4.73240541,5.40849662 C5.00281081,5.40849662 5.13801351,5.40849662 5.13801351,5.27329392 C5.40841892,5.00288851 5.40841892,4.5972027 5.13801351,4.3267973 L4.19159459,3.38030068 Z" id="Shape"></path>
                    </g>
                </g>
            </g>
        </g>
    </g>
</svg>