<?xml version="1.0" encoding="UTF-8"?>
<svg width="22px" height="38px" viewBox="0 0 22 38" version="1.1" xmlns="http://www.w3.org/2000/svg" xmlns:xlink="http://www.w3.org/1999/xlink">
    <!-- Generator: sketchtool 51.2 (57519) - http://www.bohemiancoding.com/sketch -->
    <title>E956E379-4603-40CA-94CB-176DBE942178</title>
    <desc>Created with sketchtool.</desc>
    <defs>
        <linearGradient x1="0%" y1="1.55572612%" x2="100%" y2="1.55572612%" id="linearGradient-1">
            <stop stop-color="#1EBF9D" offset="0%"></stop>
            <stop stop-color="#1073B9" offset="100%"></stop>
        </linearGradient>
    </defs>
    <g id="Page-1" stroke="none" stroke-width="1" fill="none" fill-rule="evenodd">
        <g id="medservicebel_contacts_05_hover" transform="translate(-302.000000, -656.000000)" fill="url(#linearGradient-1)" fill-rule="nonzero">
            <g id="Карта" transform="translate(48.000000, 517.000000)">
                <g id="Group-3" transform="translate(229.000000, 93.000000)">
                    <g id="contact/svg/telephone" transform="translate(36.856406, 65.856406) rotate(-330.000000) translate(-36.856406, -65.856406) translate(20.856406, 49.856406)">
                        <path d="M6.52392617,20.7506513 C9.60412221,24.4187455 13.3120053,27.3068055 17.5440393,29.3503658 C19.1553183,30.1110602 21.3101614,31.013579 23.7109024,31.1682965 C23.8597354,31.1747431 24.0020974,31.1811896 24.1509304,31.1811896 C25.7622094,31.1811896 27.0564095,30.6267852 28.1111825,29.4857437 C28.1176535,29.4792971 28.1305955,29.466404 28.1370665,29.4535108 C28.5123845,29.0022515 28.9394705,28.596118 29.3859695,28.1641983 C29.6901065,27.874103 30.0007145,27.5711146 30.2983805,27.2616796 C31.6767035,25.8305427 31.6767035,24.012612 30.2854385,22.6266011 L26.3963675,18.7522169 C25.7363254,18.0688813 24.9468634,17.7078738 24.1185754,17.7078738 C23.2902874,17.7078738 22.4943544,18.0688813 21.8148994,18.7457704 L19.4982814,21.0536398 C19.2847383,20.9311551 19.0647243,20.8215635 18.8576523,20.7184185 C18.5988123,20.5894873 18.3593853,20.4670026 18.1458423,20.3316248 C16.0362963,18.9971863 14.1208803,17.2566144 12.2895872,15.0196572 C11.3642342,13.8528294 10.7430182,12.8729518 10.3094612,11.8737346 C10.9177352,11.3257768 11.4871832,10.7520327 12.0372182,10.1911818 C12.2313482,9.99133835 12.4319493,9.79149491 12.6325503,9.59165147 C13.3314183,8.89542271 13.7067363,8.08960239 13.7067363,7.27088894 C13.7067363,6.45217549 13.3378893,5.64635516 12.6325503,4.9501264 L10.7041922,3.02905074 C10.4777072,2.80342105 10.2641642,2.58423793 10.0441502,2.35860823 C9.61706421,1.92024198 9.1705652,1.4689826 8.7305372,1.06284915 C8.06402419,0.411746329 7.28103318,0.070078511 6.45274516,0.070078511 C5.63092815,0.070078511 4.84146614,0.411746329 4.14906913,1.06929571 L1.7289151,3.48031013 C0.848859084,4.35704264 0.350592077,5.42072547 0.247056075,6.65201893 C0.124107074,8.19274739 0.408831078,9.83017429 1.14652509,11.809269 C2.2789501,14.8713862 3.98729413,17.7143203 6.52392617,20.7506513 Z M1.8259801,6.78739674 C1.9036321,5.93000392 2.2336531,5.21443547 2.85486911,4.59556546 L5.26208115,2.19744417 C5.63739915,1.83643666 6.05154316,1.64948635 6.45274516,1.64948635 C6.84747617,1.64948635 7.24867818,1.83643666 7.61752518,2.21033729 C8.05108219,2.61002418 8.45875519,3.02905074 8.8987832,3.47386356 C9.1187972,3.69949326 9.34528221,3.92512295 9.57176721,4.1571992 L11.5001252,6.07827485 C11.9013272,6.47796174 12.1083992,6.88409518 12.1083992,7.28378206 C12.1083992,7.68346894 11.9013272,8.08960239 11.5001252,8.48928927 C11.2995242,8.68913271 11.0989232,8.89542271 10.8983222,9.09526615 C10.2965192,9.70124304 9.73354221,10.2749871 9.1123262,10.8229449 C9.0993842,10.8358381 9.0929132,10.8422846 9.0799712,10.8551777 C8.54287819,11.3902424 8.6270012,11.8995209 8.7564212,12.2863146 C8.7628922,12.3056543 8.7693632,12.3185475 8.7758342,12.3378871 C9.2741012,13.5305012 9.96649821,14.6650962 11.0471552,16.0188744 C12.9884553,18.4041025 15.0332913,20.254266 17.2851993,21.6789563 C17.5634523,21.8594601 17.8611183,22.0012845 18.1393713,22.1431089 C18.3982113,22.2720401 18.6376383,22.3945248 18.8511813,22.5299026 C18.8770653,22.5427957 18.8964783,22.5556889 18.9223623,22.568582 C19.1359053,22.6781736 19.3429773,22.7297461 19.5500494,22.7297461 C20.0677294,22.7297461 20.4042214,22.4009714 20.5142284,22.2913798 L22.9343824,19.8803654 C23.3097004,19.5064648 23.7173734,19.3066213 24.1185754,19.3066213 C24.6103714,19.3066213 25.0115734,19.6096098 25.2639424,19.8803654 L29.1659555,23.7611961 C29.9424755,24.5347836 29.9360045,25.3728367 29.1465425,26.1915502 C28.8747605,26.4816455 28.5900365,26.7588477 28.2858995,27.048943 C27.8329295,27.4873093 27.3605465,27.9385686 26.9334605,28.4478471 C26.1892954,29.2472208 25.3027684,29.6211215 24.1574014,29.6211215 C24.0473944,29.6211215 23.9309164,29.6146749 23.8209094,29.6082283 C21.6984214,29.4728505 19.7247664,28.6476905 18.2429073,27.9450152 C14.2179453,26.0045999 10.6847792,23.2519176 7.75341618,19.7578807 C5.33973315,16.8633741 3.71551213,14.1687109 2.64132611,11.2806509 C1.9748131,9.50784616 1.7224441,8.08315582 1.8259801,6.78739674 Z" id="Shape"></path>
                    </g>
                </g>
            </g>
        </g>
    </g>
</svg>