<?xml version="1.0" encoding="UTF-8"?>
<svg width="57px" height="63px" viewBox="0 0 57 63" version="1.1" xmlns="http://www.w3.org/2000/svg" xmlns:xlink="http://www.w3.org/1999/xlink">
    <!-- Generator: sketchtool 51.2 (57519) - http://www.bohemiancoding.com/sketch -->
    <title>0834B9C0-A39D-4A41-AABF-67C561C48DFE</title>
    <desc>Created with sketchtool.</desc>
    <defs>
        <linearGradient x1="0%" y1="1.55572612%" x2="100%" y2="1.55572612%" id="linearGradient-1">
            <stop stop-color="#1EBF9D" offset="0%"></stop>
            <stop stop-color="#1073B9" offset="100%"></stop>
        </linearGradient>
    </defs>
    <g id="Page-1" stroke="none" stroke-width="1" fill="none" fill-rule="evenodd">
        <g id="medservicebel_stranica_yslygi_05_hover" transform="translate(-300.000000, -3363.000000)">
            <g id="Group-9" transform="translate(275.000000, 3342.000000)">
                <g id="Group-8">
                    <g id="timer" transform="translate(25.000000, 21.000000)">
                        <path d="M28.2692308,10.8769231 C41.3538462,10.8769231 52.0153846,21.5384615 52.0153846,34.6230769 C52.0153846,47.7076923 41.3538462,58.3692308 28.2692308,58.3692308 C15.1846154,58.3692308 4.52307692,47.7076923 4.52307692,34.6230769 C4.52307692,21.4846154 15.1846154,10.8769231 28.2692308,10.8769231 Z" id="Path" fill="url(#linearGradient-1)" opacity="0.200000003"></path>
                        <path d="M0.161538462,34.5692308 C0.161538462,50.0769231 12.7615385,62.6769231 28.2692308,62.6769231 C43.7769231,62.6769231 56.3769231,50.0769231 56.3769231,34.5692308 C56.3769231,26.8692308 53.2538462,19.8153846 48.1923077,14.7538462 L50.4,12.5461538 L51.4230769,13.5692308 C51.8538462,14 52.3923077,14.2153846 52.9846154,14.2153846 C53.5769231,14.2153846 54.1153846,14 54.5461538,13.5692308 C55.4076923,12.7076923 55.4076923,11.3076923 54.5461538,10.4461538 L49.4307692,5.33076923 C48.5692308,4.46923077 47.1692308,4.46923077 46.3076923,5.33076923 C45.4461538,6.19230769 45.4461538,7.59230769 46.3076923,8.45384615 L47.3307692,9.47692308 L44.9076923,11.9 C40.8153846,8.88461538 35.9153846,7 30.5307692,6.56923077 L30.5307692,4.68461538 L35.4307692,4.68461538 C36.6692308,4.68461538 37.6384615,3.71538462 37.6384615,2.47692308 C37.6384615,1.23846154 36.6692308,0.269230769 35.4307692,0.269230769 L20.8923077,0.269230769 C19.6538462,0.269230769 18.6846154,1.23846154 18.6846154,2.47692308 C18.6846154,3.71538462 19.6538462,4.68461538 20.8923077,4.68461538 L26.1153846,4.68461538 L26.1153846,6.56923077 C11.5769231,7.7 0.161538462,19.8153846 0.161538462,34.5692308 Z M28.2692308,10.8769231 C41.3538462,10.8769231 52.0153846,21.5384615 52.0153846,34.6230769 C52.0153846,47.7076923 41.3538462,58.3692308 28.2692308,58.3692308 C15.1846154,58.3692308 4.52307692,47.7076923 4.52307692,34.6230769 C4.52307692,21.4846154 15.1846154,10.8769231 28.2692308,10.8769231 Z" id="Shape" fill="#000000" fill-rule="nonzero"></path>
                        <path d="M28.2692308,36.4 L37.6923077,36.4 C38.9307692,36.4 39.9,35.4307692 39.9,34.1923077 C39.9,32.9538462 38.9307692,31.9846154 37.6923077,31.9846154 L30.4769231,31.9846154 L30.4769231,20.6230769 C30.4769231,19.3846154 29.5076923,18.4153846 28.2692308,18.4153846 C27.0307692,18.4153846 26.0615385,19.3846154 26.0615385,20.6230769 L26.0615385,34.2461538 C26.0615385,35.4307692 27.0307692,36.4 28.2692308,36.4 Z" id="Shape" fill="#000000" fill-rule="nonzero"></path>
                    </g>
                </g>
            </g>
        </g>
    </g>
</svg>