<?xml version="1.0" encoding="UTF-8"?>
<svg width="170px" height="137px" viewBox="0 0 170 137" version="1.1" xmlns="http://www.w3.org/2000/svg" xmlns:xlink="http://www.w3.org/1999/xlink">
    <!-- Generator: sketchtool 51.2 (57519) - http://www.bohemiancoding.com/sketch -->
    <title>6D710CF8-4850-43C1-B24D-F86211C11AFC</title>
    <desc>Created with sketchtool.</desc>
    <defs>
        <linearGradient x1="0%" y1="1.55572612%" x2="100%" y2="1.55572612%" id="linearGradient-1">
            <stop stop-color="#1EBF9D" offset="0%"></stop>
            <stop stop-color="#1073B9" offset="100%"></stop>
        </linearGradient>
    </defs>
    <g id="Page-1" stroke="none" stroke-width="1" fill="none" fill-rule="evenodd">
        <g id="medservicebel_index_15_hover" transform="translate(-46.000000, -16.000000)">
            <g id="1-й-экран">
                <g id="Верхнее-меню" transform="translate(46.000000, 13.000000)">
                    <g id="Logo_big" transform="translate(0.000000, 3.000000)">
                        <path d="M110.36853,34.3148028 C110.36853,34.7380928 110.025637,35.081625 109.603136,35.081625 L105.597696,35.081625 L105.597696,39.0945393 C105.597696,39.5178293 105.254804,39.8613614 104.832302,39.8613614 L100.778473,39.8613614 C100.355971,39.8613614 100.013079,39.5178293 100.013079,39.0945393 L100.013079,35.081625 L96.0076389,35.081625 C95.5851374,35.081625 95.2422451,34.7380928 95.2422451,34.3148028 L95.2422451,30.2534083 C95.2422451,29.829597 95.5851374,29.4865861 96.0076389,29.4865861 L100.013079,29.4865861 L100.013079,25.4736718 C100.013079,25.0503818 100.355971,24.7068497 100.778473,24.7068497 L104.832302,24.7068497 C105.254804,24.7068497 105.597696,25.0503818 105.597696,25.4736718 L105.597696,29.4865861 L109.603136,29.4865861 C110.025637,29.4865861 110.36853,29.829597 110.36853,30.2534083 L110.36853,34.3148028 Z M132.640398,42.4188254 C133.495808,43.7231007 133.703416,43.2033715 134,45.28698 C134,45.3093956 128.631837,50.3920033 128.352944,50.4941768 C126.18268,51.2917552 124.896964,49.4307388 123.578988,49.2733083 C121.988364,49.0835576 119.207242,49.907722 119.59124,52.1284306 C119.83423,53.52706 122.148623,54.3319366 122.834928,55.6184879 C123.505103,56.8763682 122.353109,57.203219 122.456654,57.8600483 C122.53106,58.3292121 123.440062,60.3805004 123.656516,61.2348998 C124.053522,62.7956514 124.947436,64.1369385 125.178979,65.192557 C125.371498,66.0735424 125.904308,66.8288961 125.241938,67.3814668 C124.881355,67.6817316 123.952059,67.7406377 123.513428,67.9267393 C121.30414,68.8603753 118.41271,68.6685394 116.720622,70.4685645 C115.668531,71.5883021 114.626326,73.0129961 114.201223,74.5101499 C113.714201,76.2236403 114.319336,77.9371307 114.402067,79.6579193 C114.540473,82.5140842 114.676797,83.7870819 111.573596,82.4947963 C110.62661,82.10122 110.943486,80.6504613 109.857053,80.1776485 C108.628052,79.6443656 108.168087,80.3074505 107.046273,80.2120538 C106.78351,80.1896382 103.995104,80.0191754 103.977413,80.0233457 C103.166231,80.2594915 102.730721,81.8014765 101.826401,81.8410948 C98.3064221,81.9959188 100.284687,78.5767574 97.8646686,77.9647593 C96.560221,77.635302 95.0538885,80.930917 94.8166216,81.0033768 C92.7904872,81.6169387 94.5262818,80.4450718 92.5157571,79.9446305 C91.7123797,79.7449752 91.2029844,79.7022292 90.7659138,79.6209075 L87.8656382,54.4294184 L88.4895045,46.9134145 C90.231543,48.8739978 92.631789,50.6860126 97.0477629,51.9230412 C97.1294535,51.9470206 97.211144,51.9647446 97.2928346,51.9782982 C97.5327031,52.0194804 97.771531,52.0215656 98.0030743,51.9908093 C98.0051556,51.990288 98.0067166,51.9908093 98.0087979,51.990288 C100.204037,51.7656106 101.411705,48.3480131 101.411705,48.1546133 C101.411705,48.0279391 99.9412743,47.6614701 98.9339306,47.424803 L98.3230724,45.8343377 L96.3900757,46.5255724 C93.4585808,44.9867152 90.9761239,42.1185605 89.3402312,40.1048053 L88.5665121,39.1440621 C88.5633902,39.1424982 88.5618292,39.1393705 88.5607886,39.1378066 C87.5331524,38.2526509 86.9077252,37.6260566 86.5575484,37.1641909 C85.4669532,35.720209 87.0752689,35.8906719 87.6236884,34.864767 C88.3469362,33.5088837 88.7975352,24.7068497 88.7975352,24.7068497 C88.7975352,24.7068497 85.6386595,25.0811381 82.1681109,26.0361471 C80.2762196,26.5569189 80.1013914,28.4200204 80.4089018,30.3628798 L80.3714386,30.3628798 C80.3714386,30.3628798 79.5987602,29.9760803 79.7917997,31.1359575 C79.9567418,32.1253718 80.2632116,33.1106158 81.0665889,33.1418933 C81.2315311,33.7257416 81.3824245,34.2470347 81.4698386,34.6552072 C81.588472,35.2129908 81.5010579,35.6748565 81.3085387,36.0569644 C81.2403765,36.0819864 77.3119444,37.5405645 72.7809793,43.209627 C72.7809793,43.209627 72.780459,43.209627 72.780459,43.2101483 C71.1430053,44.8840204 69.4878606,46.8227095 68.1225353,48.9271697 L68.118893,48.9318613 C68.118893,48.9318613 66.4731141,50.4754102 66.6656333,51.8292084 C66.7129826,52.1581443 66.9434853,52.4766544 67.2645241,52.7685786 L63.9864947,56.8216324 L60.2963701,53.8247184 C59.8561776,53.4645049 59.2083765,53.5301878 58.8509152,53.9727656 L48.7847633,66.3258482 C48.427302,66.7689474 48.4939032,67.4195211 48.936177,67.7755643 L51.7287459,70.0468384 C51.0871887,70.8412891 51.0112217,71.995432 51.6252018,72.8779812 C51.893688,73.265302 52.2568729,73.5478428 52.6632444,73.7120502 C51.7792171,73.8267346 50.9076776,73.9768671 50.0595525,74.16349 C46.9683187,74.8469052 46.7315721,78.499606 43.6580293,79.1293281 C42.7656769,79.3133445 40.6084213,77.4585837 39.8820516,78.4610303 C39.7368817,78.6612069 40.5491046,80.5978107 39.5469642,80.3095356 C38.0260626,79.8721707 38.3491826,79.1976175 38.2008908,77.5086278 C38.0099326,75.3416124 39.9798722,73.7954571 39.4652736,71.4277438 C38.5833276,67.3653067 32.5231357,69.3769767 36.1419761,64.0905434 C37.7830721,61.6920739 41.7234716,61.4554068 42.8322781,59.2352195 C43.302129,58.295328 42.7240511,53.1548568 42.5611903,52.1935923 C41.987275,48.7968464 40.346179,45.3448435 39.6864105,41.8370623 C38.8991631,37.6484722 38.5318157,38.1442219 42.6678563,38.0566447 C43.9338,38.0300587 45.2429305,37.71207 46.5031507,37.6349186 C46.9110833,37.6093752 47.5287057,38.2974821 48.1843115,38.4976587 C48.4684074,38.0936565 49.4918811,37.9153743 49.9242687,37.7730612 C50.3056649,37.6474296 51.7719326,37.5202341 51.9436389,37.3169298 C52.297458,36.8988527 52.3016206,36.3004082 52.3833111,35.7587847 C52.465522,35.2161186 52.7376505,34.6025566 53.2767042,34.510809 C53.7595632,34.4294873 54.2205686,34.8157655 54.7075901,34.7683278 C55.1108397,34.7292308 55.426155,34.4023801 55.6415683,34.0588479 C55.8569817,33.715837 56.0172409,33.3295589 56.3023774,33.0418051 C57.0651697,32.2708126 58.3238289,32.4751595 59.1282469,31.7797545 C59.7947796,31.2042469 60.129867,30.1178721 60.4862877,29.3474009 C61.5727203,26.9958477 61.2704131,24.7855649 62.6804861,22.542962 C63.476579,21.2756985 64.3850614,20.0193821 65.4402747,18.9549016 C66.5199431,17.8659203 68.0928769,18.0280425 69.4176171,17.4905893 C70.1304584,17.2007503 70.7912675,16.71282 71.1352004,16.0236705 C71.200761,15.8917834 71.2553948,15.7484278 71.246029,15.6009018 C71.1690214,14.4233007 68.7999947,14.4561422 68.9659775,12.6514255 C69.0611964,11.6229142 69.515958,10.342097 70.0331582,9.44807935 C70.6788779,8.33146953 71.68362,7.17159238 72.6946059,6.37766299 C73.3179518,5.88869006 74.0687766,5.52587006 74.8601866,5.49876282 C75.7827177,5.46592136 76.6558182,5.88139196 77.5590975,6.07010006 C81.3236281,6.85568876 80.4172269,1.61200147 83.0557805,0.3629832 C84.7593151,-0.443457226 86.0122508,0.285831821 87.2251217,0.70599406 C88.294904,1.07715475 90.3564203,0.217542425 90.6920281,1.86482862 C90.7508245,2.15675276 90.7482228,2.52687086 91.0146278,2.65823672 C91.1290986,2.71453638 91.2633418,2.70567439 91.3903004,2.69316336 C92.3060673,2.60141577 93.2051839,2.37465327 94.1219915,2.30115095 C95.0398398,2.22660603 96.0086796,2.3199175 96.7855205,2.81410336 C97.971855,3.56945706 97.987985,4.66104481 98.1024558,5.89963722 C98.1841464,6.78844195 98.390194,7.70956686 99.487033,7.63502195 C101.12969,7.52346522 102.257748,4.75800533 103.597578,4.25756395 C105.852654,3.41828206 110.291522,6.14412368 111.43571,7.54900859 C113.457682,10.030885 112.33899,11.8340379 112.77606,14.155356 C113.134562,16.0638101 114.409872,15.7145437 114.178328,18.021787 C114.114849,18.6499452 112.955571,19.1488227 112.899377,19.8129501 C112.642858,22.8427056 112.568452,21.2532829 114.595106,23.5855482 C115.800172,24.9711453 116.412592,25.7968736 116.929792,27.4488514 C117.587999,29.5517478 118.698887,31.0416034 120.418552,32.2713339 C123.595639,34.5452144 124.297033,32.8374582 123.708028,37.8637662 C124.265293,38.3746335 127.848752,37.621365 129.100126,38.3803677 C130.208933,39.0533571 130.309875,39.2300755 131.048213,40.0021105 C131.039367,39.992206 130.208933,40.9279271 130.616866,41.4033464 C131.10857,41.9778114 132.27097,41.8547862 132.640398,42.4188254 Z M70.1947443,64.0808189 C70.1947443,64.0808189 66.4210832,70.6864067 64.4706688,74 C63.1693711,73.7529292 62.2061657,73.5664408 62.1474337,73.5543243 C59.8032593,73.2271794 57.373285,73.1276136 55,73.2803866 C55.0158321,73.2698505 55.0331964,73.257734 55.0495392,73.2456175 C56.0239803,72.5444422 56.3150869,71.210576 55.7640272,70.1564424 L61.1494997,63.3949209 L64.935418,58.5736162 L69.0221464,53.4968119 C69.5762704,53.761794 70.0052696,53.9182546 70.0052696,53.9182546 L71.2815424,52.0760232 C71.4127957,51.9411615 71.5328133,51.7915493 71.6334239,51.6213919 C73.1001927,49.1401479 75.1129141,46.8559284 77,45 L76.3003227,53.692256 C76.299812,53.6991044 76.2993013,53.7064797 76.2987905,53.7128013 C76.2727442,53.719123 76.2579335,53.7228106 76.2579335,53.7228106 L70.1947443,64.0808189 Z M81.5220911,61.9137671 L84,79.582884 C83.9523865,79.7229412 83.9022669,79.8619799 83.8481379,80 C83.7198319,79.8945751 82.4031922,78.3473241 81.8218058,78.3025058 C81.059488,78.2429178 79.1654715,78.7797191 78.5204333,78.4736303 C77.9831521,78.2199993 77.4403578,76.4130058 77.0549387,76.1965536 C75.8986815,75.5477065 74.0923741,75.1922156 72.1978564,74.9126104 C72.0855887,74.9243243 71.6405274,74.8652455 71,74.7628764 L76.1101858,67.1101467 L79.8210348,61.3077011 C80.4104403,60.6904304 81.4408975,61.0576351 81.5220911,61.9137671 Z M53.1693206,71.0146058 C53.7123952,71.1074514 54.0788946,71.625081 53.9854494,72.1675907 C53.8920042,72.7125278 53.3750215,73.0784488 52.8307334,72.9856032 C52.2858385,72.8921507 51.9211594,72.375128 52.0146047,71.8307978 C52.1080499,71.2858607 52.6250326,70.9211533 53.1693206,71.0146058 Z" id="Fill-3" fill="url(#linearGradient-1)"></path>
                        <polygon id="Fill-9" fill="#022835" points="21 114 18.1094623 114 18.1094623 101.080041 18.0303771 101.080041 11.9848115 114 9.0413757 114 2.96962291 101.080041 2.91672486 101.080041 2.91672486 114 0 114 0 97 0.0528980447 97.0785219 0.0261871508 97 3.95059358 97 10.4732891 111.070408 10.5261872 111.070408 17.0755936 97 21 97"></polygon>
                        <polygon id="Fill-11" fill="#022835" points="38 114 26 114 26 97 37.3882538 97 37.3882538 99.3535918 29.0329786 99.3535918 29.0329786 104.271028 36.5899356 104.271028 36.5899356 106.546098 29.0329786 106.546098 29.0329786 111.645892 38 111.645892"></polygon>
                        <path d="M45.0602194,99.4847306 L45.0602194,111.515269 L48.6846518,111.515269 C52.7921652,111.515269 54.8591787,109.55383 54.8591787,105.552432 C54.8591787,101.498344 52.7651211,99.4847306 48.631094,99.4847306 L45.0602194,99.4847306 Z M58,105.552432 C58,111.044152 54.7785769,114 48.6576078,114 L42,114 L42,97 L48.631094,97 C54.6444172,97 58,99.9558479 58,105.552432 Z" id="Fill-13" fill="#022835"></path>
                        <path d="M76.3617568,100.991763 C76.3617568,100.991763 74.1948292,99.2736238 72.0550403,99.2736238 C69.8354009,99.2736238 68.6731302,100.251465 68.6731302,101.863623 C68.6731302,105.616799 78,104.004641 78,109.634666 C78,112.911712 75.6749368,115 71.5529728,115 C66.717572,115 65,112.30402 65,112.30402 L66.5062026,110.295087 C66.5062026,110.295087 68.3819102,112.541563 71.7111084,112.541563 C73.9573648,112.541563 75.0669236,111.405012 75.0669236,109.898834 C75.0669236,106.330994 65.7134369,108.074714 65.7134369,102.048437 C65.7134369,99.0882882 68.065117,97 71.9224778,97 C75.9124011,97 77.3126581,98.9828296 77.3126581,98.9828296 L76.3617568,100.991763 Z" id="Fill-15" fill="#022835"></path>
                        <polygon id="Fill-17" fill="#022835" points="94 115 82 115 82 98 93.3882538 98 93.3882538 100.353663 85.0329786 100.353663 85.0329786 105.270733 92.5899356 105.270733 92.5899356 107.545872 85.0329786 107.545872 85.0329786 112.64582 94 112.64582"></polygon>
                        <path d="M100.793154,100.249309 L100.793154,107.205944 L102.907742,107.205944 C105.387911,107.205944 106.745042,106.238338 106.745042,103.649102 C106.745042,101.399793 105.361614,100.249309 102.673132,100.249309 L100.793154,100.249309 Z M109.799619,103.544747 C109.799619,106.316863 108.389378,107.96484 106.509916,108.775397 L111,115 L107.580359,115 L103.586308,109.376728 L100.793154,109.376728 L100.793154,115 L98,115 L98,98 L103.194947,98 C107.371529,98 109.799619,99.9352114 109.799619,103.544747 Z" id="Fill-19" fill="#022835"></path>
                        <polygon id="Fill-21" fill="#022835" points="118.546483 115 112 98 115.220317 98 120.500261 112.148844 120.526332 112.148844 125.779683 98 129 98 122.479588 115"></polygon>
                        <polygon id="Fill-23" fill="#022835" points="132 115 135 115 135 98 132 98"></polygon>
                        <path d="M153.105325,101.652319 C153.105325,101.652319 150.395081,99.5373437 148.157857,99.5373437 C144.183977,99.5373437 142.052792,102.101314 142.052792,106.09267 C142.052792,110.030774 144.368507,112.462656 148.026347,112.462656 C151.710698,112.462656 153.815893,109.87206 153.815893,109.87206 L155,111.670128 C155,111.670128 153.105325,115 147.894838,115 C142.105292,115 139,111.511413 139,106.09267 C139,100.67445 142.289302,97 147.947338,97 C152.473766,97 154.236932,99.7226847 154.236932,99.7226847 L153.105325,101.652319 Z" id="Fill-25" fill="#022835"></path>
                        <polygon id="Fill-26" fill="#022835" points="170 115 158 115 158 98 169.388254 98 169.388254 100.353663 161.032979 100.353663 161.032979 105.270733 168.589936 105.270733 168.589936 107.545872 161.032979 107.545872 161.032979 112.64582 170 112.64582"></polygon>
                        <path d="M43.1248063,130.04032 L43.1248063,134.280309 L45.437677,134.280309 C47.7500134,134.280309 48.729337,133.500217 48.729337,132.060047 C48.729337,130.699886 47.77085,130.04032 46.1664262,130.04032 L43.1248063,130.04032 Z M46.0627772,128.620152 C46.8540364,128.620152 48.0625634,128.1801 48.0625634,126.639918 C48.0625634,125.340277 47.0832398,124.700201 45.3746327,124.700201 L43.1248063,124.700201 L43.1248063,128.620152 L46.0627772,128.620152 Z M41,123 L45.478816,123 C48.8960303,123 50.2707165,124.560185 50.2707165,126.39989 C50.2707165,127.700556 49.4794572,128.560145 48.5834803,129.100209 C50.1248598,129.600268 51,130.719888 51,132.180061 C51,134.499822 49.4580862,136 45.5621627,136 L41,136 L41,123 Z" id="Fill-27" fill="#022835"></path>
                        <polygon id="Fill-28" fill="#022835" points="63 136 54 136 54 123 62.5414534 123 62.5414534 124.800213 56.2748209 124.800213 56.2748209 128.560145 61.9421699 128.560145 61.9421699 130.300351 56.2748209 130.300351 56.2748209 134.199787 63 134.199787"></polygon>
                        <polygon id="Fill-29" fill="#022835" points="75 136 66 136 66 123 68.3368772 123 68.3368772 134.199787 75 134.199787"></polygon>
                        <path d="M79.0373925,131.419971 L83.882367,131.419971 L81.4803281,124.699688 L79.0373925,131.419971 Z M83.0344059,123 L88,136 L85.6383402,136 L84.4476744,132.940151 L78.4720851,132.940151 L77.3217983,136 L75,136 L79.9459223,123 L83.0344059,123 Z" id="Fill-30" fill="#022835"></path>
                        <path d="M93.1484113,124.720204 L93.1484113,130.04032 L94.7751686,130.04032 C96.6825789,130.04032 97.7269169,129.300233 97.7269169,127.319998 C97.7269169,125.600308 96.6624955,124.720204 94.5944178,124.720204 L93.1484113,124.720204 Z M100.076677,127.239989 C100.076677,129.36024 98.9921726,130.620389 97.5461661,131.23995 L101,136 L98.3695865,136 L95.2973377,131.700004 L93.1484113,131.700004 L93.1484113,136 L91,136 L91,123 L94.9960863,123 C98.2089191,123 100.076677,124.480175 100.076677,127.239989 Z" id="Fill-31" fill="#022835"></path>
                        <path d="M103,131.996765 L103,123 L105.239593,123 L105.239593,131.513747 C105.239593,133.467925 106.221871,134.856065 108.499748,134.856065 C110.778633,134.856065 111.76091,133.467925 111.76091,131.513747 L111.76091,123 L114,123 L114,131.996765 C114,134.771429 112.409214,137 108.499748,137 C104.59129,137 103,134.771429 103,131.996765" id="Fill-32" fill="#022835"></path>
                        <path d="M125.740162,126.104609 C125.740162,126.104609 124.073234,124.768188 122.427157,124.768188 C120.719573,124.768188 119.825124,125.52892 119.825124,126.782573 C119.825124,129.702139 127,128.447959 127,132.826781 C127,135.375734 125.211624,137 122.040396,137 C118.321345,137 117,134.902847 117,134.902847 L118.158718,133.340789 C118.158718,133.340789 119.601512,135.08789 122.162888,135.08789 C123.890279,135.08789 124.744071,134.203796 124.744071,133.032384 C124.744071,130.257268 117.548866,131.613722 117.548866,126.927022 C117.548866,124.624266 119.357571,123 122.324993,123 C125.394579,123 126.471462,124.542024 126.471462,124.542024 L125.740162,126.104609 Z" id="Fill-33" fill="#022835"></path>
                        <polygon id="Fill-34" fill="#022835" points="0 130 32 130 32 129 0 129"></polygon>
                        <polygon id="Fill-35" fill="#022835" points="138 130 170 130 170 129 138 129"></polygon>
                    </g>
                </g>
            </g>
        </g>
    </g>
</svg>