<?xml version="1.0" encoding="UTF-8"?>
<svg width="9px" height="17px" viewBox="0 0 9 17" version="1.1" xmlns="http://www.w3.org/2000/svg" xmlns:xlink="http://www.w3.org/1999/xlink">
    <!-- Generator: sketchtool 51.2 (57519) - http://www.bohemiancoding.com/sketch -->
    <title>05AFBAF0-C3A5-4704-A900-53CBD2594FE5</title>
    <desc>Created with sketchtool.</desc>
    <defs></defs>
    <g id="Page-1" stroke="none" stroke-width="1" fill="none" fill-rule="evenodd">
        <g id="medservicebel_index_15_hover" transform="translate(-353.000000, -104.000000)" fill="#0088CC">
            <g id="Выбор-валюты" transform="translate(337.000000, 44.000000)">
                <g id="руб-copy-2" transform="translate(16.000000, 60.000000)">
                    <path d="M7.10546875,11.887207 C7.10546875,11.6381823 7.06396526,11.4085297 6.98095703,11.1982422 C6.8979488,10.9879547 6.76375418,10.7915048 6.57836914,10.6088867 C6.3929841,10.4262686 6.15226385,10.2574878 5.85620117,10.1025391 C5.56013849,9.94759037 5.19629122,9.7981778 4.76464844,9.65429688 C4.23892966,9.4938143 3.76717331,9.30704859 3.34936523,9.09399414 C2.93155716,8.88093969 2.57601058,8.63053529 2.28271484,8.34277344 C1.98941911,8.05501158 1.76530025,7.72298365 1.61035156,7.34667969 C1.45540287,6.97037572 1.37792969,6.53597251 1.37792969,6.04345703 C1.37792969,5.58414484 1.44710217,5.16495958 1.58544922,4.78588867 C1.72379626,4.40681777 1.92162957,4.07755674 2.17895508,3.7980957 C2.43628058,3.51863467 2.74755677,3.29174892 3.11279297,3.11743164 C3.47802917,2.94311436 3.89029718,2.82828804 4.34960938,2.77294922 L4.34960938,0.955078125 L5.58642578,0.955078125 L5.58642578,2.78125 C6.51611793,2.90852928 7.23966213,3.2986621 7.75708008,3.95166016 C8.27449803,4.60465821 8.53320312,5.49836672 8.53320312,6.6328125 L7.00585938,6.6328125 C7.00585938,6.26204242 6.96158898,5.92171379 6.87304688,5.61181641 C6.78450477,5.30191902 6.65307704,5.03352978 6.47875977,4.80664062 C6.30444249,4.57975147 6.08862433,4.40266991 5.83129883,4.27539062 C5.57397332,4.14811134 5.27929854,4.08447266 4.94726562,4.08447266 C4.59863107,4.08447266 4.29703903,4.13150995 4.04248047,4.22558594 C3.7879219,4.31966193 3.57763755,4.45108965 3.41162109,4.61987305 C3.24560464,4.78865644 3.12109417,4.99202355 3.03808594,5.22998047 C2.95507771,5.46793739 2.91357422,5.73079283 2.91357422,6.01855469 C2.91357422,6.28418102 2.95231081,6.52351781 3.02978516,6.73657227 C3.1072595,6.94962672 3.23730377,7.14469312 3.41992188,7.32177734 C3.60253998,7.49886156 3.84602712,7.66625898 4.15039062,7.82397461 C4.45475413,7.98169024 4.83658625,8.13525316 5.29589844,8.28466797 C5.82715109,8.45621831 6.30029089,8.64851781 6.71533203,8.86157227 C7.13037317,9.07462672 7.48038594,9.32226421 7.76538086,9.60449219 C8.05037577,9.88672016 8.26757738,10.2132143 8.41699219,10.5839844 C8.566407,10.9547545 8.64111328,11.3836239 8.64111328,11.8706055 C8.64111328,12.3520532 8.566407,12.7836895 8.41699219,13.1655273 C8.26757738,13.5473652 8.05314267,13.8766262 7.77368164,14.1533203 C7.49422061,14.4300144 7.15665888,14.6513664 6.76098633,14.8173828 C6.36531378,14.9833993 5.92399332,15.0913083 5.43701172,15.1411133 L5.43701172,16.7265625 L4.20849609,16.7265625 L4.20849609,15.1411133 C3.78238719,15.1023761 3.37150263,15.0055346 2.97583008,14.8505859 C2.58015753,14.6956372 2.2287613,14.4715184 1.92163086,14.1782227 C1.61450042,13.8849269 1.36962982,13.5127789 1.18701172,13.0617676 C1.00439362,12.6107562 0.913085938,12.0698274 0.913085938,11.4389648 L2.44873047,11.4389648 C2.44873047,11.9093448 2.51790295,12.2994776 2.65625,12.609375 C2.79459705,12.9192724 2.97582896,13.1655264 3.19995117,13.3481445 C3.42407339,13.5307626 3.67309433,13.65804 3.94702148,13.7299805 C4.22094864,13.8019209 4.49625513,13.8378906 4.77294922,13.8378906 C5.1437193,13.8378906 5.47298033,13.7922368 5.76074219,13.7009277 C6.04850404,13.6096187 6.29199119,13.4795744 6.49121094,13.310791 C6.69043068,13.1420076 6.84261015,12.9372571 6.94775391,12.6965332 C7.05289766,12.4558093 7.10546875,12.1860367 7.10546875,11.887207 Z" id="$"></path>
                </g>
            </g>
        </g>
    </g>
</svg>