<?xml version="1.0" encoding="UTF-8"?>
<svg width="22px" height="22px" viewBox="0 0 22 22" version="1.1" xmlns="http://www.w3.org/2000/svg" xmlns:xlink="http://www.w3.org/1999/xlink">
    <!-- Generator: sketchtool 51.2 (57519) - http://www.bohemiancoding.com/sketch -->
    <title>A5088839-9246-43CF-A305-4D4877A6E68B</title>
    <desc>Created with sketchtool.</desc>
    <defs></defs>
    <g id="Page-1" stroke="none" stroke-width="1" fill="none" fill-rule="evenodd">
        <g id="medservicebel_text_05_hover" transform="translate(-889.000000, -18.000000)" fill-rule="nonzero">
            <g id="Header">
                <g id="Верхнее-меню" transform="translate(48.000000, 13.000000)">
                    <g id="viber" transform="translate(841.000000, 5.000000)">
                        <g id="Group">
                            <path d="M21.4914587,5.33489457 L21.4849241,5.30959105 C20.9563432,3.24102875 18.5733729,1.02134824 16.3849901,0.559559105 L16.3603036,0.554638978 C12.8206997,-0.0990351438 9.23172277,-0.0990351438 5.69284488,0.554638978 L5.66743234,0.559559105 C3.47977558,1.02134824 1.09680528,3.24102875 0.56749835,5.30959105 L0.561689769,5.33489457 C-0.0917755776,8.22371246 -0.0917755776,11.1532971 0.561689769,14.042115 L0.56749835,14.0674185 C1.07422442,16.0476997 3.27974257,18.165393 5.38644224,18.7477955 L5.38644224,21.0568818 C5.38644224,21.8926006 6.43852145,22.3030799 7.03680528,21.7000128 L9.45353795,19.2681342 C9.97768977,19.2965304 10.502132,19.312345 11.0265743,19.312345 C12.8083564,19.312345 14.5908647,19.149278 16.3603036,18.8224409 L16.3849901,18.8175208 C18.5733729,18.3557316 20.9563432,16.1360511 21.4849241,14.0674888 L21.4914587,14.0421853 C22.1449241,11.1532971 22.1449241,8.22371246 21.4914587,5.33489457 Z" id="Shape" fill="#7D3DAF"></path>
                            <path d="M21.4914587,5.33489457 L21.4849241,5.30959105 C20.9563432,3.24102875 18.5733729,1.02134824 16.3849901,0.559559105 L16.3603036,0.554638978 C12.8206997,-0.0990351438 9.23172277,-0.0990351438 5.69284488,0.554638978 L5.66743234,0.559559105 C3.47977558,1.02134824 1.09680528,3.24102875 0.56749835,5.30959105 L0.561689769,5.33489457 C-0.0917755776,8.22371246 -0.0917755776,11.1532971 0.561689769,14.042115 L0.56749835,14.0674185 C1.07422442,16.0476997 3.27974257,18.165393 5.38644224,18.7477955 L5.38644224,21.0568818 C5.38644224,21.8926006 6.43852145,22.3030799 7.03680528,21.7000128 L9.45353795,19.2681342 C9.97768977,19.2965304 10.502132,19.312345 11.0265743,19.312345 C12.8083564,19.312345 14.5908647,19.149278 16.3603036,18.8224409 L16.3849901,18.8175208 C18.5733729,18.3557316 20.9563432,16.1360511 21.4849241,14.0674888 L21.4914587,14.0421853 C22.1449241,11.1532971 22.1449241,8.22371246 21.4914587,5.33489457 Z M19.5789835,13.6232013 C19.2261122,14.972722 17.4167393,16.6504856 15.9791155,16.9604537 C14.0970627,17.306901 12.2001254,17.4549968 10.3050759,17.4041789 C10.2673927,17.4031949 10.2311617,17.4173227 10.2048779,17.4434696 C9.93594059,17.7107029 8.44030363,19.1970032 8.44030363,19.1970032 L6.56340594,21.0617316 C6.42617822,21.2001981 6.18512211,21.1060128 6.18512211,20.9148307 L6.18512211,17.0896422 C6.18512211,17.0264537 6.13850825,16.972754 6.07439604,16.9605942 C6.074033,16.960524 6.07366997,16.9604537 6.07330693,16.9603834 C4.63568317,16.6504153 2.8270363,14.9726518 2.47343894,13.623131 C1.88532013,11.0119489 1.88532013,8.36492013 2.47343894,5.75373802 C2.8270363,4.40421725 4.63568317,2.72645367 6.07330693,2.41648562 C9.36023762,1.8113099 12.6929109,1.8113099 15.9791155,2.41648562 C17.4174653,2.72645367 19.2261122,4.40421725 19.5789835,5.75373802 C20.1677558,8.36499042 20.1677558,11.0120192 19.5789835,13.6232013 Z" id="Shape-Copy-2" fill="#FFFFFF"></path>
                            <path d="M14.1538416,15.3888946 C13.9328251,15.3239489 13.7221914,15.2803003 13.5265875,15.2017188 C11.4996832,14.3876486 9.63425743,13.3374121 8.15662706,11.727476 C7.31634323,10.8119808 6.65866667,9.77840256 6.10271287,8.68458786 C5.83907591,8.16586581 5.61689769,7.62683067 5.39043564,7.0913099 C5.18394059,6.60295208 5.48809241,6.09842812 5.80836304,5.73047284 C6.10888449,5.38515016 6.49559076,5.12086901 6.91438944,4.92610224 C7.24126733,4.77407029 7.56371617,4.86171885 7.80244884,5.1299361 C8.31854125,5.70980831 8.79259406,6.31934185 9.17646865,6.9915016 C9.41251485,7.40493291 9.34774917,7.91030032 8.91994719,8.19166134 C8.8159736,8.26005112 8.72122112,8.34031949 8.62436304,8.4175655 C8.53941254,8.4852524 8.45947195,8.55364217 8.40124092,8.64529712 C8.29479868,8.81300319 8.28971617,9.01079233 8.35825743,9.19311821 C8.88582178,10.5966198 9.7750429,11.6879744 11.2343036,12.2757891 C11.4678086,12.3698339 11.70233,12.4793419 11.9713399,12.4489776 C12.421868,12.3980192 12.567736,11.9196422 12.8834323,11.6696997 C13.1920132,11.4254505 13.5863432,11.4222173 13.9187393,11.6258403 C14.2512079,11.8295335 14.5735116,12.0481981 14.8938548,12.2691821 C15.2083168,12.4860895 15.5213993,12.6982875 15.8114653,12.9455591 C16.0903498,13.1833419 16.1864092,13.495278 16.0293597,13.8179681 C15.741835,14.4089457 15.3234719,14.900607 14.7199604,15.2144409 C14.5495512,15.3029329 14.346033,15.3316102 14.1538416,15.3888946 C13.9328251,15.3238786 14.346033,15.3316102 14.1538416,15.3888946 Z M11.0320924,4.25035783 C13.6833465,4.32226198 15.8609109,6.02553994 16.3275578,8.56292013 C16.4070627,8.99525879 16.4353795,9.43729712 16.4707393,9.87610224 C16.4856238,10.0606773 16.3776568,10.2360447 16.1718878,10.2384345 C15.9593663,10.2408946 15.8637426,10.0687604 15.8499472,9.88425559 C15.8226469,9.51904153 15.8036964,9.15221086 15.7517096,8.79001917 C15.4772541,6.8781278 13.9024026,5.296377 11.9365611,4.95695847 C11.6407591,4.90585942 11.3379868,4.8924345 11.0383366,4.862 C10.8489043,4.84274121 10.6008053,4.83163578 10.5588383,4.60369329 C10.5236238,4.41258147 10.6902574,4.26040895 10.8782376,4.25063898 C10.9293531,4.24789776 10.9807591,4.25014696 11.0320924,4.25035783 C13.6833465,4.32226198 10.9807591,4.25014696 11.0320924,4.25035783 Z M15.0612145,9.3065623 C15.0568581,9.33861342 15.0545347,9.41396166 15.0351485,9.48495208 C14.9647921,9.7426262 14.5612409,9.77488818 14.4683036,9.51482428 C14.4407855,9.43764856 14.4366469,9.34985942 14.4365017,9.26677955 C14.4355578,8.72317572 14.313505,8.18013419 14.0303366,7.70716933 C13.7392541,7.2210607 13.2945347,6.81240895 12.7729241,6.56513738 C12.4575182,6.41563578 12.1164092,6.32271565 11.7707261,6.26732907 C11.6196304,6.24315016 11.4669373,6.22846006 11.3151155,6.20800639 C11.1311287,6.18326518 11.0328911,6.0697508 11.041604,5.89424281 C11.049736,5.72976997 11.1738944,5.61147604 11.3590429,5.62159744 C11.9674917,5.65505431 12.5551749,5.78234505 13.096099,6.05962939 C14.196099,6.62354633 14.8244422,7.51366773 15.0078482,8.70223003 C15.0161254,8.75607029 15.0294851,8.80941853 15.0336964,8.86346965 C15.0440792,8.99694569 15.0506139,9.1305623 15.0612145,9.3065623 C15.0568581,9.33861342 15.0506139,9.1305623 15.0612145,9.3065623 Z M13.4121584,9.24442812 C13.1903432,9.24829393 13.0716304,9.1294377 13.0487591,8.9325623 C13.0328581,8.79529073 13.020297,8.65619169 12.986462,8.52264537 C12.9198086,8.25962939 12.7753927,8.0158722 12.5468251,7.85470288 C12.4389307,7.77858147 12.3166601,7.7231246 12.1885809,7.68734824 C12.025868,7.6418722 11.8569109,7.65438339 11.6945611,7.61586581 C11.5182706,7.57404473 11.4207591,7.43585942 11.448495,7.27574441 C11.4736898,7.13003834 11.6201386,7.0163131 11.7845941,7.02784026 C12.812495,7.09967412 13.5471353,7.61410863 13.6519802,8.78552077 C13.6593861,8.86817891 13.668099,8.95554633 13.6491485,9.03461981 C13.6166931,9.16999361 13.5131551,9.23782109 13.4121584,9.24442812 C13.1903432,9.24829393 13.5131551,9.23782109 13.4121584,9.24442812 Z" id="Combined-Shape" fill="#FFFFFF"></path>
                        </g>
                    </g>
                </g>
            </g>
        </g>
    </g>
</svg>