<?xml version="1.0" encoding="UTF-8"?>
<svg width="54px" height="16px" viewBox="0 0 54 16" version="1.1" xmlns="http://www.w3.org/2000/svg" xmlns:xlink="http://www.w3.org/1999/xlink">
    <!-- Generator: sketchtool 51.2 (57519) - http://www.bohemiancoding.com/sketch -->
    <title>6EAFA724-A500-4A39-B66E-E45C879FBCF4</title>
    <desc>Created with sketchtool.</desc>
    <defs></defs>
    <g id="Page-1" stroke="none" stroke-width="1" fill="none" fill-rule="evenodd">
        <g id="medservicebel_text_05_hover" transform="translate(-392.000000, -12078.000000)" fill-rule="nonzero">
            <g id="Футер" transform="translate(0.000000, 11913.000000)">
                <g id="Мы-принимаем-к-оплате" transform="translate(392.000000, 128.000000)">
                    <g id="visa" transform="translate(0.000000, 37.000000)">
                        <polygon id="Shape" fill="#3C58BF" points="19.3684211 15.1578947 21.9974326 0.842105263 26.1052632 0.842105263 23.5584082 15.1578947"></polygon>
                        <polygon id="Shape" fill="#293688" points="19.3684211 15.1578947 22.7368421 0.842105263 26.1052632 0.842105263 23.5584082 15.1578947"></polygon>
                        <path d="M38.7368421,0.673684211 C37.9112487,0.336842105 36.5902993,0 34.9391125,0 C30.8111455,0 27.8390093,2.10526316 27.8390093,5.13684211 C27.8390093,7.41052632 29.9029928,8.58947368 31.5541796,9.34736842 C33.2053664,10.1052632 33.7007224,10.6105263 33.7007224,11.2842105 C33.7007224,12.2947368 32.379773,12.8 31.2239422,12.8 C29.5727554,12.8 28.6646027,12.5473684 27.2610939,11.9578947 L26.6831785,11.7052632 L26.1052632,15.1578947 C27.0959752,15.5789474 28.9122807,16 30.8111455,16 C35.1867905,16 38.0763674,13.8947368 38.0763674,10.6947368 C38.0763674,8.92631579 37.003096,7.57894737 34.5263158,6.48421053 C33.0402477,5.72631579 32.1320949,5.30526316 32.1320949,4.54736842 C32.1320949,3.87368421 32.875129,3.2 34.5263158,3.2 C35.9298246,3.2 36.9205366,3.45263158 37.6635707,3.78947368 L38.0763674,3.95789474 L38.7368421,0.673684211 Z" id="Shape" fill="#3C58BF"></path>
                        <path d="M38.7368421,0.673684211 C37.9112487,0.336842105 36.5902993,0 34.9391125,0 C30.8111455,0 28.5820433,2.10526316 28.5820433,5.13684211 C28.5820433,7.41052632 29.9029928,8.58947368 31.5541796,9.34736842 C33.2053664,10.1052632 33.7007224,10.6105263 33.7007224,11.2842105 C33.7007224,12.2947368 32.379773,12.8 31.2239422,12.8 C29.5727554,12.8 28.6646027,12.5473684 27.2610939,11.9578947 L26.6831785,11.7052632 L26.1052632,15.1578947 C27.0959752,15.5789474 28.9122807,16 30.8111455,16 C35.1867905,16 38.0763674,13.8947368 38.0763674,10.6947368 C38.0763674,8.92631579 37.003096,7.57894737 34.5263158,6.48421053 C33.0402477,5.72631579 32.1320949,5.30526316 32.1320949,4.54736842 C32.1320949,3.87368421 32.875129,3.2 34.5263158,3.2 C35.9298246,3.2 36.9205366,3.45263158 37.6635707,3.78947368 L38.0763674,3.95789474 L38.7368421,0.673684211 Z" id="Shape" fill="#293688"></path>
                        <path d="M46.3065356,0.842105263 C45.3071139,0.842105263 44.5575477,0.921637427 44.141122,1.87602339 L37.8947368,15.1578947 L42.3921342,15.1578947 L43.2249855,12.7719298 L48.5552342,12.7719298 L49.0549451,15.1578947 L53.0526316,15.1578947 L49.5546559,0.842105263 L46.3065356,0.842105263 Z M44.3909774,10.3859649 C44.6408329,9.67017544 46.0566802,6.17076023 46.0566802,6.17076023 C46.0566802,6.17076023 46.3898207,5.29590643 46.6396761,4.73918129 L46.8895315,6.09122807 C46.8895315,6.09122807 47.7223829,9.67017544 47.8889532,10.4654971 L44.3909774,10.4654971 L44.3909774,10.3859649 Z" id="Shape" fill="#3C58BF"></path>
                        <path d="M47.3059572,0.842105263 C46.3065356,0.842105263 45.5569693,0.921637427 45.1405437,1.87602339 L37.8947368,15.1578947 L42.3921342,15.1578947 L43.2249855,12.7719298 L48.5552342,12.7719298 L49.0549451,15.1578947 L53.0526316,15.1578947 L49.5546559,0.842105263 L47.3059572,0.842105263 Z M44.3909774,10.3859649 C44.724118,9.59064327 46.0566802,6.17076023 46.0566802,6.17076023 C46.0566802,6.17076023 46.3898207,5.29590643 46.6396761,4.73918129 L46.8895315,6.09122807 C46.8895315,6.09122807 47.7223829,9.67017544 47.8889532,10.4654971 L44.3909774,10.4654971 L44.3909774,10.3859649 Z" id="Shape" fill="#293688"></path>
                        <path d="M11.3684211,10.7836257 L10.9473684,8.71578947 C10.1894737,6.32982456 7.74736842,3.70526316 5.05263158,2.43274854 L8.84210526,15.1578947 L13.3894737,15.1578947 L20.2105263,0.842105263 L15.6631579,0.842105263 L11.3684211,10.7836257 Z" id="Shape" fill="#3C58BF"></path>
                        <path d="M11.3684211,10.7836257 L10.9473684,8.71578947 C10.1894737,6.32982456 7.74736842,3.70526316 5.05263158,2.43274854 L8.84210526,15.1578947 L13.3894737,15.1578947 L20.2105263,0.842105263 L16.5052632,0.842105263 L11.3684211,10.7836257 Z" id="Shape" fill="#293688"></path>
                        <path d="M0,0.842105263 L0.791830322,0.993684211 C6.42262372,2.13052632 10.2937942,5.01052632 11.7894737,8.42105263 L10.205813,1.97894737 C9.9418696,1.06947368 9.15003928,0.842105263 8.18224666,0.842105263 L0,0.842105263 Z" id="Shape" fill="#FFBC00"></path>
                        <path d="M0,0.842105263 C5.6307934,1.99043062 10.2937942,4.97607656 11.7894737,8.42105263 L10.2937942,2.98564593 C10.0298507,2.06698565 9.15003928,1.53110048 8.18224666,1.53110048 L0,0.842105263 Z" id="Shape" fill="#F7981D"></path>
                        <path d="M0,0.842105263 C5.6307934,1.99043062 10.2937942,4.97607656 11.7894737,8.42105263 L10.7336999,5.4354067 C10.4697565,4.51674641 10.1178319,3.59808612 8.88609584,3.215311 L0,0.842105263 Z" id="Shape" fill="#ED7C00"></path>
                        <g id="Group" transform="translate(5.052632, 1.684211)" fill="#051244">
                            <path d="M10.5345133,8.65405619 L7.6460177,5.72631579 L6.28672566,8.99849624 L5.94690265,6.84574594 C5.18230088,4.26244559 2.71858407,1.4208152 0,0.0430550059 L3.82300885,13.8206569 L8.41061947,13.8206569 L10.5345133,8.65405619 Z" id="Shape"></path>
                            <polygon id="Shape" points="18.4353982 13.8206569 14.7823009 10.0318164 14.1026549 13.8206569"></polygon>
                            <path d="M28.2053097,8.48183617 C28.5451327,8.82627622 28.7150442,9.08460625 28.6300885,9.4290463 C28.6300885,10.4623664 27.2707965,10.9790265 26.0814159,10.9790265 C24.3823009,10.9790265 23.4477876,10.7206965 22.0035398,10.1179264 L21.4088496,9.85959636 L20.8141593,13.3901068 C21.8336283,13.8206569 23.7026549,14.251207 25.6566372,14.251207 C28.3752212,14.251207 30.5840708,13.4762169 31.8584071,12.0984567 L28.2053097,8.48183617 Z" id="Shape"></path>
                            <path d="M33.1327434,13.8206569 L37.1256637,13.8206569 L37.9752212,11.2373565 L43.4123894,11.2373565 L43.9221239,13.8206569 L48,13.8206569 L46.5557522,7.53462604 L41.4584071,2.54024535 L41.7132743,3.91800554 C41.7132743,3.91800554 42.5628319,7.79295607 42.7327434,8.65405619 L39.1646018,8.65405619 C39.5044248,7.79295607 40.8637168,4.09022556 40.8637168,4.09022556 C40.8637168,4.09022556 41.2035398,3.14301543 41.4584071,2.54024535" id="Shape"></path>
                        </g>
                    </g>
                </g>
            </g>
        </g>
    </g>
</svg>