<?xml version="1.0" encoding="UTF-8"?>
<svg width="32px" height="32px" viewBox="0 0 32 32" version="1.1" xmlns="http://www.w3.org/2000/svg" xmlns:xlink="http://www.w3.org/1999/xlink">
    <!-- Generator: sketchtool 51.2 (57519) - http://www.bohemiancoding.com/sketch -->
    <title>B67285C0-D5FE-487E-BD90-95A43FDA54A2</title>
    <desc>Created with sketchtool.</desc>
    <defs></defs>
    <g id="Page-1" stroke="none" stroke-width="1" fill="none" fill-rule="evenodd">
        <g id="medservicebel_text_05_hover" transform="translate(-1197.000000, -12067.000000)">
            <g id="Футер" transform="translate(0.000000, 11913.000000)">
                <g id="Соцсети" transform="translate(1196.000000, 154.000000)">
                    <g id="vk" transform="translate(1.000000, 0.000000)">
                        <circle id="Oval-5" stroke="#798484" opacity="0.5" cx="16" cy="16" r="15.5"></circle>
                        <path d="M21.916971,17.7585431 C22.4808005,18.3092546 23.0773016,18.8275422 23.5834611,19.4351812 C23.8077059,19.703978 24.0190801,19.9819326 24.1799621,20.2945387 C24.4096522,20.7403057 24.2022381,21.2291395 23.8032507,21.2556231 L21.3249251,21.2551281 C20.6848622,21.3080954 20.175485,21.0499417 19.7460538,20.6123426 C19.4032513,20.2635999 19.0852,19.8910961 18.7550206,19.5304729 C18.6201272,19.3824614 18.478056,19.2431129 18.3087586,19.1334656 C17.9709064,18.913676 17.6773586,18.9809989 17.4838051,19.3339493 C17.286539,19.6930875 17.2414921,20.0910849 17.2226812,20.4908148 C17.1957026,21.0751878 17.0194749,21.2279019 16.4331218,21.2553756 C15.1802222,21.3140357 13.9914278,21.1239474 12.8865396,20.4922998 C11.9118421,19.9351531 11.1574292,19.1488113 10.5000406,18.2585149 C9.21991473,16.5229692 8.23952447,14.6181262 7.35863356,12.6585832 C7.16037741,12.2172715 7.30541874,11.9811462 7.79227247,11.9719883 C8.60113774,11.9563951 9.41000302,11.9583752 10.2188683,11.9712457 C10.5480577,11.9764435 10.7658671,12.1647992 10.8923452,12.4754252 C11.3294492,13.5508596 11.8653101,14.5740693 12.5368069,15.5230256 C12.7157572,15.7757342 12.8984202,16.0277001 13.158554,16.2061554 C13.4456665,16.403174 13.6644661,16.3380787 13.7998545,16.0175522 C13.8864832,15.8138508 13.9238574,15.5960413 13.9426682,15.3777368 C14.007021,14.6300067 14.0146938,13.8825241 13.903314,13.1377641 C13.834011,12.6717013 13.571897,12.3707282 13.1073193,12.2826143 C12.8706989,12.2378149 12.9053505,12.150196 13.020443,12.0150552 C13.2201842,11.781405 13.4073023,11.6368587 13.7812912,11.6368587 L16.5813808,11.6363636 C17.0226925,11.7229924 17.1216968,11.921001 17.1815944,12.3655304 L17.1840696,15.4772361 C17.1788718,15.6492561 17.2704508,16.1591284 17.5793443,16.2717458 C17.8268551,16.3534244 17.9902122,16.1549207 18.1382237,15.9982464 C18.8097204,15.2856628 19.2881588,14.4446211 19.7166,13.5741256 C19.9056982,13.1902364 20.0688079,12.7929816 20.2272148,12.3949842 C20.3450299,12.1006939 20.5281879,11.9559001 20.8603474,11.9608503 L23.55673,11.9640679 C23.6361809,11.9640679 23.7168695,11.9648105 23.7955779,11.9784236 C24.2500077,12.0561419 24.3745056,12.2516755 24.2339195,12.6949673 C24.0126448,13.3914627 23.5827186,13.971628 23.1624453,14.5532783 C22.7119756,15.1760155 22.2315572,15.7769717 21.7855427,16.4024315 C21.3756648,16.9741814 21.4080888,17.2620365 21.916971,17.7585431 Z" id="Path" fill="#557fb8"></path>
                    </g>
                </g>
            </g>
        </g>
    </g>
</svg>