<?xml version="1.0" encoding="UTF-8"?>
<svg width="12px" height="7px" viewBox="0 0 12 7" version="1.1" xmlns="http://www.w3.org/2000/svg" xmlns:xlink="http://www.w3.org/1999/xlink">
    <!-- Generator: sketchtool 51.2 (57519) - http://www.bohemiancoding.com/sketch -->
    <title>C01A80F3-DA0A-4511-823A-F74DC5C9676A</title>
    <desc>Created with sketchtool.</desc>
    <defs></defs>
    <g id="Page-1" stroke="none" stroke-width="1" fill="none" fill-rule="evenodd">
        <g id="medservicebel_text_05_hover" transform="translate(-446.000000, -27.000000)" fill="#798484">
            <g id="Header">
                <g id="Верхнее-меню" transform="translate(48.000000, 13.000000)">
                    <g id="vk" transform="translate(391.000000, 4.000000)">
                        <path d="M17.0679175,14.2089984 C17.4555504,14.5876126 17.8656448,14.9439353 18.2136295,15.3616871 C18.3677978,15.5464849 18.5131176,15.7375787 18.623724,15.9524954 C18.7816359,16.2589601 18.6390387,16.5950334 18.3647349,16.6132409 L16.660886,16.6129006 C16.2208428,16.6493156 15.8706459,16.4718349 15.575412,16.1709855 C15.3397353,15.9312249 15.121075,15.6751286 14.8940766,15.4272001 C14.8013374,15.3254422 14.7036635,15.2296401 14.5872715,15.1542576 C14.3549981,15.0031523 14.153184,15.0494368 14.020116,15.2920902 C13.8844956,15.5389977 13.8535258,15.8126208 13.8405933,16.0874352 C13.8220455,16.4891916 13.700889,16.5941826 13.2977712,16.6130707 C12.4364027,16.6533995 11.6191066,16.5227138 10.859496,16.0884561 C10.1893915,15.7054177 9.67073259,15.1648077 9.21877788,14.552729 C8.33869138,13.3595414 7.66467308,12.0499617 7.05906057,10.702776 C6.92275947,10.3993741 7.02247538,10.237038 7.35718732,10.2307419 C7.9132822,10.2200216 8.46937708,10.2213829 9.02547195,10.2302314 C9.25178963,10.2338049 9.40153366,10.3632994 9.4884873,10.5768548 C9.78899634,11.316216 10.1574007,12.0196726 10.6190547,12.6720801 C10.7420831,12.8458172 10.8676639,13.0190438 11.0465059,13.1417319 C11.2438957,13.2771821 11.3943204,13.2324291 11.4873999,13.0120671 C11.5469572,12.8720224 11.5726519,12.7222784 11.5855844,12.572194 C11.6298269,12.0581296 11.635102,11.5442353 11.5585284,11.0322128 C11.5108825,10.7117946 11.3306792,10.5048756 11.011282,10.4442973 C10.8486055,10.4134977 10.8724284,10.3532598 10.9515545,10.2603504 C11.0888766,10.0997159 11.2175204,10.0003403 11.4746377,10.0003403 L13.3996993,10 C13.7031011,10.0595573 13.7711666,10.1956882 13.8123462,10.5013022 L13.8140478,12.6405998 C13.8104744,12.7588636 13.8734349,13.1094008 14.0857992,13.1868252 C14.2559629,13.2429792 14.3682709,13.106508 14.4700288,12.9987944 C14.9316828,12.5088932 15.2606092,11.930677 15.5551625,11.3322114 C15.6851675,11.0682875 15.7973054,10.7951748 15.9062102,10.5215517 C15.9872081,10.319227 16.1131292,10.2196813 16.3414888,10.2230846 L18.1952519,10.2252967 C18.2498744,10.2252967 18.3053477,10.2258072 18.3594598,10.2351662 C18.6718803,10.2885976 18.7574726,10.4230269 18.6608197,10.72779 C18.5086933,11.2066306 18.213119,11.6054942 17.9241811,12.0053789 C17.6144832,12.4335107 17.2841956,12.8466681 16.9775606,13.2766716 C16.6957696,13.6697497 16.718061,13.8676501 17.0679175,14.2089984 Z" id="Path"></path>
                    </g>
                </g>
            </g>
        </g>
    </g>
</svg>