<?xml version="1.0" encoding="UTF-8"?>
<svg width="18px" height="12px" viewBox="0 0 18 12" version="1.1" xmlns="http://www.w3.org/2000/svg" xmlns:xlink="http://www.w3.org/1999/xlink">
    <!-- Generator: sketchtool 51.2 (57519) - http://www.bohemiancoding.com/sketch -->
    <title>E8590834-C8E5-4A73-BDF5-A1C7987DD21E</title>
    <desc>Created with sketchtool.</desc>
    <defs>
        <linearGradient x1="0%" y1="1.55572612%" x2="100%" y2="1.55572612%" id="linearGradient-1">
            <stop stop-color="#1EBF9D" offset="0%"></stop>
            <stop stop-color="#1073B9" offset="100%"></stop>
        </linearGradient>
    </defs>
    <g id="Page-1" stroke="none" stroke-width="1" fill="none" fill-rule="evenodd">
        <g id="medservicebel_sanatorij_05_hover" transform="translate(-284.000000, -3166.000000)" fill="url(#linearGradient-1)" fill-rule="nonzero">
            <g id="Услуги-и-преимущества" transform="translate(275.000000, 2664.000000)">
                <g id="Размещение" transform="translate(2.000000, 491.000000)">
                    <g id="sanatorij/svg/volume" transform="translate(16.000000, 17.000000) rotate(-90.000000) translate(-16.000000, -17.000000) translate(10.000000, 8.000000)">
                        <path d="M1.70578647,5.37509881 C1.37446019,4.98868651 0.772813398,4.92749094 0.361248861,5.23837074 C-0.0507081769,5.54956679 -0.116311788,6.11582343 0.214734128,6.50307909 C0.214734128,6.50307909 0.2147902,6.5031318 0.2147902,6.50318451 C1.20439545,7.77427069 1.20439545,9.50145096 0.2147902,10.7725371 C-0.118835004,11.1578426 -0.0569881807,11.7244682 0.352894213,12.0380888 C0.762776606,12.3517095 1.36554483,12.2935711 1.69917004,11.9082657 C1.70135682,11.9057356 1.70354361,11.9032056 1.7057304,11.9006228 C3.27141386,9.97441204 3.27141386,7.30136233 1.70578647,5.37509881 Z" id="Shape"></path>
                        <path d="M5.20984452,3.20559076 C4.89714341,2.83014247 4.32931757,2.77068326 3.94088871,3.07274219 C3.55208941,3.3751084 3.49017364,3.92529814 3.80266307,4.30156584 C3.80266307,4.30161706 3.80271599,4.30161706 3.80271599,4.30166827 C5.95405093,7.08636684 5.95405093,10.9094762 3.80271599,13.6941748 C3.48784518,14.0685476 3.54621535,14.6190958 3.93305663,14.9238179 C4.3198979,15.2285399 4.88878213,15.1720511 5.20365294,14.7976783 C5.2057168,14.79522 5.20778066,14.7927618 5.20984452,14.7902523 C7.86338516,11.3555995 7.86338516,6.64019231 5.20984452,3.20559076 Z" id="Shape"></path>
                        <path d="M8.74515047,0.33519422 C8.44501573,-0.0513281042 7.90000883,-0.112541093 7.52718958,0.198427216 C7.15401477,0.509711871 7.09458718,1.07612973 7.39451875,1.46349564 C7.39451875,1.46354837 7.39456954,1.46354837 7.39456954,1.46360109 C10.6123959,5.93114749 10.6123959,12.0646257 7.39456954,16.5321193 C7.0923523,16.9175345 7.14837677,17.4843214 7.51967224,17.7980314 C7.89096771,18.1117413 8.43699046,18.0535864 8.73920771,17.6681712 C8.74118863,17.6656405 8.74316955,17.6631097 8.74515047,17.6605262 C12.4449498,12.5238549 12.4449498,5.47176009 8.74515047,0.33519422 Z" id="Shape"></path>
                    </g>
                </g>
            </g>
        </g>
    </g>
</svg>