<?xml version="1.0" encoding="UTF-8"?>
<svg width="25px" height="30px" viewBox="0 0 25 30" version="1.1" xmlns="http://www.w3.org/2000/svg" xmlns:xlink="http://www.w3.org/1999/xlink">
    <!-- Generator: sketchtool 51.2 (57519) - http://www.bohemiancoding.com/sketch -->
    <title>1ED57785-3C8A-4341-AC3E-DCF8D410FEBC</title>
    <desc>Created with sketchtool.</desc>
    <defs></defs>
    <g id="Page-1" stroke="none" stroke-width="1" fill="none" fill-rule="evenodd">
        <g id="medservicebel_text_05_hover" transform="translate(-532.000000, -12068.000000)" fill-rule="nonzero">
            <g id="Футер" transform="translate(0.000000, 11913.000000)">
                <g id="Мы-принимаем-к-оплате" transform="translate(392.000000, 128.000000)">
                    <g id="wallet" transform="translate(140.000000, 27.000000)">
                        <path d="M1.97735172,12.75 C0.885304418,12.75 0,11.9105207 0,10.875 C0,9.83947927 0.885304418,9 1.97735172,9 L2.90419008,9 L18.8460416,9.00010986 L19.7728221,9.00010986 C20.8647535,9.00010986 21.75,9.8395342 21.75,10.8749451 L21.75,12.7498901 L1.97735172,12.75 Z" id="Shape" fill="#995A3D"></path>
                        <path d="M5.25,13.1250033 L5.25,0.375055338 C5.25,0.16792823 5.41187321,0 5.61165809,0 L18.3883419,0 C18.5880703,0 18.75,0.167869637 18.75,0.375055338 L18.75,13.1250033 C18.75,13.3321304 18.5881268,13.5 18.3883419,13.5 L5.61160159,13.5 C5.41187321,13.5 5.25,13.3321304 5.25,13.1250033 Z" id="Shape" fill="#00AA96"></path>
                        <path d="M23.9999414,25.0660147 L23.9999414,28.0263827 C23.9999414,29.1163477 23.1045226,30 22.0000439,30 L2.00001465,30 C0.895535943,30 0.00011718607,29.1163477 0.00011718607,28.0263827 L0,11.25 C0,12.3400806 0.89547735,13.2237907 2.00007324,13.2237907 L22.0001025,13.2237329 C23.1045812,13.2237329 24,14.1073852 24,15.1973502 L24,18.1580073 L24,25.0659569 L23.9999414,25.0659569 L23.9999414,25.0660147 Z" id="Shape" fill="#CD7A54"></path>
                        <path d="M21.8571429,12.75 L20.2501256,12.75 C21.4334935,12.7500595 22.3928571,13.6586113 22.3928571,14.7793628 L22.3928571,17.8236448 L22.3928571,24.9267119 L22.3928571,27.9706372 C22.3928571,29.0914481 21.4334307,30 20.25,30 L21.8571429,30 C23.0405736,30 24,29.0913887 24,27.9706372 L24,24.9267119 L24,17.8236448 L24,14.7793628 C24.0000628,13.6584924 23.0406364,12.75 21.8571429,12.75 Z" id="Shape" fill="#BA6F4C"></path>
                        <path d="M3,13.1331565 L3,2.61690078 C3,2.41427709 3.16192971,2.25 3.36165809,2.25 L16.1383419,2.25 C16.3380703,2.25 16.5,2.41427709 16.5,2.61690078 L16.5,13.1331565 C16.5,13.3357802 16.3381268,13.5 16.1383419,13.5 L3.36160159,13.5 C3.16187321,13.5 3,13.3357802 3,13.1331565 Z" id="Shape" fill="#00B39E"></path>
                        <path d="M13.05,3.75 C13.05,4.88367338 13.923084,5.80266323 15,5.80266323 L15,13.5 L5.25,13.5 L5.25,5.80266323 C6.32697311,5.80266323 7.20005713,4.88361325 7.20005713,3.75 L13.05,3.75 Z" id="Shape" fill="#77D2C4"></path>
                        <circle id="Oval" fill="#00B39E" cx="10.125" cy="9.375" r="1.125"></circle>
                        <g id="Group" transform="translate(0.000000, 11.250000)" fill="#D38764">
                            <path d="M2.03211679,4.96551923 L23.9573723,4.96551923 L23.9573723,3.98053846 C23.9571387,2.89315385 23.0648759,2.01173077 21.9642628,2.01173077 L2.03211679,2.01178846 C0.932554745,2.01178846 0.0410510949,1.13215385 0.0389489051,0.0463846154 L0.0389489051,2.99636538 C0.0389489051,4.08386538 0.931270073,4.96551923 2.03211679,4.96551923 Z" id="Shape"></path>
                            <path d="M0.0389489051,13.8272885 L0.0389489051,16.7807885 C0.0389489051,17.8683462 0.931328467,18.7499423 2.03205839,18.7499423 L21.9642044,18.7499423 C23.0648175,18.7499423 23.9570803,17.8685769 23.9573139,16.78125 L23.9573139,15.7964423 L2.03211679,15.7964423 C0.931270073,15.7965 0.0389489051,14.9148462 0.0389489051,13.8272885 Z" id="Shape"></path>
                        </g>
                        <path d="M23.7749829,18 C24.3134789,18 24.75,18.4317202 24.75,18.9642938 L24.75,23.7857062 C24.75,24.3182798 24.3134789,24.75 23.7749829,24.75 L15.9750171,24.75 C15.4365211,24.75 15,24.3182798 15,23.7857062 L15,18.9642938 C15,18.4317202 15.4365211,18 15.9750171,18 L23.7749829,18 Z" id="Shape" fill="#B06746"></path>
                        <path d="M23.8499684,18 L22.5,18 C22.997082,18 23.4000316,18.4317202 23.4000316,18.9642938 L23.4000316,23.7857062 C23.4000316,24.3182798 22.997082,24.75 22.5,24.75 L23.8499684,24.75 C24.3470503,24.75 24.75,24.3182798 24.75,23.7857062 L24.75,18.9642938 C24.7500527,18.4317202 24.3471031,18 23.8499684,18 Z" id="Shape" fill="#995A3D"></path>
                        <circle id="Oval" fill="#F4B641" cx="18" cy="21.75" r="1.5"></circle>
                        <path d="M17.9999805,20.25 C17.7266477,20.25 17.4706583,20.3234737 17.25,20.4512031 C17.6982305,20.7105875 17.9999805,21.1949045 17.9999805,21.75 C17.9999805,22.3050955 17.6981719,22.7894125 17.25,23.0487969 C17.4706583,23.1765263 17.7266477,23.25 17.9999805,23.25 C18.8284159,23.25 19.5,22.5784247 19.5,21.75 C19.5,20.9215753 18.8284745,20.25 17.9999805,20.25 Z" id="Shape" fill="#FB8436"></path>
                        <g id="Group" transform="translate(20.250000, 12.750000)" fill="#CD7A54">
                            <path d="M2.02967213,17.2089201 C2.08420082,17.1981907 2.13762295,17.1847938 2.19055328,17.1700928 C2.20389344,17.1663582 2.21754098,17.1630979 2.2307582,17.159067 C2.2455123,17.1546211 2.26002049,17.1494639 2.27465164,17.1447809 C2.29254098,17.1389716 2.31055328,17.133518 2.3282582,17.1272938 C2.38579918,17.1069613 2.4419877,17.0839613 2.4970082,17.0590052 C2.50340164,17.0561598 2.51004098,17.0534923 2.51643443,17.0505876 C2.54495902,17.0373093 2.5729918,17.0233789 2.60077869,17.0089149 C2.60280738,17.0078479 2.60489754,17.0069588 2.60686475,17.0058918 C2.62745902,16.9951031 2.64756148,16.9836031 2.66778689,16.9721031 C2.67670082,16.9670052 2.68592213,16.9623222 2.69477459,16.9571649 C2.7147541,16.9454871 2.73418033,16.9330387 2.75366803,16.920768 C2.76233607,16.9152552 2.77125,16.9101572 2.77991803,16.9045258 C2.80456967,16.8884613 2.82866803,16.8717448 2.85258197,16.854732 C2.85577869,16.8524794 2.85903689,16.8504046 2.86223361,16.8481521 C2.87913934,16.8359407 2.89555328,16.8231366 2.91202869,16.8103918 C2.92186475,16.8028634 2.93188525,16.7956907 2.94153689,16.7880438 C2.96034836,16.7731057 2.97860656,16.7574562 2.99680328,16.741866 C3.00362705,16.7359974 3.01081967,16.7304253 3.01758197,16.7244381 C3.04235656,16.702683 3.06657787,16.6803943 3.09030738,16.6575722 C3.09036885,16.6575129 3.09036885,16.6575129 3.09043033,16.6574536 C3.10985656,16.6387216 3.12872951,16.6192784 3.14741803,16.5997758 C3.15153689,16.5955077 3.15584016,16.5914768 3.15989754,16.5871495 C3.18122951,16.5645052 3.2020082,16.541268 3.22235656,16.5177345 C3.22352459,16.5163711 3.22469262,16.5151856 3.22586066,16.5138222 C3.24719262,16.4889253 3.26790984,16.4634948 3.2880123,16.4375309 C3.28807377,16.4374716 3.28807377,16.4374124 3.28813525,16.4373531 C3.30663934,16.4135232 3.32440574,16.3892191 3.34180328,16.3646186 C3.34340164,16.362366 3.34512295,16.3602912 3.34665984,16.3580387 C3.36178279,16.3364021 3.37622951,16.3142912 3.3904918,16.2920619 C3.3939959,16.2866082 3.3977459,16.2813918 3.40125,16.2758789 C3.47102459,16.1651469 3.53004098,16.0474201 3.57706967,15.9240619 C3.5772541,15.9235876 3.5775,15.9229948 3.57768443,15.9225206 C3.60043033,15.8625902 3.62016393,15.8012964 3.63706967,15.7388763 C3.63762295,15.7367423 3.63842213,15.7346082 3.63897541,15.7324742 C3.64721311,15.7016495 3.65459016,15.6704098 3.66135246,15.6391108 C3.66165984,15.6375696 3.66209016,15.6362062 3.66245902,15.6346649 C3.66848361,15.6062113 3.67358607,15.5774021 3.67844262,15.5484742 C3.67918033,15.5439691 3.68022541,15.5395232 3.68090164,15.5349588 C3.68538934,15.5065644 3.68901639,15.4778144 3.69221311,15.4490644 C3.69276639,15.4439072 3.69368852,15.4389278 3.6942418,15.4337706 C3.69768443,15.4015232 3.70014344,15.3690387 3.7019877,15.3364356 C3.70211066,15.3346572 3.70229508,15.3328789 3.70241803,15.3310412 C3.70420082,15.2979046 3.705,15.2645309 3.70506148,15.2309794 C3.70506148,15.229616 3.70518443,15.2283119 3.70518443,15.2269485 L3.70518443,14.215067 L2.13147541,14.215067 L2.13147541,15.2264742 C2.13147541,16.3439304 1.1920082,17.2497629 0.0331967213,17.2497629 L1.60690574,17.2497629 C1.65737705,17.2497629 1.70729508,17.247451 1.75684426,17.2440129 C1.8494877,17.2379665 1.94071721,17.2264072 2.02967213,17.2089201 Z" id="Shape"></path>
                            <path d="M2.13135246,2.07486082 L2.13135246,3.08656443 L3.70506148,3.08656443 L3.70506148,2.07450515 C3.705,1.69044072 3.59391393,1.33145103 3.40118852,1.02557474 C3.39872951,1.02166237 3.39602459,1.01786856 3.39344262,1.01395619 C3.3782582,0.990185567 3.36270492,0.966592784 3.34659836,0.943414948 C3.345,0.941162371 3.34321721,0.938969072 3.34161885,0.936657216 C3.32428279,0.912115979 3.30651639,0.887871134 3.28813525,0.864100515 C3.28444672,0.859358247 3.28045082,0.854793814 3.27670082,0.850051546 C3.26004098,0.829007732 3.2432582,0.808023196 3.22586066,0.787631443 C3.22383197,0.785260309 3.22161885,0.783007732 3.21952869,0.780636598 C3.20010246,0.758170103 3.18030738,0.735940722 3.15995902,0.714304124 C3.1532582,0.707131443 3.14606557,0.700373711 3.1392418,0.693378866 C3.12313525,0.676780928 3.10715164,0.660123711 3.0904918,0.644059278 C3.0822541,0.636115979 3.07358607,0.628587629 3.06522541,0.620762887 C3.04942623,0.606121134 3.03387295,0.591242268 3.01764344,0.577015464 C3.00430328,0.565278351 2.99034836,0.554193299 2.97663934,0.542811856 C2.96483607,0.533030928 2.95340164,0.522953608 2.94141393,0.513409794 C2.92641393,0.501494845 2.91086066,0.490113402 2.8954918,0.478613402 C2.88436475,0.470255155 2.87342213,0.461541237 2.86217213,0.453360825 C2.84963115,0.444350515 2.83659836,0.435814433 2.82381148,0.427041237 C2.80918033,0.416963918 2.79479508,0.406649485 2.77991803,0.396927835 C2.76731557,0.388747423 2.75428279,0.381100515 2.7414959,0.373157216 C2.7260041,0.363494845 2.71063525,0.353536082 2.69483607,0.344347938 C2.66797131,0.328579897 2.64061475,0.313582474 2.6130123,0.299 C2.61098361,0.297873711 2.60901639,0.296747423 2.6069877,0.295621134 C2.58196721,0.282579897 2.55651639,0.270131443 2.53088115,0.25803866 C2.52608607,0.255726804 2.52135246,0.253237113 2.5164959,0.250865979 C2.49331967,0.240136598 2.46965164,0.230118557 2.44598361,0.220159794 C2.43842213,0.216958763 2.43110656,0.21346134 2.42348361,0.210378866 C2.39938525,0.20053866 2.37479508,0.191528351 2.35014344,0.182458763 C2.34276639,0.179791237 2.33557377,0.176708763 2.32819672,0.174100515 C2.3064959,0.16639433 2.28436475,0.15957732 2.26229508,0.152582474 C2.25172131,0.149203608 2.24133197,0.145409794 2.23069672,0.142268041 C2.20770492,0.135391753 2.18434426,0.129345361 2.16104508,0.123239691 C2.15102459,0.120631443 2.14125,0.117548969 2.13116803,0.115059278 C2.11942623,0.112154639 2.10743852,0.109842784 2.09563525,0.107115979 C2.05346311,0.0973943299 2.01079918,0.0889768041 1.96764344,0.0817448454 C1.89497951,0.0695927835 1.82120902,0.0609974227 1.74620902,0.0562551546 C1.70004098,0.0533505155 1.65368852,0.0513350515 1.60678279,0.0513350515 L0.0333196721,0.0513350515 C1.19213115,0.0516907216 2.13135246,0.957463918 2.13135246,2.07486082 Z" id="Shape"></path>
                        </g>
                    </g>
                </g>
            </g>
        </g>
    </g>
</svg>