<?xml version="1.0" encoding="UTF-8"?>
<svg width="22px" height="22px" viewBox="0 0 22 22" version="1.1" xmlns="http://www.w3.org/2000/svg" xmlns:xlink="http://www.w3.org/1999/xlink">
    <!-- Generator: sketchtool 51.2 (57519) - http://www.bohemiancoding.com/sketch -->
    <title>87A01FED-CAB7-477F-B230-17672CC303A7</title>
    <desc>Created with sketchtool.</desc>
    <defs>
        <linearGradient x1="50.0037231%" y1="99.9834465%" x2="50.0037231%" y2="-0.0292428198%" id="linearGradient-1">
            <stop stop-color="#20B038" offset="0%"></stop>
            <stop stop-color="#60D66A" offset="100%"></stop>
        </linearGradient>
        <linearGradient x1="49.9785931%" y1="100.000555%" x2="49.9785931%" y2="-0.0460413515%" id="linearGradient-2">
            <stop stop-color="#F9F9F9" offset="0%"></stop>
            <stop stop-color="#FFFFFF" offset="100%"></stop>
        </linearGradient>
    </defs>
    <g id="Page-1" stroke="none" stroke-width="1" fill="none" fill-rule="evenodd">
        <g id="medservicebel_text_05_hover" transform="translate(-863.000000, -17.000000)">
            <g id="Header">
                <g id="Верхнее-меню" transform="translate(48.000000, 13.000000)">
                    <g id="WhatsApp_Logo_8" transform="translate(815.000000, 4.000000)">
                        <path d="M0.956521739,21.0434783 L1.91304348,16.2608696 C1.50425207,14.3723011 1.04078794,12.6625497 0.956521739,10.5217391 C1.04078794,5.42495175 5.52796334,0.956521739 11.4782609,0.956521739 C13.7123185,0.956521739 16.219238,1.9949597 18.173913,3.82608696 C20.000684,5.7501192 21.0434783,8.25705528 21.0434783,10.5217391 C21.0434783,16.3967306 16.5563029,20.8651606 11.4782609,21.0434783 C11.0473997,20.8651606 11.0473997,20.8651606 11.4782609,21.0434783 C9.37260892,20.8651606 7.72941793,20.4455897 6.69565217,20.0869565 L0.956521739,21.0434783 Z" id="shape_3" fill="url(#linearGradient-1)" fill-rule="nonzero"></path>
                        <path d="M0.809433962,21.2113208 L2.26226415,15.9292453 C1.36981132,14.3830189 0.902830189,12.6292453 0.902830189,10.8339623 C0.902830189,5.20943396 5.47924528,0.633018868 11.1037736,0.633018868 C13.8330189,0.633018868 16.3962264,1.69150943 18.3264151,3.62169811 C20.2566038,5.55188679 21.3150943,8.11509434 21.3150943,10.8443396 C21.3150943,16.4688679 16.7386792,21.045283 11.1141509,21.045283 C11.1141509,21.045283 11.1141509,21.045283 11.1141509,21.045283 C9.40188679,21.045283 7.73113208,20.6198113 6.23679245,19.8 L0.809433962,21.2113208 Z M6.4754717,17.9424528 L6.78679245,18.1292453 C8.08396226,18.8971698 9.57830189,19.3122642 11.1037736,19.3122642 C15.7735849,19.3122642 19.5820755,15.5037736 19.5820755,10.8339623 C19.5820755,8.57169811 18.7,6.43396226 17.1018868,4.83584906 C15.5037736,3.23773585 13.3660377,2.34528302 11.1037736,2.34528302 C6.42358491,2.34528302 2.61509434,6.15377358 2.61509434,10.8235849 C2.61509434,12.4216981 3.06132075,13.9886792 3.91226415,15.3377358 L4.10943396,15.659434 L3.24811321,18.7933962 L6.4754717,17.9424528 Z" id="Shape" fill="url(#linearGradient-2)" fill-rule="nonzero"></path>
                        <path d="M8.5509434,6.55849057 C8.36415094,6.13301887 8.15660377,6.12264151 7.98018868,6.12264151 C7.83490566,6.11226415 7.65849057,6.11226415 7.49245283,6.11226415 C7.32641509,6.11226415 7.04622642,6.1745283 6.80754717,6.43396226 C6.56886792,6.69339623 5.91509434,7.30566038 5.91509434,8.56132075 C5.91509434,9.81698113 6.82830189,11.0311321 6.95283019,11.1971698 C7.07735849,11.3632075 8.71698113,14.0198113 11.3113208,15.0471698 C13.4698113,15.8981132 13.9056604,15.7320755 14.3726415,15.6801887 C14.8396226,15.6386792 15.8773585,15.0679245 16.095283,14.4660377 C16.3028302,13.8745283 16.3028302,13.3556604 16.240566,13.2518868 C16.1783019,13.1481132 16.0018868,13.0858491 15.7528302,12.9509434 C15.4933962,12.8264151 14.2481132,12.2037736 14.009434,12.1207547 C13.7707547,12.0377358 13.604717,11.9962264 13.4386792,12.245283 C13.2726415,12.504717 12.7849057,13.0754717 12.6292453,13.2415094 C12.4839623,13.4075472 12.3283019,13.4283019 12.0792453,13.3037736 C11.8198113,13.1792453 11,12.909434 10.0245283,12.0377358 C9.26698113,11.3632075 8.75849057,10.5226415 8.60283019,10.2735849 C8.45754717,10.0141509 8.58207547,9.87924528 8.71698113,9.75471698 C8.83113208,9.64056604 8.97641509,9.45377358 9.1009434,9.30849057 C9.2254717,9.16320755 9.26698113,9.0490566 9.36037736,8.88301887 C9.44339623,8.71698113 9.40188679,8.56132075 9.33962264,8.43679245 C9.27735849,8.32264151 8.77924528,7.06698113 8.5509434,6.55849057 Z" id="Shape" fill="#FFFFFF"></path>
                    </g>
                </g>
            </g>
        </g>
    </g>
</svg>