<?xml version="1.0" encoding="UTF-8"?>
<svg width="22px" height="18px" viewBox="0 0 22 18" version="1.1" xmlns="http://www.w3.org/2000/svg" xmlns:xlink="http://www.w3.org/1999/xlink">
    <!-- Generator: sketchtool 51.2 (57519) - http://www.bohemiancoding.com/sketch -->
    <title>A9379227-11C7-4C39-8BA6-43444E8CF219</title>
    <desc>Created with sketchtool.</desc>
    <defs></defs>
    <g id="Page-1" stroke="none" stroke-width="1" fill="none" fill-rule="evenodd">
        <g id="medservicebel_str_napravlenija_05_hover" transform="translate(-1347.000000, -1429.000000)" fill="#0088CC" fill-rule="nonzero">
            <g id="Карточка" transform="translate(392.000000, 1214.000000)">
                <g id="Group-10" transform="translate(828.000000, 24.000000)">
                    <g id="вип-палаты" transform="translate(50.000000, 191.000000)">
                        <g id="str_napravlenija/svg/wifi" transform="translate(77.000000, 0.000000)">
                            <circle id="Oval" cx="11.0456471" cy="14.5810588" r="2.56870588"></circle>
                            <path d="M17.1847059,8.39223529 C17.1465882,8.35305882 17.1063529,8.31811765 17.0671765,8.28211765 L16.9517647,8.17305882 C16.9327059,8.15294118 16.9115294,8.13811765 16.8871765,8.11905882 C13.5656471,5.10141176 8.48223529,5.22105882 5.31211765,8.39117647 L4.94047059,8.76388235 L4.42588235,9.27847059 C3.79905882,9.90529412 3.80223529,10.9270588 4.43011765,11.5549412 C5.05905882,12.1849412 6.08082353,12.186 6.70658824,11.5591765 L7.59388235,10.6718824 C9.60988235,8.65694118 12.8890588,8.65694118 14.904,10.6708235 L15.5445882,11.2912941 C16.1650588,11.9117647 17.1772941,11.9107059 17.8009412,11.286 C18.1027059,10.9852941 18.2689412,10.584 18.27,10.1572941 C18.2710588,9.73270588 18.1069412,9.33141176 17.8051765,9.03176471 L17.1847059,8.39223529 Z" id="Shape"></path>
                            <path d="M21.5608235,5.21682353 L21.0271765,4.68317647 C21.0250588,4.68105882 21.024,4.67788235 21.0197647,4.67682353 L20.5983529,4.25329412 C20.5242353,4.18023529 20.4437647,4.11670588 20.3590588,4.06164706 C14.9452941,-0.691411765 6.71082353,-0.545294118 1.46964706,4.49682353 C1.44423529,4.52011765 1.41564706,4.536 1.39023529,4.56141176 L0.426705882,5.526 C-0.145058824,6.09670588 -0.141882353,7.02529412 0.433058824,7.60023529 C1.00694118,8.17411765 1.93552941,8.17835294 2.50729412,7.60552941 L3.47082353,6.64305882 C3.47717647,6.63458824 3.48247059,6.62717647 3.48882353,6.62188235 C7.72729412,2.52741176 14.4508235,2.502 18.7231765,6.53823529 L19.4812941,7.29741176 C20.052,7.86811765 20.9827059,7.866 21.5565882,7.29211765 C22.1294118,6.71717647 22.1315294,5.78752941 21.5608235,5.21682353 Z" id="Shape"></path>
                        </g>
                    </g>
                </g>
            </g>
        </g>
    </g>
</svg>