<?xml version="1.0" encoding="UTF-8"?>
<svg width="39px" height="27px" viewBox="0 0 39 27" version="1.1" xmlns="http://www.w3.org/2000/svg" xmlns:xlink="http://www.w3.org/1999/xlink">
    <!-- Generator: sketchtool 51.2 (57519) - http://www.bohemiancoding.com/sketch -->
    <title>314E64E8-9C3C-4FE2-9242-B32E738C8BFA</title>
    <desc>Created with sketchtool.</desc>
    <defs>
        <linearGradient x1="0%" y1="1.55572612%" x2="100%" y2="1.55572612%" id="linearGradient-1">
            <stop stop-color="#1EBF9D" offset="0%"></stop>
            <stop stop-color="#1073B9" offset="100%"></stop>
        </linearGradient>
    </defs>
    <g id="Page-1" stroke="none" stroke-width="1" fill="none" fill-rule="evenodd">
        <g id="medservicebel_spisok_napravlenij_05_hover" transform="translate(-79.000000, -1562.000000)">
            <g id="Иконки" transform="translate(71.000000, 607.000000)">
                <g id="урология" transform="translate(0.000000, 940.000000)">
                    <g id="spisok_napravlenij/svg/yrologia" transform="translate(8.000000, 15.000000)">
                        <path d="M33.8158654,20.8880313 C32.2380529,21.8499063 30.3008029,21.9110781 28.633131,21.0512969 C26.5963185,20.00125 26.5220685,18.620875 26.560881,13.5094375 C26.5659435,12.856375 26.5714279,12.151 26.5714279,11.3878281 C26.5714279,10.6246563 26.5655216,9.91928125 26.560881,9.26621875 C26.5220685,4.15478125 26.5963185,2.77440625 28.633131,1.72435938 C29.5692716,1.24173438 30.5480216,1.00042188 31.4866935,1.00042188 C32.4072248,1.00042188 33.2880998,1.232875 34.050006,1.6969375 C35.6518654,2.67315625 37.5616935,5.14745313 37.5616935,11.3878281 C37.5616935,16.0419531 36.2315216,19.4156875 33.8158654,20.8880313 Z M13.0008125,13.5094375 C13.039625,18.620875 12.9657969,20.00125 10.9285625,21.0512969 C9.26173438,21.9110781 7.32448438,21.8503281 5.74625,20.8880312 C3.33017188,19.4156875 2,16.0419531 2,11.3874063 C2,5.14703125 3.90982813,2.67315625 5.51210938,1.69651563 C6.27401563,1.23160938 7.15489063,1 8.075,1 C9.01367188,1 9.99326563,1.2413125 10.9285625,1.7239375 C12.9657969,2.77398437 13.039625,4.15435938 13.0008125,9.26579687 C12.99575,9.91885937 12.9906875,10.6242344 12.9906875,11.3874062 C12.9906875,12.1505781 12.99575,12.856375 13.0008125,13.5094375 Z" id="Combined-Shape" fill="url(#linearGradient-1)" opacity="0.200000003"></path>
                        <path d="M13.6299375,9.56728125 C13.6674844,4.60560937 13.6847812,2.34098437 10.8721406,0.891421875 C8.6248125,-0.26746875 6.13575,-0.2615625 4.2170625,0.907875 C2.33803125,2.05326563 0.097875,4.85198437 0.097875,11.6796094 C0.097875,18.5776875 2.82529687,21.2696719 4.45078125,22.2606562 C5.49196875,22.8951562 6.6571875,23.2140937 7.83084375,23.2140937 C8.86528125,23.2140937 9.905625,22.9664531 10.8721406,22.4677969 C13.6847812,21.0178125 13.6674844,18.7531875 13.6299375,13.7919375 C13.6290937,13.6915312 13.6286719,13.5814219 13.6278281,13.4784844 L17.2572187,17.6217187 L17.2572187,26.6055469 L18.5228437,26.6055469 L18.5228437,17.1454219 L13.6198125,11.5488281 C13.6202344,10.8405 13.6252969,10.1785781 13.6299375,9.56728125 Z M12.3643125,13.8012187 C12.403125,18.9126562 12.3292969,20.2930312 10.2920625,21.3430781 C8.62523437,22.2028594 6.68798437,22.1421094 5.10975,21.1798125 C2.69367187,19.7074687 1.3635,16.3337344 1.3635,11.6791875 C1.3635,5.4388125 3.27332812,2.9649375 4.87560937,1.98829687 C5.63751562,1.52339062 6.51839062,1.29178125 7.4385,1.29178125 C8.37717187,1.29178125 9.35676562,1.53309375 10.2920625,2.01571875 C12.3292969,3.06576562 12.403125,4.44614062 12.3643125,9.55757812 C12.35925,10.2106406 12.3541875,10.9160156 12.3541875,11.6791875 C12.3541875,12.4423594 12.35925,13.1481562 12.3643125,13.8012187 Z" id="Shape" fill="#000000" fill-rule="nonzero"></path>
                        <path d="M34.071631,0.907453125 C32.1516779,-0.2615625 29.6643029,-0.2683125 27.4165529,0.891 C24.6043341,2.34098438 24.621631,4.60560938 24.658756,9.56685938 C24.6638185,10.1781563 24.6684591,10.8405 24.6684591,11.5484063 L19.7658498,17.1454219 L19.7658498,26.6055469 L21.0314748,26.6055469 L21.0314748,17.6217187 L24.6612873,13.4784844 C24.6604435,13.5814219 24.6595998,13.6915313 24.658756,13.7919375 C24.621631,18.7536094 24.6043341,21.0182344 27.4165529,22.4677969 C28.3830685,22.9664531 29.4238341,23.2140938 30.4578498,23.2140938 C31.6310841,23.2140938 32.7971466,22.8951562 33.8379123,22.2606563 C35.4638185,21.2696719 38.1908185,18.5776875 38.1908185,11.6796094 C38.1908185,4.8515625 35.9510841,2.05284375 34.071631,0.907453125 Z M33.1793654,21.1798125 C31.6015529,22.1416875 29.6643029,22.2028594 27.996631,21.3430781 C25.9598185,20.2930312 25.8855685,18.9126563 25.924381,13.8012188 C25.9294435,13.1481563 25.9349279,12.4427813 25.9349279,11.6796094 C25.9349279,10.9164375 25.9290216,10.2110625 25.924381,9.558 C25.8855685,4.4465625 25.9598185,3.0661875 27.996631,2.01614063 C28.9327716,1.53351563 29.9115216,1.29220313 30.8501935,1.29220313 C31.7707248,1.29220313 32.6515998,1.52465625 33.413506,1.98871875 C35.0153654,2.9649375 36.9251935,5.43923438 36.9251935,11.6796094 C36.9251935,16.3337344 35.5950216,19.7074688 33.1793654,21.1798125 Z" id="Shape" fill="#000000" fill-rule="nonzero"></path>
                    </g>
                </g>
            </g>
        </g>
    </g>
</svg>