<svg width="230" height="199" viewBox="0 0 230 199" xmlns="http://www.w3.org/2000/svg"><title>563932A7-B3A1-4EE2-9E51-2324ABEC67B8</title><defs><linearGradient x1="0%" y1="1.556%" y2="1.556%" id="a"><stop stop-color="#1EBF9D" offset="0%"/><stop stop-color="#1073B9" offset="100%"/></linearGradient></defs><path d="M508.695 161.922v39.574h-11.65v-14.484h-5.865l-6.975 14.484H472l8.56-15.75c-5.31-1.82-8.005-5.62-8.005-11.002 0-8.469 5.785-12.822 17.912-12.822h18.228zm-24.886 13.139c0 3.799 2.695 5.698 7.37 5.698h5.866v-11.08h-5.39c-5.468 0-7.846 1.503-7.846 5.382zm38.994-2.533l-5.786-4.986s2.933-7.045 15.772-7.045c10.066 0 16.01 4.512 16.01 11.319 0 4.274-2.457 6.965-5.39 8.706 2.933 1.029 7.054 4.195 7.054 9.419 0 8.548-6.895 13.059-18.704 13.059-13.79 0-16.723-7.44-16.723-7.44l5.548-5.461s3.17 4.511 10.382 4.511c5.627 0 7.767-1.9 7.767-5.144 0-2.85-2.298-4.353-6.736-4.353h-6.816v-7.678h7.133c1.664 0 5.151-.791 5.151-4.432 0-2.85-2.219-4.195-6.816-4.195-5.706 0-7.846 3.72-7.846 3.72zm90.193-10.606v39.574h-11.571v-39.574h11.57zm-43.036 0v13.218h5.627c12.206 0 19.418 3.324 19.418 12.584 0 9.498-6.42 13.772-19.418 13.772H558.31v-39.574h11.651zm5.39 20.658h-5.39v10.685h5.469c5.151 0 7.687-1.346 7.687-5.54 0-4.037-3.328-5.145-7.767-5.145zm47.95 18.916v-39.574h11.65v15.355l4.042-2.85 8.56-12.505h13.394l-13.315 17.492 14.503 22.082h-13.949l-10.54-16.78-2.695 1.03v15.75H623.3zm69.03 0l-1.664-4.907c-.792 1.9-3.328 6.411-11.492 6.411-9.114 0-14.583-4.67-14.583-11.476 0-11.16 16.248-14.564 25.838-15.197v-.158c0-5.066-2.854-6.807-7.688-6.807-6.024 0-8.718 3.8-8.718 3.8l-6.578-5.383s3.566-7.282 16.485-7.282c11.571 0 18.07 4.433 18.07 15.434v25.565h-9.67zm-9.668-6.807c6.657 0 7.767-5.223 7.767-5.223v-6.253c-8.243.712-14.425 2.295-14.425 6.49 0 3.324 2.457 4.986 6.658 4.986zM576.185 4v18.132l-36.53 37.344c23.993 2.158 44.096 16.837 44.096 41.876 0 31.947-26.587 47.057-59.658 47.057C481.078 148.41 472 119.7 472 119.7l15.78-15.326s11.887 17.916 35.232 17.916c19.886 0 28.316-7.986 28.316-21.585 0-11.657-8.646-19.428-25.722-19.428-5.404 0-8.863 1.943-9.511 2.375l-14.914-15.758 33.935-37.56h-51.228V4h92.297z" transform="translate(-472 -4)" fill="url(#a)"/></svg>