<svg width="134" height="199" viewBox="0 0 134 199" xmlns="http://www.w3.org/2000/svg"><title>158B1F98-EDBD-47D7-83CD-BD9EBB3E4CBC</title><defs><linearGradient x1="0%" y1="1.556%" y2="1.556%" id="a"><stop stop-color="#1EBF9D" offset="0%"/><stop stop-color="#1073B9" offset="100%"/></linearGradient></defs><path d="M51.44 161.922v39.574H39.76v-30.234H29.735c0 19.39-3 31.659-14.76 31.659-1.026 0-2.131-.158-3.315-.317v-9.102c.395.08.79.08 1.184.08 5.288 0 6.867-8.232 6.867-31.66h31.73zM90.826 190.1l6.55 4.116S93.195 203 80.014 203c-12.63 0-20.996-6.411-20.996-20.579 0-14.009 8.13-21.924 20.364-21.924 11.76 0 18.075 7.361 18.075 18.838 0 4.195-1.026 6.332-1.026 6.332h-26.6c.159 5.54 3.947 8.706 10.814 8.706 6.63 0 10.182-4.274 10.182-4.274zM79.38 168.808c-6.235 0-9.235 3.8-9.55 9.34h18.232v-.555c0-4.986-2.683-8.785-8.682-8.785zm54.62 2.454h-10.892v30.234h-11.603v-30.234h-10.892v-9.34H134v9.34zM105.478 4v22.881c-20.235 31.3-39.823 76.414-48.864 117.427h-36.38c10.333-42.956 29.06-79.436 54.677-112.462H0V4h105.478z" transform="translate(0 -4)" fill="url(#a)"/></svg>