<svg width="365" height="221" viewBox="0 0 365 221" xmlns="http://www.w3.org/2000/svg"><title>1D91EE50-D57E-41EB-93AC-A1582BBD607A</title><defs><linearGradient x1="0%" y1="1.556%" y2="1.556%" id="a"><stop stop-color="#1EBF9D" offset="0%"/><stop stop-color="#1073B9" offset="100%"/></linearGradient></defs><path d="M1014.954 3.68v22.947c-20.326 31.39-40.003 76.635-49.085 117.767h-36.543c10.379-43.08 29.191-79.666 54.923-112.788H909V3.68h105.954zm107.035 0v26.411h-51.464l-3.243 27.06c2.595-.433 5.19-.649 8.217-.649 33.3 0 55.788 14.504 55.788 43.513 0 33.555-25.083 48.492-57.95 48.492-43.247 0-52.112-27.277-52.112-27.277l15.568-16.885s13.623 17.968 35.462 17.968c18.164 0 26.597-9.309 26.597-22.947 0-11.69-9.298-21-26.38-21-11.028 0-16.65 3.032-18.38 4.98l-.216.216-16.434-2.164 8.217-77.718h76.33zM1212.158 0C1256.269 0 1274 29.658 1274 74.47s-17.731 74.037-61.842 74.037c-44.112 0-61.843-29.225-61.843-74.037 0-44.812 17.731-74.47 61.843-74.47zm0 25.112c-20.542 0-27.678 15.587-27.678 49.358s7.136 48.709 27.678 48.709 27.677-14.938 27.677-48.709-7.135-49.358-27.677-49.358zM947.403 161.467c13.161 0 17.284 4.366 17.284 10.16 0 5.954-4.916 8.494-8.721 9.526v.159c3.25 0 10.703 1.587 10.703 8.493 0 7.382-5.312 11.35-19.345 11.35h-17.602v-39.688h17.68zm.317 22.623h-6.977v8.89h6.58c6.185 0 7.612-1.588 7.612-4.683 0-2.7-1.824-4.207-7.215-4.207zm-6.977-6.033h8.166c.635-.08 4.36-.714 4.36-4.286 0-2.62-1.347-4.128-6.342-4.128h-6.184v8.414zM974.518 221v-59.533h10.307l1.11 4.525c.952-1.667 4.282-5.954 12.448-5.954 11.1 0 17.919 8.414 17.919 20.48 0 12.938-6.977 22.146-18.553 22.146-8.484 0-11.338-4.842-11.338-4.842h-.317V221h-11.576zm19.742-51.833c-6.422 0-8.007 5.08-8.166 5.636v14.605c.317.714 2.061 4.207 7.69 4.207 7.533 0 10.546-4.207 10.546-12.86 0-8.572-3.093-11.588-10.07-11.588zm54.549 31.989l-1.665-4.922c-.793 1.905-3.33 6.43-11.497 6.43-9.118 0-14.588-4.683-14.588-11.51 0-11.192 16.253-14.605 25.847-15.24v-.159c0-5.08-2.855-6.826-7.69-6.826-6.027 0-8.722 3.81-8.722 3.81l-6.581-5.398s3.568-7.303 16.491-7.303c11.576 0 18.077 4.446 18.077 15.479v25.639h-9.672zm-9.673-6.827c6.66 0 7.77-5.239 7.77-5.239v-6.27c-8.246.714-14.43 2.302-14.43 6.509 0 3.333 2.458 5 6.66 5zm52.09-15.081v-17.78h11.655v39.688h-11.655v-15.003h-.08s-3.012 2.302-10.861 2.302c-7.929 0-13.796-3.095-13.796-11.271v-15.717h11.893v14.05c0 2.937 2.061 5.16 5.946 5.16 4.282 0 6.898-1.43 6.898-1.43zm51.218 10.477l6.581 4.128s-4.202 8.81-17.443 8.81c-12.685 0-21.09-6.429-21.09-20.637 0-14.05 8.167-21.988 20.456-21.988 11.813 0 18.156 7.383 18.156 18.892 0 4.207-1.03 6.35-1.03 6.35h-26.72c.159 5.557 3.965 8.732 10.863 8.732 6.66 0 10.227-4.287 10.227-4.287zm-11.496-21.352c-6.264 0-9.276 3.81-9.594 9.367h18.315v-.556c0-5-2.695-8.811-8.721-8.811zm25.61 32.783v-39.689h11.654v23.496l16.73-20.162.95-3.334h10.308v39.689h-11.735V178.85l-16.887 20.003-.793 2.302h-10.228zm20.692-51.833c6.185 0 7.85-5.001 7.85-5.001l.555.159 6.977 1.428s-1.348 10.002-15.382 10.002c-13.874 0-15.302-10.002-15.302-10.002l7.057-1.428.476-.16s1.665 5.002 7.77 5.002z" transform="translate(-909)" fill="url(#a)"/></svg>