<svg width="62" height="72" viewBox="0 0 62 72" xmlns="http://www.w3.org/2000/svg"><title>AA72D381-1E3F-4AF5-BADB-1C0C76607F26</title><defs><linearGradient x1="0%" y1="1.556%" y2="1.556%" id="a"><stop stop-color="#1EBF9D" offset="0%"/><stop stop-color="#1073B9" offset="100%"/></linearGradient></defs><g fill="none" fill-rule="evenodd"><path d="M56.041 24.148C53.258 21.357 50.085 20 46.34 20c-3.459 0-6.783 1.178-9.716 2.217-2.117.75-4.117 1.458-5.624 1.505-1.507-.047-3.507-.755-5.624-1.505C22.443 21.177 19.118 20 15.66 20c-3.746 0-6.92 1.357-9.702 4.148-8.805 8.83-5.754 18.655-3.932 24.525l.094.304C3.794 54.378 10.078 72 20.668 72c5.644 0 7.546-.983 8.935-1.7.592-.307.872-.452 1.402-.475.618.025.964.194 1.634.522 1.427.698 3.382 1.653 8.693 1.653 10.59 0 16.874-17.622 18.547-23.023l.094-.302c1.823-5.87 4.874-15.696-3.932-24.527zM33.922 21c2.925 0 7.617-1.28 11.215-4.884 4.71-4.72 6.108-12.547 3.714-14.945C48.076.394 46.827 0 45.139 0c-2.917 0-7.602 1.281-11.206 4.891a17.413 17.413 0 0 0-4.558 8.164c-.713 3.002-.397 5.537.845 6.782.77.771 2.015 1.163 3.702 1.163z" fill="url(#a)" opacity=".2"/><path d="M46.995 32.43a1.817 1.817 0 0 0-2.567.22 1.83 1.83 0 0 0 .22 2.575c4.822 4.073 4.972 11.269.372 17.906a1.83 1.83 0 0 0 .457 2.542 1.82 1.82 0 0 0 2.535-.457c2.766-3.992 4.14-8.274 3.975-12.384-.167-4.13-1.94-7.823-4.992-10.402z" fill="#000" fill-rule="nonzero"/><path d="M56.041 24.148C53.258 21.357 50.085 20 46.34 20c-3.459 0-6.783 1.178-9.716 2.217-2.117.75-4.117 1.458-5.624 1.505-1.507-.047-3.507-.755-5.624-1.505C22.443 21.177 19.118 20 15.66 20c-3.746 0-6.92 1.357-9.702 4.148-8.805 8.83-5.754 18.655-3.932 24.525l.094.304C3.794 54.378 10.078 72 20.668 72c5.644 0 7.546-.983 8.935-1.7.592-.307.872-.452 1.402-.475.618.025.964.194 1.634.522 1.427.698 3.382 1.653 8.693 1.653 10.59 0 16.874-17.622 18.547-23.023l.094-.302c1.823-5.87 4.874-15.696-3.932-24.527zm.517 23.46l-.094.305c-.723 2.33-2.748 8.293-5.943 13.305-2.092 3.282-5.384 7.195-9.19 7.195-4.485 0-5.949-.715-7.125-1.29-.85-.416-1.73-.847-3.154-.886l-.05-.001-.05.001c-1.375.04-2.232.483-2.988.873-1.122.58-2.52 1.303-7.296 1.303-3.805 0-7.098-3.913-9.19-7.195-3.195-5.012-5.22-10.975-5.942-13.305l-.095-.306c-1.684-5.426-4.23-13.625 3.046-20.922 2.107-2.114 4.386-3.098 7.172-3.098 2.845 0 5.733 1.023 8.525 2.012 2.414.855 4.693 1.662 6.774 1.71l.042.002.041-.001c2.082-.049 4.361-.856 6.774-1.71 2.792-.99 5.68-2.013 8.525-2.013 2.786 0 5.065.984 7.172 3.098 7.277 7.298 4.731 15.497 3.046 20.923z" fill="#000" fill-rule="nonzero"/><path d="M33.922 21c2.925 0 7.617-1.28 11.215-4.884 4.71-4.72 6.108-12.547 3.714-14.945C48.076.394 46.827 0 45.139 0c-2.917 0-7.602 1.281-11.206 4.891a17.413 17.413 0 0 0-4.558 8.164c-.713 3.002-.397 5.537.845 6.782.77.771 2.015 1.163 3.702 1.163zm-.957-7.403c.35-1.327 1.275-3.89 3.525-6.145 2.64-2.646 6.246-3.83 8.649-3.83.58 0 .989 0 1.123.132.95.93-.13 6.243-3.681 9.801-2.636 2.641-6.248 3.823-8.659 3.823-.612 0-1.022-.019-1.15-.14-.323-.302-.321-1.693.193-3.64z" fill="#000" fill-rule="nonzero"/></g></svg>