<svg width="17" height="17" viewBox="0 0 17 17" xmlns="http://www.w3.org/2000/svg"><title>AC01BEA2-4340-457F-9B5C-F1D05256D6C0</title><path d="M10.873 16.586a1.424 1.424 0 0 1-2.007 0L1.046 9.27C.61 8.86.09 8.085.052 7.489c-.1-1.615-.03-4.706.02-6.345A1.162 1.162 0 0 1 1.19.032c2.098-.048 6.545-.1 6.958.313l8.611 7.771c.553.552.051 1.948-.506 2.503l-5.38 5.967zM4.021 2.406a1.203 1.203 0 0 0-1.696 0 1.194 1.194 0 0 0 0 1.692c.47.467 1.228.467 1.696 0a1.193 1.193 0 0 0 0-1.691z" fill="#FFF"/></svg>