<svg width="16" height="13" viewBox="0 0 16 13" xmlns="http://www.w3.org/2000/svg"><title>C59C0C09-3D4E-44AE-9113-7F3E6089C3B8</title><path d="M.403 13V.914h3.951c.62 0 1.173.062 1.66.187.487.124.9.318 1.241.58.34.264.6.597.78 1.001.18.404.27.888.27 1.453 0 .564-.16 1.064-.481 1.498-.321.434-.758.77-1.312 1.009.338.094.638.232.9.415a2.737 2.737 0 0 1 1.076 1.485c.094.31.14.634.14.972 0 .564-.095 1.064-.285 1.498a3 3 0 0 1-.81 1.096 3.486 3.486 0 0 1-1.262.668c-.492.15-1.04.224-1.643.224H.403zm1.594-5.653v4.35h2.63a3.09 3.09 0 0 0 1.018-.154 2.15 2.15 0 0 0 .751-.431 1.82 1.82 0 0 0 .469-.681c.108-.268.162-.569.162-.9 0-.333-.044-.634-.133-.906a1.684 1.684 0 0 0-.42-.688A1.916 1.916 0 0 0 5.75 7.5a3.182 3.182 0 0 0-1.046-.154H1.997zm0-1.278h2.407c.343 0 .656-.044.938-.133.282-.089.524-.216.726-.382a1.72 1.72 0 0 0 .47-.61c.11-.24.165-.513.165-.818 0-.664-.194-1.146-.58-1.448-.388-.302-.978-.452-1.769-.452H1.997v3.843zm13.09-.673a4.062 4.062 0 0 0-.755-.058c-.532 0-.965.117-1.3.349a2.118 2.118 0 0 0-.75.938V13h-1.536V4.019h1.494l.025 1.037c.232-.37.523-.664.871-.88.349-.216.772-.323 1.27-.323.11 0 .238.012.382.037.144.025.244.051.299.079v1.427z" fill="#022835" fill-rule="evenodd"/></svg>