<svg width="23" height="22" viewBox="0 0 23 22" xmlns="http://www.w3.org/2000/svg"><title>6988ADEC-6994-46B2-A5CC-7D4B3615358F</title><g fill="#056493"><path d="M16.531 2V.733c0-.44-.287-.733-.719-.733-.43 0-.718.293-.718.733V2H7.906V.733C7.906.293 7.62 0 7.188 0s-.72.293-.72.733V2H3.595C1.58 2 0 3.08 0 5.133v13.2C0 20.387 1.581 22 3.594 22h15.812C21.42 22 23 20.387 23 18.333v-13.2C23 3.08 21.419 2 19.406 2h-2.875zM1 5c0-1.067 1.05-2 2.25-2h3v.667c0 .4.3.666.75.666s.75-.266.75-.666V3h7.5v.667c0 .4.3.666.75.666s.75-.266.75-.666V3h3c1.2 0 2.25.933 2.25 2v2H1V5zm20.955 13.75c0 1.2-1.046 2.25-2.24 2.25H3.284c-1.194 0-2.24-1.05-2.24-2.25V9h20.91v9.75z"/><path d="M5.114 18.323c.438 0 .73-.146 1.023-.438.292-.292.438-.73.438-1.023 0-.292-.146-.73-.438-1.023-.585-.584-1.461-.584-2.046 0-.292.293-.438.585-.438 1.023 0 .293.146.73.438 1.023.292.292.585.438 1.023.438zm0-4.383c.438 0 .73-.146 1.023-.438.292-.293.438-.731.438-1.023 0-.292-.146-.73-.438-1.023-.585-.584-1.461-.584-2.046 0-.292.292-.438.584-.438 1.023 0 .438.146.73.438 1.023.292.292.585.438 1.023.438zm4.384 4.383c.438 0 .73-.146 1.022-.438.293-.292.439-.73.439-1.023 0-.292-.146-.73-.439-1.023-.584-.584-1.46-.584-2.045 0a1.583 1.583 0 0 0-.439 1.023c0 .293.147.73.439 1.023.292.292.584.438 1.023.438zm0-4.383c.438 0 .73-.146 1.022-.438.293-.293.439-.731.439-1.023 0-.292-.146-.73-.439-1.023-.584-.584-1.46-.584-2.045 0-.292.292-.439.73-.439 1.023 0 .292.147.73.439 1.023.292.292.584.438 1.023.438zm4.383 4.383c.438 0 .73-.146 1.023-.438.292-.292.438-.584.438-1.023 0-.438-.146-.73-.438-1.023-.585-.584-1.461-.584-2.046 0a1.582 1.582 0 0 0-.438 1.023c0 .293.146.73.438 1.023.292.292.585.438 1.023.438zm0-4.383c.438 0 .73-.146 1.023-.438.292-.293.438-.585.438-1.023 0-.292-.146-.73-.438-1.023-.585-.584-1.461-.584-2.046 0-.292.292-.438.73-.438 1.023 0 .292.146.73.438 1.023.292.292.585.438 1.023.438zm4.384 4.383c.438 0 .73-.146 1.022-.438.293-.292.439-.73.439-1.023 0-.292-.146-.73-.439-1.023-.584-.584-1.46-.584-2.045 0-.292.293-.439.585-.439 1.023 0 .293.147.73.439 1.023.292.292.584.438 1.023.438zm0-4.383c.438 0 .73-.146 1.022-.438.293-.293.439-.585.439-1.023 0-.292-.146-.73-.439-1.023-.584-.584-1.46-.584-2.045 0-.292.292-.439.73-.439 1.023 0 .292.147.73.439 1.023.292.292.584.438 1.023.438z"/></g></svg>