<svg width="14" height="12" viewBox="0 0 14 12" xmlns="http://www.w3.org/2000/svg"><title>C499CD2F-4BAE-4DC1-8F01-5941F5B0EBAB</title><defs><linearGradient x1="0%" y1="1.556%" y2="1.556%" id="a"><stop stop-color="#1EBF9D" offset="0%"/><stop stop-color="#1073B9" offset="100%"/></linearGradient></defs><path d="M701.05 117h.95a2 2 0 0 1 2 2v7a2 2 0 0 1-2 2h-10a2 2 0 0 1-2-2v-7a2 2 0 0 1 2-2h1.013v-1h2.01v1h4.017v-1h2.01v1zm0 1v1h-2.01v-1h-4.018v1h-2.009v-1h-1.009a1 1 0 0 0-1 1v7a1 1 0 0 0 1 1h9.992a1 1 0 0 0 1-1v-7a1 1 0 0 0-1-1h-.947zm-8.037 2h1.507v1.5h-1.507V120zm0 4h1.507v1.5h-1.507V124zm3.014-4h1.506v1.5h-1.506V120zm0 4h1.506v1.5h-1.506V124zm3.013-4h1.507v1.5h-1.507V120zm0 4h1.507v1.5h-1.507V124z" transform="translate(-690 -116)" fill="url(#a)"/></svg>