<svg width="62" height="58" viewBox="0 0 62 58" xmlns="http://www.w3.org/2000/svg"><title>D873BA3C-69E8-4572-9343-2A128DE671DA</title><defs><linearGradient x1="0%" y1="1.556%" y2="1.556%" id="a"><stop stop-color="#1EBF9D" offset="0%"/><stop stop-color="#1073B9" offset="100%"/></linearGradient></defs><g fill="none" fill-rule="evenodd"><path d="M56.955 9.096h-8.746c-.459 0-.43-.522-.43-.522V7.031A4.036 4.036 0 0 0 43.748 3H18a4.036 4.036 0 0 0-4.031 4.031v1.612s.038.453-.467.453H4.794a4.768 4.768 0 0 0-4.762 4.763v38.23a4.768 4.768 0 0 0 4.762 4.763h52.16a4.768 4.768 0 0 0 4.764-4.763v-38.23a4.769 4.769 0 0 0-4.763-4.763z" fill="url(#a)" opacity=".2"/><g transform="translate(13 23)" fill-rule="nonzero"><rect fill="#79A5BA" width="5" height="5" rx="2.5"/><rect fill="#000" x="10" width="5" height="5" rx="2.5"/><rect fill="#000" x="20" width="5" height="5" rx="2.5"/><rect fill="#000" x="30" width="5" height="5" rx="2.5"/></g><g transform="translate(13 33)" fill="#000" fill-rule="nonzero"><rect width="5" height="5" rx="2.5"/><rect x="10" width="5" height="5" rx="2.5"/><rect x="20" width="5" height="5" rx="2.5"/><rect x="30" width="5" height="5" rx="2.5"/></g><g transform="translate(13 43)" fill-rule="nonzero"><rect fill="#000" width="5" height="5" rx="2.5"/><rect fill="#000" x="10" width="5" height="5" rx="2.5"/><rect fill="#000" x="20" width="5" height="5" rx="2.5"/><rect fill="#79A5BA" x="30" width="5" height="5" rx="2.5"/></g><path d="M56.955 6.096h-8.746c-.459 0-.43-.522-.43-.522V4.031A4.036 4.036 0 0 0 43.748 0H18a4.036 4.036 0 0 0-4.031 4.031v1.612s.038.453-.467.453H4.794a4.768 4.768 0 0 0-4.762 4.763v42.23a4.768 4.768 0 0 0 4.762 4.763h52.16a4.768 4.768 0 0 0 4.764-4.763v-42.23a4.769 4.769 0 0 0-4.763-4.763zM18 3.673h25.747c.193 0 .357.164.357.358v7.439a.363.363 0 0 1-.357.358H18a.363.363 0 0 1-.358-.358V4.03c0-.194.164-.358.358-.358zm38.953 50.505H4.794c-.59 0-1.089-.499-1.089-1.09v-42.23c0-.59.499-1.089 1.09-1.089h8.884c.336 0 .29.305.29.305v1.396a4.042 4.042 0 0 0 2.997 3.896 4.33 4.33 0 0 0 1.035.135h25.747a4.03 4.03 0 0 0 1.746-.398 4.037 4.037 0 0 0 2.285-3.633v-1.361s.001-.34.392-.34h8.783c.59 0 1.09.5 1.09 1.09v42.23c0 .59-.5 1.09-1.09 1.09z" fill="#000" fill-rule="nonzero"/></g></svg>