<svg width="20" height="20" viewBox="0 0 20 20" xmlns="http://www.w3.org/2000/svg"><title>C08CE6DD-2C8F-4344-813F-B41160A4809F</title><defs><linearGradient x1="0%" y1="1.556%" y2="1.556%" id="a"><stop stop-color="#1EBF9D" offset="0%"/><stop stop-color="#1073B9" offset="100%"/></linearGradient></defs><g fill="none" fill-rule="evenodd"><path d="M10 0C4.47 0 0 4.47 0 10s4.47 10 10 10 10-4.47 10-10S15.53 0 10 0z" fill="url(#a)"/><path d="M10 1.38A8.613 8.613 0 0 0 1.38 10 8.613 8.613 0 0 0 10 18.62 8.613 8.613 0 0 0 18.62 10 8.613 8.613 0 0 0 10 1.38zm.507 16.2v-1.495c0-.304-.203-.507-.507-.507s-.507.203-.507.507v1.495c-3.759-.256-6.818-3.314-7.073-7.073h1.495c.304 0 .507-.203.507-.507s-.203-.507-.507-.507H2.42c.256-3.759 3.314-6.818 7.073-7.073v1.495c0 .304.203.507.507.507s.507-.203.507-.507V2.42c3.759.256 6.818 3.314 7.073 7.073h-1.495c-.304 0-.507.203-.507.507s.203.507.507.507h1.495c-.255 3.759-3.314 6.818-7.073 7.073z" fill="#FFF" fill-rule="nonzero"/><path d="M11.829 9.75h-1.463s-.105 0-.105-.095V6.458c0-.282-.209-.47-.522-.47-.314 0-.523.188-.523.47v3.197c0 .564.523 1.035 1.15 1.035h1.463c.313 0 .522-.188.522-.47 0-.283-.209-.47-.522-.47z" fill="#FFF" fill-rule="nonzero"/></g></svg>