<svg width="20" height="20" viewBox="0 0 20 20" xmlns="http://www.w3.org/2000/svg"><title>767935CD-A827-41AF-BB06-03F6BE100773</title><defs><linearGradient x1="0%" y1="1.556%" y2="1.556%" id="a"><stop stop-color="#1EBF9D" offset="0%"/><stop stop-color="#1073B9" offset="100%"/></linearGradient></defs><g transform="translate(-1112 -549)" fill="url(#a)"><path d="M1122 549c-5.53 0-10 4.47-10 10s4.47 10 10 10 10-4.47 10-10-4.47-10-10-10zm.588 18.793v-1.734c0-.353-.235-.588-.588-.588s-.588.235-.588.588v1.734c-4.36-.298-7.908-3.845-8.205-8.205h1.734c.353 0 .588-.235.588-.588s-.235-.588-.588-.588h-1.734c.298-4.36 3.845-7.908 8.205-8.205v1.734c0 .353.235.588.588.588s.588-.235.588-.588v-1.734c4.36.298 7.909 3.845 8.205 8.205h-1.734c-.353 0-.588.235-.588.588s.235.588.588.588h1.734c-.296 4.36-3.845 7.909-8.205 8.205z"/><path d="M1124.121 557.91h-1.697s-.12 0-.12-.11v-3.71c0-.326-.243-.545-.607-.545s-.606.219-.606.546v3.709c0 .655.606 1.2 1.333 1.2h1.697c.364 0 .606-.218.606-.545 0-.328-.242-.546-.606-.546z"/></g></svg>