<svg width="19" height="20" viewBox="0 0 19 20" xmlns="http://www.w3.org/2000/svg"><title>CE3122BA-D153-4959-9194-C5C58973A85E</title><defs><linearGradient x1="0%" y1="1.556%" y2="1.556%" id="a"><stop stop-color="#1EBF9D" offset="0%"/><stop stop-color="#1073B9" offset="100%"/></linearGradient></defs><path d="M302.146 2957.897c-.585-.586-1.24-.695-1.81-.585l.043-.239c0-.235 0-.589-.235-.824-.236-.236-.471-.354-.825-.354h-14.252c-.354 0-.59.118-.825.354-.235.235-.235.47-.235.824l.942 5.183c.471 2.827 2.945 4.947 5.89 4.947h2.709c2.934 0 5.397-1.99 5.88-4.917.21.051.406.088.598.088.942 0 1.767-.471 2.238-1.296.707-1.061.589-2.475-.118-3.181zm-8.598 8.245h-2.71c-2.355 0-4.358-1.65-4.711-4.005l-.825-4.947h13.782l-.825 4.947c-.353 2.356-2.356 4.005-4.711 4.005zm7.656-5.772c-.203.407-.67.81-1.55.688l.47-2.585c.26-.156.637-.313 1.08.13.353.354.353 1.178 0 1.767zm-12.368-6.714c0 .707.353 1.178.353 1.296.118.118.236.235.471.235h.354a.621.621 0 0 0 .235-.824s-.235-.353-.235-.707c0-.353.235-.707.235-.707s.354-.589.354-1.295c0-.707-.354-1.178-.354-1.296a.621.621 0 0 0-.824-.235.621.621 0 0 0-.236.824s.236.353.236.707c0 .353-.236.707-.236.707s-.353.589-.353 1.295zm2.591 0c0 .707.354 1.296.354 1.296.117.118.235.235.47.235h.354a.621.621 0 0 0 .236-.824s-.236-.353-.236-.707c0-.353.236-.707.236-.707s.353-.589.353-1.295c0-.707-.353-1.178-.353-1.296a.621.621 0 0 0-.825-.235.621.621 0 0 0-.235.824s.235.353.235.707c0 .353-.235.707-.235.707s-.354.589-.354 1.295zm2.592 0c0 .707.353 1.296.353 1.296.118.118.236.235.471.235h.354a.621.621 0 0 0 .235-.824s-.235-.353-.235-.707c0-.353.235-.707.235-.707s.353-.589.353-1.295c0-.707-.353-1.178-.353-1.296-.235-.353-.471-.471-.824-.235a.621.621 0 0 0-.236.824s.236.353.236.707c0 .353-.236.707-.236.707s-.353.589-.353 1.295zm5.889 14.724h-15.312c-.354 0-.59.235-.59.589 0 .353.236.589.59.589h15.312c.353 0 .59-.236.59-.59-.001-.353-.237-.588-.59-.588z" transform="translate(-284 -2950)" fill="url(#a)"/></svg>