<svg width="22" height="17" viewBox="0 0 22 17" xmlns="http://www.w3.org/2000/svg"><title>2B9CD050-9A85-47EF-B68A-7315E01C099D</title><g fill="#08C"><path d="M21.107.52A1.752 1.752 0 0 0 19.833 0H1.803C1.307 0 .883.173.53.52A1.69 1.69 0 0 0 0 1.77v13.46c0 .486.176.903.53 1.25.353.347.777.52 1.273.52h18.03c.496 0 .92-.173 1.274-.52a1.69 1.69 0 0 0 .53-1.25V1.77a1.69 1.69 0 0 0-.53-1.25zm-.913 14.71a.338.338 0 0 1-.107.248.35.35 0 0 1-.254.105H1.803a.35.35 0 0 1-.253-.105.338.338 0 0 1-.108-.249V8.5h18.752v6.73zm0-10.98H1.442V1.77c0-.095.036-.178.107-.248a.35.35 0 0 1 .254-.105h18.03a.35.35 0 0 1 .254.105c.071.07.107.153.107.249V4.25z"/><path d="M3.091 12.364h3.091v1.545H3.091zm3.864 0h4.636v1.545H6.955z"/></g></svg>