<svg width="63" height="73" viewBox="0 0 63 73" xmlns="http://www.w3.org/2000/svg"><title>F368DC9A-1FA2-4FC0-822C-CA707263D7A0</title><defs><linearGradient x1="0%" y1="1.556%" y2="1.556%" id="a"><stop stop-color="#1EBF9D" offset="0%"/><stop stop-color="#1073B9" offset="100%"/></linearGradient></defs><g fill="none" fill-rule="evenodd"><path d="M57.686 5.638C54.44 2.002 49.968 0 45.1 0c-3.813 0-7.897 2.253-10.879 3.898-.987.545-2.462 1.437-2.896 1.438-.433 0-1.9-.89-2.884-1.435C25.464 2.255 21.39 0 17.55 0 12.68 0 8.21 2.002 4.962 5.638 1.877 9.093.177 13.641.177 18.442c0 3.092.568 6.726 1.46 10.85.838 3.882 3.496 7.15 9.113 9.622 1.697.747 4.74 1.33 5.287 1.876.656.656 1.358 3.026 1.358 3.026s.159.559-.075.559a2.354 2.354 0 0 0-2.352 2.351 2.354 2.354 0 0 0 2.352 2.351h1.508c.296 0 .392.304.392.304l.815 2.513s.068.462-.474.462a2.354 2.354 0 0 0-2.35 2.35 2.354 2.354 0 0 0 2.35 2.352h1.862a.49.49 0 0 1 .455.275l.947 2.833s.054.17-.15.17h-.853a2.354 2.354 0 0 0-2.351 2.352 2.354 2.354 0 0 0 2.35 2.35h2.348c.318 0 .368.25.368.25l1.451 4.343.009.023c.866 2.116 2.619 3.19 5.21 3.19h.143c2.591 0 4.344-1.074 5.216-3.205 0 0 1.089-3.318 1.49-4.41.08-.216.228-.19.228-.19h2.543a2.354 2.354 0 0 0 2.351-2.351c0-1.297-.638-2.352-2.351-2.352l-.87.001c-.239 0-.091-.41-.091-.41l.865-2.605s.045-.264.296-.264h2.06a2.354 2.354 0 0 0 2.351-2.351c0-1.296-.942-2.35-2.238-2.35-.276 0-.372.008-.478.008-.285 0-.125-.322-.125-.322s.615-2.029.876-2.81c.056-.171.239-.155.239-.155h1.616a2.354 2.354 0 0 0 2.351-2.352 2.354 2.354 0 0 0-2.35-2.35c-.207 0-.168-.273-.135-.408.213-.857.61-2.62 1.366-3.178.714-.527 3.59-1.145 5.25-1.876 5.496-2.42 8.373-6.073 9.095-9.399.914-4.203 1.567-8.006 1.567-11.073 0-4.801-1.7-9.348-4.786-12.804z" fill="url(#a)" opacity=".2"/><path d="M57.686 5.638C54.44 2.002 49.968 0 45.1 0c-3.813 0-7.897 2.253-10.879 3.898-.987.545-2.462 1.437-2.896 1.438-.433 0-1.9-.89-2.884-1.435C25.464 2.255 21.39 0 17.55 0 12.68 0 8.21 2.002 4.962 5.638 1.877 9.093.177 13.641.177 18.442c0 3.092.568 6.726 1.46 10.85.838 3.882 3.496 7.15 9.113 9.622 1.697.747 4.74 1.33 5.287 1.876.656.656 1.358 3.026 1.358 3.026s.159.559-.075.559a2.354 2.354 0 0 0-2.352 2.351 2.354 2.354 0 0 0 2.352 2.351h1.508c.296 0 .392.304.392.304l.815 2.513s.068.462-.474.462a2.354 2.354 0 0 0-2.35 2.35 2.354 2.354 0 0 0 2.35 2.352h1.862a.49.49 0 0 1 .455.275l.947 2.833s.054.17-.15.17h-.853a2.354 2.354 0 0 0-2.351 2.352 2.354 2.354 0 0 0 2.35 2.35h2.348c.318 0 .368.25.368.25l1.451 4.343.009.023c.866 2.116 2.619 3.19 5.21 3.19h.143c2.591 0 4.344-1.074 5.216-3.205 0 0 1.089-3.318 1.49-4.41.08-.216.228-.19.228-.19h2.543a2.354 2.354 0 0 0 2.351-2.351c0-1.297-.638-2.352-2.351-2.352l-.87.001c-.239 0-.091-.41-.091-.41l.865-2.605s.045-.264.296-.264h2.06a2.354 2.354 0 0 0 2.351-2.351c0-1.296-.942-2.35-2.238-2.35-.276 0-.372.008-.478.008-.285 0-.125-.322-.125-.322s.615-2.029.876-2.81c.056-.171.239-.155.239-.155h1.616a2.354 2.354 0 0 0 2.351-2.352 2.354 2.354 0 0 0-2.35-2.35c-.207 0-.168-.273-.135-.408.213-.857.61-2.62 1.366-3.178.714-.527 3.59-1.145 5.25-1.876 5.496-2.42 8.373-6.073 9.095-9.399.914-4.203 1.567-8.006 1.567-11.073 0-4.801-1.7-9.348-4.786-12.804zM33.815 68.537c-.515 1.246-2.072 1.343-2.537 1.343-.463 0-2.014-.097-2.532-1.334l-1.119-3.352s-.026-.156.19-.156h7.06c.125 0 .098.072.098.072l-1.16 3.427zm2.698-8.201H26.156c-.16 0-.194-.158-.194-.158l-1.007-3s-.017-.12.188-.12h12.443c.118 0 .088.087.088.087L36.61 60.28s-.03.055-.098.055zm2.833-8.092s-.026.112-.144.112H23.51c-.167 0-.205-.105-.205-.105l-.987-2.983s-.064-.195.186-.195c4.893 0 13.31.004 17.746.004.16 0 .117.123.117.123l-1.02 3.044zm2.33-7.87c-5.201 0-20.746-.011-20.746-.011s-.16 0-.236-.16c-.218-.459-.644-1.6-.817-2.251-.095-.361.249-.252.249-.252 3.635.696 7.148.974 11.154.974 4.063 0 7.726-.304 11.404-1.02 0 0 .258-.045.198.12-.2.547-.602 1.756-.786 2.311a.442.442 0 0 1-.42.289zm16.626-15.78c-.126.547-.527 1.548-.735 2.11-.776 2.1-3.417 3.988-6.933 5.537-1.806.794-3.847 1.472-6.068 2.014l-.388.093c-3.919.92-8.379 1.405-12.898 1.405-4.394 0-8.74-.46-12.58-1.332l-.378-.087c-2.346-.553-4.497-1.257-6.396-2.093-3.446-1.517-6.248-3.624-7.08-5.65-.268-.652-.718-2.225-.718-2.225-.897-3.827-1.03-7.15-1.03-9.924 0-7.63 5.405-15.52 14.451-15.52 2.348 0 5.44 1.074 8.273 2.874.413.263 1.003.716 1.574 1.155.226.174.45.346.658.503.677.506 1.59 1.168 2.66 1.798.564.333 1.076.628 1.643.868a18.603 18.603 0 0 0 7.308 1.484c2.581 0 5.752-.627 5.708-.986-.043-.358-5.329-.358-8.848-1.29-1.405-.372-2.997-.975-2.997-1.306 0-.352.497-.628.887-.861.34-.204.726-.434 1.218-.705 2.703-1.492 6.406-3.535 9.466-3.535 9.046 0 14.452 7.892 14.452 15.521 0 2.736-.36 6.278-1.25 10.151z" fill="#000" fill-rule="nonzero"/></g></svg>