<svg width="34" height="39" viewBox="0 0 34 39" xmlns="http://www.w3.org/2000/svg"><title>7942FA14-8776-4A98-A7F4-33BEB9785D34</title><defs><linearGradient x1="0%" y1="1.556%" y2="1.556%" id="a"><stop stop-color="#1EBF9D" offset="0%"/><stop stop-color="#1073B9" offset="100%"/></linearGradient></defs><g fill="none" fill-rule="evenodd"><path d="M26.832 38.788c4.383-2.704 7.074-7.445 7.074-12.579 0-8.18-6.752-14.834-15.052-14.834-1.043 0-2.573.148-3.385.235a2.723 2.723 0 0 0-2.668-2.135l-.003-5.355h.393a.751.751 0 0 0 .757-.746V.746A.751.751 0 0 0 13.19 0H8.005a.751.751 0 0 0-.757.746v2.628c0 .412.339.746.757.746h.392v5.355c-1.506 0-2.73 1.207-2.73 2.69v9.872c0 1.079.65 2.004 1.582 2.432v2.432c0 .412.338.747.757.747h5.185a.751.751 0 0 0 .757-.747V24.47c.931-.428 1.582-1.354 1.582-2.432V17.3c.7-.145 2.292-.448 3.326-.448 5.237 0 9.497 4.198 9.497 9.358 0 3.395-1.906 6.545-4.9 8.187a3.841 3.841 0 0 0-3.2-1.164c-.081-.008-.16-.022-.241-.022H3.005c-.624 0-1.214.24-1.67.685A2.302 2.302 0 0 0 .65 35.53c0 1.281 1.056 2.323 2.356 2.323H15.19V39h7.31l4.332-.212zM8.762 1.493h3.672v1.135H8.763V1.493zm1.15 2.627h1.372v5.355H9.911V4.12zm2.522 22.035H8.762v-1.428h3.672v1.428zm1.582-4.118c0 .66-.545 1.197-1.215 1.197H8.396c-.67 0-1.214-.537-1.214-1.197v-9.872c0-.66.545-1.197 1.214-1.197H12.8c.67 0 1.215.537 1.215 1.197v9.872zm15.85 4.172c0-5.984-4.939-10.85-11.01-10.85-1.037 0-2.48.25-3.326.416v-2.67c.75-.082 2.318-.238 3.325-.238 7.464 0 13.537 5.985 13.537 13.341 0 4.66-2.467 8.96-6.474 11.38l-1.528-2.004c3.353-1.931 5.476-5.518 5.476-9.375zm-26.86 10.15a.838.838 0 0 1-.843-.83c0-.217.088-.425.243-.58a.857.857 0 0 1 .6-.247h14.588l-.019.022-1.247 1.636H3.005z" fill="#000" fill-rule="nonzero"/><path d="M26.184 38.788c4.383-2.704 7.073-7.445 7.073-12.579 0-8.18-6.752-14.834-15.051-14.834-1.043 0-2.573.148-3.386.235a2.723 2.723 0 0 0-2.668-2.135L12.15 4.12h.392a.751.751 0 0 0 .757-.746V.746A.751.751 0 0 0 12.542 0H7.356A.751.751 0 0 0 6.6.746v2.628c0 .412.339.746.757.746h.393v5.355c-1.507 0-2.73 1.207-2.73 2.69v9.872c0 1.079.65 2.004 1.581 2.432v2.432c0 .412.339.747.757.747h5.186a.751.751 0 0 0 .757-.747V24.47c.93-.428 1.582-1.354 1.582-2.432V17.3c.7-.145 2.291-.448 3.325-.448 5.237 0 9.497 4.198 9.497 9.358 0 3.395-1.906 6.545-4.9 8.187a3.841 3.841 0 0 0-3.2-1.164c-.081-.008-.16-.022-.24-.022H2.356c-.624 0-1.215.24-1.67.685A2.302 2.302 0 0 0 0 35.53c0 1.281 1.057 2.323 2.357 2.323H14.54V39h7.311l4.333-.212z" fill="url(#a)" opacity=".2"/><circle fill="#FFF" fill-rule="nonzero" cx="20.226" cy="36.264" r="1.415"/></g></svg>