<svg width="22" height="31" viewBox="0 0 22 31" xmlns="http://www.w3.org/2000/svg"><title>A8A6620F-2E06-4A25-B73D-7E55DB313EFB</title><defs><linearGradient x1="0%" y1="1.556%" y2="1.556%" id="a"><stop stop-color="#1EBF9D" offset="0%"/><stop stop-color="#1073B9" offset="100%"/></linearGradient></defs><path d="M21 11L12 1c-.323-.635-1-1-2-1H4C1.862 0 0 2.006 0 5v21c0 2.994 1.862 5 4 5h14c2.138 0 4-2.006 4-5V13c0-1.147-.17-1.876-1-2zm-9-8l7 8h-5c-.886 0-2-1.273-2-3V3zm6 26H4c-.855 0-2-1.26-2-3V5c0-1.74 1.145-3 2-3h6v6c.182 2.82 1.982 4.8 4 5h6v13c0 1.74-1.145 3-2 3z" fill="url(#a)"/></svg>