<svg width="108" height="108" viewBox="0 0 108 108" xmlns="http://www.w3.org/2000/svg"><title>A99F765D-3E08-49B8-A71A-4CE6CAC0B45A</title><defs><linearGradient x1="0%" y1="1.556%" y2="1.556%" id="a"><stop stop-color="#1EBF9D" offset="0%"/><stop stop-color="#1073B9" offset="100%"/></linearGradient></defs><g fill="none" fill-rule="evenodd"><circle stroke="#0091EA" stroke-width="1.43" fill="#FFF" cx="54" cy="54" r="53.285"/><path d="M62.613.367A1.299 1.299 0 0 0 61.686 0C54.974 0 49.431.913 45.06 2.74c-4.372 1.829-8.976 5.148-13.811 9.96-2.058 2.085-4.321 4.595-6.79 7.528L9.836 21c-.411.052-.745.258-1.003.618L.192 36.442c-.31.515-.245 1.017.192 1.506l2.47 2.47c.23.232.526.348.887.348.154 0 .27-.013.347-.04l10.648-3.281 10.841 10.848-3.28 10.654c-.128.463-.025.875.31 1.235l2.468 2.471c.283.23.58.347.888.347.232 0 .437-.052.617-.155l14.815-8.647c.36-.257.566-.59.618-1.003l.771-14.63c2.932-2.471 5.44-4.736 7.523-6.795 4.58-4.607 7.839-9.245 9.78-13.916C62.03 13.183 63 7.644 63 1.236c0-.335-.129-.624-.387-.87zm-9.335 14.611c-.72.72-1.595 1.081-2.624 1.081-1.029 0-1.903-.36-2.623-1.08-.72-.721-1.08-1.596-1.08-2.626 0-1.029.36-1.904 1.08-2.625.72-.72 1.594-1.08 2.623-1.08 1.03 0 1.904.36 2.624 1.08.72.72 1.08 1.596 1.08 2.625 0 1.03-.36 1.904-1.08 2.625z" fill="url(#a)" opacity=".2" transform="translate(18 27)"/><path d="M80.613 27.367a1.299 1.299 0 0 0-.927-.367c-6.712 0-12.255.913-16.627 2.74-4.372 1.829-8.976 5.148-13.811 9.96-2.058 2.085-4.321 4.595-6.79 7.528L27.836 48c-.411.052-.745.258-1.003.618l-8.641 14.824c-.31.515-.245 1.017.192 1.506l2.47 2.47c.23.232.526.348.887.348.154 0 .27-.013.347-.04l10.648-3.281 10.841 10.848-3.28 10.654c-.128.463-.025.875.31 1.235l2.468 2.471c.283.23.58.347.888.347.232 0 .437-.052.617-.155l14.815-8.647c.36-.257.566-.59.618-1.003l.771-14.63c2.932-2.471 5.44-4.736 7.523-6.795 4.58-4.607 7.839-9.245 9.78-13.916C80.03 40.183 81 34.644 81 28.236c0-.335-.129-.624-.387-.87zm-9.335 14.611c-.72.72-1.595 1.081-2.624 1.081-1.029 0-1.903-.36-2.623-1.08-.72-.721-1.08-1.596-1.08-2.626 0-1.029.36-1.904 1.08-2.625.72-.72 1.594-1.08 2.623-1.08 1.03 0 1.904.36 2.624 1.08.72.72 1.08 1.596 1.08 2.625 0 1.03-.36 1.904-1.08 2.625z" stroke="#000" stroke-width="3"/></g></svg>