<svg width="9" height="14" viewBox="0 0 9 14" xmlns="http://www.w3.org/2000/svg"><title>9510E2DD-2FEF-4139-842C-E1A950B9E33B</title><path d="M7.047 8.51H3.86c.01.57.087 1.065.228 1.485.141.42.338.77.59 1.05.251.28.553.487.904.623a3.24 3.24 0 0 0 1.175.203c.32 0 .632-.023.934-.07.301-.048.593-.118.875-.212l.166 1.328a8.95 8.95 0 0 1-.967.183 7.813 7.813 0 0 1-1.025.066 5.272 5.272 0 0 1-1.784-.29 3.781 3.781 0 0 1-1.403-.872 4.05 4.05 0 0 1-.926-1.457c-.224-.584-.344-1.263-.36-2.038H.788V7.48h1.477V6.343H.79V5.305h1.477c.028-.752.155-1.414.382-1.984.227-.57.537-1.046.93-1.427a3.808 3.808 0 0 1 1.39-.86A5.207 5.207 0 0 1 6.732.748c.349 0 .685.024 1.008.07.324.048.655.11.992.187L8.566 2.35a6.43 6.43 0 0 0-.875-.212 5.574 5.574 0 0 0-.942-.078c-.427 0-.813.065-1.158.195-.346.13-.644.329-.893.597a2.877 2.877 0 0 0-.59 1.013c-.143.407-.223.887-.24 1.44h3.18v1.038H3.86V7.48h3.187v1.03z" fill="#08C" fill-rule="evenodd"/></svg>