<svg width="19" height="19" viewBox="0 0 19 19" xmlns="http://www.w3.org/2000/svg"><title>18728A97-F841-4390-B6A4-4E84CD4A9026</title><g fill="#FFF"><path d="M13.103 5.826V2.472C13.103 1.11 12.013 0 10.671 0h-8.24C1.092 0 0 1.11 0 2.472v5.6c0 1.168.8 2.149 1.872 2.407v1.4a.57.57 0 0 0 .56.57.555.555 0 0 0 .396-.167l1.708-1.737h.338v-1.11c0-1.99 1.592-3.61 3.55-3.61h4.68z"/><path d="M16.568 6.552h-8.24c-1.34 0-2.431 1.109-2.431 2.472v5.6c0 1.363 1.09 2.472 2.431 2.472h6.136l1.708 1.737a.555.555 0 0 0 .61.124.57.57 0 0 0 .345-.526v-1.4A2.468 2.468 0 0 0 19 14.623v-5.6c0-1.363-1.091-2.472-2.432-2.472zM14.83 10.88l-2.648 2.692a.553.553 0 0 1-.791 0l-1.325-1.346a.575.575 0 0 1 0-.804.553.553 0 0 1 .791 0l.93.944 2.252-2.29a.553.553 0 0 1 .791 0 .575.575 0 0 1 0 .804z"/></g></svg>