<svg width="25" height="32" viewBox="0 0 25 32" xmlns="http://www.w3.org/2000/svg"><title>B1628B92-C84C-44F4-B083-4BFCB35DCA6E</title><defs><linearGradient x1="0%" y1="1.556%" y2="1.556%" id="a"><stop stop-color="#1EBF9D" offset="0%"/><stop stop-color="#1073B9" offset="100%"/></linearGradient></defs><g transform="translate(-277 -11094)" fill="url(#a)"><path d="M297.192 11094h-15.384c-2.693 0-4.808 2.07-4.808 4.706v22.588c0 2.635 2.115 4.706 4.808 4.706h15.384c2.693 0 4.808-2.07 4.808-4.706v-22.588c0-2.635-2.115-4.706-4.808-4.706zm2.808 27.2c0 1.493-1.336 2.8-2.864 2.8h-15.272c-1.528 0-2.864-1.307-2.864-2.8v-22.4c0-1.493 1.336-2.8 2.864-2.8h15.272c1.528 0 2.864 1.307 2.864 2.8v22.4z"/><path d="M284 11106h4c.6 0 1-.4 1-1v-4c0-.6-.4-1-1-1h-4c-.6 0-1 .4-1 1v4c0 .6.4 1 1 1zm1-4h2v2h-2v-2zm10.071 5H283.93c-.557 0-.929.4-.929 1s.371 1 .929 1h11.142c.557 0 .929-.4.929-1s-.372-1-.929-1zm0 6H283.93c-.557 0-.929.4-.929 1s.371 1 .929 1h11.142c.557 0 .929-.4.929-1s-.372-1-.929-1zm0 6H283.93c-.557 0-.929.4-.929 1s.371 1 .929 1h11.142c.557 0 .929-.4.929-1s-.372-1-.929-1zm-.071-18h-4c-.6 0-1 .4-1 1s.4 1 1 1h4c.6 0 1-.4 1-1s-.4-1-1-1z"/></g></svg>