<svg width="25" height="32" viewBox="0 0 25 32" xmlns="http://www.w3.org/2000/svg"><title>52B987AE-C262-44B8-A0A9-59E7EEA1D6C3</title><defs><linearGradient x1="0%" y1="1.556%" y2="1.556%" id="a"><stop stop-color="#1EBF9D" offset="0%"/><stop stop-color="#1073B9" offset="100%"/></linearGradient></defs><g transform="translate(-278 -11150)" fill="url(#a)"><path d="M302.23 11160.918l-10.384-10.165c-.577-.377-1.346-.753-2.115-.753h-6.923c-2.693 0-4.808 2.07-4.808 4.706v22.588c0 2.635 2.115 4.706 4.808 4.706h15.384c2.693 0 4.808-2.07 4.808-4.706v-14.306c0-.753-.192-1.506-.77-2.07zM291 11153l8 8h-5.273c-1.454 0-2.727-1.273-2.727-2.727V11153zm7.136 27h-15.272c-1.528 0-2.864-1.307-2.864-2.8v-22.4c0-1.493 1.336-2.8 2.864-2.8h6.681v6.533c0 2.614 2.1 4.667 4.773 4.667H301v14c0 1.493-1.336 2.8-2.864 2.8z"/><path d="M294.1 11168.6h-2.7v-2.7c0-.54-.36-.9-.9-.9s-.9.36-.9.9v2.7h-2.7c-.54 0-.9.36-.9.9s.36.9.9.9h2.7v2.7c0 .54.36.9.9.9s.9-.36.9-.9v-2.7h2.7c.54 0 .9-.36.9-.9s-.36-.9-.9-.9z"/></g></svg>