<svg width="19" height="18" viewBox="0 0 19 18" xmlns="http://www.w3.org/2000/svg"><title>54BF40BD-BA1A-4DBA-A027-B15B06C5EE5E</title><defs><linearGradient x1="0%" y1="1.556%" y2="1.556%" id="a"><stop stop-color="#1EBF9D" offset="0%"/><stop stop-color="#1073B9" offset="100%"/></linearGradient></defs><path d="M292.006 3462.464h-6.459c-.328 0-.547.219-.547.547 0 .329.219.548.547.548h6.459c.219 0 .547-.22.547-.548 0-.328-.219-.547-.547-.547zm11.494-8.1l-1.861-2.628 1.86-3.94c.11-.22 0-.438-.109-.657-.218-.11-.437-.22-.656-.11 0 0-1.423.876-3.284.876-1.861 0-3.284-.876-3.284-.876-.11 0-1.752-.985-3.832-.985s-3.831.985-3.831.985c-.11.11-.219.329-.219.438v12.917h-.876c-.328 0-.547.22-.547.548 0 .328.219.547.547.547h2.737c.328 0 .547-.219.547-.547 0-.329-.219-.548-.547-.548h-.766v-5.364c.547-.219 1.642-.766 3.065-.766 1.86 0 3.284.876 3.284.876.11 0 1.751.985 3.831.985s3.831-.985 3.831-.985c.11-.11.22-.22.22-.329 0-.109 0-.328-.11-.437zm-4.05.656c-1.861 0-3.284-.875-3.284-.875-.11 0-1.752-.986-3.832-.986-1.204 0-2.299.329-3.065.657v-5.911c.548-.219 1.642-.766 3.065-.766 1.861 0 3.284.875 3.284.875.11 0 1.752.986 3.832.986.985 0 1.751-.22 2.408-.438l-1.423 2.955c-.11.22-.11.438 0 .548l1.642 2.408c-.438.219-1.423.547-2.627.547z" transform="translate(-285 -3446)" fill="url(#a)"/></svg>