<svg width="32" height="45" viewBox="0 0 32 45" xmlns="http://www.w3.org/2000/svg"><title>D167013F-9474-43BF-B567-BD1B303EB92D</title><defs><linearGradient x1="0%" y1="1.556%" y2="1.556%" id="a"><stop stop-color="#1EBF9D" offset="0%"/><stop stop-color="#1073B9" offset="100%"/></linearGradient></defs><g fill="none" fill-rule="evenodd"><path d="M27.375 37.935c-.047.01-4.592.926-6.228-3.745-.224-.64-.441-1.298-.652-1.934-.637-1.931-1.296-3.928-2.245-5.715-1.56-2.94-2.208-6.352-2.834-9.651a150.952 150.952 0 0 0-.838-4.156c-.655-3.124-1.332-6.355-1.73-9.565-.006-.05-.43-3.446-1.233-7.305a.88.88 0 0 1-.245-.087A17.905 17.905 0 0 0-.245-5.728C.082.21 1.745 5.6 5.113 11.946c1.91 3.6 4.524 8.528 4.6 13.517.022 1.436-.426 2.523-.9 3.675-.176.43-.36.874-.518 1.343-.53 1.563-.864 3.676.562 4.866.701.585-2.436.89 2.603 1.272C16.5 37 19.5 44 21.974 43.279c1.31-.383 2.65-.789 3.93-1.373l.377-.172c1.394-.633 3.713-1.946 4.002-2.776.04-.117.022-.18.001-.22-.034-.081-.564-1.315-2.91-.803zM25.153 39.5a1.925 1.925 0 0 0-1.274 1.172.336.336 0 0 1-.432.2.34.34 0 0 1-.197-.438 2.611 2.611 0 0 1 1.727-1.59.34.34 0 0 1 .176.656z"/><path d="M24.977 38.843a2.61 2.61 0 0 0-1.727 1.59.34.34 0 0 0 .315.46.336.336 0 0 0 .314-.221 1.925 1.925 0 0 1 1.274-1.173.34.34 0 0 0-.176-.656z" fill="#000" fill-rule="nonzero"/><path d="M30.89 38.444c-.088-.208-.852-1.786-3.656-1.173-.163.034-4.017.794-5.454-3.308-.222-.634-.438-1.29-.647-1.923-.646-1.957-1.315-3.982-2.29-5.82-1.512-2.849-2.15-6.209-2.767-9.458-.139-.732-.282-1.488-.432-2.216-.134-.65-.271-1.301-.408-1.953-.652-3.11-1.327-6.326-1.72-9.507-.01-.076-.96-7.685-2.726-13.145a1.182 1.182 0 0 0-.443-.602c-.792-.565-3.882-2.281-10.4-.656a1.153 1.153 0 0 0-.87 1.077C-1.308-2.267.269 4.254 4.522 12.269c1.877 3.537 4.447 8.382 4.52 13.206.02 1.295-.402 2.32-.848 3.403-.18.44-.368.894-.534 1.384-.6 1.766-.952 4.173.77 5.61.793.662 1.816 1.032 2.805 1.388.695.25 1.351.487 1.927.815 1.973 1.123 3.645 2.503 4.968 4.103l.129.156c.294.36.599.732.994 1.022.576.423 1.32.644 2.143.644.219 0 .443-.016.67-.047 1.424-.198 2.854-.85 4.115-1.427l.376-.171c.396-.18 3.883-1.795 4.36-3.17a.95.95 0 0 0-.026-.74zM-.251-10.204a.481.481 0 0 1 .358-.455c6.242-1.556 9.12.03 9.852.552a.508.508 0 0 1 .191.259c.147.452.288.92.422 1.397-.74-.374-1.58-.528-2.344-.626a23.992 23.992 0 0 0-8.529.436c.008-.515.025-1.036.05-1.563zm-.055 2.263a23.337 23.337 0 0 1 8.45-.461c.964.123 1.956.322 2.693.922.219.84.42 1.695.605 2.538A18.574 18.574 0 0 0-.276-6.416a41.586 41.586 0 0 1-.03-1.525zm30.59 46.901c-.29.83-2.609 2.142-4.003 2.776l-.377.171c-1.28.585-2.603 1.19-3.93 1.373-.913.127-1.74-.042-2.327-.473-.326-.24-.591-.564-.87-.906l-.131-.159c-1.376-1.663-3.11-3.096-5.155-4.259-.626-.355-1.34-.613-2.03-.863-.936-.337-1.903-.686-2.604-1.271-1.426-1.19-1.093-3.303-.562-4.866.16-.47.342-.914.519-1.344.473-1.15.92-2.238.9-3.674-.076-4.989-2.692-9.918-4.601-13.517C1.746 5.602.082.212-.245-5.726A17.906 17.906 0 0 1 11.37-4.221a.83.83 0 0 0 .245.087 101.821 101.821 0 0 1 1.233 7.305c.398 3.21 1.075 6.44 1.73 9.564.137.651.274 1.301.407 1.95.15.724.293 1.478.431 2.207.626 3.3 1.274 6.71 2.834 9.65.949 1.788 1.608 3.785 2.245 5.715.21.637.427 1.295.652 1.935 1.636 4.67 6.181 3.755 6.228 3.745 2.345-.513 2.875.722 2.895.771a.282.282 0 0 1 .013.252z" fill="#000" fill-rule="nonzero"/><path d="M31.869 50.443c-.088-.208-.852-1.786-3.656-1.173-.163.034-4.017.794-5.454-3.308-.222-.634-.438-1.29-.647-1.923-.646-1.957-1.315-3.982-2.29-5.82-1.512-2.848-2.15-6.208-2.767-9.458-.139-.731-.282-1.488-.432-2.216l-.408-1.953c-.652-3.11-1.327-6.326-1.721-9.507-.01-.076-.959-7.685-2.726-13.145a1.182 1.182 0 0 0-.442-.602C10.534.773 7.443-.942.926.682a1.153 1.153 0 0 0-.87 1.083C-.33 9.733 1.247 16.253 5.5 24.268c1.877 3.537 4.448 8.382 4.521 13.206.02 1.295-.402 2.32-.848 3.403-.18.44-.368.894-.534 1.384-.6 1.767-.952 4.173.77 5.61.792.662 1.816 1.032 2.805 1.388.695.25 1.351.487 1.927.815 1.973 1.123 3.645 2.503 4.968 4.103l.129.156c.294.36.598.732.994 1.022.576.423 1.32.644 2.143.644.218 0 .442-.015.67-.047 1.423-.197 2.854-.85 4.115-1.427l.376-.171c.396-.18 3.883-1.795 4.36-3.17a.95.95 0 0 0-.026-.74z" fill="url(#a)" opacity=".2" transform="translate(-1 -12)"/><path d="M30.869 38.443c-.088-.208-.852-1.786-3.656-1.173-.163.034-4.017.794-5.454-3.308-.222-.634-.438-1.29-.647-1.923-.646-1.957-1.315-3.982-2.29-5.82-1.512-2.848-2.15-6.208-2.767-9.458-.139-.731-.282-1.488-.432-2.216l-.408-1.953c-.652-3.11-1.327-6.326-1.721-9.507-.01-.076-.959-7.685-2.726-13.145a1.182 1.182 0 0 0-.442-.602c-.792-.565-3.883-2.28-10.4-.656a1.153 1.153 0 0 0-.87 1.083C-1.33-2.267.247 4.253 4.5 12.268c1.877 3.537 4.448 8.382 4.521 13.206.02 1.295-.402 2.32-.848 3.403-.18.44-.368.894-.534 1.384-.6 1.767-.952 4.173.77 5.61.792.662 1.816 1.032 2.805 1.388.695.25 1.351.487 1.927.815 1.973 1.123 3.645 2.503 4.968 4.103l.129.156c.294.36.598.732.994 1.022.576.423 1.32.644 2.143.644.218 0 .442-.015.67-.047 1.423-.197 2.854-.85 4.115-1.427l.376-.171c.396-.18 3.883-1.795 4.36-3.17a.95.95 0 0 0-.026-.74z" stroke="#00141B" stroke-width=".8"/></g></svg>