<svg width="53" height="53" viewBox="0 0 53 53" xmlns="http://www.w3.org/2000/svg"><title>8D306D69-8C4E-4B5E-B365-201611F742FE</title><defs><linearGradient x1="0%" y1="1.556%" y2="1.556%" id="a"><stop stop-color="#1EBF9D" offset="0%"/><stop stop-color="#1073B9" offset="100%"/></linearGradient></defs><g fill="none" fill-rule="evenodd"><circle stroke="#0091EA" fill="#FFF" cx="26.5" cy="26.5" r="26"/><g fill-rule="nonzero"><path d="M29.392 3.07a4.79 4.79 0 0 0-.535-.659C27.173.721 24.34.493 21.795.493c-3.486 0-6.19.525-7.601 2.581-.707-1.211-.797.51-.597 1.16-.313.84-.48 1.86-.485 3.093l-.001.098c-.003.113-.005.248.001.326.035.457.415 4.535 3.095 7.254.67.68.754 1.131.852 1.653.133.711.284 1.514 1.786 2.593l.335 5.617h5.562v-5.617c1.501-1.079 1.652-1.881 1.786-2.593.097-.522.182-.973.851-1.652 2.665-2.705 3.059-6.795 3.095-7.254a3.99 3.99 0 0 0 .003-.297v-.092c.005-1.237-.163-2.28-.495-3.157.242-.689.139-2.345-.59-1.136z" fill="url(#a)" opacity=".2" transform="translate(5 16)"/><path d="M47.177 26.817c1.58-1.673 1.458-4.198 1.452-4.276 0-2.624-2.651-6.42-7.446-6.42-4.273 0-6.062 1.74-6.79 2.949a4.79 4.79 0 0 0-.536-.659c-1.684-1.69-4.516-1.918-7.062-1.918-3.486 0-6.19.525-7.601 2.581-.707-1.211-2.467-2.953-6.743-2.953-4.794 0-7.445 3.796-7.444 6.391-.007.107-.13 2.632 1.45 4.305.108.113.22.219.337.319-.919 1.573-.927 3.36.12 4.408.54.54 1.276.8 2.078.8 1.166 0 2.472-.55 3.516-1.594 1.76-1.761 2.117-4.27.793-5.593-.663-.664-1.627-.932-2.714-.755-1.025.167-2.048.717-2.88 1.549-.11.11-.214.223-.313.339-.063-.057-.127-.112-.185-.174C5.932 24.77 6.03 22.59 6.033 22.54c0-1.935 2.144-5.393 6.418-5.393 4.875 0 5.946 2.436 6.146 3.085-.313.841-.48 1.86-.485 3.094l-.001.098c-.003.113-.005.248.001.326.035.457.415 4.535 3.095 7.254.67.68.754 1.131.852 1.653.133.711.284 1.514 1.786 2.593l.335 5.617 1.025-.06-.364-6.118-.21-.142c-1.343-.914-1.44-1.428-1.561-2.08-.108-.57-.24-1.281-1.13-2.183-1.968-1.997-2.688-5.095-2.803-6.612-.004-.054 0-.147.001-.225l.002-.118c.017-4.883 2.703-5.81 7.654-5.81 3.312 0 5.206.484 6.334 1.616.896.9 1.329 2.281 1.321 4.223l.001.11c.001.071.003.155 0 .203-.034.42-.393 4.168-2.803 6.613-.89.902-1.022 1.612-1.13 2.183-.122.652-.218 1.166-1.562 2.08l-.21.142-.364 6.118 1.026.06.335-5.617c1.501-1.079 1.652-1.881 1.786-2.593.097-.522.182-.973.851-1.652 2.665-2.705 3.059-6.795 3.095-7.254a3.99 3.99 0 0 0 .003-.297v-.092c.005-1.237-.163-2.28-.495-3.157.242-.689 1.421-3.058 6.201-3.058 4.274 0 6.419 3.457 6.42 5.422 0 .022.107 2.186-1.173 3.541-.06.064-.125.12-.19.178a5.94 5.94 0 0 0-.314-.339c-.831-.832-1.854-1.382-2.879-1.549-1.086-.177-2.05.091-2.714.755-1.323 1.323-.967 3.833.794 5.594 1.043 1.042 2.349 1.593 3.515 1.593.803 0 1.539-.26 2.078-.8 1.047-1.047 1.039-2.834.12-4.408.117-.099.23-.205.337-.318zm-39.529.882c.7.351 1.522.53 2.46.53v-1.027c-.7 0-1.31-.12-1.836-.35.053-.059.106-.118.163-.175.68-.68 1.503-1.128 2.317-1.261.751-.123 1.4.043 1.823.467.923.922.566 2.78-.793 4.14-1.36 1.36-3.218 1.716-4.141.794-.706-.706-.661-1.96.007-3.118zm38.346 3.119c-.924.921-2.78.566-4.14-.794-1.361-1.36-1.717-3.218-.794-4.14.332-.334.803-.507 1.353-.507.15 0 .308.013.47.04.813.132 1.637.58 2.317 1.26.057.057.11.116.163.175-.526.23-1.137.35-1.836.35v1.028c.937 0 1.759-.18 2.46-.53.667 1.158.712 2.411.007 3.118z" stroke="#00141B" stroke-width=".5" fill="#000"/></g></g></svg>