<svg width="20" height="18" viewBox="0 0 20 18" xmlns="http://www.w3.org/2000/svg"><title>51726B4F-E9AD-470F-B3DB-E5477E38D7F7</title><defs><linearGradient x1="0%" y1="1.556%" y2="1.556%" id="a"><stop stop-color="#1EBF9D" offset="0%"/><stop stop-color="#1073B9" offset="100%"/></linearGradient></defs><path d="M18.364 1.692A5.563 5.563 0 0 0 14.362 0a5.57 5.57 0 0 0-4.007 1.691L10 2.053l-.353-.362C7.593-.452 4.132-.575 1.92 1.416a5.804 5.804 0 0 0-.284 8.353l7.847 8.015a.731.731 0 0 0 1.037 0l7.844-8.015a5.804 5.804 0 0 0 0-8.077zM17.33 8.816L10 16.302 2.673 8.816a4.435 4.435 0 0 1 0-6.172C4.186 1.056 6.742.956 8.382 2.422c.08.07.156.145.23.222l.87.89a.753.753 0 0 0 1.038 0l.872-.89C12.905 1.057 15.46.958 17.1 2.423c.08.071.157.146.23.223 1.68 1.743 1.693 4.438 0 6.17z" fill="url(#a)"/></svg>