<svg width="53" height="53" viewBox="0 0 53 53" xmlns="http://www.w3.org/2000/svg"><title>81E90A69-4BAD-437A-BA5D-2CCBF44A54BE</title><defs><linearGradient x1="0%" y1="1.556%" y2="1.556%" id="a"><stop stop-color="#1EBF9D" offset="0%"/><stop stop-color="#1073B9" offset="100%"/></linearGradient></defs><g fill="none" fill-rule="evenodd"><circle stroke="#0091EA" fill="#FFF" cx="26.5" cy="26.5" r="26"/><path d="M33.139 3.871c0-1.031-.482-1.994-1.238-2.681-.687-.55-1.512-.894-2.406-.894-1.031 0-2.063.481-2.75 1.237L.345 31.577c-.206.138-.206.413-.206.619.068.206.206.412.412.481 1.238.413 2.544.619 3.781.619 3.3 0 6.394-1.444 8.594-3.85l3.438-3.919c.275-.275.206-.687-.069-.962l-1.513-1.307L31.97 6.621c.756-.756 1.169-1.719 1.169-2.75z" fill="url(#a)" opacity=".2" transform="rotate(-15 55.68 -16.979)"/><path d="M39.093 8.745c-.267-.996-.981-1.801-1.89-2.27-.806-.353-1.692-.472-2.555-.24-.996.267-1.868.998-2.336 1.907L14.587 43.995c-.164.186-.092.452-.039.65.12.182.306.346.523.359 1.302.078 2.617-.06 3.813-.381 3.187-.854 5.802-3.05 7.304-5.943l2.306-4.675c.195-.337.021-.718-.315-.912l-1.8-.87 12.296-20.52c.535-.926.684-1.962.418-2.958zM24.86 32.132a.743.743 0 0 0-.075.518.62.62 0 0 0 .324.411l1.799.87-1.966 4.086a10.03 10.03 0 0 1-6.415 5.278c-.73.195-1.479.325-2.263.321l13.112-26.503 1.972 4.17-6.488 10.849zm7.38-12.299l-2.073-4.284 1.887-3.85 2.18 4.682-1.993 3.452zm5.304-8.894l-2.4 4.06-2.3-4.865.694-1.396c.566-1.077 1.991-1.6 3.068-1.035.59.34.997.8 1.175 1.464.16.598.121 1.249-.237 1.772z" fill="#000" fill-rule="nonzero"/></g></svg>