<svg width="12" height="12" viewBox="0 0 12 12" xmlns="http://www.w3.org/2000/svg"><title>1ABAE6F0-5B23-4000-840F-EB06FD0AA494</title><g fill="#798484"><path d="M8.514 0H3.486A3.49 3.49 0 0 0 0 3.486v5.028A3.49 3.49 0 0 0 3.486 12h5.028A3.49 3.49 0 0 0 12 8.514V3.486A3.49 3.49 0 0 0 8.514 0zM10.6 8.284A2.318 2.318 0 0 1 8.285 10.6h-4.57A2.318 2.318 0 0 1 1.4 8.285v-4.57A2.318 2.318 0 0 1 3.716 1.4h4.568A2.318 2.318 0 0 1 10.6 3.716v4.568z"/><path d="M6 3.084A2.92 2.92 0 0 0 3.084 6 2.92 2.92 0 0 0 6 8.916 2.92 2.92 0 0 0 8.916 6 2.92 2.92 0 0 0 6 3.084zm0 4.493A1.58 1.58 0 0 1 4.423 6a1.578 1.578 0 0 1 3.154 0A1.58 1.58 0 0 1 6 7.577z"/><circle cx="9.2" cy="2.8" r="1"/></g></svg>