<svg width="32" height="32" viewBox="0 0 32 32" xmlns="http://www.w3.org/2000/svg"><title>BFF8D1BE-516A-437D-B655-C13B08DDCA8D</title><g fill="none" fill-rule="evenodd"><circle stroke="#798484" opacity=".5" cx="16" cy="16" r="15.5"/><g transform="translate(7.273 7.273)" fill="#bc197e" fill-rule="nonzero"><path d="M12.384 0H5.07A5.076 5.076 0 0 0 0 5.07v7.314a5.076 5.076 0 0 0 5.07 5.07h7.314a5.076 5.076 0 0 0 5.07-5.07V5.07A5.076 5.076 0 0 0 12.385 0zm3.034 12.05a3.372 3.372 0 0 1-3.368 3.368H5.404a3.372 3.372 0 0 1-3.368-3.368V5.404a3.372 3.372 0 0 1 3.368-3.368h6.646a3.372 3.372 0 0 1 3.368 3.368v6.646z"/><path d="M8.727 4.485a4.247 4.247 0 0 0-4.242 4.242 4.247 4.247 0 0 0 4.242 4.242 4.247 4.247 0 0 0 4.242-4.242 4.247 4.247 0 0 0-4.242-4.242zm0 6.537a2.297 2.297 0 0 1-2.294-2.295 2.297 2.297 0 0 1 2.294-2.294 2.297 2.297 0 0 1 2.295 2.294 2.297 2.297 0 0 1-2.295 2.295z"/><circle cx="13.382" cy="4.073" r="1"/></g></g></svg>