<svg width="38" height="36" viewBox="0 0 38 36" xmlns="http://www.w3.org/2000/svg"><title>38C244FC-34E8-407B-BF18-059F32482840</title><defs><linearGradient x1="0%" y1="1.556%" y2="1.556%" id="a"><stop stop-color="#1EBF9D" offset="0%"/><stop stop-color="#1073B9" offset="100%"/></linearGradient></defs><g fill="none" fill-rule="evenodd"><path d="M26.609.313c-2.974 0-5.792 1.174-7.826 3.287C16.748 1.487 13.93.313 10.957.313 4.93.313 0 5.243 0 11.27c0 4.07 1.096 7.59 2.817 10.643.079.157.079.235.157.313C8.139 30.991 17.844 35.61 18 35.61c.078.078.235.078.313.078.078 0 .235 0 .313-.078.783-.313 18.94-8.374 18.94-24.418 0-6.026-4.931-10.878-10.957-10.878z" fill="url(#a)" opacity=".2"/><path d="M26.609.313c-2.974 0-5.792 1.174-7.826 3.287C16.748 1.487 13.93.313 10.957.313 4.93.313 0 5.243 0 11.27c0 4.07 1.096 7.59 2.817 10.643.079.157.079.235.157.313C8.139 30.991 17.844 35.61 18 35.61c.078.078.235.078.313.078.078 0 .235 0 .313-.078.783-.313 18.94-8.374 18.94-24.418 0-6.026-4.931-10.878-10.957-10.878zM10.957 1.878a9.398 9.398 0 0 1 7.278 3.444c.313.391.939.391 1.174 0 1.8-2.192 4.382-3.444 7.2-3.444C31.774 1.878 36 6.104 36 11.27c0 2.895-.626 5.478-1.722 7.826H30.13l-3.287-8.766c-.156-.313-.47-.547-.782-.47-.391 0-.626.314-.704.627L23.4 22.539l-2.817-7.435c-.079-.313-.392-.47-.705-.47-.313-.077-.626.157-.704.47l-3.052 6.418-3.209-11.113a.752.752 0 0 0-.704-.548c-.313 0-.626.235-.783.548L7.591 20.817H4.07c-1.487-2.739-2.505-5.947-2.505-9.626 0-5.165 4.226-9.313 9.392-9.313zm7.356 32.165c-1.643-.782-8.922-4.773-13.304-11.66h3.13a.752.752 0 0 0 .704-.548l3.21-8.844 3.13 10.8a.752.752 0 0 0 .704.548.86.86 0 0 0 .783-.47l3.13-6.652 3.209 8.453c.078.313.391.47.704.47h.078c.392 0 .626-.314.705-.627l1.956-12.052 2.426 6.496c.079.313.392.47.705.47h3.913c-4.461 8.216-13.383 12.756-15.183 13.616z" fill="#000" fill-rule="nonzero"/></g></svg>