<svg width="53" height="53" viewBox="0 0 53 53" xmlns="http://www.w3.org/2000/svg"><title>index/svg/napravlenie/лечение за границей</title><defs><linearGradient x1="0%" y1="1.556%" y2="1.556%" id="a"><stop stop-color="#1EBF9D" offset="0%"/><stop stop-color="#1073B9" offset="100%"/></linearGradient></defs><g fill="none" fill-rule="evenodd"><circle stroke="#0091EA" fill="#FFF" cx="26.5" cy="26.5" r="26"/><path d="M31 29c2.314 0 4-1.692 4-4V9c0-2.308-1.686-4-4-4H4C1.686 5 0 6.692 0 9v16c0 2.308 1.686 4 4 4h27z" fill="url(#a)" opacity=".2" transform="translate(9 10)"/><path d="M12.803 38.76h27.194c2.06 0 3.728-1.67 3.728-3.729V18.804a3.728 3.728 0 0 0-3.728-3.729h-7.184v-2.349a2.486 2.486 0 0 0-2.486-2.486h-7.871a2.486 2.486 0 0 0-2.486 2.486v2.349h-7.167a3.729 3.729 0 0 0-3.728 3.729V35.03a3.728 3.728 0 0 0 3.728 3.729zM35.68 15.904l7.217 7.216v7.594l-7.217 7.217H17.12l-7.217-7.217V23.12l7.217-7.216h18.56zm7.217 19.127a2.9 2.9 0 0 1-2.9 2.9h-3.145l6.045-6.044v3.144zm-2.9-19.127a2.9 2.9 0 0 1 2.9 2.9v3.144l-6.045-6.044h3.145zm-19.182-3.178c0-.915.742-1.657 1.658-1.657h7.871c.915 0 1.657.742 1.657 1.657v2.349H20.815v-2.349zM9.903 18.804a2.9 2.9 0 0 1 2.9-2.9h3.145l-6.045 6.044v-3.144zm0 13.083l6.045 6.044h-3.145a2.9 2.9 0 0 1-2.9-2.9v-3.144z" fill="#000" fill-rule="nonzero"/><path d="M40 38.35c1.953 0 3.35-1.399 3.35-3.35V19c0-1.951-1.397-3.35-3.35-3.35H13c-1.953 0-3.35 1.399-3.35 3.35v16c0 1.951 1.397 3.35 3.35 3.35h27z" stroke="#00141B" stroke-width="1.3"/></g></svg>