<svg width="35" height="29" viewBox="0 0 35 29" xmlns="http://www.w3.org/2000/svg"><title>7ED4CD61-5D08-4969-9FEC-21DA0C66DBAC</title><defs><linearGradient x1="0%" y1="1.556%" y2="1.556%" id="a"><stop stop-color="#1EBF9D" offset="0%"/><stop stop-color="#1073B9" offset="100%"/></linearGradient></defs><g fill="none" fill-rule="evenodd"><path d="M31 29c2.314 0 4-1.692 4-4V9c0-2.308-1.686-4-4-4H4C1.686 5 0 6.692 0 9v16c0 2.308 1.686 4 4 4h27z" fill="url(#a)" opacity=".2"/><path d="M3.803 28.76h27.194c2.06 0 3.728-1.67 3.728-3.729V8.804a3.728 3.728 0 0 0-3.728-3.729h-7.184V2.726A2.486 2.486 0 0 0 21.327.24h-7.871a2.486 2.486 0 0 0-2.486 2.486v2.349H3.803A3.729 3.729 0 0 0 .075 8.804V25.03a3.728 3.728 0 0 0 3.728 3.729zM26.68 5.904l7.217 7.216v7.594l-7.217 7.217H8.12L.903 20.714V13.12L8.12 5.904h18.56zm7.217 19.127a2.9 2.9 0 0 1-2.9 2.9h-3.145l6.045-6.044v3.144zm-2.9-19.127a2.9 2.9 0 0 1 2.9 2.9v3.144l-6.045-6.044h3.145zM11.815 2.726c0-.915.742-1.657 1.658-1.657h7.871c.915 0 1.657.742 1.657 1.657v2.349H11.815V2.726zM.903 8.804a2.9 2.9 0 0 1 2.9-2.9h3.145L.903 11.948V8.804zm0 13.083l6.045 6.044H3.803a2.9 2.9 0 0 1-2.9-2.9v-3.144z" fill="#000" fill-rule="nonzero"/><path d="M31 28.35c1.953 0 3.35-1.399 3.35-3.35V9c0-1.951-1.397-3.35-3.35-3.35H4C2.047 5.65.65 7.049.65 9v16c0 1.951 1.397 3.35 3.35 3.35h27z" stroke="#00141B" stroke-width="1.3"/></g></svg>