<svg width="49" height="42" viewBox="0 0 49 42" xmlns="http://www.w3.org/2000/svg"><title>7221A61A-C1CA-496E-8CC4-570CA8AC0575</title><defs><linearGradient x1="0%" y1="1.556%" y2="1.556%" id="a"><stop stop-color="#1EBF9D" offset="0%"/><stop stop-color="#1073B9" offset="100%"/></linearGradient></defs><path d="M8.993 35.935c.269.047.45.309.404.584a.497.497 0 0 1-.572.413.505.505 0 0 1-.404-.584.496.496 0 0 1 .572-.413zm39.334-14.47c.423.66.526.397.673 1.451 0 .012-2.657 2.584-2.795 2.635-1.074.404-1.71-.538-2.363-.618-.787-.096-2.164.322-1.974 1.445.12.708 1.266 1.115 1.606 1.766.332.637-.239.802-.187 1.135.036.237.486 1.275.593 1.707.197.79.64 1.469.754 2.003.095.446.359.828.031 1.108-.178.152-.638.181-.855.276-1.094.472-2.525.375-3.362 1.286-.521.566-1.037 1.287-1.247 2.045-.241.867.058 1.734.099 2.605.069 1.445.136 2.09-1.4 1.435-.469-.199-.312-.933-.85-1.172-.608-.27-.835.066-1.39.017-.13-.011-1.51-.097-1.52-.095-.401.12-.617.9-1.064.92-1.743.078-.763-1.652-1.961-1.962-.646-.167-1.391 1.501-1.509 1.538-1.003.31-.143-.283-1.139-.536-.397-.101-.65-.123-.866-.164l-1.435-12.747.309-3.804c.862.992 2.05 1.91 4.236 2.535a1.141 1.141 0 0 0 .473.034h.002c1.087-.113 1.684-1.843 1.684-1.94 0-.065-.727-.25-1.226-.37l-.302-.805-.957.35c-1.451-.779-2.68-2.23-3.49-3.249l-.382-.486-.003-.003c-.509-.448-.818-.765-.992-.999-.54-.73.257-.644.528-1.164.358-.686.581-5.14.581-5.14s-1.563.19-3.281.673c-.937.263-1.023 1.206-.87 2.19h-.02s-.382-.196-.286.39c.081.501.233 1 .63 1.016.082.295.157.559.2.765.059.283.016.516-.08.71-.033.012-1.978.75-4.22 3.62-.811.846-1.63 1.827-2.306 2.892l-.002.003s-.814.78-.72 1.466c.024.166.138.327.297.475l-1.622 2.051-1.827-1.516a.499.499 0 0 0-.715.075l-4.982 6.25a.53.53 0 0 0 .075.734l1.382 1.15a1.217 1.217 0 0 0-.051 1.432c.133.196.312.339.513.422a14.42 14.42 0 0 0-1.288.229c-1.53.345-1.647 2.194-3.169 2.512-.441.093-1.51-.845-1.869-.338-.071.101.33 1.081-.165.936-.753-.222-.593-.563-.667-1.418-.094-1.096.88-1.879.626-3.077-.436-2.056-3.436-1.038-1.645-3.713.812-1.213 2.763-1.333 3.312-2.457.232-.475-.054-3.076-.135-3.563-.284-1.719-1.096-3.465-1.422-5.24-.39-2.12-.572-1.87 1.475-1.913.627-.014 1.275-.175 1.898-.214.202-.013.508.335.833.437.14-.205.647-.295.86-.367.19-.063.915-.128 1-.23.175-.212.177-.515.218-.79.04-.274.175-.584.442-.63.239-.042.467.154.708.13.2-.02.356-.186.463-.36.106-.173.185-.368.327-.514.377-.39 1-.287 1.398-.639.33-.29.496-.84.672-1.23.538-1.19.389-2.309 1.086-3.444.394-.641.844-1.277 1.366-1.815.535-.551 1.313-.47 1.969-.741.353-.147.68-.394.85-.743a.436.436 0 0 0 .055-.214c-.038-.595-1.21-.579-1.129-1.492.048-.52.273-1.169.529-1.621a5.726 5.726 0 0 1 1.317-1.554c.308-.247.68-.43 1.072-.444.456-.017.889.193 1.336.289 1.863.397 1.414-2.256 2.72-2.888.843-.408 1.463-.04 2.064.173.53.188 1.55-.247 1.716.587.029.147.028.335.16.401a.336.336 0 0 0 .185.018c.454-.047.899-.161 1.352-.199.455-.037.934.01 1.319.26.587.382.595.935.652 1.561.04.45.142.916.685.879.813-.057 1.371-1.456 2.034-1.71 1.116-.424 3.314.955 3.88 1.666 1 1.256.447 2.168.663 3.343.178.966.809.789.694 1.956-.031.318-.605.57-.633.907-.127 1.533-.164.729.84 1.909.596.701.9 1.119 1.155 1.955.326 1.064.876 1.818 1.727 2.44 1.572 1.15 1.92.287 1.628 2.83.276.258 2.05-.123 2.669.261.549.34.599.43.964.821-.004-.005-.415.469-.213.71.243.29.818.228 1.001.513zM17.42 32.426s-1.868 3.343-2.834 5.02c-.644-.125-1.12-.22-1.15-.226a17.223 17.223 0 0 0-3.537-.138.604.604 0 0 0 .025-.018c.482-.355.626-1.03.353-1.563l2.666-3.422 1.874-2.44 2.022-2.568a6.1 6.1 0 0 0 .487.213l.632-.932c.064-.069.124-.144.174-.23.726-1.256 1.722-2.412 2.656-3.35l-.346 4.398-.001.01-.02.005-3.001 5.241zm5.606-1.096l1.227 8.94a4.833 4.833 0 0 1-.076.212c-.063-.053-.715-.836-1.003-.859-.377-.03-1.314.241-1.634.087-.266-.129-.534-1.043-.725-1.153-.572-.328-1.466-.508-2.404-.65-.056.007-.276-.023-.593-.075l2.53-3.873 1.836-2.936c.292-.312.802-.126.842.307z" fill="url(#a)" fill-rule="evenodd"/></svg>