<svg width="43" height="51" viewBox="0 0 43 51" xmlns="http://www.w3.org/2000/svg"><title>6DBE7A54-1941-46BB-9FFA-E6145BB247F5</title><path d="M17.902 10.725a.747.747 0 0 0-.746.747v.617a.747.747 0 1 0 1.493 0v-.617a.747.747 0 0 0-.747-.747zm6.814 0a.747.747 0 0 0-.747.747v.617a.747.747 0 1 0 1.493 0v-.617a.747.747 0 0 0-.746-.747zm-2.076.758a.746.746 0 0 0-1.053.071.371.371 0 0 1-.278.117.372.372 0 0 1-.279-.117.746.746 0 1 0-1.124.984c.348.398.86.627 1.403.627s1.054-.229 1.403-.627a.747.747 0 0 0-.071-1.055zm18.562 34.656h-.873V26.63a4.392 4.392 0 0 0 1.704-3.473 4.4 4.4 0 0 0-4.394-4.397 4.4 4.4 0 0 0-4.394 4.397c0 1.411.668 2.668 1.703 3.473v1.43c-.853.843-2.486 2.23-4.924 3.351a.747.747 0 0 0 .624 1.358 19.501 19.501 0 0 0 4.3-2.697V32.6c-2.72 1.926-7.188 4.11-13.448 4.11-6.26 0-10.727-2.184-13.448-4.11v-2.533c.543.452 1.2.944 1.971 1.433 3.354 2.127 7.216 3.205 11.477 3.205a22.52 22.52 0 0 0 6.284-.87.747.747 0 0 0-.416-1.435c-1.852.538-3.827.81-5.868.81-3.974 0-7.567-1-10.678-2.972a16.666 16.666 0 0 1-2.77-2.183V26.63a4.392 4.392 0 0 0 1.703-3.473 4.4 4.4 0 0 0-4.394-4.397 4.4 4.4 0 0 0-4.394 4.397 4.39 4.39 0 0 0 1.704 3.473v19.51h-.873c-.957 0-1.736.779-1.736 1.737v2.377c0 .413.335.747.747.747h9.105a.747.747 0 0 0 .746-.747v-2.377c0-.958-.778-1.737-1.735-1.737h-.873V34.402c2.946 1.889 7.42 3.804 13.448 3.804 6.028 0 10.502-1.915 13.448-3.804v11.737h-.873c-.957 0-1.735.779-1.735 1.737v2.377c0 .413.334.747.746.747h9.105a.747.747 0 0 0 .747-.747v-2.377c0-.958-.779-1.737-1.736-1.737zM2.587 23.989a2.844 2.844 0 0 1-.126-.83c0-1.601 1.3-2.904 2.9-2.904 1.6 0 2.901 1.303 2.901 2.903a2.936 2.936 0 0 1-2.393 2.858 2.88 2.88 0 0 1-.508.045c-1.256 0-2.404-.877-2.774-2.073zm3.972 3.4v18.75H4.164v-18.75c.01.003.401.098.59.124a4.373 4.373 0 0 0 1.805-.124zm2.366 20.244c.134 0 .243.109.243.243v1.63H1.556v-1.63c0-.134.108-.243.242-.243h7.127zm25.813-24.475c0-1.6 1.301-2.903 2.9-2.903 1.6 0 2.902 1.303 2.902 2.903 0 1.572-1.322 2.903-2.901 2.903-1.553 0-2.901-1.35-2.901-2.903zm4.098 4.231v18.75h-2.395v-18.75l.03.008a4.364 4.364 0 0 0 1.168.159c.392 0 .791-.05 1.168-.16l.03-.007zm2.609 22.117h-7.612v-1.63c0-.134.109-.243.243-.243h7.126c.134 0 .243.109.243.243v1.63z"/><path d="M31.22.117C31.068.02 30.879 0 30.702 0H19.894a.747.747 0 0 0 0 1.494h9.185L27.361 3.5h-12.22l-1.72-2.006h3.487a.747.747 0 0 0 0-1.494h-5.11a.757.757 0 0 0-.746.747v22.396a.759.759 0 0 0 .746.747h18.906c.185 0 .355-.015.516-.117a.747.747 0 0 0 .345-.63V.747a.747.747 0 0 0-.345-.63zM15.543 4.994h11.531v13.902h-11.53V4.994zm-2.998-2.227l1.505 1.757v14.842l-1.505 1.757V2.767zm.877 19.629l1.718-2.006h12.221l1.718 2.006H13.422zm16.65-1.137l-1.505-1.756V4.387l1.505-1.757v18.63z"/></svg>