<svg xmlns="http://www.w3.org/2000/svg" width="289.692" height="289.692" viewBox="0 0 289.692 289.692"><path d="M284.437 186.899c-35.584 0-64.539-22.138-64.539-49.354a5.257 5.257 0 0 0-10.513 0c0 27.217-28.955 49.354-64.538 49.354-35.585 0-64.539-22.138-64.539-49.354a5.255 5.255 0 0 0-5.257-5.256 5.255 5.255 0 0 0-5.256 5.256c0 27.217-28.953 49.354-64.539 49.354A5.255 5.255 0 0 0 0 192.155a5.256 5.256 0 0 0 5.256 5.257c27.459 0 51.454-11.861 64.539-29.465v95.752H57.53a5.256 5.256 0 1 0 0 10.513h35.042a5.254 5.254 0 0 0 5.256-5.256 5.256 5.256 0 0 0-5.256-5.257H80.308v-95.752c13.081 17.604 37.079 29.465 64.539 29.465 27.459 0 51.455-11.861 64.538-29.465v95.752H197.12a5.258 5.258 0 0 0-5.257 5.257 5.258 5.258 0 0 0 5.257 5.256h35.043a5.258 5.258 0 0 0 0-10.513h-12.266v-95.752c13.083 17.604 37.079 29.465 64.539 29.465a5.257 5.257 0 0 0 .001-10.513zm-178.138-60.452h77.094a5.256 5.256 0 0 0 5.257-5.256V20.736a5.255 5.255 0 0 0-5.257-5.256h-77.094a5.253 5.253 0 0 0-5.256 5.256v100.458a5.254 5.254 0 0 0 5.256 5.253zm5.257-100.454h66.582v89.945h-66.582V25.993z"/></svg>