<svg width="36" height="36" viewBox="0 0 36 36" xmlns="http://www.w3.org/2000/svg"><title>744E42EE-9075-4FD9-B3D6-B8785DE8A568</title><defs><linearGradient x1="0%" y1="1.556%" y2="1.556%" id="a"><stop stop-color="#1EBF9D" offset="0%"/><stop stop-color="#1073B9" offset="100%"/></linearGradient></defs><g fill="none"><path d="M13.742 36a4.582 4.582 0 0 1-4.322-3.06 6.107 6.107 0 0 1-6.345-6.618 6.087 6.087 0 0 1-1.548-4.064c0-.725.126-1.42.358-2.066a9.165 9.165 0 0 1 4.71-14.364 7.637 7.637 0 0 1 10.964-3.924 7.637 7.637 0 0 1 10.964 3.924 9.165 9.165 0 0 1 4.854 14.169c.141.482.213.986.213 1.498a5.332 5.332 0 0 1-1.697 3.906 6.107 6.107 0 0 1-6.196 7.54 4.583 4.583 0 0 1-8.138 1.011A4.576 4.576 0 0 1 13.742 36z" fill="url(#a)" opacity=".2"/><path d="M17.559 33.952a4.582 4.582 0 0 1-8.139-1.011 6.107 6.107 0 0 1-6.345-6.618 6.087 6.087 0 0 1-1.548-4.065c0-.725.126-1.42.358-2.066a9.165 9.165 0 0 1 4.71-14.364 7.637 7.637 0 0 1 10.964-3.924 7.637 7.637 0 0 1 10.964 3.924 9.165 9.165 0 0 1 4.854 14.169c.141.482.213.986.213 1.498a5.332 5.332 0 0 1-1.697 3.906 6.107 6.107 0 0 1-6.196 7.54 4.583 4.583 0 0 1-8.138 1.011zm-.764-2.533A.76.76 0 0 1 17 30.9V3.43a.764.764 0 0 1-.149-.17 6.11 6.11 0 0 0-8.949 3.462.764.764 0 0 1-.762.54 7.638 7.638 0 0 0-4.452 11.414 6.1 6.1 0 0 1 4.946-2.524c1.205 0 2.36.35 3.346.997a.763.763 0 0 1-.837 1.277 4.58 4.58 0 0 0-6.09 6.689.763.763 0 0 1 .598.917.766.766 0 0 1-.042.294 4.58 4.58 0 0 0 4.552 5.095 4.58 4.58 0 0 1 2.373-4.015.763.763 0 1 1 .737 1.337 3.054 3.054 0 1 0 4.524 2.677zm1.861 1.39a3.054 3.054 0 0 0 5.504-.131 6.11 6.11 0 0 1-4.311-5.839.763.763 0 1 1 1.527 0 4.58 4.58 0 1 0 8.892-1.55.763.763 0 0 1 .593-1.012 3.805 3.805 0 0 0 1.202-2.824 9.127 9.127 0 0 1-6.107 2.332.763.763 0 1 1 0-1.527 7.634 7.634 0 0 0 2.02-14.998.764.764 0 0 1-.76-.539A6.11 6.11 0 0 0 19 2.89v29.336c0 .233-.133.443-.344.585zm6.488-17.102a.763.763 0 1 1-.33-1.49c1.464-.324 2.234-2.123 1.755-3.326a.763.763 0 1 1 1.419-.564c.806 2.026-.398 4.84-2.844 5.38zm-12.46-1.93c-2.446-.542-3.65-3.355-2.844-5.381a.763.763 0 0 1 1.419.564c-.479 1.203.291 3.002 1.754 3.326a.763.763 0 1 1-.33 1.49zm8.858 9.852a.763.763 0 1 1-.33-1.49c1.464-.324 2.234-2.123 1.755-3.326a.763.763 0 0 1 1.419-.565c.806 2.026-.398 4.84-2.844 5.381zm-6.998 3.728c-2.446-.54-3.65-3.355-2.844-5.38a.763.763 0 0 1 1.419.564c-.479 1.203.291 3.002 1.754 3.325a.763.763 0 1 1-.33 1.491z" fill="#000"/></g></svg>