<svg width="22" height="14" viewBox="0 0 22 14" xmlns="http://www.w3.org/2000/svg"><title>3F87F133-65FD-4968-B590-A0F5CAFD4C55</title><defs><linearGradient x1="0%" y1="1.556%" y2="1.556%" id="a"><stop stop-color="#1EBF9D" offset="0%"/><stop stop-color="#1073B9" offset="100%"/></linearGradient></defs><path d="M19.998 4.926a3.28 3.28 0 0 0 .535-1.801c0-1.75-1.222-3.125-2.811-3.125s-2.811 1.375-2.811 3.125c0 .676.204 1.294.535 1.801-.465.166-.88.445-1.21.813.04-.238.064-.484.064-.738 0-2.125-1.467-3.75-3.3-3.75-1.833 0-3.3 1.625-3.3 3.75 0 .254.023.5.064.738a2.992 2.992 0 0 0-1.21-.813 3.28 3.28 0 0 0 .535-1.801C7.089 1.375 5.867 0 4.278 0c-1.59 0-2.811 1.375-2.811 3.125 0 .676.204 1.294.535 1.801C.854 5.336 0 6.46 0 7.75v2.125c0 .375.244.625.611.625s.611-.25.611-.625V7.75c0-1 .734-1.75 1.711-1.75h.245v-.018c.344.17.717.268 1.1.268.382 0 .755-.097 1.1-.268V6h.244c.978 0 1.711.75 1.711 1.75 0 .025.01.044.011.066a3.64 3.64 0 0 0-1.477 2.934v2.625c0 .375.244.625.61.625.367 0 .612-.25.612-.625V10.75c0-1.25 1.1-2.375 2.322-2.375h.154c.434.234.917.375 1.435.375s1-.141 1.435-.375h.154c1.222 0 2.322 1.125 2.322 2.375v2.625c0 .375.244.625.611.625s.611-.25.611-.625V10.75a3.642 3.642 0 0 0-1.477-2.934c.002-.024.01-.042.01-.066 0-1 .734-1.75 1.712-1.75h.244v-.018c.345.17.718.268 1.1.268a2.47 2.47 0 0 0 1.1-.268V6h.245c.977 0 1.71.75 1.71 1.75v2.125c0 .375.245.625.612.625s.611-.25.611-.625V7.75c0-1.292-.856-2.414-2.002-2.824zM2.688 3.125c0-1 .734-1.875 1.59-1.875.855 0 1.589.875 1.589 1.875S5.133 5 4.277 5C3.423 5 2.69 4.125 2.69 3.125zM8.923 5c0-1.375.978-2.5 2.078-2.5 1.1 0 2.078 1.125 2.078 2.5S12.222 7.5 11 7.5 8.922 6.375 8.922 5zm7.211-1.875c0-1 .733-1.875 1.589-1.875.855 0 1.589.875 1.589 1.875S18.577 5 17.72 5c-.855 0-1.588-.875-1.588-1.875z" fill="url(#a)"/></svg>