<svg width="40" height="29" viewBox="0 0 40 29" xmlns="http://www.w3.org/2000/svg"><title>80BB2C56-6D6C-4A39-8325-77CB93A1EC8B</title><defs><linearGradient x1="0%" y1="1.556%" y2="1.556%" id="a"><stop stop-color="#1EBF9D" offset="0%"/><stop stop-color="#1073B9" offset="100%"/></linearGradient></defs><g fill="none" fill-rule="evenodd"><path d="M39.804 18.244C34.841 12.65 27.472 8 20 8 12.527 8 5.158 12.652.196 18.244a.775.775 0 0 0 .068 1.098.784.784 0 0 0 1.103-.068c.166-.188.337-.375.51-.56C5.737 24.52 12.735 28.221 20 28.221c7.265 0 14.263-3.701 18.123-9.509.173.186.344.373.51.56a.784.784 0 0 0 1.103.069.775.775 0 0 0 .068-1.098z" fill="url(#a)" opacity=".2"/><path d="M15.865 14.228a.783.783 0 0 0-1.105 0 .774.774 0 0 0 0 1.1c.305.304.8.304 1.105 0a.774.774 0 0 0 0-1.1zM20 15.556a2.341 2.341 0 0 0-2.344 2.333A2.341 2.341 0 0 0 20 20.222a2.341 2.341 0 0 0 2.344-2.333A2.341 2.341 0 0 0 20 15.556zm0 3.11a.78.78 0 0 1-.781-.777.78.78 0 0 1 1.562 0 .78.78 0 0 1-.781.778z" fill="#000" fill-rule="nonzero"/><path d="M20 11.667c-.873 0-1.718.175-2.51.522a.777.777 0 0 0-.4 1.025.783.783 0 0 0 1.03.4 4.663 4.663 0 0 1 1.88-.392c2.585 0 4.688 2.094 4.688 4.667S22.584 22.556 20 22.556c-2.585 0-4.688-2.094-4.688-4.667l.001-.08a.78.78 0 0 0-.763-.795.779.779 0 0 0-.799.76l-.001.115c0 3.43 2.804 6.222 6.25 6.222s6.25-2.791 6.25-6.222c0-3.431-2.804-6.222-6.25-6.222zM20 0a.78.78 0 0 0-.781.778v4.666c0 .43.35.778.781.778a.78.78 0 0 0 .781-.778V.778A.78.78 0 0 0 20 0zm-8.728 5.766L7.958 2.467a.784.784 0 0 0-1.105 0 .775.775 0 0 0 0 1.1l3.314 3.3c.305.303.8.303 1.105 0a.775.775 0 0 0 0-1.1zm21.875-3.299a.784.784 0 0 0-1.105 0l-3.314 3.3a.775.775 0 0 0 0 1.1c.305.303.8.303 1.105 0l3.314-3.3a.775.775 0 0 0 0-1.1z" fill="#000" fill-rule="nonzero"/><path d="M39.804 18.022C34.841 12.428 27.472 7.778 20 7.778c-7.473 0-14.842 4.651-19.804 10.244a.775.775 0 0 0 .068 1.098.784.784 0 0 0 1.103-.068c.166-.188.337-.375.51-.56C5.737 24.297 12.735 28 20 28c7.265 0 14.263-3.702 18.123-9.509.173.186.344.373.51.56a.784.784 0 0 0 1.103.069.775.775 0 0 0 .068-1.098zM20 26.444c-6.868 0-13.474-3.552-17.007-9.098C5.776 14.631 12.208 9.333 20 9.333c7.792 0 14.224 5.298 17.007 8.013-3.533 5.546-10.139 9.098-17.007 9.098z" fill="#000" fill-rule="nonzero"/></g></svg>