<svg width="42" height="43" viewBox="0 0 42 43" xmlns="http://www.w3.org/2000/svg"><title>9A4DC093-FB29-4B58-AF57-773F983B5B23</title><defs><linearGradient x1="0%" y1="1.556%" y2="1.556%" id="a"><stop stop-color="#1EBF9D" offset="0%"/><stop stop-color="#1073B9" offset="100%"/></linearGradient></defs><g fill="none"><path d="M33.02 22.94a10.199 10.199 0 0 1-1.872 4.212c1.066.276 2.2.033 3.132.742.818.622 1.316 1.672 1.316 2.696 0 4.53-6.624 4.355-6.771-.106a6.43 6.43 0 0 0-.11-1.012 10.189 10.189 0 0 1-4.859 1.73c-.003 1.055.108 2.092.561 2.954.743 1.415 2.083 2.419 1.68 4.208C25.757 39.87 24.302 41 22.754 41c-2.39 0-4.169-2.584-3.084-4.79.536-1.089 1.594-1.834 1.95-3.032.14-.47.294-1.181.403-1.979a10.181 10.181 0 0 1-3.718-1.072c0 .829.037 1.658-.405 2.41-.586.997-1.748 1.624-2.897 1.624a3.42 3.42 0 0 1-3.419-3.42c0-1.43.909-2.784 2.292-3.222.253-.08.585-.172.955-.281a10.207 10.207 0 0 1-1.837-3.835c-.958.269-1.79.553-2.22.655-2.333.552-3.53 2.768-5.703 3.55-2.04.733-4.124-1.129-4.124-3.249 0-2.123 1.756-3.55 3.782-3.3 1.738.214 3.262 1.4 5.063 1.32a16.184 16.184 0 0 0 2.961-.435 10.221 10.221 0 0 1 .652-4.668c-.703-.132-1.438-.126-2.31.063-2.208.48-4.525-.908-4.525-3.314 0-3.138 4.47-4.848 6.099-1.873.659 1.205 1.061 2.168 1.905 2.947a10.292 10.292 0 0 1 3.825-3.285c-.422-1.227-.768-2.473-1.577-3.53-1.367-1.787-4.097-1.476-4.097-4.364A3.42 3.42 0 0 1 16.145.5c.435 0 .932.11 1.336.269 2.18.864 2.11 2.983 1.66 4.903-.277 1.187-.244 2.12.223 3.254.263.64.493 1.423.75 2.22a10.252 10.252 0 0 1 3.08-.396 4.65 4.65 0 0 1-.223-1.06c-.14-1.892 1.508-3.545 3.406-3.545a3.42 3.42 0 0 1 3.42 3.42c0 1.273-.772 1.946-1.631 2.603.822.486 1.57 1.084 2.224 1.773 1.273-.837 2.623-1.716 3.44-3.01.619-.98.432-2.22 1.006-3.209.563-.97 1.71-1.523 2.81-1.523a3.42 3.42 0 0 1 3.42 3.42c0 .422-.095.897-.247 1.29-1.054 2.737-3.447 1.496-5.54 2.127-1.377.415-2.54 1.563-3.712 2.4a10.187 10.187 0 0 1 1.604 4.733c1.025-.207 1.908-.488 2.264-.668.705-.358 1.386-.629 2.074-.688.631-.053 1.27.071 1.936.474 1.095.66 1.635 1.983 1.455 3.231a3.163 3.163 0 0 1-.776 1.652c-.791.887-1.958 1.458-3.162 1.246-1.269-.222-2.044-1.39-3.087-2.035a6.23 6.23 0 0 0-.856-.441z" fill="url(#a)" opacity=".2" transform="translate(0 1)"/><path d="M33.02 23.94a10.199 10.199 0 0 1-1.872 4.212c1.066.276 2.2.033 3.132.742.818.622 1.316 1.672 1.316 2.696 0 4.53-6.624 4.355-6.771-.106a6.43 6.43 0 0 0-.11-1.012 10.189 10.189 0 0 1-4.859 1.73c-.003 1.055.108 2.092.561 2.954.743 1.415 2.083 2.419 1.68 4.208C25.757 40.87 24.302 42 22.754 42c-2.39 0-4.169-2.584-3.084-4.79.536-1.089 1.594-1.834 1.95-3.032.14-.47.294-1.181.403-1.979a10.181 10.181 0 0 1-3.718-1.072c0 .829.037 1.658-.405 2.41-.586.997-1.748 1.624-2.897 1.624a3.42 3.42 0 0 1-3.419-3.42c0-1.43.909-2.784 2.292-3.222.253-.08.585-.172.955-.281a10.207 10.207 0 0 1-1.837-3.835c-.958.269-1.79.553-2.22.655-2.333.552-3.53 2.768-5.703 3.55-2.04.733-4.124-1.129-4.124-3.249 0-2.123 1.756-3.55 3.782-3.3 1.738.214 3.262 1.4 5.063 1.32a16.184 16.184 0 0 0 2.961-.435 10.221 10.221 0 0 1 .652-4.668c-.703-.132-1.438-.126-2.31.063-2.208.48-4.525-.908-4.525-3.314 0-3.138 4.47-4.848 6.099-1.873.659 1.205 1.061 2.168 1.905 2.947a10.292 10.292 0 0 1 3.825-3.285c-.422-1.227-.768-2.473-1.577-3.53-1.367-1.787-4.097-1.476-4.097-4.364a3.42 3.42 0 0 1 3.42-3.42c.435 0 .932.11 1.336.269 2.18.864 2.11 2.983 1.66 4.903-.277 1.186-.244 2.12.223 3.254.263.64.493 1.423.75 2.22a10.252 10.252 0 0 1 3.08-.396 4.65 4.65 0 0 1-.223-1.06c-.14-1.892 1.508-3.545 3.406-3.545a3.42 3.42 0 0 1 3.42 3.42c0 1.273-.772 1.946-1.631 2.603.822.486 1.57 1.084 2.224 1.773 1.273-.837 2.623-1.716 3.44-3.01.619-.98.432-2.22 1.006-3.209.563-.97 1.71-1.523 2.81-1.523a3.42 3.42 0 0 1 3.42 3.42c0 .422-.095.897-.247 1.29-1.054 2.737-3.447 1.496-5.54 2.127-1.377.415-2.54 1.563-3.712 2.4a10.187 10.187 0 0 1 1.604 4.733c1.025-.207 1.908-.488 2.264-.668.705-.358 1.386-.629 2.074-.688.631-.053 1.27.071 1.936.474 1.095.66 1.635 1.983 1.455 3.231a3.163 3.163 0 0 1-.776 1.652c-.791.887-1.958 1.458-3.162 1.246-1.269-.222-2.044-1.39-3.087-2.035a6.23 6.23 0 0 0-.856-.441z" stroke="#00141B" stroke-width="1.4"/><path d="M20.9 16.434c-2.412 0-4.375 1.994-4.375 4.443 0 .985.283 1.86.772 3.04a.559.559 0 0 0 .732.301.57.57 0 0 0 .297-.742c-.444-1.07-.685-1.802-.685-2.598 0-1.825 1.462-3.31 3.26-3.31a.562.562 0 0 0 .558-.566.563.563 0 0 0-.558-.568z" fill="#000"/></g></svg>