<svg width="45" height="45" viewBox="0 0 45 45" xmlns="http://www.w3.org/2000/svg" xmlns:xlink="http://www.w3.org/1999/xlink"><title>60B9AAF2-E92F-41AD-A268-D9564A3EB45D</title><defs><circle id="a" cx="22.5" cy="22.5" r="22.5"/><linearGradient x1="0%" y1="1.556%" y2="1.556%" id="c"><stop stop-color="#1EBF9D" offset="0%"/><stop stop-color="#1073B9" offset="100%"/></linearGradient></defs><g fill="none" fill-rule="evenodd"><mask id="b" fill="#fff"><use xlink:href="#a"/></mask><use fill="#FFF" xlink:href="#a"/><g mask="url(#b)"><path d="M34.823 52L35 53.5c-1.122 4.852-15.5 1.5-16.409-1.501h-2.145c-2.65-7.148-3.132-16.834-1.996-22.82-3.312-1.417-9.156-5.066-12.45-7.185l1.47-1.491C3 11.5 4.5-7 16 3.5a234.814 234.814 0 0 1 4.458 4.17L18.71 5c4.703 3.993 14.495 13.219 15.364 21.541.913 8.7 1.37 21.496 1.496 25.458h-.748z" fill="url(#c)" opacity=".2" transform="translate(-1 -6)"/><path d="M15.602 22.77l.212-.905-.867-.301c-2.737-.952-8.875-4.756-12.478-7.061L1 15.994c3.294 2.12 9.138 5.768 12.45 7.184-1.136 5.987-.654 15.673 1.996 22.821h2.145c-3.198-7.85-3.111-18.376-1.989-23.228zm1.697-4.832c.07.419.265.806.543 1.133-.084.37-.112.759-.056 1.158.246 1.749 1.842 2.972 3.564 2.73 1.163-.163 2.075-.962 2.474-1.998.05-.004.096.002.147-.005 1.417-.2 2.402-1.528 2.2-2.967-.203-1.44-1.515-2.446-2.933-2.247a2.53 2.53 0 0 0-1.187.51 5.665 5.665 0 0 0-.809-.979C19.946 13.996 6.152.88 2.45-1.65L-.303 2.065c3.144 2.144 16.12 14.662 17.602 15.873zm15.776 2.603C32.205 12.22 22.415 2.993 17.71-1L16.27.466c4.442 3.772 14 12.695 14.795 20.293.896 8.585 1.354 21.226 1.48 25.24h2.026c-.126-3.962-.583-16.757-1.496-25.458zM25.563 23c-.78 0-1.469.387-1.915.978-.035-.006-.07-.003-.102-.007a2.857 2.857 0 0 0-1.605-.497c-1.625 0-2.941 1.362-2.941 3.043 0 1.679 1.317 3.041 2.941 3.041.085 0 .166-.018.247-.025.044.166.09.333.13.5.233.982.43 2.011.604 3.05.288 1.73-.301 17.154-.104 18.917h3.456c-.05-1.932.684-17.49.528-19.432a49.969 49.969 0 0 0-.38-3.379c-.073-.408-.143-.822-.227-1.244A2.501 2.501 0 0 0 28 25.521C28 24.128 26.91 23 25.563 23z" fill="#000" fill-rule="nonzero"/></g></g></svg>