<svg width="18" height="18" viewBox="0 0 18 18" xmlns="http://www.w3.org/2000/svg"><title>6AABF36A-D293-4670-88A5-C5FCC5E46E82</title><defs><linearGradient x1="0%" y1="1.556%" y2="1.556%" id="a"><stop stop-color="#1EBF9D" offset="0%"/><stop stop-color="#1073B9" offset="100%"/></linearGradient></defs><path d="M17.967 4.297L16.682.44a.643.643 0 0 0-.61-.44H1.928a.643.643 0 0 0-.61.44L.033 4.297A.655.655 0 0 0 0 4.483v.66A3.2 3.2 0 0 0 1.286 7.7v8.371c0 1.066.863 1.929 1.928 1.929h11.572a1.929 1.929 0 0 0 1.928-1.929V7.7A3.2 3.2 0 0 0 18 5.143v-.66a.653.653 0 0 0-.033-.186zM13.5 1.286h2.108l.858 2.571H13.5V1.286zm-3.857 0h2.571v2.571H9.643V1.286zm-3.857 0h2.571v2.571H5.786V1.286zm-3.394 0H4.5v2.571H1.534l.858-2.571zm7.894 15.428H7.714v-5.143h2.572v5.143zm5.143-.643a.643.643 0 0 1-.643.643H11.57V10.93a.643.643 0 0 0-.642-.643H7.07a.643.643 0 0 0-.642.643v5.785H3.214a.643.643 0 0 1-.643-.643V8.293a3.18 3.18 0 0 0 2.572-.59 3.258 3.258 0 0 0 3.857 0 3.258 3.258 0 0 0 3.857 0 3.18 3.18 0 0 0 2.572.59v7.778zm-.643-9a1.9 1.9 0 0 1-1.445-.667.643.643 0 0 0-.968 0 1.94 1.94 0 0 1-2.889 0 .665.665 0 0 0-.968 0 1.94 1.94 0 0 1-2.89 0 .665.665 0 0 0-.967 0 1.9 1.9 0 0 1-1.445.667 1.929 1.929 0 0 1-1.928-1.928h15.428a1.929 1.929 0 0 1-1.928 1.928z" fill="url(#a)"/></svg>