<svg width="223" height="187" viewBox="0 0 223 187" xmlns="http://www.w3.org/2000/svg" xmlns:xlink="http://www.w3.org/1999/xlink"><title>FBDFED37-E040-46F5-8A97-4F87E88F1CE6</title><defs><path d="M785.19 204.276h-20.399V139h75.476v32.638a157.735 157.735 0 0 1 1.224 19.583c0 40.39-15.503 82.82-51.405 96.691L755 259.354c19.583-12.648 30.19-31.007 30.19-55.078zm100.363 0h-20.399V139h75.476v32.638a157.734 157.734 0 0 1 1.224 19.583c0 40.39-15.503 82.82-51.405 96.691l-35.086-28.558c19.583-12.648 30.19-31.007 30.19-55.078z" id="b"/><filter x="-16.6%" y="-19.5%" width="133.2%" height="141.6%" filterUnits="objectBoundingBox" id="a"><feOffset dy="2" in="SourceAlpha" result="shadowOffsetOuter1"/><feGaussianBlur stdDeviation="10" in="shadowOffsetOuter1" result="shadowBlurOuter1"/><feColorMatrix values="0 0 0 0 0 0 0 0 0 0 0 0 0 0 0 0 0 0 0.0947973279 0" in="shadowBlurOuter1"/></filter></defs><g transform="translate(-738 -121)" fill="none" fill-rule="evenodd"><use fill="#000" filter="url(#a)" xlink:href="#b"/><use fill="#FFF" xlink:href="#b"/></g></svg>