<svg width="82" height="64" viewBox="0 0 82 64" xmlns="http://www.w3.org/2000/svg"><title>CB639662-6995-4765-8838-4921328286DA</title><defs><linearGradient x1="0%" y1="1.556%" y2="1.556%" id="a"><stop stop-color="#1EBF9D" offset="0%"/><stop stop-color="#1073B9" offset="100%"/></linearGradient></defs><g fill="none" fill-rule="evenodd"><path d="M77.624 19.307c-2.703-3.044-6.424-4.72-10.477-4.72-2.156 0-4.388.876-6.082 1.688-.092.044-.288.08-.293-.107-.362-4.062-1.964-7.657-4.587-10.61C53.001 1.974 48.619 0 43.845 0c-3.742 0-7.732 2.213-10.647 3.83-.885.49-2.338 1.39-2.761 1.39-.422 0-1.862-.894-2.75-1.387C24.78 2.215 20.797 0 17.03 0 12.256 0 7.874 1.974 4.69 5.558 1.664 8.961 0 13.44 0 18.167c0 6.685 2.383 16.18 6.374 25.4 1.776 4.104 3.669 7.653 5.473 10.263 2.196 3.178 4.11 4.722 5.854 4.722.806 0 2.28-.335 3.089-2.585.726-2.02 1.377-4.33 2.071-6.792 1.703-6.044 4.035-14.323 7.46-14.323 0 0 .349.012.372.304.749 4.984 2.456 10.521 4.905 16.18 1.493 3.448 3.083 6.43 4.6 8.626C42.079 62.679 43.735 64 45.263 64c.727 0 2.055-.298 2.773-2.297.611-1.7 1.158-3.639 1.738-5.698 1.408-4.999 3.337-11.844 6.053-11.844h.194c1.168 0 2.251 1.087 3.313 3.323 1.118 2.354 1.975 5.512 2.804 8.567.555 2.042 1.08 3.972 1.673 5.646.705 1.989 2.02 2.287 2.742 2.287 1.523 0 3.179-1.341 5.06-4.1 1.513-2.216 3.107-5.228 4.61-8.708 3.367-7.803 5.378-15.722 5.378-21.182 0-4.006-1.412-7.802-3.976-10.687z" fill="url(#a)" opacity=".2"/><path d="M77.624 19.307c-2.703-3.044-6.424-4.72-10.477-4.72-2.156 0-4.388.876-6.082 1.688-.092.044-.288.08-.293-.107-.362-4.062-1.964-7.657-4.587-10.61C53.001 1.974 48.619 0 43.845 0c-3.742 0-7.732 2.213-10.647 3.83-.885.49-2.338 1.39-2.761 1.39-.422 0-1.862-.894-2.75-1.387C24.78 2.215 20.797 0 17.03 0 12.256 0 7.874 1.974 4.69 5.558 1.664 8.961 0 13.44 0 18.167c0 6.685 2.383 16.18 6.374 25.4 1.776 4.104 3.669 7.653 5.473 10.263 2.196 3.178 4.11 4.722 5.854 4.722.806 0 2.28-.335 3.089-2.585.726-2.02 1.377-4.33 2.071-6.792 1.703-6.044 4.035-14.323 7.46-14.323 0 0 .349.012.372.304.749 4.984 2.456 10.521 4.905 16.18 1.493 3.448 3.083 6.43 4.6 8.626C42.079 62.679 43.735 64 45.263 64c.727 0 2.055-.298 2.773-2.297.611-1.7 1.158-3.639 1.738-5.698 1.408-4.999 3.337-11.844 6.053-11.844h.194c1.168 0 2.251 1.087 3.313 3.323 1.118 2.354 1.975 5.512 2.804 8.567.555 2.042 1.08 3.972 1.673 5.646.705 1.989 2.02 2.287 2.742 2.287 1.523 0 3.179-1.341 5.06-4.1 1.513-2.216 3.107-5.228 4.61-8.708 3.367-7.803 5.378-15.722 5.378-21.182 0-4.006-1.412-7.802-3.976-10.687zM30.246 29.995c0 .51.017 1.05.051 1.61.003.05.036.217-.205.2-2.698.007-4.703 1.86-6.569 5.771-1.46 3.059-2.561 6.97-3.627 10.754l-.007.026c-.673 2.388-1.31 4.643-1.997 6.556-.092.254-.157.491-.259.524-.273.088-1.322-.577-3.255-3.374-1.667-2.412-3.506-5.868-5.178-9.732-3.774-8.717-6.118-17.977-6.118-24.164 0-7.406 5.217-15.068 13.947-15.068 2.263 0 5.249 1.045 7.988 2.794.397.254.967.695 1.519 1.12.222.173.442.343.646.498a28.362 28.362 0 0 0 2.6 1.767c.551.327 1.053.617 1.613.857a18.147 18.147 0 0 0 7.16 1.461c2.53 0 6.255-.654 6.194-1.162-.062-.509-4.554.218-9.22-1.302-1.211-.395-2.773-.838-2.772-1.335 0-.138.438-.38.748-.565.33-.199.706-.424 1.183-.69 2.62-1.453 6.208-3.443 9.157-3.443 8.574 0 13.758 7.39 13.942 14.67.002.08.014.23-.149.33-.556.306-1.376.852-1.714.852-.384 0-1.598-.792-2.207-1.13-2.453-1.365-5.812-3.233-9.016-3.233-4.054 0-7.775 1.676-10.478 4.72-2.565 2.885-3.977 6.68-3.977 10.688zm43.244 19.99c-1.407 3.26-2.946 6.175-4.333 8.207-1.243 1.822-2.034 2.927-2.378 2.706-.097-.063-.243-.43-.278-.53-.555-1.566-.952-3.117-1.492-5.105-.863-3.182-1.757-6.472-2.99-9.068-1.606-3.383-3.568-5.027-5.999-5.027h-.193c-2.348 0-4.268 1.632-5.87 4.988-1.228 2.573-2.153 5.857-3.048 9.033-.565 2.004-1.098 3.895-1.674 5.497-.04.112-.098.239-.162.267-.28.122-1.08-.746-2.43-2.699-1.386-2.006-2.919-4.887-4.315-8.111-3.148-7.275-5.104-14.995-5.104-20.148 0-6.103 4.292-12.414 11.476-12.414 1.858 0 4.318.863 6.58 2.308.323.205.791.568 1.252.924.189.146.375.289.548.42.555.419 1.306.966 2.195 1.492.469.278.895.525 1.374.729a15.379 15.379 0 0 0 6.07 1.24c2.152 0 6.29-.612 6.247-1.304-.028-.443-4.65.138-8.728-1.152-.829-.262-2.008-.672-2.038-.83-.028-.15.245-.307.396-.397.274-.165.585-.352.983-.572 2.174-1.206 5.152-2.858 7.57-2.858 7.183 0 11.475 6.312 11.475 12.414-.001 4.995-1.968 12.655-5.134 19.99z" fill="#000" fill-rule="nonzero"/></g></svg>