<svg width="22" height="17" viewBox="0 0 22 17" xmlns="http://www.w3.org/2000/svg"><title>96CF0EA7-2020-426E-96EC-E64472B4ECD7</title><defs><linearGradient x1="0%" y1="1.556%" y2="1.556%" id="a"><stop stop-color="#1EBF9D" offset="0%"/><stop stop-color="#1073B9" offset="100%"/></linearGradient></defs><path d="M20.983 7.622L11.627.382c-.557-.445-1.448-.445-2.005 0L.266 7.622c-.222.223-.334.445-.222.668a.612.612 0 0 0 .557.334h1.113c.335 0 .557.223.557.557v5.57c0 .89.78 1.67 1.671 1.67h13.365c.891 0 1.671-.78 1.671-1.67V9.18c0-.334.223-.557.557-.557h1.114a.613.613 0 0 0 .557-.334c0-.223 0-.557-.223-.668zM6.726 11.966h7.797v1.114H6.726v-1.114zm.11-1.114c.241-.635.865-1.114 1.561-1.114h4.455c.697 0 1.32.479 1.56 1.114H6.838zm-.11 3.341h7.797v1.003H6.726v-1.003zM17.864 9.07v5.569c0 .334-.223.557-.557.557h-1.67v-3.787a2.757 2.757 0 0 0-2.785-2.785H8.397a2.757 2.757 0 0 0-2.784 2.785v3.787H3.942c-.334 0-.557-.223-.557-.557v-5.57c0-.667-.557-1.336-1.225-1.558l8.13-6.349a.71.71 0 0 1 .669 0l8.13 6.349c-.668.111-1.225.78-1.225 1.559z" fill="url(#a)"/></svg>