<svg width="46" height="46" viewBox="0 0 46 46" xmlns="http://www.w3.org/2000/svg"><title>5E442413-C60D-4F85-8E52-15DC61FB0957</title><path d="M36.225 28.62c-.94-.974-2.072-1.495-3.273-1.495-1.19 0-2.333.511-3.311 1.485l-3.06 3.036c-.252-.135-.504-.26-.746-.385a12.323 12.323 0 0 1-.958-.511c-2.866-1.813-5.471-4.174-7.97-7.23-1.21-1.523-2.023-2.805-2.614-4.107.794-.723 1.53-1.475 2.247-2.198.27-.27.542-.549.813-.819 2.033-2.024 2.033-4.646 0-6.67L14.71 7.093c-.3-.3-.61-.608-.901-.916a45.622 45.622 0 0 0-1.82-1.793c-.94-.926-2.063-1.417-3.244-1.417s-2.324.491-3.292 1.417l-.02.02L2.141 7.71A7.038 7.038 0 0 0 .04 12.193c-.233 2.815.6 5.437 1.24 7.153 1.568 4.212 3.911 8.117 7.407 12.3 4.24 5.042 9.344 9.023 15.173 11.828 2.227 1.051 5.2 2.295 8.521 2.507.203.01.416.019.61.019 2.237 0 4.115-.8 5.587-2.39.01-.02.03-.03.039-.049.503-.607 1.084-1.157 1.694-1.745a38.6 38.6 0 0 0 1.26-1.243c.958-.993 1.461-2.15 1.461-3.336 0-1.195-.513-2.342-1.49-3.306l-5.317-5.312zm3.467 10.15c-.01 0-.01.01 0 0-.378.405-.765.771-1.182 1.176-.63.598-1.268 1.224-1.869 1.928-.977 1.041-2.13 1.533-3.64 1.533-.146 0-.3 0-.446-.01-2.876-.183-5.548-1.301-7.552-2.255C19.522 38.5 14.71 34.75 10.71 29.998c-3.3-3.962-5.51-7.625-6.97-11.558-.9-2.4-1.23-4.27-1.085-6.035A4.417 4.417 0 0 1 3.99 9.542l3.302-3.287c.475-.444.978-.685 1.472-.685.61 0 1.104.367 1.414.675l.029.03c.59.549 1.152 1.117 1.743 1.725.3.308.61.617.92.935l2.643 2.631c1.027 1.022 1.027 1.967 0 2.989-.28.28-.552.559-.832.829-.814.829-1.589 1.6-2.43 2.352-.02.02-.04.029-.05.048-.832.83-.677 1.639-.503 2.188l.03.087c.687 1.658 1.655 3.22 3.127 5.08l.01.01c2.672 3.278 5.49 5.832 8.598 7.789.397.25.804.453 1.191.646.349.173.678.337.959.51.038.02.077.049.116.068.329.164.639.241.958.241.804 0 1.308-.501 1.472-.665l3.312-3.297c.329-.327.852-.723 1.462-.723.6 0 1.094.376 1.394.704l.02.02 5.335 5.31c.997.984.997 1.996.01 3.018zM24.781 10.666c2.45.412 4.677 1.572 6.454 3.349a11.923 11.923 0 0 1 3.348 6.454 1.255 1.255 0 0 0 1.244 1.047c.074 0 .14-.01.215-.019a1.264 1.264 0 0 0 1.038-1.459 14.427 14.427 0 0 0-4.05-7.81 14.425 14.425 0 0 0-7.81-4.05 1.27 1.27 0 0 0-1.458 1.03 1.249 1.249 0 0 0 1.02 1.458zm21.199 9.356c-.852-5-3.208-9.551-6.827-13.172C35.533 3.229 30.984.872 25.985.02a1.287 1.287 0 0 0-1.484 1.053 1.3 1.3 0 0 0 1.063 1.495c4.463.757 8.532 2.874 11.77 6.102 3.236 3.238 5.343 7.31 6.1 11.773a1.285 1.285 0 0 0 1.273 1.073c.076 0 .143-.01.22-.019a1.27 1.27 0 0 0 1.053-1.475z"/></svg>