<svg width="62" height="59" viewBox="0 0 62 59" xmlns="http://www.w3.org/2000/svg"><title>066CC39D-C86E-42E1-90FA-4EC06C8EF22B</title><defs><linearGradient x1="0%" y1="1.556%" y2="1.556%" id="a"><stop stop-color="#1EBF9D" offset="0%"/><stop stop-color="#1073B9" offset="100%"/></linearGradient></defs><g fill="none" fill-rule="evenodd"><path d="M58.417 32.575c0 .633-.52 1.153-1.153 1.153h-1.978c-.748 0-1.42.495-1.635 1.205-1.116 3.65-3.335 7.023-6.39 9.748l-.025.026-.013.013-.342.304-.038.038c-3.385 3.068-3.727 6.68-3.753 7.72v2.206h-9.127v-2.066c0-.482-.203-.951-.57-1.268a1.69 1.69 0 0 0-1.32-.431A29.522 29.522 0 0 1 25 51.122a1.743 1.743 0 0 0-1.356.405 1.74 1.74 0 0 0-.583 1.293v2.168h-9.115v-.621c-.076-1.711-.621-6.085-4.031-9.597-1.598-1.648-3.03-3.816-4.247-6.453-.013-.025-.026-.038-.026-.063a19.959 19.959 0 0 1-1.648-4.386c0-.013-.012-.026-.012-.038v-.026a19.769 19.769 0 0 1-.545-4.55c0-12.21 11.46-22.136 25.544-22.136 1.09 0 2.194.064 3.271.178.026 0 .05 0 .076.013 1.42.088 4.057.456 5.11 1.026a1.717 1.717 0 0 0 2.23-.545c1.103-1.635 3.31-3.701 7.543-4.221-1.711 2.738-2.218 5.578-1.47 8.227.013.495.253.964.634 1.28 3.423 2.764 5.907 6.276 7.175 10.143a1.717 1.717 0 0 0 1.623 1.179h2.105c.633 0 1.153.52 1.153 1.153v7.024h-.013z" fill="url(#a)" opacity=".2"/><path d="M57.264 20.95h-.9c-1.496-3.842-4.007-7.328-7.353-10.155-.47-1.699-.114-3.537 1.09-5.439.672-1.077.71-2.37.101-3.473a3.418 3.418 0 0 0-3.41-1.737c-4.627.57-7.441 2.637-9.128 4.602-2.028-.634-4.601-.824-5.083-.862a34.318 34.318 0 0 0-3.613-.203c-7.695 0-14.934 2.637-20.398 7.403C3.043 15.916 0 22.37 0 29.24c0 1.775.203 3.55.621 5.287.013.038.013.076.026.101l.012.064a24.244 24.244 0 0 0 1.902 5.096c1.382 2.967 3.03 5.451 4.88 7.366 2.561 2.636 3.005 5.983 3.069 7.327v.748c0 .14.012.266.038.393a3.271 3.271 0 0 0 3.22 2.776h9.444c1.8 0 3.258-1.458 3.258-3.258v-.43c1.344.1 2.7.113 4.057.05v.38c0 1.8 1.458 3.258 3.258 3.258h9.445c1.8 0 3.258-1.458 3.258-3.258v-2.307c.013-.532.215-3.055 2.611-5.236.115-.101.241-.203.355-.304l.026-.025a.296.296 0 0 0 .088-.09c3.157-2.826 5.54-6.274 6.922-10.04h.748a4.583 4.583 0 0 0 4.577-4.576V25.5c.025-2.51-2.029-4.552-4.551-4.552zM47.224 3.53c-.014 0-.014 0 0 0l-.014-.012v.013l-.215-1.699.228 1.699zm11.193 29.045c0 .633-.52 1.153-1.153 1.153h-1.978c-.748 0-1.42.495-1.635 1.205-1.116 3.65-3.335 7.023-6.39 9.748l-.025.026-.013.013-.342.304-.038.038c-3.385 3.068-3.727 6.68-3.753 7.72v2.206h-9.127v-2.066c0-.482-.203-.951-.57-1.268a1.69 1.69 0 0 0-1.32-.431A29.522 29.522 0 0 1 25 51.122a1.743 1.743 0 0 0-1.356.405 1.74 1.74 0 0 0-.583 1.293v2.168h-9.115v-.621c-.076-1.711-.621-6.085-4.031-9.597-1.598-1.648-3.03-3.816-4.247-6.453-.013-.025-.026-.038-.026-.063a19.959 19.959 0 0 1-1.648-4.386c0-.013-.012-.026-.012-.038v-.026a19.769 19.769 0 0 1-.545-4.55c0-12.21 11.46-22.136 25.544-22.136 1.09 0 2.194.064 3.271.178.026 0 .05 0 .076.013 1.42.088 4.057.456 5.11 1.026a1.717 1.717 0 0 0 2.23-.545c1.103-1.635 3.31-3.701 7.543-4.221-1.711 2.738-2.218 5.578-1.47 8.227.013.495.253.964.634 1.28 3.423 2.764 5.907 6.276 7.175 10.143a1.717 1.717 0 0 0 1.623 1.179h2.105c.633 0 1.153.52 1.153 1.153v7.024h-.013z" fill="#000" fill-rule="nonzero"/></g></svg>