<svg width="63" height="57" viewBox="0 0 63 57" xmlns="http://www.w3.org/2000/svg"><title>FAF7805A-4848-41EB-9179-8362C762882B</title><path d="M21 19.5a1.5 1.5 0 1 0 .001 3.001A1.5 1.5 0 0 0 21 19.5z"/><path d="M14.25 0C6.629 0 0 6.054 0 13.63v29.74C0 50.948 6.631 57 14.25 57c7.608 0 14.25-6.042 14.25-13.63V13.63C28.5 6.052 21.869 0 14.25 0zm11.728 43.37c0 6.275-5.588 11.152-11.728 11.152-6.357 0-11.728-5.107-11.728-11.152V29.74h23.456v13.63zm0-16.11H2.522V13.63c0-6.045 5.37-11.152 11.728-11.152 6.357 0 11.728 5.107 11.728 11.152v13.63z"/><path d="M16.668 6.072a1.252 1.252 0 0 0-1.596.756 1.24 1.24 0 0 0 .76 1.586A6.23 6.23 0 0 1 20 14.272v2.485c0 .687.56 1.243 1.25 1.243s1.25-.556 1.25-1.243v-2.485c0-3.676-2.344-6.971-5.832-8.2zM46.5 24C37.802 24 30 31.39 30 40.5 30 49.398 37.603 57 46.5 57 55.363 57 63 49.467 63 40.5 63 31.602 55.397 24 46.5 24zm0 30.519c-7.599 0-14.019-6.42-14.019-14.019 0-3.24 1.18-6.37 3.343-8.922l19.598 19.598c-2.551 2.163-5.676 3.343-8.922 3.343zm10.676-5.097L37.58 29.825c2.537-2.139 5.72-3.344 8.921-3.344 7.599 0 14.019 6.42 14.019 14.019 0 3.246-1.18 6.37-3.343 8.922z"/></svg>