<svg width="37" height="51" viewBox="0 0 37 51" xmlns="http://www.w3.org/2000/svg"><title>482FE137-AA8E-45FE-8241-922BA643C738</title><defs><linearGradient x1="0%" y1="1.556%" y2="1.556%" id="a"><stop stop-color="#1EBF9D" offset="0%"/><stop stop-color="#1073B9" offset="100%"/></linearGradient></defs><g transform="translate(-701 -3784)" fill="url(#a)"><path d="M734.933 3793.297c-3.1-5.916-9.297-9.297-15.777-9.297-3.381 0-6.762 1.127-9.58 2.817-8.451 5.071-10.987 16.623-5.916 25.356l11.833 20.567c.845 1.409 2.254 2.254 3.663 2.254 1.408 0 2.817-.845 3.662-2.254l12.115-21.13v-.282c3.38-5.635 3.099-12.396 0-18.03zm-2.536 16.904v.282l-12.114 20.848c-.282.845-.845.845-1.127.845-.282 0-.845-.281-1.127-.845l-11.833-20.566c-4.508-7.325-2.254-17.186 4.79-21.412 2.535-1.409 5.352-2.254 8.17-2.254 5.634 0 10.705 3.099 13.241 7.607a15.26 15.26 0 0 1 0 15.495z"/><path d="M719.156 3795.551c-3.945 0-7.044 3.1-7.044 7.043 0 3.945 3.1 7.044 7.044 7.044 3.944 0 7.043-3.1 7.043-7.044 0-3.944-3.099-7.043-7.043-7.043zm0 11.27c-2.254 0-4.226-1.973-4.226-4.227 0-2.254 1.972-4.226 4.226-4.226s4.226 1.972 4.226 4.226-1.972 4.226-4.226 4.226z"/></g></svg>