<svg width="66" height="66" viewBox="0 0 66 66" xmlns="http://www.w3.org/2000/svg"><title>06F15414-476B-4172-ACFF-9438F0350787</title><path d="M9.628 12.813c.293-3.424 2.512-5.642 5.935-5.935A.864.864 0 1 1 15.71 8.6c-2.59.222-4.139 1.77-4.36 4.36a.86.86 0 0 1-.935.788.864.864 0 0 1-.787-.934z"/><path d="M2.652 2.872a4.307 4.307 0 0 1 3.481-1.28l1.512.14c5.828.544 11.148 3.322 14.98 7.823l2.327 2.733 5.367-2.263-.287-.292a2.26 2.26 0 0 1 0-3.154l1.626-1.655a2.169 2.169 0 0 1 3.1 0l2.244 2.283 2.58-1.088-.646-.658a2.26 2.26 0 0 1 0-3.154L40.562.652a2.169 2.169 0 0 1 3.1 0l2.604 2.649 4.387-1.85a5.46 5.46 0 0 1 6.043 1.222l2.92 2.97c.62.631.94 1.503.876 2.393a3.083 3.083 0 0 1-1.205 2.24L37.393 26.9l7.308 8.584c.353.414.308 1.04-.098 1.398a.961.961 0 0 1-1.374-.1l-7.994-9.39-4.722-5.545-9.36-10.995c-3.501-4.112-8.361-6.65-13.686-7.146l-1.512-.141a2.38 2.38 0 0 0-1.925.708 2.47 2.47 0 0 0-.696 1.959l.138 1.538a21.224 21.224 0 0 0 3.537 9.956 1.002 1.002 0 0 1-.25 1.378.964.964 0 0 1-1.355-.255A23.234 23.234 0 0 1 1.532 7.952l-.139-1.538a4.468 4.468 0 0 1 1.26-3.542zM33.38 6.326a.24.24 0 0 0-.344 0L31.41 7.98a.251.251 0 0 0 0 .35l.857.872.791-.333 1.996-.842-1.674-1.702zm8.905-4.272a.24.24 0 0 0-.345 0l-1.626 1.655a.25.25 0 0 0 0 .35l1.217 1.238 2.787-1.175-2.033-2.068zm-6.17 23.345L58.121 8.686c.252-.191.404-.473.427-.793.022-.32-.088-.62-.31-.847l-2.92-2.97a3.555 3.555 0 0 0-2.54-1.074 3.55 3.55 0 0 0-1.38.28L26.296 13.868 36.114 25.4z"/><path d="M.63 41.084l1.601-1.608a2.153 2.153 0 0 1 3.05 0l.793.796 1.215-2.944-1.97-1.98a2.176 2.176 0 0 1 0-3.064l1.6-1.607a2.153 2.153 0 0 1 3.05 0l.046.046 2.348-5.692L9.797 22.8c-.19-.165-.378-.335-.561-.505a.965.965 0 0 1-.052-1.36.956.956 0 0 1 1.355-.052c.168.156.34.311.513.462l28.01 24.366a59.215 59.215 0 0 0 11.411 7.79h.002c.61.32 1.226.629 1.848.927.76.364 1.447.074 1.838-.318.39-.392.678-1.083.316-1.846a59.424 59.424 0 0 0-1.374-2.708l-.09-.163a59.28 59.28 0 0 0-.393-.714l-.084-.149a60.148 60.148 0 0 0-.415-.723l-.079-.134a58.45 58.45 0 0 0-.434-.727l-.08-.131c-.146-.24-.293-.478-.443-.715l-.091-.145a61.389 61.389 0 0 0-1.546-2.318 59.345 59.345 0 0 0-3.277-4.254.966.966 0 0 1 .11-1.358.956.956 0 0 1 1.352.111 61.314 61.314 0 0 1 2.843 3.634l8.663-3.938a4.34 4.34 0 0 1 4.853.887l1.475 1.482a1.833 1.833 0 0 1-.194 2.755l-9.649 7.29c.198.394.394.79.583 1.189a3.521 3.521 0 0 1-.69 4.037 3.493 3.493 0 0 1-2.484 1.047c-.517 0-1.04-.116-1.536-.354-.397-.19-.792-.386-1.185-.585l-7.257 9.691a1.818 1.818 0 0 1-2.744.194l-1.474-1.481a4.388 4.388 0 0 1-.884-4.873l3.921-8.7a61.135 61.135 0 0 1-4.067-3.244l-11.26-9.796-16.232 21.84a2.964 2.964 0 0 1-4.48.324L2.964 56.65a5.48 5.48 0 0 1-1.182-5.972l1.567-3.8-2.717-2.73a2.176 2.176 0 0 1 0-3.063zm63.403.399l-1.397-1.403a2.42 2.42 0 0 0-2.706-.495l-8.33 3.788.052.08c.105.154.208.309.31.464l.15.228c.35.533.69 1.072 1.023 1.616l.124.204c.099.163.196.325.293.489l.15.253.278.479.14.245c.152.268.302.537.45.807.051.092.103.184.153.277l9.31-7.032zM39.7 59.903a2.447 2.447 0 0 0 .492 2.718l1.397 1.403 7.002-9.35-.451-.25c-.215-.12-.428-.241-.641-.363l-.302-.174c-.16-.093-.32-.187-.479-.282l-.239-.143c-.55-.33-1.094-.668-1.632-1.014l-.212-.137a59.908 59.908 0 0 1-.497-.326l-.2-.133c-.155-.105-.312-.208-.468-.314l-3.77 8.366zM8.614 32.04a.239.239 0 0 0-.34 0l-1.6 1.607a.241.241 0 0 0 0 .34l1.41 1.416.864-2.093.272-.661-.606-.61zM4.319 55.287l2.873 2.886c.219.22.51.327.82.306.309-.022.58-.172.766-.421l16.315-21.952-3.42-2.975-7.782-6.77L3.55 51.413a3.554 3.554 0 0 0 .768 3.873zM1.987 42.786l2.156 2.166 1.137-2.755-1.354-1.36a.239.239 0 0 0-.339 0l-1.6 1.608a.242.242 0 0 0 0 .34z"/></svg>