<svg width="45" height="45" viewBox="0 0 45 45" xmlns="http://www.w3.org/2000/svg" xmlns:xlink="http://www.w3.org/1999/xlink"><title>965AF9F2-8376-4F46-841A-3465F8EA5299</title><defs><circle id="a" cx="22.5" cy="22.5" r="22.5"/><linearGradient x1="0%" y1="1.556%" y2="1.556%" id="c"><stop stop-color="#1EBF9D" offset="0%"/><stop stop-color="#1073B9" offset="100%"/></linearGradient></defs><g fill="none" fill-rule="evenodd"><mask id="b" fill="#fff"><use xlink:href="#a"/></mask><use fill="#FFF" xlink:href="#a"/><g mask="url(#b)" fill-rule="nonzero"><path d="M7.523 40.248a38.34 38.34 0 0 0 .031 13.789c.051.27.287.459.552.459.409-.067.61-.36.553-.666-.79-4.225 13.851 1.097 14.162 1.097.31 0 .561-.252.561-.563 0-.594-.45-2.452-1.188-4.296.503.321 1.038.515 1.695.515h1.514c.657 0 1.193-.194 1.695-.515-.738 1.844-1.188 3.702-1.188 4.296a.562.562 0 1 0 1.123 0c0-.823 6.113 3.91 7.638 2.136.858-.88 1.814-3.476 3.335-4.5 3.064-2.063 3.415-2.396 2.626 1.828-.057.306.145.6.45.657.369.01.604-.179.655-.45.852-4.56.845-9.236.05-13.678-.709-3.894-1.97-7.504-3.781-10.72-3.027-5.31-3.28-8.948-3.28-11.941 0-2.41.343-4.754 1.02-6.969a.563.563 0 0 0-.373-.702c-.199-.06-3.522-3.236-9.97-9.525-7.456 6.29-11.284 9.465-11.482 9.525a.563.563 0 0 0-.373.703 23.839 23.839 0 0 1 1.02 6.968c0 2.994-.253 6.632-3.282 11.944-1.813 3.216-3.074 6.826-3.763 10.608z" fill="url(#c)" opacity=".2" transform="translate(-2 -9)"/><path d="M5.523 31.248l-.017.07c-.003.013 0 .026-.002.04a38.179 38.179 0 0 0 .05 13.679.563.563 0 0 0 .656.45.563.563 0 0 0 .45-.657 37.06 37.06 0 0 1-.155-12.68c1.27.347 4.471 1.358 7.542 3.425a21.272 21.272 0 0 1 3.449 2.896c1.526 1.774 2.763 6.071 2.763 6.893a.562.562 0 1 0 1.123 0c0-.594-.45-2.452-1.188-4.296.503.321 1.038.515 1.695.515h1.514c.657 0 1.193-.194 1.695-.515-.738 1.844-1.188 3.702-1.188 4.296a.562.562 0 1 0 1.123 0c0-.823 1.237-5.12 2.763-6.893a21.254 21.254 0 0 1 3.449-2.896c3.064-2.064 6.27-3.077 7.541-3.426.668 4.13.635 8.455-.154 12.68a.563.563 0 0 0 1.105.206c.852-4.56.845-9.236.05-13.678-.002-.013.002-.027-.002-.04l-.018-.073c-.689-3.781-1.95-7.391-3.761-10.607-3.027-5.31-3.28-8.948-3.28-11.941 0-2.41.343-4.754 1.02-6.969a.562.562 0 0 0-1.074-.33 24.943 24.943 0 0 0-1.07 7.299c0 3.137.265 6.95 3.427 12.497 1.277 2.265 2.267 4.736 2.972 7.326-1.52.766-8.117 3.898-14.75 4.104H22.06c-6.641-.206-13.248-3.34-14.767-4.105.704-2.588 1.694-5.058 2.97-7.322 3.163-5.55 3.428-9.362 3.428-12.5 0-2.52-.36-4.976-1.069-7.297a.562.562 0 1 0-1.074.329 23.839 23.839 0 0 1 1.02 6.968c0 2.994-.253 6.632-3.282 11.944-1.813 3.216-3.074 6.826-3.763 10.608z" fill="#000"/><path d="M23.237 19.917a.592.592 0 1 0-.002-1.184.592.592 0 0 0 .002 1.184zM5.306 16.284c0 .194.114.373.299.469a.628.628 0 0 0 .592-.007l3.339-1.825a.53.53 0 0 0 .287-.463.531.531 0 0 0-.287-.463L6.197 12.17a.636.636 0 0 0-.592-.006.534.534 0 0 0-.299.469v1.286H-1.41c-.326 0-.589.242-.589.54 0 .297.263.539.59.539h6.716v1.286zm41.579-2.364h-6.717v-1.287a.533.533 0 0 0-.3-.469.636.636 0 0 0-.592.006l-3.338 1.825a.53.53 0 0 0-.287.463c0 .19.109.366.287.463l3.338 1.825a.63.63 0 0 0 .593.007.534.534 0 0 0 .299-.47v-1.286h6.717c.325 0 .589-.241.589-.539 0-.298-.263-.539-.589-.539z" fill="#000"/></g></g></svg>