<svg width="23" height="17" viewBox="0 0 23 17" xmlns="http://www.w3.org/2000/svg"><title>AD9CD2DC-7795-49C1-80A3-C4219435837C</title><defs><linearGradient x1="0%" y1="1.556%" y2="1.556%" id="a"><stop stop-color="#1EBF9D" offset="0%"/><stop stop-color="#1073B9" offset="100%"/></linearGradient></defs><path d="M27.051 14.839l-9.529-7.374c-.567-.454-1.475-.454-2.042 0l-9.53 7.374c-.226.227-.34.454-.226.68.113.227.34.34.567.34h1.134c.34 0 .568.228.568.568V22.1c0 .908.794 1.702 1.701 1.702h13.614c.907 0 1.701-.794 1.701-1.702v-5.672c0-.34.227-.567.568-.567h1.134a.624.624 0 0 0 .567-.34c0-.227 0-.568-.227-.681zm-8.848 7.714h-3.404v-4.991c0-.34.227-.568.568-.568h2.268c.34 0 .568.227.568.568v4.991zm5.672-6.24v5.673c0 .34-.227.567-.567.567h-3.97v-4.991c0-.908-.795-1.702-1.703-1.702h-2.268c-.908 0-1.702.794-1.702 1.702v4.991h-3.97c-.341 0-.568-.227-.568-.567v-5.672c0-.681-.567-1.362-1.248-1.589l8.282-6.466a.723.723 0 0 1 .68 0l8.282 6.466c-.68.114-1.248.795-1.248 1.589z" transform="translate(-5 -7)" fill="url(#a)"/></svg>