<svg width="11" height="13" viewBox="0 0 11 13" xmlns="http://www.w3.org/2000/svg"><title>433504D8-9700-46CF-8D1B-246D86C1B1A0</title><g fill="#00141B" fill-rule="evenodd"><path d="M2.997 8.269V13H1.403V.914H5.86c.687 0 1.293.091 1.818.274.526.183.967.439 1.324.768.357.33.628.72.814 1.17.185.451.278.945.278 1.482 0 .581-.093 1.1-.278 1.556a2.99 2.99 0 0 1-.814 1.15c-.357.31-.798.546-1.324.71-.525.163-1.131.245-1.818.245H2.997zm0-1.304H5.86c.465 0 .865-.058 1.2-.174.335-.116.609-.278.822-.486.213-.207.369-.453.469-.738.1-.285.149-.6.149-.942 0-.31-.05-.61-.15-.901a2.048 2.048 0 0 0-.468-.768 2.295 2.295 0 0 0-.822-.531c-.335-.133-.735-.2-1.2-.2H2.997v4.74z"/><path d="M7.637 11.253H.033V10h7.604z"/></g></svg>