<svg width="24" height="24" viewBox="0 0 24 24" xmlns="http://www.w3.org/2000/svg"><title>9B7E9B76-081E-453F-8045-A2A55F868788</title><path d="M16.299 18.379c-3.921 2.903-9.517 2.546-13.112-1.05C-.766 13.376-.805 7.006 3.101 3.101c3.905-3.906 10.275-3.867 14.228.086 3.772 3.772 3.98 9.745.598 13.677l5.504 5.504-1.571 1.571-5.561-5.56zm.275-1.805c3.445-3.446 3.411-9.067-.077-12.555C13.01.53 7.388.497 3.943 3.943.497 7.388.53 13.009 4.019 16.497c3.488 3.488 9.109 3.522 12.555.077z" fill="#056493" fill-rule="evenodd"/></svg>