<svg width="894" height="659" viewBox="0 0 894 659" xmlns="http://www.w3.org/2000/svg"><title>1CA6A66D-9ED3-487A-86A5-1369A055B679</title><path d="M719.784 658.274H496.738l-19.424-168.403 5.624-67.64c15.704 17.644 37.345 33.951 77.164 45.086.737.216 1.47.378 2.202.497a21.36 21.36 0 0 0 6.408.11h.055c19.785-2.026 30.68-32.78 30.68-34.517 0-1.147-13.258-4.446-22.342-6.57l-5.505-14.321-17.426 6.228c-26.437-13.853-48.816-39.664-63.566-57.787l-6.979-8.646c-.027-.014-.041-.042-.055-.056-9.26-7.97-14.902-13.608-18.058-17.768-9.835-12.99 4.667-11.452 9.61-20.688 6.522-12.203 10.59-91.42 10.59-91.42s-28.482 3.367-59.774 11.963c-17.054 4.69-18.634 21.454-15.865 38.936h-.336s-6.965-3.478-5.224 6.966c1.488 8.9 4.247 17.768 11.493 18.044 1.493 5.26 2.852 9.955 3.635 13.627 1.073 5.016.285 9.176-1.456 12.608-.613.226-36.032 13.36-76.883 64.374 0 .005 0 .005-.005.01-14.763 15.063-29.689 32.509-41.997 51.447a.253.253 0 0 1-.032.041s-14.843 13.894-13.101 26.079c.423 2.962 2.501 5.823 5.398 8.458l-29.555 36.47-33.273-26.971c-3.966-3.234-9.812-2.65-13.032 1.336L124.951 596.94c-3.22 3.985-2.62 9.84 1.364 13.046l25.184 20.44c-5.79 7.15-6.472 17.538-.94 25.475a21.43 21.43 0 0 0 1.909 2.373H40.722c1.1-4.79 1.417-9.852.207-15.42-7.956-36.558-62.594-18.458-29.966-66.032 14.796-21.586 50.326-23.715 60.318-43.694 4.238-8.462-.972-54.728-2.446-63.374-5.169-30.575-19.97-61.638-25.916-93.212-7.1-37.692-10.416-33.233 26.879-34.016 11.42-.244 23.221-3.105 34.58-3.8 3.677-.226 9.25 5.96 15.16 7.766 2.562-3.634 11.794-5.237 15.686-6.523 3.437-1.128 16.662-2.27 18.21-4.1 3.187-3.768 3.224-9.153 3.966-14.027.737-4.878 3.188-10.406 8.052-11.231 4.349-.733 8.508 2.745 12.903 2.322 3.634-.355 6.477-3.299 8.42-6.39 1.945-3.086 3.386-6.56 5.957-9.153 6.877-6.938 18.228-5.1 25.479-11.356 6.006-5.182 9.028-14.953 12.24-21.895 9.802-21.159 7.07-41.05 19.784-61.237 7.186-11.402 15.372-22.707 24.88-32.284 9.743-9.803 23.922-8.347 35.866-13.189 6.422-2.603 12.387-6.993 15.483-13.193.594-1.189 1.082-2.483 1-3.81-.696-10.596-22.052-10.3-20.555-26.544.852-9.26 4.961-20.78 9.623-28.829 5.818-10.047 14.88-20.49 23.996-27.63 5.615-4.405 12.387-7.661 19.527-7.91 8.319-.295 16.187 3.446 24.331 5.14 33.937 7.072 25.765-40.123 49.562-51.36 15.358-7.26 26.653-.695 37.585 3.087 9.65 3.34 28.238-4.4 31.26 10.425.534 2.63.51 5.957 2.91 7.145 1.033.507 2.244.429 3.387.313 8.254-.824 16.362-2.86 24.63-3.528 8.274-.668 17.012.17 24.014 4.616 10.697 6.8 10.844 16.62 11.871 27.773.742 7.998 2.598 16.285 12.484 15.612 14.81-1 24.981-25.89 37.064-30.394 20.333-7.55 60.355 16.975 70.673 29.62 18.233 22.338 8.136 38.568 12.083 59.46 3.234 17.173 14.727 14.036 12.645 34.793-.576 5.653-11.032 10.144-11.54 16.12-2.312 27.27-2.975 12.967 15.295 33.955 10.866 12.47 16.385 19.901 21.051 34.762 5.938 18.93 15.948 32.34 31.454 43.405 28.643 20.467 34.968 5.095 29.657 50.328 5.025 4.602 37.335-2.18 48.617 4.653 9.996 6.053 10.908 7.647 17.564 14.598-.082-.097-7.568 8.324-3.887 12.604 4.436 5.173 14.915 4.063 18.241 9.144 7.716 11.734 9.587 7.058 12.258 25.812 0 .198-48.4 45.942-50.916 46.864-19.568 7.177-31.153-9.573-43.038-10.987-14.345-1.71-39.418 5.707-35.954 25.691 2.188 12.59 23.055 19.836 29.242 31.413 6.044 11.323-4.344 14.262-3.409 20.173.673 4.224 8.863 22.683 10.816 30.367 3.584 14.05 11.641 26.12 13.728 35.624 1.736 7.923 6.541 14.727.566 19.698-3.247 2.704-11.627 3.234-15.579 4.901-19.928 8.403-45.991 6.685-61.244 22.882-6.54 6.94-13.032 15.188-17.692 24.052zm-445.986 0H184.96c5.375-6.58 6.393-15.917 2.259-23.59l49.543-60.393 34.839-43.058 37.598-45.346c5.094 2.365 9.043 3.765 9.043 3.765l11.742-16.456c1.209-1.201 2.312-2.541 3.24-4.061 13.494-22.163 32.01-42.565 49.371-59.132l-6.436 77.63c-.009.06-.009.12-.014.185l-.378.088-55.781 92.512s-27.489 46.71-46.188 77.856zm162.684 0H336.96l34.786-51.175 34.706-53.315c5.515-5.675 15.153-2.298 15.913 5.569l14.118 98.921z" fill="#FFF" opacity=".2"/></svg>