<svg width="20" height="20" viewBox="0 0 20 20" xmlns="http://www.w3.org/2000/svg"><title>31E0C43D-8CDF-4631-83F1-838444698691</title><defs><linearGradient x1="0%" y1="1.556%" y2="1.556%" id="a"><stop stop-color="#1EBF9D" offset="0%"/><stop stop-color="#1073B9" offset="100%"/></linearGradient></defs><path d="M18.698 0C19.408 0 20 .592 20 1.302v7.1c0 .355-.118.71-.355.947L9.349 19.645c-.355.237-.71.355-.947.355-.355 0-.71-.118-.946-.355l-7.101-7.1C.118 12.307 0 11.952 0 11.597s.118-.71.355-.947L10.651.355c.237-.237.592-.355.947-.355h7.1zm0 8.64V1.42c0-.118 0-.118-.118-.118h-7.1v-.237L1.064 11.48v.237l7.219 7.219h.118L18.698 8.639zM13.3 5.3c.4-.4 1-.4 1.4 0 .4.4.4 1 0 1.4-.2.2-.4.3-.7.3-.3 0-.5-.1-.7-.3-.4-.4-.4-1 0-1.4z" fill="url(#a)"/></svg>