<svg width="14" height="19" viewBox="0 0 14 19" xmlns="http://www.w3.org/2000/svg"><title>2DDB7B94-F07A-4500-99EF-CA409B8D0AAB</title><defs><linearGradient x1="0%" y1="1.556%" y2="1.556%" id="a"><stop stop-color="#1EBF9D" offset="0%"/><stop stop-color="#1073B9" offset="100%"/></linearGradient></defs><path d="M9.335 1.268L1.062 9.383l.68.663 8.273-8.115c1.09-1.063 2.99-1.062 4.08 0a2.767 2.767 0 0 1 0 3.978l-8.953 8.778c-.75.73-1.97.73-2.72 0a1.844 1.844 0 0 1 0-2.652l8.953-8.778a.981.981 0 0 1 1.36 0 .922.922 0 0 1 0 1.326l-8.273 8.115.68.662 8.273-8.114a1.846 1.846 0 0 0 0-2.652 1.96 1.96 0 0 0-2.72 0l-8.953 8.778a2.767 2.767 0 0 0 0 3.977 2.941 2.941 0 0 0 4.08 0l8.952-8.778a3.688 3.688 0 0 0 0-5.303c-1.5-1.462-3.94-1.462-5.439 0z" transform="rotate(-15 11.298 12.798)" fill="url(#a)"/></svg>