<svg width="33" height="43" viewBox="0 0 33 43" xmlns="http://www.w3.org/2000/svg"><title>1ED4F83C-DF21-4FA8-BC3A-DA2F62968744</title><path d="M32.195 0H.805A.801.801 0 0 0 0 .796v41.408A.8.8 0 0 0 .805 43h31.39a.801.801 0 0 0 .805-.796V.796A.8.8 0 0 0 32.195 0zm-.805 41.407H1.61V1.593h29.78v39.814z"/><path d="M27.222 10H14.778c-.43 0-.778.448-.778 1s.348 1 .778 1h12.444c.43 0 .778-.448.778-1s-.349-1-.778-1zm.97 5H8.808C8.362 15 8 15.448 8 16s.362 1 .808 1h19.384c.446 0 .808-.448.808-1s-.362-1-.808-1zm0 5H8.808C8.362 20 8 20.448 8 21s.362 1 .808 1h19.384c.446 0 .808-.448.808-1s-.362-1-.808-1zm0 4H8.808C8.362 24 8 24.448 8 25s.362 1 .808 1h19.384c.446 0 .808-.448.808-1s-.362-1-.808-1zm0 5H8.808C8.362 29 8 29.448 8 30s.362 1 .808 1h19.384c.446 0 .808-.448.808-1s-.362-1-.808-1zM15.2 34H8.8c-.442 0-.8.448-.8 1s.358 1 .8 1h6.4c.442 0 .8-.448.8-1s-.358-1-.8-1z"/></svg>