<svg width="36" height="36" viewBox="0 0 36 36" xmlns="http://www.w3.org/2000/svg"><title>C13B5918-94F2-4164-877E-21CF4DAC1E1F</title><defs><linearGradient x1="0%" y1="1.556%" y2="1.556%" id="a"><stop stop-color="#1EBF9D" offset="0%"/><stop stop-color="#1073B9" offset="100%"/></linearGradient></defs><g fill="none" fill-rule="evenodd"><path d="M15.652 9.348v17.857a8.609 8.609 0 0 1-8.609 8.61H.783A.783.783 0 0 1 0 35.031v-7.596c0-9.09 4.09-15.845 12.202-20.16a2.348 2.348 0 0 1 3.45 2.072zm4.696 0a2.348 2.348 0 0 1 3.45-2.072C31.911 11.59 36 18.346 36 27.436v7.596c0 .432-.35.782-.783.782h-6.26a8.609 8.609 0 0 1-8.61-8.609V9.348z" fill="url(#a)" opacity=".2"/><path d="M7.043 34.435a7.043 7.043 0 0 0 7.044-7.044V9.534a.783.783 0 0 0-1.15-.69C5.334 12.887 1.565 19.111 1.565 27.621v6.813h5.478zm8.61-24.9V27.39A8.609 8.609 0 0 1 7.042 36H.783A.783.783 0 0 1 0 35.217v-7.595c0-9.09 4.09-15.845 12.202-20.16a2.348 2.348 0 0 1 3.45 2.072zm13.304 24.9h5.478v-6.813c0-8.51-3.769-14.734-11.372-18.779a.783.783 0 0 0-1.15.691v17.857a7.043 7.043 0 0 0 7.044 7.044zm-8.61-24.9a2.348 2.348 0 0 1 3.451-2.074C31.911 11.777 36 18.531 36 27.621v7.596c0 .433-.35.783-.783.783h-6.26a8.609 8.609 0 0 1-8.61-8.609V9.534zM17.217.783v12.521a.783.783 0 1 0 1.566 0V.783a.783.783 0 1 0-1.566 0z" fill="#000" fill-rule="nonzero"/><path d="M15.423 15.423c.908-.908 1.764-1.336 2.577-1.336s1.67.428 2.577 1.336a.783.783 0 1 0 1.107-1.107c-1.18-1.179-2.41-1.794-3.684-1.794s-2.505.615-3.684 1.794a.783.783 0 1 0 1.107 1.107z" fill="#000" fill-rule="nonzero"/></g></svg>