<svg width="18" height="18" viewBox="0 0 18 18" xmlns="http://www.w3.org/2000/svg"><title>B58A1C79-7408-4EBD-87D7-9B6DF4C49C63</title><defs><linearGradient x1="0%" y1="1.556%" y2="1.556%" id="a"><stop stop-color="#1EBF9D" offset="0%"/><stop stop-color="#1073B9" offset="100%"/></linearGradient></defs><path d="M15.344 2.645C13.65.952 11.428 0 8.994 0 6.562 0 4.34.952 2.646 2.645c-3.492 3.492-3.492 9.207 0 12.699 1.694 1.693 3.916 2.645 6.35 2.645 2.433 0 4.656-.952 6.349-2.645 3.492-3.492 3.492-9.207 0-12.699zm-6.35-1.587c1.937 0 3.78.715 5.214 1.97L8.99 8.248l-2.239-2.24c1.118-1.32 1.566-3.101 1.22-4.875a7.83 7.83 0 0 1 1.024-.075zm-2.1.292a4.649 4.649 0 0 1-.94 3.862l-2.178-2.18A7.933 7.933 0 0 1 6.894 1.35zM3.03 3.782l2.188 2.19c-1.04.867-2.478 1.193-3.85.925A7.825 7.825 0 0 1 3.03 3.782zM1.168 7.894c.38.088.75.148 1.16.148a5.833 5.833 0 0 0 3.654-1.306l2.26 2.26-5.213 5.212c-1.545-1.772-2.164-4.095-1.86-6.314zm7.827 9.037a7.92 7.92 0 0 1-5.218-1.974L8.99 9.744l2.244 2.243c-1.115 1.319-1.561 3.098-1.214 4.869a7.85 7.85 0 0 1-1.025.075zm1.98-.261c-.239-1.388.191-2.792 1.057-3.884l2.175 2.176a7.927 7.927 0 0 1-3.233 1.708zm3.98-2.458l-2.182-2.182c1.05-.815 2.472-1.099 3.818-.814a7.841 7.841 0 0 1-1.636 2.996zm-2.967-2.967l-2.25-2.25 5.218-5.217c1.553 1.777 2.173 4.11 1.862 6.336-1.68-.412-3.496.057-4.83 1.131z" fill="url(#a)"/></svg>