<svg width="108" height="108" viewBox="0 0 108 108" xmlns="http://www.w3.org/2000/svg"><title>42D84745-4CAF-44BF-9495-B8F98D695EA7</title><defs><linearGradient x1="0%" y1="1.556%" y2="1.556%" id="a"><stop stop-color="#1EBF9D" offset="0%"/><stop stop-color="#1073B9" offset="100%"/></linearGradient></defs><g fill="none" fill-rule="evenodd"><circle stroke="#0091EA" stroke-width="1.43" fill="#FFF" cx="54" cy="54" r="53.285"/><path d="M1.193 44.313c0 2.444 2 4.432 4.46 4.432H57.55c2.459 0 4.46-1.988 4.46-4.432 0-1.69-.957-3.162-2.361-3.91l3.468-36.018-18.898 17.23L31.602 0 18.983 21.615.085 4.385l3.468 36.019a4.432 4.432 0 0 0-2.36 3.91z" fill="url(#a)" opacity=".2" transform="translate(23 28)"/><path d="M24.193 72.313c0 2.444 2 4.432 4.46 4.432H80.55c2.459 0 4.46-1.988 4.46-4.432 0-1.69-.957-3.162-2.361-3.91l3.468-36.018-18.898 17.23L54.602 28 41.983 49.615l-18.898-17.23 3.468 36.019a4.432 4.432 0 0 0-2.36 3.91zm56.358 2.015H28.653a2.023 2.023 0 0 1-2.028-2.015c0-1.11.91-2.014 2.028-2.014H80.55c1.118 0 2.027.903 2.027 2.014 0 1.11-.91 2.015-2.027 2.015zM26.11 38.425L42.568 53.43l12.034-20.612L66.635 53.43l16.458-15.005-2.836 29.456h-51.31l-2.836-29.456z" fill="#000" fill-rule="nonzero"/><path d="M60.905 57.415l-6.303-8.404-6.304 8.404 6.304 8.405 6.303-8.405zm-6.303-4.402l3.302 4.402-3.302 4.403-3.302-4.403 3.302-4.402zM70.99 63.298h2.521v2.522h-2.52zm-10.926 0h8.405v2.522h-8.405zm-24.372 0h2.521v2.522h-2.521zm5.042 0h8.405v2.522h-8.405zm22.692-7.564h2.522v2.522h-2.522zm-20.17 0h2.521v2.522h-2.521z" fill="#000" fill-rule="nonzero"/></g></svg>