<svg width="62" height="66" viewBox="0 0 62 66" xmlns="http://www.w3.org/2000/svg"><title>DCD8B1CB-A634-4F83-A5D0-F7BD78F48B86</title><defs><linearGradient x1="0%" y1="1.556%" y2="1.556%" id="a"><stop stop-color="#1EBF9D" offset="0%"/><stop stop-color="#1073B9" offset="100%"/></linearGradient></defs><g fill="none" fill-rule="evenodd"><circle stroke="#0091EA" stroke-width="2" fill="#FFF" opacity=".7" cx="30.5" cy="30.5" r="29.5"/><g fill-rule="nonzero"><path d="M23.1.005c-1.67 0-2.814.547-3.92 1.076-.984.472-1.913.917-3.18.917-1.267 0-2.196-.445-3.18-.917-.992-.475-2.017-.96-3.422-1.056a2.51 2.51 0 0 0-.493-.02C4.082.005.161 3.985.161 8.878c0 2.175.743 3.903 1.461 5.574.681 1.584 1.325 3.08 1.404 4.968.017.397.032.814.047 1.244.193 5.4.458 12.798 5.368 13.327.06.006.117.009.174.009 1.694 0 2.401-2.52 3.22-5.437.898-3.202 1.916-6.832 4.141-6.903 2.273.071 3.291 3.7 4.19 6.903C20.983 31.48 21.69 34 23.385 34c.056 0 .115-.003.173-.01 4.91-.528 5.175-7.926 5.368-13.327.015-.43.03-.847.047-1.244.08-1.887.723-3.383 1.404-4.967.718-1.67 1.462-3.399 1.462-5.574 0-4.893-3.92-8.873-8.74-8.873z" fill="url(#a)" opacity=".2" transform="translate(15 14)"/><path d="M38.1 14.005c-1.67 0-2.814.547-3.92 1.076-.984.472-1.913.917-3.18.917-1.267 0-2.196-.445-3.18-.917-.992-.475-2.017-.96-3.422-1.056a2.51 2.51 0 0 0-.493-.02h-.004c-4.82 0-8.74 3.98-8.74 8.873 0 2.175.743 3.903 1.461 5.574.681 1.584 1.325 3.08 1.404 4.968.017.397.032.814.047 1.244.193 5.4.458 12.798 5.368 13.327.06.006.117.009.174.009 1.694 0 2.401-2.52 3.22-5.437.898-3.202 1.916-6.832 4.141-6.903h.051c2.222.071 3.24 3.7 4.139 6.903C35.983 45.48 36.69 48 38.385 48c.056 0 .115-.003.173-.01 4.91-.528 5.175-7.926 5.368-13.327.015-.43.03-.847.047-1.244.08-1.887.723-3.383 1.404-4.967.718-1.67 1.462-3.399 1.462-5.574 0-4.893-3.92-8.873-8.74-8.873zm6.254 13.994c-.692 1.609-1.407 3.273-1.496 5.372-.017.4-.032.818-.047 1.25-.179 4.987-.423 11.817-4.371 12.242a.55.55 0 0 1-.055.003c-.851 0-1.539-2.451-2.146-4.614-1.003-3.576-2.14-7.628-5.188-7.726h-.113c-3.037.098-4.174 4.15-5.177 7.725-.607 2.164-1.295 4.615-2.146 4.616a.537.537 0 0 1-.055-.003c-3.948-.425-4.192-7.255-4.37-12.241-.016-.433-.03-.852-.047-1.252-.089-2.098-.805-3.763-1.497-5.372-.703-1.637-1.368-3.182-1.368-5.121 0-4.268 3.42-7.74 7.623-7.74.193 0 .376.01.554.027 1.832.312 6.527 2.572 9.341 4.082a.558.558 0 0 0 .755-.236.572.572 0 0 0-.233-.766c-.261-.14-1.15-.613-2.314-1.195 1.022-.165 1.849-.558 2.653-.944 1.04-.497 2.023-.968 3.443-.968 4.203 0 7.623 3.472 7.623 7.74 0 1.939-.665 3.484-1.369 5.12z" fill="#000"/><path d="M23.9 18.434c-2.412 0-4.375 1.994-4.375 4.443 0 .985.283 1.86.772 3.04a.559.559 0 0 0 .732.301.57.57 0 0 0 .297-.742c-.444-1.07-.685-1.802-.685-2.598 0-1.825 1.462-3.31 3.26-3.31a.562.562 0 0 0 .558-.566.563.563 0 0 0-.558-.568z" fill="#000"/></g></g></svg>