<svg width="23" height="23" viewBox="0 0 23 23" xmlns="http://www.w3.org/2000/svg"><title>E4144692-BAB3-40AD-97F8-F105F024E1C4</title><defs><linearGradient x1="0%" y1="1.556%" y2="1.556%" id="a"><stop stop-color="#1EBF9D" offset="0%"/><stop stop-color="#1073B9" offset="100%"/></linearGradient></defs><path d="M293.493 2884.408a6.06 6.06 0 0 0-6.085 6.085 6.06 6.06 0 0 0 6.085 6.085 6.06 6.06 0 0 0 6.085-6.085 6.06 6.06 0 0 0-6.085-6.085zm0 10.817c-2.569 0-4.732-2.163-4.732-4.732 0-2.569 2.163-4.732 4.732-4.732 2.569 0 4.732 2.163 4.732 4.732 0 2.569-2.163 4.732-4.732 4.732zm0-13.521c.406 0 .676-.27.676-.676v-1.352c0-.406-.27-.676-.676-.676s-.676.27-.676.676v1.352c0 .406.27.676.676.676zm0 17.578c-.406 0-.676.27-.676.676v1.352c0 .406.27.676.676.676s.676-.27.676-.676v-1.352c0-.406-.27-.676-.676-.676zm10.817-9.465h-1.352c-.406 0-.676.27-.676.676s.27.676.676.676h1.352c.406 0 .676-.27.676-.676s-.27-.676-.676-.676zm-20.282 0h-1.352c-.406 0-.676.27-.676.676s.27.676.676.676h1.352c.406 0 .676-.27.676-.676s-.27-.676-.676-.676zm16.632-7.437l-.947.947a.654.654 0 0 0 0 .946c.135.135.405.135.54.135.136 0 .27 0 .406-.135l.947-.946a.654.654 0 0 0 0-.947.653.653 0 0 0-.947 0zm-14.468 14.468l-.947.946a.654.654 0 0 0 0 .947c.135.135.406.135.54.135.271 0 .407-.135.407-.135l.946-.947a.654.654 0 0 0 0-.946.653.653 0 0 0-.946 0zm14.468 0a.654.654 0 0 0-.947 0 .654.654 0 0 0 0 .946l.946.947c.135.135.406.135.541.135s.27-.135.406-.135a.654.654 0 0 0 0-.947l-.947-.946zm-14.468-14.468a.654.654 0 0 0-.947 0 .654.654 0 0 0 0 .947l.947.946c.135.135.405.135.54.135.27 0 .406 0 .406-.135a.654.654 0 0 0 0-.946l-.946-.947z" transform="translate(-282 -2879)" fill="url(#a)"/></svg>