<svg width="22" height="38" viewBox="0 0 22 38" xmlns="http://www.w3.org/2000/svg"><title>E956E379-4603-40CA-94CB-176DBE942178</title><defs><linearGradient x1="0%" y1="1.556%" y2="1.556%" id="a"><stop stop-color="#1EBF9D" offset="0%"/><stop stop-color="#1073B9" offset="100%"/></linearGradient></defs><path d="M6.524 20.75c3.08 3.669 6.788 6.557 11.02 8.6 1.611.761 3.766 1.664 6.167 1.818.149.007.291.013.44.013 1.611 0 2.905-.554 3.96-1.695.007-.007.02-.02.026-.032.375-.452.802-.858 1.249-1.29.304-.29.615-.593.912-.902 1.379-1.431 1.379-3.25-.013-4.635l-3.889-3.875c-.66-.683-1.45-1.044-2.277-1.044-.829 0-1.625.36-2.304 1.038l-2.317 2.308a12.328 12.328 0 0 0-.64-.336 8.012 8.012 0 0 1-.712-.386c-2.11-1.335-4.025-3.075-5.856-5.312-.926-1.167-1.547-2.147-1.98-3.146a38.882 38.882 0 0 0 1.727-1.683c.194-.2.395-.4.596-.6.698-.696 1.074-1.501 1.074-2.32s-.37-1.625-1.074-2.32l-1.929-1.922c-.226-.226-.44-.445-.66-.67a35.43 35.43 0 0 0-1.313-1.296C8.064.412 7.28.07 6.453.07c-.822 0-1.612.342-2.304 1L1.73 3.48A4.946 4.946 0 0 0 .247 6.652c-.123 1.54.162 3.178.9 5.157 1.132 3.062 2.84 5.905 5.377 8.942zM1.826 6.788a3.404 3.404 0 0 1 1.029-2.191l2.407-2.399c.375-.36.79-.548 1.19-.548.395 0 .797.187 1.166.561.433.4.84.82 1.28 1.264.22.225.447.451.674.683l1.928 1.92c.401.4.608.806.608 1.206 0 .4-.207.806-.608 1.205-.2.2-.401.406-.602.606-.601.606-1.164 1.18-1.786 1.728l-.032.032c-.537.535-.453 1.045-.324 1.431l.02.052c.498 1.193 1.19 2.327 2.271 3.68 1.941 2.386 3.986 4.236 6.238 5.661.278.18.576.322.854.464.26.129.499.252.712.387.026.013.045.026.071.039.214.11.421.16.628.16.518 0 .854-.328.964-.438l2.42-2.41c.376-.375.783-.574 1.185-.574.491 0 .893.303 1.145.573l3.902 3.881c.776.774.77 1.612-.02 2.43-.271.29-.556.568-.86.858-.453.438-.925.89-1.353 1.399-.744.8-1.63 1.173-2.776 1.173a5.39 5.39 0 0 1-.336-.013c-2.123-.135-4.096-.96-5.578-1.663-4.025-1.94-7.558-4.693-10.49-8.187-2.413-2.895-4.037-5.59-5.112-8.477-.666-1.773-.919-3.198-.815-4.494z" transform="rotate(30 6.732 10.196)" fill="url(#a)"/></svg>