<svg width="57" height="63" viewBox="0 0 57 63" xmlns="http://www.w3.org/2000/svg"><title>0834B9C0-A39D-4A41-AABF-67C561C48DFE</title><defs><linearGradient x1="0%" y1="1.556%" y2="1.556%" id="a"><stop stop-color="#1EBF9D" offset="0%"/><stop stop-color="#1073B9" offset="100%"/></linearGradient></defs><g fill="none" fill-rule="evenodd"><path d="M28.27 10.877c13.084 0 23.745 10.661 23.745 23.746 0 13.085-10.661 23.746-23.746 23.746-13.084 0-23.746-10.661-23.746-23.746 0-13.138 10.662-23.746 23.746-23.746z" fill="url(#a)" opacity=".2"/><path d="M.162 34.57c0 15.507 12.6 28.107 28.107 28.107 15.508 0 28.108-12.6 28.108-28.108 0-7.7-3.123-14.754-8.185-19.815l2.208-2.208 1.023 1.023c.43.431.97.646 1.562.646.592 0 1.13-.215 1.561-.646a2.21 2.21 0 0 0 0-3.123l-5.115-5.115a2.21 2.21 0 0 0-3.123 0 2.21 2.21 0 0 0 0 3.123l1.023 1.023-2.423 2.423C40.815 8.885 35.915 7 30.53 6.57V4.684h4.9c1.238 0 2.207-.97 2.207-2.208A2.183 2.183 0 0 0 35.43.268H20.892c-1.238 0-2.207.97-2.207 2.208 0 1.238.969 2.208 2.207 2.208h5.223v1.884C11.577 7.7.162 19.815.162 34.57zm28.107-23.693c13.085 0 23.746 10.661 23.746 23.746 0 13.085-10.661 23.746-23.746 23.746-13.084 0-23.746-10.661-23.746-23.746 0-13.138 10.662-23.746 23.746-23.746z" fill="#000" fill-rule="nonzero"/><path d="M28.27 36.4h9.422c1.239 0 2.208-.97 2.208-2.208 0-1.238-.97-2.207-2.208-2.207h-7.215V20.623c0-1.238-.97-2.208-2.208-2.208-1.238 0-2.207.97-2.207 2.208v13.623c0 1.185.969 2.154 2.207 2.154z" fill="#000" fill-rule="nonzero"/></g></svg>