<svg width="170" height="137" viewBox="0 0 170 137" xmlns="http://www.w3.org/2000/svg"><title>6D710CF8-4850-43C1-B24D-F86211C11AFC</title><defs><linearGradient x1="0%" y1="1.556%" y2="1.556%" id="a"><stop stop-color="#1EBF9D" offset="0%"/><stop stop-color="#1073B9" offset="100%"/></linearGradient></defs><g fill="none" fill-rule="evenodd"><path d="M110.369 34.315a.766.766 0 0 1-.766.767h-4.005v4.013a.766.766 0 0 1-.766.766h-4.054a.766.766 0 0 1-.765-.766v-4.013h-4.005a.766.766 0 0 1-.766-.767v-4.062c0-.423.343-.766.766-.766h4.005v-4.013c0-.424.343-.767.765-.767h4.054c.423 0 .766.343.766.767v4.013h4.005c.423 0 .766.343.766.766v4.062zm22.271 8.104c.856 1.304 1.063.784 1.36 2.868 0 .022-5.368 5.105-5.647 5.207-2.17.798-3.456-1.063-4.774-1.22-1.59-.19-4.372.634-3.988 2.854.243 1.4 2.558 2.204 3.244 3.49.67 1.258-.482 1.585-.378 2.242.074.47.983 2.52 1.2 3.375.397 1.56 1.29 2.902 1.522 3.958.192.88.725 1.636.063 2.188-.36.3-1.29.36-1.729.546-2.209.933-5.1.742-6.792 2.542-1.052 1.12-2.095 2.544-2.52 4.041-.487 1.714.118 3.427.201 5.148.138 2.856.275 4.13-2.828 2.837-.947-.394-.63-1.845-1.717-2.317-1.229-.534-1.689.13-2.81.034-.263-.022-3.052-.193-3.07-.189-.81.236-1.246 1.778-2.15 1.818-3.52.155-1.542-3.264-3.962-3.876-1.305-.33-2.811 2.966-3.048 3.038-2.027.614-.29-.558-2.301-1.058-.804-.2-1.313-.243-1.75-.324l-2.9-25.192.624-7.516c1.742 1.961 4.142 3.773 8.558 5.01a2.356 2.356 0 0 0 .955.068h.006c2.195-.225 3.403-3.643 3.403-3.836 0-.127-1.47-.494-2.478-.73l-.61-1.59-1.934.69c-2.931-1.538-5.414-4.406-7.05-6.42l-.773-.96c-.004-.003-.005-.006-.006-.007-1.028-.885-1.653-1.512-2.003-1.974-1.091-1.444.517-1.273 1.066-2.3.723-1.355 1.174-10.157 1.174-10.157s-3.16.374-6.63 1.33c-1.892.52-2.067 2.383-1.76 4.326h-.037s-.772-.387-.58.773c.166.99.472 1.975 1.276 2.006.165.584.315 1.105.403 1.513.118.558.031 1.02-.161 1.402-.069.025-3.997 1.484-8.528 7.153-1.638 1.674-3.293 3.613-4.658 5.717l-.004.005s-1.646 1.543-1.453 2.897c.047.33.277.648.599.94l-3.279 4.053-3.69-2.997a1.023 1.023 0 0 0-1.445.148L48.785 66.326a1.031 1.031 0 0 0 .151 1.45l2.793 2.27a2.362 2.362 0 0 0 .934 3.666c-.884.115-1.755.265-2.603.451-3.092.684-3.328 4.337-6.402 4.966-.892.184-3.05-1.67-3.776-.668-.145.2.667 2.137-.335 1.849-1.52-.438-1.198-1.112-1.346-2.801-.191-2.167 1.779-3.714 1.264-6.081-.882-4.063-6.942-2.051-3.323-7.337 1.641-2.399 5.581-2.636 6.69-4.856.47-.94-.108-6.08-.27-7.041-.575-3.397-2.216-6.85-2.876-10.357-.787-4.189-1.154-3.693 2.982-3.78 1.266-.027 2.575-.345 3.835-.422.408-.026 1.026.662 1.681.863.284-.404 1.308-.583 1.74-.725.382-.126 1.848-.253 2.02-.456.353-.418.358-1.017.44-1.558.082-.543.354-1.156.893-1.248.483-.082.944.305 1.43.257.404-.039.72-.366.935-.71.215-.342.375-.728.66-1.016.763-.771 2.022-.567 2.826-1.262.667-.576 1.002-1.662 1.358-2.433 1.087-2.351.784-4.561 2.194-6.804.797-1.267 1.705-2.524 2.76-3.588 1.08-1.09 2.653-.927 3.978-1.464.712-.29 1.373-.778 1.717-1.467a.847.847 0 0 0 .111-.423c-.077-1.178-2.446-1.145-2.28-2.95.095-1.028.55-2.309 1.067-3.203a11.384 11.384 0 0 1 2.662-3.07c.623-.49 1.374-.852 2.165-.88.923-.032 1.796.383 2.7.572 3.764.786 2.857-4.458 5.496-5.707 1.703-.806 2.956-.077 4.17.343 1.069.371 3.13-.488 3.466 1.159.059.292.056.662.323.793.114.057.248.048.375.035.916-.092 1.815-.318 2.732-.392.918-.074 1.887.019 2.664.513 1.186.755 1.202 1.847 1.316 3.086.082.888.288 1.81 1.385 1.735 1.643-.112 2.77-2.877 4.11-3.377 2.256-.84 6.695 1.886 7.839 3.291 2.022 2.482.903 4.285 1.34 6.606.359 1.909 1.634 1.56 1.402 3.867-.063.628-1.222 1.127-1.279 1.791-.256 3.03-.33 1.44 1.696 3.773 1.205 1.385 1.818 2.21 2.335 3.863.658 2.103 1.769 3.593 3.489 4.822 3.177 2.274 3.878.566 3.289 5.593.557.51 4.14-.243 5.392.516 1.109.673 1.21.85 1.948 1.622-.009-.01-.84.926-.431 1.401.492.575 1.654.452 2.023 1.016zM70.195 64.08S66.42 70.686 64.47 74a467.168 467.168 0 0 1-2.324-.446A35.568 35.568 0 0 0 55 73.28a1.22 1.22 0 0 0 .05-.034c.974-.702 1.265-2.035.714-3.09l5.385-6.761 3.786-4.821 4.087-5.077c.554.265.983.421.983.421l1.277-1.842c.13-.135.25-.284.351-.455C73.1 49.141 75.113 46.856 77 45l-.7 8.692-.001.02-.041.01-6.063 10.359zm11.327-2.167L84 79.583c-.048.14-.098.279-.152.417-.128-.105-1.445-1.653-2.026-1.697-.763-.06-2.657.477-3.302.17-.537-.253-1.08-2.06-1.465-2.276-1.156-.65-2.963-1.005-4.857-1.284-.112.011-.557-.048-1.198-.15l5.11-7.653 3.711-5.802c.59-.618 1.62-.25 1.701.606zm-28.353 9.1a1 1 0 1 1-.338 1.97 1 1 0 0 1 .338-1.97z" fill="url(#a)"/><path fill="#022835" d="M21 114h-2.89v-12.92h-.08L11.985 114H9.04l-6.07-12.92h-.053V114H0V97l.053.079L.026 97h3.925l6.522 14.07h.053L17.076 97H21zm17 0H26V97h11.388v2.354h-8.355v4.917h7.557v2.275h-7.557v5.1H38zm7.06-14.515v12.03h3.625c4.107 0 6.174-1.961 6.174-5.963 0-4.054-2.094-6.067-6.228-6.067h-3.57zM58 105.552c0 5.492-3.221 8.448-9.342 8.448H42V97h6.631C54.644 97 58 99.956 58 105.552zm18.362-4.56s-2.167-1.718-4.307-1.718c-2.22 0-3.382.977-3.382 2.59 0 3.753 9.327 2.14 9.327 7.77 0 3.278-2.325 5.366-6.447 5.366-4.835 0-6.553-2.696-6.553-2.696l1.506-2.009s1.876 2.247 5.205 2.247c2.246 0 3.356-1.137 3.356-2.643 0-3.568-9.354-1.824-9.354-7.85 0-2.96 2.352-5.049 6.21-5.049 3.99 0 5.39 1.983 5.39 1.983l-.951 2.009zM94 115H82V98h11.388v2.354h-8.355v4.917h7.557v2.275h-7.557v5.1H94zm6.793-14.75v6.956h2.115c2.48 0 3.837-.968 3.837-3.557 0-2.25-1.383-3.4-4.072-3.4h-1.88zm9.007 3.295c0 2.772-1.41 4.42-3.29 5.23L111 115h-3.42l-3.994-5.623h-2.793V115H98V98h5.195c4.177 0 6.605 1.935 6.605 5.545zM118.546 115L112 98h3.22l5.28 14.149h.026L125.78 98H129l-6.52 17zM132 115h3V98h-3zm21.105-13.348s-2.71-2.115-4.947-2.115c-3.974 0-6.105 2.564-6.105 6.556 0 3.938 2.316 6.37 5.973 6.37 3.685 0 5.79-2.59 5.79-2.59L155 111.67s-1.895 3.33-7.105 3.33c-5.79 0-8.895-3.489-8.895-8.907 0-5.419 3.29-9.093 8.947-9.093 4.527 0 6.29 2.723 6.29 2.723l-1.132 1.93zM170 115h-12V98h11.388v2.354h-8.355v4.917h7.557v2.275h-7.557v5.1H170zM43.125 130.04v4.24h2.313c2.312 0 3.291-.78 3.291-2.22 0-1.36-.958-2.02-2.563-2.02h-3.041zm2.938-1.42c.791 0 2-.44 2-1.98 0-1.3-.98-1.94-2.688-1.94h-2.25v3.92h2.938zM41 123h4.479c3.417 0 4.792 1.56 4.792 3.4 0 1.3-.792 2.16-1.688 2.7 1.542.5 2.417 1.62 2.417 3.08 0 2.32-1.542 3.82-5.438 3.82H41v-13zm22 13h-9v-13h8.541v1.8h-6.266v3.76h5.667v1.74h-5.667v3.9H63zm12 0h-9v-13h2.337v11.2H75zm4.037-4.58h4.845l-2.402-6.72-2.443 6.72zm3.997-8.42L88 136h-2.362l-1.19-3.06h-5.976l-1.15 3.06H75l4.946-13h3.088zm10.114 1.72v5.32h1.627c1.908 0 2.952-.74 2.952-2.72 0-1.72-1.065-2.6-3.133-2.6h-1.446zm6.929 2.52c0 2.12-1.085 3.38-2.53 4L101 136h-2.63l-3.073-4.3h-2.149v4.3H91v-13h3.996c3.213 0 5.08 1.48 5.08 4.24zm2.923 4.757V123h2.24v8.514c0 1.954.982 3.342 3.26 3.342 2.279 0 3.26-1.388 3.26-3.342V123H114v8.997c0 2.774-1.59 5.003-5.5 5.003-3.909 0-5.5-2.229-5.5-5.003m22.74-5.892s-1.667-1.337-3.313-1.337c-1.707 0-2.602.76-2.602 2.015 0 2.92 7.175 1.665 7.175 6.044 0 2.549-1.788 4.173-4.96 4.173-3.719 0-5.04-2.097-5.04-2.097l1.159-1.562s1.443 1.747 4.004 1.747c1.727 0 2.581-.884 2.581-2.056 0-2.775-7.195-1.418-7.195-6.105 0-2.303 1.809-3.927 4.776-3.927 3.07 0 4.146 1.542 4.146 1.542l-.73 1.563zM0 130h32v-1H0zm138 0h32v-1h-32z"/></g></svg>