<svg width="170" height="137" viewBox="0 0 170 137" xmlns="http://www.w3.org/2000/svg" xmlns:xlink="http://www.w3.org/1999/xlink"><title>93303715-57CC-4198-B7B9-E3C6D97A4B24</title><defs><path id="a" d="M0 137h170V0H0z"/></defs><g fill="none" fill-rule="evenodd"><path d="M53.17 71.015a1 1 0 1 0-.34 1.97 1 1 0 0 0 .34-1.97" fill="#FFF"/><path d="M110.369 34.315a.766.766 0 0 1-.766.767h-4.005v4.013a.766.766 0 0 1-.766.766h-4.054a.766.766 0 0 1-.765-.766v-4.013h-4.005a.766.766 0 0 1-.766-.767v-4.062c0-.423.343-.766.766-.766h4.005v-4.013c0-.424.343-.767.765-.767h4.054c.423 0 .766.343.766.767v4.013h4.005c.423 0 .766.343.766.766v4.062zm22.271 8.104c-.369-.564-1.531-.441-2.023-1.016-.408-.475.422-1.41.431-1.4-.738-.773-.84-.95-1.948-1.623-1.251-.759-4.835-.005-5.392-.516.589-5.027-.112-3.319-3.29-5.593-1.72-1.23-2.83-2.72-3.488-4.822-.517-1.652-1.13-2.478-2.335-3.863-2.027-2.333-1.952-.743-1.696-3.773.057-.664 1.216-1.163 1.28-1.791.23-2.307-1.044-1.958-1.403-3.867-.437-2.321.682-4.124-1.34-6.606-1.144-1.405-5.583-4.13-7.838-3.291-1.34.5-2.468 3.265-4.111 3.377-1.097.075-1.303-.847-1.385-1.735-.114-1.239-.13-2.33-1.316-3.086-.777-.494-1.746-.587-2.664-.513-.917.074-1.816.3-2.732.392-.127.013-.26.022-.375-.035-.267-.131-.264-.501-.323-.793-.336-1.647-2.397-.788-3.467-1.159-1.213-.42-2.466-1.15-4.17-.343-2.638 1.249-1.731 6.493-5.496 5.707-.903-.189-1.776-.604-2.699-.571-.791.027-1.542.39-2.165.879a11.384 11.384 0 0 0-2.662 3.07c-.517.894-.972 2.175-1.067 3.203-.166 1.805 2.203 1.772 2.28 2.95a.847.847 0 0 1-.11.423c-.345.689-1.006 1.177-1.718 1.467-1.325.537-2.898.375-3.978 1.464-1.055 1.064-1.963 2.32-2.76 3.588-1.41 2.243-1.107 4.453-2.194 6.804-.356.77-.691 1.857-1.358 2.433-.804.695-2.063.49-2.826 1.262-.285.288-.445.674-.66 1.017-.216.343-.531.67-.934.71-.487.047-.948-.34-1.431-.258-.54.092-.811.705-.894 1.248-.081.541-.086 1.14-.44 1.558-.171.203-1.637.33-2.019.456-.432.142-1.456.32-1.74.725-.655-.2-1.273-.889-1.68-.863-1.261.077-2.57.395-3.836.422-4.136.087-3.769-.409-2.982 3.78.66 3.508 2.301 6.96 2.875 10.357.163.96.741 6.101.271 7.041-1.109 2.22-5.049 2.457-6.69 4.856-3.619 5.286 2.441 3.274 3.323 7.337.515 2.367-1.455 3.914-1.264 6.08.148 1.69-.175 2.364 1.346 2.802 1.002.288.19-1.649.335-1.849.726-1.002 2.884.852 3.776.668 3.074-.63 3.31-4.282 6.402-4.966.848-.186 1.72-.336 2.603-.45a2.362 2.362 0 0 1-.934-3.665l-2.793-2.272a1.031 1.031 0 0 1-.151-1.45L58.85 53.973a1.023 1.023 0 0 1 1.445-.148l3.69 2.997 3.279-4.053c-.322-.292-.552-.61-.6-.94-.192-1.354 1.454-2.897 1.454-2.897l.004-.005c1.365-2.104 3.02-4.043 4.657-5.717h.001c4.53-5.67 8.46-7.128 8.528-7.153.192-.382.28-.844.16-1.402-.087-.408-.237-.93-.402-1.513-.804-.031-1.11-1.017-1.275-2.006-.193-1.16.58-.773.58-.773h.037c-.308-1.943-.133-3.806 1.76-4.327 3.47-.955 6.629-1.33 6.629-1.33s-.451 8.803-1.174 10.159c-.549 1.026-2.157.855-1.066 2.3.35.461.975 1.088 2.003 1.973 0 .001.002.004.006.006l.773.96c1.636 2.015 4.119 4.883 7.05 6.422l1.933-.692.61 1.59c1.008.237 2.479.604 2.479.73 0 .194-1.208 3.612-3.403 3.836h-.006a2.356 2.356 0 0 1-.955-.067c-4.416-1.237-6.816-3.049-8.558-5.01l-.624 7.516 2.9 25.192c.437.081.946.124 1.75.324 2.01.5.274 1.672 2.3 1.058.238-.072 1.744-3.368 3.049-3.038 2.42.612.441 4.03 3.961 3.876.905-.04 1.34-1.582 2.151-1.818.018-.004 2.807.167 3.07.19 1.121.094 1.581-.569 2.81-.035 1.086.472.77 1.923 1.717 2.317 3.103 1.292 2.966.02 2.828-2.837-.083-1.72-.688-3.434-.2-5.148.424-1.497 1.467-2.922 2.519-4.041 1.692-1.8 4.583-1.609 6.792-2.542.44-.186 1.368-.245 1.729-.546.662-.552.13-1.307-.063-2.188-.232-1.056-1.125-2.397-1.522-3.958-.217-.854-1.126-2.906-1.2-3.375-.104-.657 1.048-.984.378-2.242-.686-1.286-3-2.09-3.244-3.49-.384-2.22 2.397-3.044 3.988-2.855 1.318.158 2.604 2.019 4.774 1.221.279-.102 5.647-5.185 5.647-5.207-.297-2.084-.504-1.564-1.36-2.868z" fill="#FFF"/><path d="M70.195 64.08l6.063-10.357.04-.01.002-.02L77 45c-1.887 1.856-3.9 4.14-5.367 6.621-.1.17-.22.32-.351.455l-1.277 1.842s-.429-.156-.983-.421l-4.087 5.077-3.786 4.82-5.385 6.762c.551 1.055.26 2.388-.714 3.09a1.22 1.22 0 0 1-.05.034 35.568 35.568 0 0 1 7.147.274c.06.012 1.022.199 2.324.446 1.95-3.314 5.724-9.92 5.724-9.92m11.327-2.166c-.081-.856-1.112-1.224-1.701-.606l-3.71 5.802L71 74.763c.64.102 1.086.161 1.198.15 1.894.28 3.7.635 4.857 1.284.385.216.928 2.023 1.465 2.277.645.306 2.54-.231 3.302-.171.581.044 1.898 1.592 2.026 1.697.054-.138.104-.277.152-.417l-2.478-17.67zM21 114h-2.89v-12.92h-.08L11.985 114H9.04l-6.07-12.92h-.053V114H0V97l.053.079L.026 97h3.925l6.522 14.07h.053L17.076 97H21zm17 0H26V97h11.388v2.354h-8.355v4.917h7.557v2.275h-7.557v5.1H38zm7.06-14.515v12.03h3.625c4.107 0 6.174-1.961 6.174-5.963 0-4.054-2.094-6.067-6.228-6.067h-3.57zM58 105.552c0 5.492-3.221 8.448-9.342 8.448H42V97h6.631C54.644 97 58 99.956 58 105.552zm18.362-4.56s-2.167-1.718-4.307-1.718c-2.22 0-3.382.977-3.382 2.59 0 3.753 9.327 2.14 9.327 7.77 0 3.278-2.325 5.366-6.447 5.366-4.835 0-6.553-2.696-6.553-2.696l1.506-2.009s1.876 2.247 5.205 2.247c2.246 0 3.356-1.137 3.356-2.643 0-3.568-9.354-1.824-9.354-7.85 0-2.96 2.352-5.049 6.21-5.049 3.99 0 5.39 1.983 5.39 1.983l-.951 2.009zM94 115H82V98h11.388v2.354h-8.355v4.917h7.557v2.275h-7.557v5.1H94zm6.793-14.75v6.956h2.115c2.48 0 3.837-.968 3.837-3.557 0-2.25-1.383-3.4-4.072-3.4h-1.88zm9.007 3.295c0 2.772-1.41 4.42-3.29 5.23L111 115h-3.42l-3.994-5.623h-2.793V115H98V98h5.195c4.177 0 6.605 1.935 6.605 5.545zM118.546 115L112 98h3.22l5.28 14.149h.026L125.78 98H129l-6.52 17z" fill="#FFF"/><mask id="b" fill="#fff"><use xlink:href="#a"/></mask><path fill="#FFF" mask="url(#b)" d="M132 115h3V98h-3zm21.105-13.348s-2.71-2.115-4.947-2.115c-3.974 0-6.105 2.564-6.105 6.556 0 3.938 2.316 6.37 5.973 6.37 3.685 0 5.79-2.59 5.79-2.59L155 111.67s-1.895 3.33-7.105 3.33c-5.79 0-8.895-3.489-8.895-8.907 0-5.419 3.29-9.093 8.947-9.093 4.527 0 6.29 2.723 6.29 2.723l-1.132 1.93zM170 115h-12V98h11.388v2.354h-8.355v4.917h7.557v2.275h-7.557v5.1H170zM43.125 130.04v4.24h2.313c2.312 0 3.291-.78 3.291-2.22 0-1.36-.958-2.02-2.563-2.02h-3.041zm2.938-1.42c.791 0 2-.44 2-1.98 0-1.3-.98-1.94-2.688-1.94h-2.25v3.92h2.938zM41 123h4.479c3.417 0 4.792 1.56 4.792 3.4 0 1.3-.792 2.16-1.688 2.7 1.542.5 2.417 1.62 2.417 3.08 0 2.32-1.542 3.82-5.438 3.82H41v-13zm22 13h-9v-13h8.541v1.8h-6.266v3.76h5.667v1.74h-5.667v3.9H63zm12 0h-9v-13h2.337v11.2H75zm4.037-4.58h4.845l-2.402-6.72-2.443 6.72zm3.997-8.42L88 136h-2.362l-1.19-3.06h-5.976l-1.15 3.06H75l4.946-13h3.088zm10.114 1.72v5.32h1.627c1.908 0 2.952-.74 2.952-2.72 0-1.72-1.065-2.6-3.133-2.6h-1.446zm6.929 2.52c0 2.12-1.085 3.38-2.53 4L101 136h-2.63l-3.073-4.3h-2.149v4.3H91v-13h3.996c3.213 0 5.08 1.48 5.08 4.24zm2.923 4.757V123h2.24v8.514c0 1.954.982 3.342 3.26 3.342 2.279 0 3.26-1.388 3.26-3.342V123H114v8.997c0 2.774-1.59 5.003-5.5 5.003-3.909 0-5.5-2.229-5.5-5.003m22.74-5.892s-1.667-1.337-3.313-1.337c-1.707 0-2.602.76-2.602 2.015 0 2.92 7.175 1.665 7.175 6.044 0 2.549-1.788 4.173-4.96 4.173-3.719 0-5.04-2.097-5.04-2.097l1.159-1.562s1.443 1.747 4.004 1.747c1.727 0 2.581-.884 2.581-2.056 0-2.775-7.195-1.418-7.195-6.105 0-2.303 1.809-3.927 4.776-3.927 3.07 0 4.146 1.542 4.146 1.542l-.73 1.563zM0 130h32v-1H0zm138 0h32v-1h-32z"/></g></svg>