<svg width="53" height="53" viewBox="0 0 53 53" xmlns="http://www.w3.org/2000/svg"><title>9427A521-7D2D-4D5F-B7D1-DB6CB790D0CF</title><defs><linearGradient x1="0%" y1="1.556%" y2="1.556%" id="a"><stop stop-color="#1EBF9D" offset="0%"/><stop stop-color="#1073B9" offset="100%"/></linearGradient></defs><g fill="none" fill-rule="evenodd"><circle stroke="#0091EA" fill="#FFF" cx="26.5" cy="26.5" r="26"/><path d="M33.816 20.888c-1.578.962-3.515 1.023-5.183.163-2.037-1.05-2.11-2.43-2.072-7.542.005-.653.01-1.358.01-2.121 0-.763-.005-1.469-.01-2.122-.039-5.111.035-6.492 2.072-7.542C29.57 1.242 30.548 1 31.487 1c.92 0 1.801.233 2.563.697 1.602.976 3.512 3.45 3.512 9.69 0 4.655-1.33 8.029-3.746 9.501zM13 13.509c.039 5.112-.035 6.492-2.072 7.542-1.667.86-3.605.8-5.183-.163C3.33 19.416 2 16.042 2 11.388c0-6.241 1.91-8.715 3.512-9.691A4.889 4.889 0 0 1 8.075 1c.939 0 1.918.241 2.854.724 2.037 1.05 2.11 2.43 2.072 7.542-.005.653-.01 1.358-.01 2.121 0 .764.005 1.47.01 2.122z" fill="url(#a)" opacity=".2" transform="translate(8 15)"/><path d="M21.63 24.567c.037-4.961.055-7.226-2.758-8.676-2.247-1.158-4.736-1.153-6.655.017-1.879 1.145-4.12 3.944-4.12 10.772 0 6.898 2.728 9.59 4.354 10.58a6.479 6.479 0 0 0 3.38.954 6.624 6.624 0 0 0 3.041-.746c2.813-1.45 2.795-3.715 2.758-8.676l-.002-.314 3.63 4.144v8.984h1.265v-9.46l-4.903-5.597c0-.709.005-1.37.01-1.982zm-1.266 4.234c.04 5.112-.035 6.492-2.072 7.542-1.667.86-3.604.8-5.182-.163-2.416-1.473-3.746-4.846-3.746-9.5 0-6.241 1.91-8.715 3.512-9.692a4.889 4.889 0 0 1 2.563-.696c.938 0 1.918.241 2.853.724 2.037 1.05 2.111 2.43 2.072 7.542-.005.653-.01 1.358-.01 2.121 0 .763.005 1.47.01 2.122zm21.708-12.894c-1.92-1.169-4.408-1.175-6.655-.016-2.813 1.45-2.795 3.715-2.758 8.676.005.611.01 1.274.01 1.981l-4.903 5.597v9.46h1.265v-8.983l3.63-4.144-.002.314c-.037 4.962-.055 7.226 2.758 8.676a6.626 6.626 0 0 0 3.04.746c1.174 0 2.34-.319 3.38-.953 1.627-.991 4.354-3.683 4.354-10.581 0-6.828-2.24-9.627-4.12-10.773zm-.893 20.273c-1.577.962-3.515 1.023-5.182.163-2.037-1.05-2.111-2.43-2.073-7.542.005-.653.01-1.358.01-2.121 0-.764-.005-1.469-.01-2.122-.038-5.111.036-6.492 2.073-7.542.936-.482 1.915-.724 2.853-.724.92 0 1.802.233 2.564.697 1.601.976 3.511 3.45 3.511 9.69 0 4.655-1.33 8.028-3.746 9.5z" fill="#000" fill-rule="nonzero"/></g></svg>