<svg width="9" height="17" viewBox="0 0 9 17" xmlns="http://www.w3.org/2000/svg"><title>05AFBAF0-C3A5-4704-A900-53CBD2594FE5</title><path d="M7.105 11.887a1.86 1.86 0 0 0-.124-.689 1.712 1.712 0 0 0-.403-.59 3.013 3.013 0 0 0-.722-.505 7.485 7.485 0 0 0-1.091-.449 8.72 8.72 0 0 1-1.416-.56 4.293 4.293 0 0 1-1.066-.751 2.963 2.963 0 0 1-.673-.996c-.155-.377-.232-.811-.232-1.304 0-.459.07-.878.207-1.257a2.93 2.93 0 0 1 .594-.988c.257-.28.569-.506.934-.68a3.95 3.95 0 0 1 1.237-.345V.955h1.236v1.826c.93.128 1.654.518 2.171 1.17.517.654.776 1.547.776 2.682H7.006a3.69 3.69 0 0 0-.133-1.021 2.379 2.379 0 0 0-.394-.805 1.828 1.828 0 0 0-.648-.532 1.969 1.969 0 0 0-.884-.19c-.348 0-.65.047-.905.14a1.691 1.691 0 0 0-.63.395 1.63 1.63 0 0 0-.374.61c-.083.238-.124.5-.124.789 0 .265.038.505.116.718.077.213.207.408.39.585.183.177.426.344.73.502.305.158.687.311 1.146.46a9.515 9.515 0 0 1 1.42.578c.414.213.764.46 1.05.742.284.283.502.61.651.98.15.37.224.8.224 1.287 0 .481-.075.913-.224 1.295-.15.381-.364.71-.643.987-.28.277-.617.498-1.013.664a4.622 4.622 0 0 1-1.324.324v1.586H4.208V15.14a4.474 4.474 0 0 1-1.232-.29 3.204 3.204 0 0 1-1.054-.673 3.154 3.154 0 0 1-.735-1.116c-.183-.451-.274-.992-.274-1.623H2.45c0 .47.069.86.207 1.17.139.31.32.557.544.74.224.182.473.309.747.381.274.072.55.108.826.108.37 0 .7-.046.988-.137a2.08 2.08 0 0 0 .73-.39c.2-.169.352-.374.457-.614.105-.241.157-.511.157-.81z" fill-rule="evenodd"/></svg>