<svg width="19" height="20" viewBox="0 0 19 20" xmlns="http://www.w3.org/2000/svg"><title>80470B96-78B5-44C7-B717-DDDB208BF0CF</title><g fill="#FFF"><path d="M8.696 10.435a5.231 5.231 0 0 0 5.217-5.218A5.231 5.231 0 0 0 8.696 0a5.231 5.231 0 0 0-5.218 5.217 5.231 5.231 0 0 0 5.218 5.218z"/><path d="M18.222 14.345a5.032 5.032 0 0 0-.532-.986c-1.064-1.596-2.706-2.652-4.557-2.91-.23-.023-.485.024-.67.165a5.519 5.519 0 0 1-3.331 1.102 5.519 5.519 0 0 1-3.33-1.102.858.858 0 0 0-.672-.165 6.526 6.526 0 0 0-4.556 2.91 5.802 5.802 0 0 0-.532.986.505.505 0 0 0 .023.446c.185.328.416.657.625.938.323.446.67.845 1.063 1.22.324.329.694.634 1.064.94A10.38 10.38 0 0 0 9.11 20a10.38 10.38 0 0 0 6.291-2.112c.37-.282.74-.61 1.064-.939.37-.375.74-.774 1.064-1.22.231-.305.44-.61.625-.938.115-.141.138-.306.069-.446z"/></g></svg>