<svg width="22" height="22" viewBox="0 0 22 22" xmlns="http://www.w3.org/2000/svg"><title>A5088839-9246-43CF-A305-4D4877A6E68B</title><g fill="none"><path d="M21.491 5.335l-.006-.025c-.529-2.069-2.912-4.289-5.1-4.75L16.36.555a29.26 29.26 0 0 0-10.667 0L5.667.56c-2.187.46-4.57 2.68-5.1 4.75l-.005.025a19.582 19.582 0 0 0 0 8.707l.005.025c.507 1.98 2.713 4.098 4.82 4.68v2.31c0 .836 1.052 1.246 1.65.643l2.417-2.432a29.342 29.342 0 0 0 6.907-.446l.024-.004c2.188-.462 4.571-2.682 5.1-4.75l.006-.026a19.582 19.582 0 0 0 0-8.707z" fill="#7D3DAF"/><path d="M21.491 5.335l-.006-.025c-.529-2.069-2.912-4.289-5.1-4.75L16.36.555a29.26 29.26 0 0 0-10.667 0L5.667.56c-2.187.46-4.57 2.68-5.1 4.75l-.005.025a19.582 19.582 0 0 0 0 8.707l.005.025c.507 1.98 2.713 4.098 4.82 4.68v2.31c0 .836 1.052 1.246 1.65.643l2.417-2.432a29.342 29.342 0 0 0 6.907-.446l.024-.004c2.188-.462 4.571-2.682 5.1-4.75l.006-.026a19.582 19.582 0 0 0 0-8.707zm-1.912 8.288c-.353 1.35-2.162 3.027-3.6 3.337a27.267 27.267 0 0 1-5.674.444.137.137 0 0 0-.1.04L8.44 19.196l-1.877 1.865c-.137.138-.378.044-.378-.147V17.09a.133.133 0 0 0-.11-.13h-.002c-1.437-.31-3.246-1.987-3.6-3.337a17.77 17.77 0 0 1 0-7.87c.354-1.349 2.163-3.027 3.6-3.337a27.25 27.25 0 0 1 9.906 0c1.438.31 3.247 1.988 3.6 3.338a17.751 17.751 0 0 1 0 7.87z" fill="#FFF"/><path d="M14.154 15.389c-.221-.065-.432-.109-.627-.187-2.027-.814-3.893-1.865-5.37-3.475-.84-.915-1.498-1.949-2.054-3.042-.264-.52-.486-1.058-.713-1.594-.206-.488.098-.993.418-1.36.3-.346.688-.61 1.106-.805.327-.152.65-.064.888.204.517.58.99 1.19 1.374 1.862.237.413.172.918-.256 1.2-.104.068-.199.148-.296.226a.952.952 0 0 0-.223.227.606.606 0 0 0-.043.548c.528 1.404 1.417 2.495 2.876 3.083.234.094.468.203.737.173.45-.051.597-.53.912-.78.309-.244.703-.247 1.036-.043.332.204.655.422.975.643.314.217.627.43.917.677.28.237.375.55.218.872-.287.59-.706 1.083-1.309 1.396-.17.089-.374.118-.566.175-.221-.065.192-.057 0 0zM11.032 4.25c2.651.072 4.829 1.776 5.296 4.313.08.432.107.874.143 1.313.015.185-.093.36-.3.362-.212.003-.307-.17-.321-.354-.027-.365-.046-.732-.098-1.094-.275-1.912-1.85-3.494-3.815-3.833-.296-.051-.599-.065-.899-.095-.19-.02-.437-.03-.48-.258-.034-.191.132-.344.32-.353.051-.003.103 0 .154 0 2.651.071-.051 0 0 0zm4.03 5.057c-.005.032-.007.107-.027.178-.07.258-.474.29-.567.03a.752.752 0 0 1-.031-.248c-.001-.544-.123-1.087-.407-1.56a2.96 2.96 0 0 0-1.257-1.142 3.705 3.705 0 0 0-1.002-.298c-.151-.024-.304-.039-.456-.059-.184-.025-.282-.138-.273-.314.008-.164.132-.283.317-.272.608.033 1.196.16 1.737.438 1.1.564 1.728 1.454 1.912 2.642.008.054.021.107.026.161.01.134.017.268.027.444-.004.032-.01-.176 0 0zm-1.65-.063c-.222.004-.34-.115-.363-.311-.016-.138-.029-.277-.063-.41a1.15 1.15 0 0 0-.44-.668 1.164 1.164 0 0 0-.357-.168c-.163-.045-.332-.033-.494-.071-.177-.042-.274-.18-.247-.34a.317.317 0 0 1 .337-.248c1.027.072 1.762.586 1.867 1.758.007.082.016.17-.003.249a.26.26 0 0 1-.237.21c-.222.003.101-.007 0 0z" fill="#FFF"/></g></svg>