<svg width="54" height="16" viewBox="0 0 54 16" xmlns="http://www.w3.org/2000/svg"><title>6EAFA724-A500-4A39-B66E-E45C879FBCF4</title><g fill="none"><path fill="#3C58BF" d="M19.368 15.158L21.998.842h4.107l-2.547 14.316z"/><path fill="#293688" d="M19.368 15.158L22.737.842h3.368l-2.547 14.316z"/><path d="M38.737.674C37.91.337 36.59 0 34.939 0c-4.128 0-7.1 2.105-7.1 5.137 0 2.274 2.064 3.452 3.715 4.21 1.651.758 2.147 1.264 2.147 1.937 0 1.01-1.321 1.516-2.477 1.516-1.651 0-2.56-.253-3.963-.842l-.578-.253-.578 3.453c.991.42 2.807.842 4.706.842 4.376 0 7.265-2.105 7.265-5.305 0-1.769-1.073-3.116-3.55-4.21-1.486-.759-2.394-1.18-2.394-1.938 0-.673.743-1.347 2.394-1.347 1.404 0 2.395.253 3.138.59l.412.168.66-3.284z" fill="#3C58BF"/><path d="M38.737.674C37.91.337 36.59 0 34.939 0c-4.128 0-6.357 2.105-6.357 5.137 0 2.274 1.321 3.452 2.972 4.21s2.147 1.264 2.147 1.937c0 1.01-1.321 1.516-2.477 1.516-1.651 0-2.56-.253-3.963-.842l-.578-.253-.578 3.453c.991.42 2.807.842 4.706.842 4.376 0 7.265-2.105 7.265-5.305 0-1.769-1.073-3.116-3.55-4.21-1.486-.759-2.394-1.18-2.394-1.938 0-.673.743-1.347 2.394-1.347 1.404 0 2.395.253 3.138.59l.412.168.66-3.284z" fill="#293688"/><path d="M46.307.842c-1 0-1.75.08-2.166 1.034l-6.246 13.282h4.497l.833-2.386h5.33l.5 2.386h3.998L49.555.842h-3.248zm-1.916 9.544c.25-.716 1.666-4.215 1.666-4.215s.333-.875.583-1.432l.25 1.352s.832 3.58.999 4.374h-3.498v-.079z" fill="#3C58BF"/><path d="M47.306.842c-1 0-1.749.08-2.165 1.034l-7.246 13.282h4.497l.833-2.386h5.33l.5 2.386h3.998L49.555.842h-2.249zm-2.915 9.544c.333-.795 1.666-4.215 1.666-4.215s.333-.875.583-1.432l.25 1.352s.832 3.58.999 4.374h-3.498v-.079z" fill="#293688"/><path d="M11.368 10.784l-.42-2.068c-.759-2.386-3.2-5.01-5.895-6.283l3.79 12.725h4.546L20.211.842h-4.548l-4.295 9.942z" fill="#3C58BF"/><path d="M11.368 10.784l-.42-2.068c-.759-2.386-3.2-5.01-5.895-6.283l3.79 12.725h4.546L20.211.842h-3.706l-5.137 9.942z" fill="#293688"/><path d="M0 .842l.792.152C6.422 2.13 10.294 5.01 11.789 8.42l-1.583-6.44C9.942 1.069 9.15.842 8.182.842H0z" fill="#FFBC00"/><path d="M0 .842c5.63 1.148 10.294 4.134 11.79 7.58l-1.496-5.436C10.03 2.067 9.15 1.53 8.182 1.53L0 .842z" fill="#F7981D"/><path d="M0 .842c5.63 1.148 10.294 4.134 11.79 7.58l-1.056-2.987c-.264-.918-.616-1.837-1.848-2.22L0 .842z" fill="#ED7C00"/><path d="M15.587 10.338L12.7 7.411l-1.36 3.272L11 8.53c-.764-2.583-3.228-5.425-5.946-6.803l3.823 13.778h4.587l2.124-5.167zm7.901 5.167l-3.653-3.789-.68 3.789zm9.77-5.339c.34.344.51.603.425.947 0 1.034-1.36 1.55-2.549 1.55-1.7 0-2.634-.258-4.078-.86l-.595-.26-.594 3.531c1.02.43 2.888.861 4.842.861 2.719 0 4.928-.775 6.202-2.152l-3.653-3.617zm4.927 5.339h3.993l.85-2.583h5.437l.51 2.583h4.078l-1.445-6.286-5.097-4.995.255 1.378s.85 3.875 1.02 4.736h-3.569c.34-.86 1.7-4.564 1.7-4.564s.34-.947.594-1.55" fill="#051244"/></g></svg>