<svg width="32" height="32" viewBox="0 0 32 32" xmlns="http://www.w3.org/2000/svg"><title>B67285C0-D5FE-487E-BD90-95A43FDA54A2</title><g fill="none" fill-rule="evenodd"><circle stroke="#798484" opacity=".5" cx="16" cy="16" r="15.5"/><path d="M21.917 17.759c.564.55 1.16 1.069 1.666 1.676.225.269.436.547.597.86.23.445.022.934-.377.96h-2.478c-.64.053-1.15-.205-1.579-.643-.343-.348-.66-.72-.991-1.082a2.317 2.317 0 0 0-.446-.397c-.338-.22-.632-.152-.825.2-.197.36-.243.758-.261 1.158-.027.584-.204.737-.79.764-1.253.059-2.442-.131-3.546-.763-.975-.557-1.73-1.343-2.387-2.233-1.28-1.736-2.26-3.64-3.141-5.6-.199-.442-.054-.678.433-.687a68.963 68.963 0 0 1 2.427 0c.33.004.547.193.673.503a15.059 15.059 0 0 0 1.645 3.048c.179.253.361.505.622.683.287.197.505.132.64-.188a2.08 2.08 0 0 0 .144-.64c.064-.748.072-1.495-.04-2.24-.069-.466-.331-.767-.796-.855-.236-.045-.202-.133-.087-.268.2-.234.387-.378.761-.378h2.8c.442.086.54.284.6.729l.003 3.111c-.005.172.086.682.395.795.248.081.411-.117.56-.274.67-.712 1.15-1.553 1.578-2.424.189-.384.352-.781.51-1.179.118-.294.301-.44.633-.434l2.697.003c.08 0 .16 0 .239.014.454.078.579.274.438.717-.221.696-.651 1.277-1.072 1.858-.45.623-.93 1.224-1.376 1.85-.41.571-.378.859.131 1.356z" fill="#557fb8"/></g></svg>