<svg width="12" height="7" viewBox="0 0 12 7" xmlns="http://www.w3.org/2000/svg"><title>C01A80F3-DA0A-4511-823A-F74DC5C9676A</title><path d="M10.068 4.209c.388.379.798.735 1.146 1.153.154.184.3.376.41.59.158.307.015.643-.26.661H9.662c-.44.036-.79-.141-1.086-.442-.235-.24-.454-.496-.68-.744a1.593 1.593 0 0 0-.308-.273c-.232-.15-.434-.105-.567.138-.136.247-.166.52-.18.795-.018.402-.14.507-.542.526-.862.04-1.679-.09-2.439-.525-.67-.383-1.188-.923-1.64-1.535C1.339 3.36.665 2.05.059.703-.077.399.022.237.357.23.913.22 1.47.22 2.025.23c.227.003.377.132.463.346.301.74.67 1.443 1.131 2.095.123.174.249.347.428.47.197.135.347.09.44-.13.06-.14.086-.29.099-.44a6.567 6.567 0 0 0-.027-1.54C4.51.712 4.33.505 4.01.444c-.162-.03-.139-.09-.06-.184.14-.16.269-.26.526-.26H6.4c.303.06.371.196.412.501l.002 2.14c-.004.118.06.468.272.546.17.056.282-.08.384-.188.462-.49.79-1.068 1.085-1.667.13-.264.242-.537.351-.81.081-.203.207-.302.435-.299l1.854.002c.055 0 .11 0 .164.01.313.054.398.188.302.493-.152.479-.448.877-.737 1.277-.31.429-.64.842-.946 1.272-.282.393-.26.59.09.932z" fill="#557fb8" fill-rule="evenodd"/></svg>