<svg width="18" height="12" viewBox="0 0 18 12" xmlns="http://www.w3.org/2000/svg"><title>E8590834-C8E5-4A73-BDF5-A1C7987DD21E</title><defs><linearGradient x1="0%" y1="1.556%" y2="1.556%" id="a"><stop stop-color="#1EBF9D" offset="0%"/><stop stop-color="#1073B9" offset="100%"/></linearGradient></defs><g transform="translate(-284 -3166)" fill="url(#a)"><path d="M289.375 3176.294a1 1 0 0 0-.137 1.345.864.864 0 0 0 1.265.146 3.44 3.44 0 0 1 4.27 0 .863.863 0 0 0 1.265-.138 1 1 0 0 0-.13-1.346l-.007-.007a5.12 5.12 0 0 0-6.526 0zm-2.169-3.504a.924.924 0 0 0-.133 1.27.855.855 0 0 0 1.229.137 7.641 7.641 0 0 1 9.392 0 .855.855 0 0 0 1.23-.13.924.924 0 0 0-.126-1.27l-.008-.007a9.424 9.424 0 0 0-11.584 0z"/><path d="M284.335 3169.255a.846.846 0 0 0-.137 1.218.923.923 0 0 0 1.265.132c4.468-3.217 10.602-3.217 15.07 0a.923.923 0 0 0 1.265-.125.845.845 0 0 0-.137-1.225c-5.137-3.7-12.19-3.7-17.326 0z"/></g></svg>