<svg width="25" height="30" viewBox="0 0 25 30" xmlns="http://www.w3.org/2000/svg"><title>1ED57785-3C8A-4341-AC3E-DCF8D410FEBC</title><g fill="none"><path d="M1.977 12.75C.885 12.75 0 11.91 0 10.875 0 9.839.885 9 1.977 9h17.796c1.092 0 1.977.84 1.977 1.875v1.875H1.977z" fill="#995A3D"/><path d="M5.25 13.125V.375c0-.207.162-.375.362-.375h12.776c.2 0 .362.168.362.375v12.75a.368.368 0 0 1-.362.375H5.612a.368.368 0 0 1-.362-.375z" fill="#00AA96"/><path d="M24 25.066v2.96c0 1.09-.895 1.974-2 1.974H2c-1.104 0-2-.884-2-1.974V11.25c0 1.09.895 1.974 2 1.974h20c1.105 0 2 .883 2 1.973v9.869z" fill="#CD7A54"/><path d="M21.857 12.75H20.25c1.183 0 2.143.909 2.143 2.03v13.19c0 1.12-.96 2.029-2.143 2.029h1.607C23.041 30 24 29.091 24 27.97V14.78c0-1.12-.96-2.029-2.143-2.029z" fill="#BA6F4C"/><path d="M3 13.133V2.617c0-.203.162-.367.362-.367h12.776c.2 0 .362.164.362.367v10.516a.364.364 0 0 1-.362.367H3.362A.364.364 0 0 1 3 13.133z" fill="#00B39E"/><path d="M13.05 3.75c0 1.134.873 2.053 1.95 2.053V13.5H5.25V5.803c1.077 0 1.95-.92 1.95-2.053h5.85z" fill="#77D2C4"/><circle fill="#00B39E" cx="10.125" cy="9.375" r="1.125"/><path d="M2.032 16.216h21.925v-.985a1.981 1.981 0 0 0-1.993-1.97H2.032c-1.1 0-1.99-.879-1.993-1.965v2.95c0 1.088.892 1.97 1.993 1.97zM.039 25.077v2.954A1.98 1.98 0 0 0 2.032 30h19.932c1.1 0 1.993-.881 1.993-1.969v-.985H2.032c-1.1 0-1.993-.881-1.993-1.969z" fill="#D38764"/><path d="M23.775 18a.97.97 0 0 1 .975.964v4.822a.97.97 0 0 1-.975.964h-7.8a.97.97 0 0 1-.975-.964v-4.822a.97.97 0 0 1 .975-.964h7.8z" fill="#B06746"/><path d="M23.85 18H22.5c.497 0 .9.432.9.964v4.822c0 .532-.403.964-.9.964h1.35c.497 0 .9-.432.9-.964v-4.822c0-.532-.403-.964-.9-.964z" fill="#995A3D"/><circle fill="#F4B641" cx="18" cy="21.75" r="1.5"/><path d="M18 20.25c-.273 0-.53.073-.75.201a1.499 1.499 0 0 1 0 2.598A1.5 1.5 0 1 0 18 20.25z" fill="#FB8436"/><path d="M22.28 29.959c.054-.01.108-.024.16-.039l.04-.01.045-.015c.018-.006.036-.011.053-.018.058-.02.114-.043.169-.068l.02-.008.084-.042.006-.003c.02-.01.04-.022.06-.034l.028-.015.059-.036.026-.016.073-.05.01-.007.049-.038.03-.022.055-.046.02-.018a2.055 2.055 0 0 0 .13-.125c.005-.003.009-.008.013-.012.021-.022.042-.046.062-.07.002 0 .003-.002.004-.003l.062-.076a2.02 2.02 0 0 0 .054-.073l.005-.007c.015-.022.03-.044.043-.066l.011-.016c.07-.11.129-.229.176-.352v-.001c.023-.06.043-.122.06-.184l.002-.007a1.4 1.4 0 0 0 .022-.093l.001-.004c.006-.029.012-.058.016-.087l.003-.013.011-.086.002-.015a1.96 1.96 0 0 0 .008-.098v-.005c.002-.033.003-.066.003-.1v-1.016h-1.574v1.011c0 1.118-.939 2.024-2.098 2.024h1.574a2.163 2.163 0 0 0 .423-.041zm.101-15.134v1.012h1.574v-1.012a1.96 1.96 0 0 0-.304-1.05l-.008-.011a2.18 2.18 0 0 0-.046-.07l-.005-.007a2.086 2.086 0 0 0-.054-.073l-.011-.014a2.196 2.196 0 0 0-.051-.062l-.006-.007a2.136 2.136 0 0 0-.06-.067l-.02-.02-.05-.05-.025-.023-.047-.044-.041-.034-.036-.03-.046-.034-.033-.026-.038-.026-.044-.03-.039-.024-.046-.029a2.092 2.092 0 0 0-.082-.045l-.006-.003a2.14 2.14 0 0 0-.076-.038l-.015-.007a2.184 2.184 0 0 0-.07-.03c-.008-.004-.015-.008-.023-.01l-.073-.029-.022-.008-.066-.021a.16.16 0 0 0-.031-.01c-.023-.008-.047-.014-.07-.02l-.03-.008-.035-.008a2.156 2.156 0 0 0-.49-.056h-1.573c1.16 0 2.098.906 2.098 2.024z" fill="#CD7A54"/></g></svg>