<svg width="22" height="22" viewBox="0 0 22 22" xmlns="http://www.w3.org/2000/svg"><title>87A01FED-CAB7-477F-B230-17672CC303A7</title><defs><linearGradient x1="50.004%" y1="99.983%" x2="50.004%" y2="-.029%" id="a"><stop stop-color="#20B038" offset="0%"/><stop stop-color="#60D66A" offset="100%"/></linearGradient><linearGradient x1="49.979%" y1="100.001%" x2="49.979%" y2="-.046%" id="b"><stop stop-color="#F9F9F9" offset="0%"/><stop stop-color="#FFF" offset="100%"/></linearGradient></defs><g fill="none" fill-rule="evenodd"><path d="M.957 21.043l.956-4.782c-.409-1.889-.872-3.598-.956-5.74C1.04 5.426 5.528.958 11.478.958c2.234 0 4.741 1.038 6.696 2.87 1.827 1.923 2.87 4.43 2.87 6.695 0 5.875-4.488 10.343-9.566 10.521-.43-.178-.43-.178 0 0-2.105-.178-3.749-.597-4.782-.956l-5.74.956z" fill="url(#a)" fill-rule="nonzero"/><path d="M.81 21.211l1.452-5.282a10.18 10.18 0 0 1-1.36-5.095C.903 5.209 5.48.633 11.105.633a10.14 10.14 0 0 1 7.222 2.989 10.14 10.14 0 0 1 2.99 7.222c0 5.625-4.577 10.201-10.202 10.201-1.712 0-3.383-.425-4.877-1.245L.809 21.211zm5.665-3.269l.312.187a8.488 8.488 0 0 0 4.317 1.183c4.67 0 8.478-3.808 8.478-8.478a8.44 8.44 0 0 0-2.48-5.998 8.449 8.449 0 0 0-5.998-2.49c-4.68 0-8.489 3.808-8.489 8.478a8.46 8.46 0 0 0 1.297 4.514l.197.321-.86 3.134 3.226-.85z" fill="url(#b)" fill-rule="nonzero"/><path d="M8.55 6.558c-.186-.425-.393-.435-.57-.435-.145-.01-.322-.01-.488-.01a.948.948 0 0 0-.684.321c-.24.26-.893.872-.893 2.127 0 1.256.913 2.47 1.038 2.636.124.166 1.764 2.823 4.358 3.85 2.159.851 2.595.685 3.062.633.467-.041 1.504-.612 1.722-1.214.208-.591.208-1.11.146-1.214-.063-.104-.24-.166-.488-.301-.26-.125-1.505-.747-1.744-.83-.238-.083-.404-.125-.57.124-.166.26-.654.83-.81.997-.145.166-.3.186-.55.062-.26-.125-1.079-.395-2.054-1.266-.758-.675-1.267-1.515-1.422-1.764-.145-.26-.02-.395.114-.52.114-.113.26-.3.384-.446.124-.145.166-.259.26-.425.082-.166.04-.322-.021-.446-.063-.114-.56-1.37-.79-1.879z" fill="#FFF"/></g></svg>