<svg width="22" height="18" viewBox="0 0 22 18" xmlns="http://www.w3.org/2000/svg"><title>A9379227-11C7-4C39-8BA6-43444E8CF219</title><g fill="#08C"><circle cx="11.046" cy="14.581" r="2.569"/><path d="M17.185 8.392c-.038-.039-.079-.074-.118-.11l-.115-.109c-.02-.02-.04-.035-.065-.054a8.38 8.38 0 0 0-11.575.272l-.372.373-.514.514a1.612 1.612 0 0 0 .004 2.277 1.61 1.61 0 0 0 2.277.004l.887-.887a5.177 5.177 0 0 1 7.31-.001l.64.62c.621.62 1.633.62 2.257-.005.302-.3.468-.702.469-1.129a1.57 1.57 0 0 0-.465-1.125l-.62-.64z"/><path d="M21.56 5.217l-.533-.534c-.002-.002-.003-.005-.007-.006l-.422-.424a1.52 1.52 0 0 0-.239-.191C14.945-.691 6.711-.545 1.47 4.497c-.025.023-.053.039-.079.064l-.963.965c-.572.57-.569 1.5.006 2.074a1.466 1.466 0 0 0 2.074.006l.964-.963c.006-.008.011-.016.018-.021 4.238-4.095 10.962-4.12 15.234-.084l.758.76a1.47 1.47 0 0 0 2.076-.006 1.47 1.47 0 0 0 .004-2.075z"/></g></svg>